<svg width="40" height="40" viewBox="0 0 40 40" fill="none" xmlns="http://www.w3.org/2000/svg">
<path d="M9.2 38.224C8.88 38.224 8.592 38.112 8.336 37.888C8.112 37.632 8 37.344 8 37.024V33.424C8 32.464 8.4 31.664 9.2 31.024L13.664 26.656C16.704 24.352 18.992 22.56 20.528 21.28C22.096 20 23.28 18.848 24.08 17.824C24.912 16.768 25.328 15.776 25.328 14.848C25.328 12.48 24.144 11.296 21.776 11.296C20.528 11.296 19.568 11.68 18.896 12.448C18.224 13.184 17.776 14.112 17.552 15.232C17.36 15.968 16.816 16.336 15.92 16.336H9.584C9.296 16.336 9.04 16.24 8.816 16.048C8.624 15.824 8.528 15.584 8.528 15.328C8.592 13.216 9.168 11.312 10.256 9.616C11.376 7.888 12.928 6.528 14.912 5.536C16.896 4.512 19.184 4 21.776 4C24.464 4 26.784 4.432 28.736 5.296C30.688 6.16 32.16 7.376 33.152 8.944C34.176 10.512 34.688 12.336 34.688 14.416C34.688 16.72 33.968 18.8 32.528 20.656C31.12 22.512 28.96 24.528 26.048 26.704L22.064 30.688H34.208C34.56 30.688 34.848 30.8 35.072 31.024C35.296 31.248 35.408 31.536 35.408 31.888V37.024C35.408 37.344 35.296 37.632 35.072 37.888C34.848 38.112 34.56 38.224 34.208 38.224H9.2Z" fill="#CAAAD8"/>
<path d="M4.95971 36.2173L4.98166 36.2423L5.00675 36.2643C5.34765 36.5626 5.75084 36.724 6.2 36.724H31.208C31.6765 36.724 32.097 36.5702 32.4256 36.2416L32.4373 36.2298L32.4483 36.2173C32.7466 35.8764 32.908 35.4732 32.908 35.024V29.888C32.908 29.4195 32.7542 28.999 32.4256 28.6704C32.097 28.3418 31.6765 28.188 31.208 28.188H20.2711L23.3762 25.0829C26.2917 22.9017 28.4821 20.8614 29.9247 18.9603C31.4302 17.019 32.188 14.8324 32.188 12.416C32.188 10.2514 31.6542 8.33108 30.5726 6.67363C29.52 5.01133 27.9657 3.73612 25.9384 2.83879C23.9084 1.94027 21.5162 1.5 18.776 1.5C16.1183 1.5 13.7504 2.02513 11.6855 3.09022C9.62948 4.11881 8.00813 5.53627 6.83642 7.34405L6.83642 7.34405L6.83515 7.34602C5.69583 9.12203 5.09483 11.1149 5.02823 13.3129L5.028 13.3204V13.328C5.028 13.7213 5.17924 14.0734 5.43637 14.3734L5.4614 14.4026L5.49061 14.4276C5.80281 14.6952 6.17349 14.836 6.584 14.836H12.92C13.4324 14.836 13.9003 14.7311 14.2802 14.4741C14.6685 14.2115 14.9143 13.824 15.0358 13.3582L15.0395 13.3442L15.0423 13.3301C15.2511 12.286 15.6631 11.4446 16.2652 10.7851L16.2653 10.7852L16.2723 10.7773C16.8285 10.1416 17.6372 9.796 18.776 9.796C19.8829 9.796 20.6213 10.0724 21.0864 10.5376C21.5516 11.0027 21.828 11.7411 21.828 12.848C21.828 13.6231 21.48 14.5084 20.6873 15.5146L20.686 15.5162C19.9179 16.4994 18.7651 17.6247 17.2118 18.8927L17.2118 18.8927L17.2079 18.8959C15.6809 20.1684 13.4003 21.9548 10.362 24.2575L10.3369 24.2766L10.3143 24.2986L5.86764 28.6497C4.9712 29.375 4.5 30.309 4.5 31.424V35.024C4.5 35.4732 4.66142 35.8764 4.95971 36.2173Z" fill="#FFE9A9" stroke="#A788CE"/>
</svg>
