<svg width="40" height="40" viewBox="0 0 40 40" fill="none" xmlns="http://www.w3.org/2000/svg">
<path d="M21.208 38.08C18.072 38.08 15.432 37.6 13.288 36.64C11.176 35.648 9.608 34.432 8.584 32.992C7.592 31.552 7.064 30.112 7 28.672C7 28.384 7.096 28.144 7.288 27.952C7.512 27.76 7.768 27.664 8.056 27.664H14.68C15.064 27.664 15.368 27.744 15.592 27.904C15.816 28.032 16.024 28.256 16.216 28.576C16.824 30.144 18.504 30.928 21.256 30.928C22.824 30.928 24.04 30.56 24.904 29.824C25.768 29.088 26.2 28.096 26.2 26.848C26.2 24.448 24.6 23.248 21.4 23.248H16.024C15.672 23.248 15.368 23.136 15.112 22.912C14.888 22.656 14.776 22.352 14.776 22V19.168C14.776 18.432 15.048 17.888 15.592 17.536L23.32 11.2H10.072C9.752 11.2 9.464 11.088 9.208 10.864C8.984 10.608 8.872 10.32 8.872 10V5.248C8.872 4.896 8.984 4.608 9.208 4.384C9.432 4.128 9.72 4 10.072 4H32.44C32.792 4 33.08 4.128 33.304 4.384C33.528 4.608 33.64 4.896 33.64 5.248V9.52C33.64 10.192 33.384 10.72 32.872 11.104L25.768 17.584L26.104 17.68C28.984 18.096 31.272 19.088 32.968 20.656C34.664 22.224 35.512 24.48 35.512 27.424C35.512 29.568 34.888 31.456 33.64 33.088C32.424 34.688 30.728 35.92 28.552 36.784C26.408 37.648 23.96 38.08 21.208 38.08Z" fill="#CAAAD8"/>
<path d="M10.0754 35.0926L10.0754 35.0926L10.0837 35.0963C12.3096 36.093 15.024 36.58 18.208 36.58C21.0118 36.58 23.5247 36.1399 25.7381 35.2481C27.9836 34.3562 29.7584 33.0741 31.0377 31.391C32.3551 29.668 33.012 27.6723 33.012 25.424C33.012 22.3813 32.1323 19.976 30.3074 18.2889C28.654 16.7602 26.4848 15.7691 23.8308 15.2913L30.1921 9.48878C30.8238 9.00597 31.14 8.33161 31.14 7.52V3.248C31.14 2.78517 30.9898 2.36915 30.6693 2.04232C30.348 1.68182 29.9249 1.5 29.44 1.5H7.072C6.58708 1.5 6.16401 1.68183 5.84268 2.04233C5.52217 2.36916 5.372 2.78517 5.372 3.248V8C5.372 8.44916 5.53342 8.85235 5.83171 9.19325L5.85366 9.21834L5.87875 9.24029C6.21965 9.53858 6.62284 9.7 7.072 9.7H18.9215L12.2956 15.1325C11.6048 15.591 11.276 16.2998 11.276 17.168V20C11.276 20.4685 11.429 20.8907 11.7357 21.2413L11.7577 21.2663L11.7827 21.2883C12.1333 21.595 12.5555 21.748 13.024 21.748H18.4C19.9519 21.748 21.0247 22.0415 21.7 22.548C22.3483 23.0342 22.7 23.77 22.7 24.848C22.7 25.966 22.3203 26.8126 21.5798 27.4434C20.8355 28.0774 19.7503 28.428 18.256 28.428C15.5628 28.428 14.1736 27.6627 13.6822 26.3952L13.6667 26.3554L13.6447 26.3188C13.432 25.9641 13.1761 25.6687 12.8618 25.4825C12.5291 25.2531 12.119 25.164 11.68 25.164H5.056C4.64549 25.164 4.2748 25.3048 3.9626 25.5724L3.94802 25.5849L3.93445 25.5984C3.64255 25.8903 3.5 26.2603 3.5 26.672V26.6831L3.50049 26.6942C3.56947 28.2461 4.13845 29.775 5.17225 31.2757L5.1722 31.2757L5.17652 31.2818C6.26388 32.8109 7.90971 34.0753 10.0754 35.0926Z" fill="#FFE9A9" stroke="#A788CE"/>
</svg>
