<svg width="107" height="91" viewBox="0 0 107 91" fill="none" xmlns="http://www.w3.org/2000/svg">
<g filter="url(#filter0_d_1_3282)">
<path d="M35 14.5C35 12.2909 36.7909 10.5 39 10.5H73C75.2091 10.5 77 12.2909 77 14.5V36.5C77 38.7091 75.2091 40.5 73 40.5H39C36.7909 40.5 35 38.7091 35 36.5V30L30 25.5L35 21V14.5Z" fill="white"/>
</g>
<path d="M49.32 30.5C49.2133 30.5 49.1227 30.4627 49.048 30.388C48.9733 30.3133 48.936 30.2227 48.936 30.116V28.068H43.864C43.7573 28.068 43.6667 28.0307 43.592 27.956C43.5173 27.8813 43.48 27.7907 43.48 27.684V26.58C43.48 26.4093 43.5387 26.2493 43.656 26.1L48.376 19.572C48.4293 19.4867 48.5093 19.4227 48.616 19.38C48.7227 19.3267 48.84 19.3 48.968 19.3H50.728C50.8453 19.3 50.936 19.3373 51 19.412C51.0747 19.476 51.112 19.5667 51.112 19.684V26.164H52.552C52.6693 26.164 52.76 26.2013 52.824 26.276C52.8987 26.34 52.936 26.4307 52.936 26.548V27.684C52.936 27.7907 52.8987 27.8813 52.824 27.956C52.76 28.0307 52.6693 28.068 52.552 28.068H51.112V30.116C51.112 30.2227 51.0747 30.3133 51 30.388C50.936 30.4627 50.8453 30.5 50.728 30.5H49.32ZM45.736 26.228H48.984V21.636L45.736 26.228ZM54.6253 30.5C54.5186 30.5 54.4279 30.4627 54.3533 30.388C54.2786 30.3133 54.2413 30.2227 54.2413 30.116V28.5C54.2413 28.3933 54.2786 28.3027 54.3533 28.228C54.4279 28.1533 54.5186 28.116 54.6253 28.116H56.2413C56.3479 28.116 56.4386 28.1533 56.5133 28.228C56.5879 28.3027 56.6253 28.3933 56.6253 28.5V30.116C56.6253 30.2227 56.5879 30.3133 56.5133 30.388C56.4493 30.4627 56.3586 30.5 56.2413 30.5H54.6253ZM62.5731 30.66C61.6771 30.66 60.8878 30.4893 60.2051 30.148C59.5331 29.8067 59.0105 29.3373 58.6371 28.74C58.2745 28.1427 58.0931 27.4707 58.0931 26.724C58.0931 25.7853 58.5091 24.7507 59.3411 23.62L62.2531 19.62C62.3385 19.5133 62.4185 19.4333 62.4931 19.38C62.5678 19.3267 62.6745 19.3 62.8131 19.3H64.3331C64.4291 19.3 64.5038 19.3373 64.5571 19.412C64.6211 19.476 64.6531 19.556 64.6531 19.652C64.6531 19.7267 64.6318 19.796 64.5891 19.86L62.3491 22.948C62.5198 22.9053 62.7438 22.884 63.0211 22.884C63.7358 22.8947 64.3918 23.0707 64.9891 23.412C65.5971 23.7427 66.0771 24.196 66.4291 24.772C66.7918 25.348 66.9731 25.988 66.9731 26.692C66.9731 27.4173 66.7918 28.084 66.4291 28.692C66.0771 29.2893 65.5651 29.7693 64.8931 30.132C64.2318 30.484 63.4585 30.66 62.5731 30.66ZM62.5411 28.804C63.1385 28.804 63.6451 28.6227 64.0611 28.26C64.4771 27.8867 64.6851 27.3747 64.6851 26.724C64.6851 26.084 64.4771 25.5827 64.0611 25.22C63.6558 24.8467 63.1491 24.66 62.5411 24.66C61.9438 24.66 61.4371 24.8467 61.0211 25.22C60.6158 25.5827 60.4131 26.084 60.4131 26.724C60.4131 27.3747 60.6158 27.8867 61.0211 28.26C61.4371 28.6227 61.9438 28.804 62.5411 28.804Z" fill="#1D293F"/>
<defs>
<filter id="filter0_d_1_3282" x="0" y="0.5" width="107" height="90" filterUnits="userSpaceOnUse" color-interpolation-filters="sRGB">
<feFlood flood-opacity="0" result="BackgroundImageFix"/>
<feColorMatrix in="SourceAlpha" type="matrix" values="0 0 0 0 0 0 0 0 0 0 0 0 0 0 0 0 0 0 127 0" result="hardAlpha"/>
<feOffset dy="20"/>
<feGaussianBlur stdDeviation="15"/>
<feColorMatrix type="matrix" values="0 0 0 0 0.054902 0 0 0 0 0.054902 0 0 0 0 0.172549 0 0 0 0.2 0"/>
<feBlend mode="normal" in2="BackgroundImageFix" result="effect1_dropShadow_1_3282"/>
<feBlend mode="normal" in="SourceGraphic" in2="effect1_dropShadow_1_3282" result="shape"/>
</filter>
</defs>
</svg>
