<svg width="40" height="40" viewBox="0 0 40 40" fill="none" xmlns="http://www.w3.org/2000/svg">
<path d="M23.28 37.6C22.96 37.6 22.672 37.488 22.416 37.264C22.192 37.008 22.08 36.72 22.08 36.4V31.12H7.2C6.88 31.12 6.592 31.008 6.336 30.784C6.112 30.528 6 30.24 6 29.92V25.072C6 24.592 6.176 24.112 6.528 23.632L20.448 4.816C20.896 4.272 21.488 4 22.224 4H29.52C29.872 4 30.16 4.112 30.384 4.336C30.64 4.56 30.768 4.848 30.768 5.2V23.68H34.992C35.376 23.68 35.68 23.808 35.904 24.064C36.128 24.288 36.24 24.56 36.24 24.88V29.92C36.24 30.24 36.128 30.528 35.904 30.784C35.68 31.008 35.392 31.12 35.04 31.12H30.768V36.4C30.768 36.752 30.64 37.04 30.384 37.264C30.16 37.488 29.872 37.6 29.52 37.6H23.28ZM14.544 24.016H22.272V13.216L14.544 24.016Z" fill="#CAAAD8"/>
<path d="M19.0397 35.5933L19.0617 35.6183L19.0868 35.6403C19.4277 35.9386 19.8308 36.1 20.28 36.1H26.52C26.9828 36.1 27.3989 35.9498 27.7257 35.6293C28.0862 35.308 28.268 34.8849 28.268 34.4V29.62H32.04C32.5085 29.62 32.929 29.4662 33.2576 29.1376L33.2693 29.1258L33.2803 29.1133C33.5786 28.7724 33.74 28.3692 33.74 27.92V22.88C33.74 22.4344 33.5804 22.0391 33.2692 21.7222C32.9385 21.3517 32.4938 21.18 31.992 21.18H28.268V3.2C28.268 2.71509 28.0862 2.29203 27.7257 1.97069C27.3989 1.65017 26.9828 1.5 26.52 1.5H19.224C18.3462 1.5 17.6098 1.83305 17.062 2.49815L17.0538 2.50818L17.046 2.51863L3.12604 21.3346L3.1248 21.3363C2.72523 21.8812 2.5 22.4624 2.5 23.072V27.92C2.5 28.3692 2.66142 28.7724 2.95971 29.1133L2.98166 29.1383L3.00675 29.1603C3.34765 29.4586 3.75084 29.62 4.2 29.62H18.58V34.4C18.58 34.8492 18.7414 35.2524 19.0397 35.5933ZM18.772 12.774V21.516H12.5166L18.772 12.774Z" fill="#FFE9A9" stroke="#A788CE"/>
</svg>
