<svg width="40" height="40" viewBox="0 0 40 40" fill="none" xmlns="http://www.w3.org/2000/svg">
<path d="M20.968 38.128C18.056 38.128 15.544 37.664 13.432 36.736C11.352 35.808 9.768 34.576 8.68 33.04C7.624 31.504 7.064 29.824 7 28C7 27.712 7.096 27.472 7.288 27.28C7.48 27.088 7.72 26.992 8.008 26.992H14.776C15.544 26.992 16.072 27.296 16.36 27.904C16.808 28.96 17.4 29.728 18.136 30.208C18.904 30.688 19.848 30.928 20.968 30.928C22.344 30.928 23.48 30.512 24.376 29.68C25.304 28.848 25.768 27.68 25.768 26.176C25.768 24.864 25.32 23.776 24.424 22.912C23.528 22.048 22.376 21.616 20.968 21.616C20.168 21.616 19.528 21.728 19.048 21.952C18.568 22.144 18.104 22.416 17.656 22.768C17.176 23.152 16.76 23.344 16.408 23.344H9.736C9.448 23.344 9.192 23.248 8.968 23.056C8.776 22.832 8.68 22.576 8.68 22.288L10.456 5.44C10.488 4.992 10.648 4.64 10.936 4.384C11.256 4.128 11.624 4 12.04 4H31.576C31.928 4 32.216 4.112 32.44 4.336C32.664 4.56 32.776 4.848 32.776 5.2V10C32.776 10.32 32.664 10.608 32.44 10.864C32.216 11.088 31.928 11.2 31.576 11.2H17.608L17.032 17.104C17.8 16.56 18.664 16.16 19.624 15.904C20.584 15.616 21.832 15.472 23.368 15.472C25.416 15.472 27.336 15.936 29.128 16.864C30.92 17.76 32.344 19.04 33.4 20.704C34.488 22.368 35.032 24.272 35.032 26.416C35.032 28.656 34.472 30.672 33.352 32.464C32.232 34.224 30.6 35.616 28.456 36.64C26.344 37.632 23.848 38.128 20.968 38.128Z" fill="#CAAAD8"/>
<path d="M10.2283 35.1926L10.2309 35.1938C12.4206 36.1559 15.0043 36.628 17.968 36.628C20.9047 36.628 23.4764 36.1222 25.6686 35.0926L25.6715 35.0912C27.888 34.0326 29.5968 32.582 30.7738 30.7324L30.776 30.729C31.9487 28.8527 32.532 26.7438 32.532 24.416C32.532 22.184 31.9645 20.1844 30.8204 18.4333C29.7157 16.6936 28.2241 15.3537 26.3548 14.4184C24.4916 13.4541 22.4936 12.972 20.368 12.972C18.8101 12.972 17.511 13.1171 16.4877 13.4229C15.8267 13.5997 15.2062 13.8421 14.6274 14.1504L15.0616 9.7H28.576C29.0445 9.7 29.465 9.54616 29.7936 9.21755L29.8053 9.20578L29.8163 9.19325C30.1146 8.85235 30.276 8.44916 30.276 8V3.2C30.276 2.73154 30.1222 2.31105 29.7936 1.98245C29.465 1.65385 29.0445 1.5 28.576 1.5H9.04C8.51233 1.5 8.03376 1.66548 7.62365 1.99357L7.61352 2.00167L7.60382 2.0103C7.20437 2.36536 6.9991 2.84433 6.95792 3.39554L5.18276 20.2356L5.18 20.2617V20.288C5.18 20.6985 5.32077 21.0692 5.58837 21.3814L5.6134 21.4106L5.64261 21.4356C5.95481 21.7032 6.3255 21.844 6.736 21.844H13.408C13.9309 21.844 14.4579 21.5664 14.9666 21.1598C15.3804 20.835 15.8028 20.5886 16.2337 20.4162L16.2467 20.411L16.2594 20.4051C16.6482 20.2237 17.2072 20.116 17.968 20.116C19.2649 20.116 20.2866 20.5098 21.0769 21.2719C21.8695 22.0361 22.268 22.9916 22.268 24.176C22.268 25.5699 21.8428 26.59 21.0422 27.3077L21.0422 27.3077L21.0358 27.3136C20.2441 28.0488 19.2349 28.428 17.968 28.428C16.9217 28.428 16.0761 28.2047 15.4051 27.7866C14.776 27.3749 14.2403 26.6988 13.8203 25.7087L13.8163 25.6993L13.8119 25.69C13.629 25.304 13.3588 24.9947 12.9975 24.7867C12.6402 24.581 12.2251 24.492 11.776 24.492H5.008C4.59632 24.492 4.22634 24.6346 3.93445 24.9264C3.64255 25.2183 3.5 25.5883 3.5 26V26.0088L3.50031 26.0175C3.56772 27.9388 4.15927 29.7106 5.26798 31.3233L5.26794 31.3233L5.27199 31.329C6.42173 32.9522 8.0836 34.2358 10.2283 35.1926Z" fill="#FFE9A9" stroke="#A788CE"/>
</svg>
