<svg width="26" height="27" viewBox="0 0 26 27" fill="none" xmlns="http://www.w3.org/2000/svg">
<g opacity="0.5">
<path fill-rule="evenodd" clip-rule="evenodd" d="M11.0881 9.71747L12.0907 7.34249L13.066 9.71747H11.0881ZM13.3823 5.53516H10.8405L7.59602 12.8163H9.80147L10.3838 11.3807H13.7253L14.3242 12.8163H16.5854L13.3823 5.53516Z" fill="#E1EDF8"/>
<path fill-rule="evenodd" clip-rule="evenodd" d="M22.9499 5.53516L21.293 9.99256L19.7057 5.53516H16.5859V12.8163H18.5708V7.78384L20.3961 12.8163H22.1885L24.0269 7.78384V12.8163H26.0002V5.53516H22.9499Z" fill="#E1EDF8"/>
<path fill-rule="evenodd" clip-rule="evenodd" d="M10.3953 13.8613H16.5856V15.5979H12.3801V16.673H16.5054V18.3553H12.3801V19.4374H16.5856V21.1429H10.3953V13.8613Z" fill="#E1EDF8"/>
<path fill-rule="evenodd" clip-rule="evenodd" d="M23.405 13.8613L21.2931 16.2001L19.2292 13.8613H16.5859L20.0161 17.5021L16.5859 21.1429H19.1772L21.2931 18.7521L23.405 21.1429H26.0003V21.1428L22.5701 17.5021L26.0003 13.8614V13.8613H23.405Z" fill="#E1EDF8"/>
<path fill-rule="evenodd" clip-rule="evenodd" d="M0 0.291016V26.291H26V22.1807H22.8689L21.2928 20.413L19.6446 22.1807H9.30705V13.8612H5.94132L10.1149 4.512H14.0765L15.5519 7.71682V4.512H20.441H22.2087H26V0.291016H0Z" fill="#E1EDF8"/>
<path fill-rule="evenodd" clip-rule="evenodd" d="M24.0253 17.5019L26.0002 19.594V15.4238L24.0253 17.5019Z" fill="#E1EDF8"/>
</g>
</svg>
