<svg width="501" height="320" viewBox="0 0 501 320" fill="none" xmlns="http://www.w3.org/2000/svg">
<path d="M366.551 11.9126H268.652V75.8317H366.551V11.9126Z" fill="#E5EDF9"/>
<path d="M268.823 75.6756L268.652 11.9126V75.8317H366.551L268.823 75.6756Z" fill="#1D375E"/>
<path d="M366.551 11.9126H268.652V75.8317L269.508 12.7685H365.794L366.551 75.8317V11.9126Z" fill="#1D375E"/>
<path d="M366.551 79.5811H268.652V143.5H366.551V79.5811Z" fill="#E5EDF9"/>
<path d="M366.551 79.5815H268.652L366.222 79.9552L366.551 143.501V79.5815Z" fill="#1D375E"/>
<path d="M366.551 143.501V79.5815L366.222 142.862L269.936 142.006L268.652 79.5815V143.501H366.551Z" fill="#1D375E"/>
<path d="M287.867 91.855H278.353V101.369H287.867V91.855Z" fill="white"/>
<path d="M278.503 101.219V92.005H287.717V101.219H278.503Z" stroke="#1D375E" stroke-opacity="0.3" stroke-width="0.3"/>
<path d="M299.358 91.855H289.845V101.369H299.358V91.855Z" fill="#D3DBE7"/>
<path d="M310.867 91.855H301.353V101.369H310.867V91.855Z" fill="white"/>
<path d="M301.503 101.219V92.005H310.717V101.219H301.503Z" stroke="#1D375E" stroke-opacity="0.3" stroke-width="0.3"/>
<path d="M322.358 91.855H312.845V101.369H322.358V91.855Z" fill="white"/>
<path d="M312.995 101.219V92.005H322.208V101.219H312.995Z" stroke="#1D375E" stroke-opacity="0.3" stroke-width="0.3"/>
<path d="M333.867 91.855H324.353V101.369H333.867V91.855Z" fill="white"/>
<path d="M324.503 101.219V92.005H333.717V101.219H324.503Z" stroke="#1D375E" stroke-opacity="0.3" stroke-width="0.3"/>
<path d="M345.358 91.855H335.844V101.369H345.358V91.855Z" fill="white"/>
<path d="M335.994 101.219V92.005H345.208V101.219H335.994Z" stroke="#1D375E" stroke-opacity="0.3" stroke-width="0.3"/>
<path d="M356.866 91.855H347.353V101.369H356.866V91.855Z" fill="white"/>
<path d="M347.503 101.219V92.005H356.716V101.219H347.503Z" stroke="#1D375E" stroke-opacity="0.3" stroke-width="0.3"/>
<path d="M287.867 103.451H278.353V112.964H287.867V103.451Z" fill="white"/>
<path d="M278.503 112.814V103.601H287.717V112.814H278.503Z" stroke="#1D375E" stroke-opacity="0.3" stroke-width="0.3"/>
<path d="M299.358 103.451H289.845V112.964H299.358V103.451Z" fill="white"/>
<path d="M289.995 112.814V103.601H299.208V112.814H289.995Z" stroke="#1D375E" stroke-opacity="0.3" stroke-width="0.3"/>
<path d="M310.867 103.451H301.353V112.964H310.867V103.451Z" fill="white"/>
<path d="M301.503 112.814V103.601H310.717V112.814H301.503Z" stroke="#1D375E" stroke-opacity="0.3" stroke-width="0.3"/>
<path d="M322.358 103.451H312.845V112.964H322.358V103.451Z" fill="white"/>
<path d="M312.995 112.814V103.601H322.208V112.814H312.995Z" stroke="#1D375E" stroke-opacity="0.3" stroke-width="0.3"/>
<path d="M333.867 103.451H324.353V112.964H333.867V103.451Z" fill="#D3DBE7"/>
<path d="M345.358 103.451H335.844V112.964H345.358V103.451Z" fill="white"/>
<path d="M335.994 112.814V103.601H345.208V112.814H335.994Z" stroke="#1D375E" stroke-opacity="0.3" stroke-width="0.3"/>
<path d="M356.866 103.451H347.353V112.964H356.866V103.451Z" fill="white"/>
<path d="M347.503 112.814V103.601H356.716V112.814H347.503Z" stroke="#1D375E" stroke-opacity="0.3" stroke-width="0.3"/>
<path d="M287.867 115.026H278.353V124.54H287.867V115.026Z" fill="white"/>
<path d="M278.503 124.39V115.176H287.717V124.39H278.503Z" stroke="#1D375E" stroke-opacity="0.3" stroke-width="0.3"/>
<path d="M299.358 115.026H289.845V124.54H299.358V115.026Z" fill="white"/>
<path d="M289.995 124.39V115.176H299.208V124.39H289.995Z" stroke="#1D375E" stroke-opacity="0.3" stroke-width="0.3"/>
<path d="M310.867 115.026H301.353V124.54H310.867V115.026Z" fill="white"/>
<path d="M301.503 124.39V115.176H310.717V124.39H301.503Z" stroke="#1D375E" stroke-opacity="0.3" stroke-width="0.3"/>
<path d="M322.358 115.026H312.845V124.54H322.358V115.026Z" fill="white"/>
<path d="M312.995 124.39V115.176H322.208V124.39H312.995Z" stroke="#1D375E" stroke-opacity="0.3" stroke-width="0.3"/>
<path d="M333.867 115.026H324.353V124.54H333.867V115.026Z" fill="white"/>
<path d="M324.503 124.39V115.176H333.717V124.39H324.503Z" stroke="#1D375E" stroke-opacity="0.3" stroke-width="0.3"/>
<path d="M345.358 115.026H335.844V124.54H345.358V115.026Z" fill="white"/>
<path d="M335.994 124.39V115.176H345.208V124.39H335.994Z" stroke="#1D375E" stroke-opacity="0.3" stroke-width="0.3"/>
<path d="M356.866 115.026H347.353V124.54H356.866V115.026Z" fill="white"/>
<path d="M347.503 124.39V115.176H356.716V124.39H347.503Z" stroke="#1D375E" stroke-opacity="0.3" stroke-width="0.3"/>
<path d="M287.867 126.604H278.353V136.118H287.867V126.604Z" fill="white"/>
<path d="M278.503 135.968V126.754H287.717V135.968H278.503Z" stroke="#1D375E" stroke-opacity="0.3" stroke-width="0.3"/>
<path d="M299.358 126.604H289.845V136.118H299.358V126.604Z" fill="white"/>
<path d="M289.995 135.968V126.754H299.208V135.968H289.995Z" stroke="#1D375E" stroke-opacity="0.3" stroke-width="0.3"/>
<path d="M310.867 126.604H301.353V136.118H310.867V126.604Z" fill="white"/>
<path d="M301.503 135.968V126.754H310.717V135.968H301.503Z" stroke="#1D375E" stroke-opacity="0.3" stroke-width="0.3"/>
<path d="M322.358 126.604H312.845V136.118H322.358V126.604Z" fill="white"/>
<path d="M312.995 135.968V126.754H322.208V135.968H312.995Z" stroke="#1D375E" stroke-opacity="0.3" stroke-width="0.3"/>
<path d="M333.867 126.604H324.353V136.118H333.867V126.604Z" fill="white"/>
<path d="M324.503 135.968V126.754H333.717V135.968H324.503Z" stroke="#1D375E" stroke-opacity="0.3" stroke-width="0.3"/>
<path d="M345.358 126.604H335.844V136.118H345.358V126.604Z" fill="white"/>
<path d="M335.994 135.968V126.754H345.208V135.968H335.994Z" stroke="#1D375E" stroke-opacity="0.3" stroke-width="0.3"/>
<path d="M356.866 126.604H347.353V136.118H356.866V126.604Z" fill="white"/>
<path d="M347.503 135.968V126.754H356.716V135.968H347.503Z" stroke="#1D375E" stroke-opacity="0.3" stroke-width="0.3"/>
<path fill-rule="evenodd" clip-rule="evenodd" d="M352.176 106.937C353.417 105.779 355.781 103.644 356.069 103.918C356.352 104.187 354.688 106.877 353.735 108.361C354.776 109.55 356.709 111.861 356.462 112.355C356.226 112.827 353.675 111.148 352.173 110.104C350.874 111.17 348.651 112.94 348.455 112.729C348.263 112.522 349.744 110.191 350.683 108.76C349.802 107.496 347.798 104.554 348.061 104.291C348.302 104.05 350.788 105.881 352.176 106.937Z" fill="#EE684E"/>
<path fill-rule="evenodd" clip-rule="evenodd" d="M340.936 106.937C342.176 105.778 344.54 103.644 344.828 103.918C345.111 104.187 343.447 106.877 342.494 108.361C343.535 109.55 345.469 111.861 345.221 112.355C344.986 112.827 342.434 111.148 340.932 110.104C339.633 111.17 337.41 112.94 337.214 112.729C337.022 112.522 338.503 110.19 339.443 108.76C338.561 107.496 336.558 104.554 336.821 104.291C337.062 104.05 339.547 105.881 340.936 106.937Z" fill="#EE684E"/>
<path fill-rule="evenodd" clip-rule="evenodd" d="M340.815 118.178C342.056 117.019 344.419 114.884 344.708 115.158C344.991 115.428 343.327 118.118 342.374 119.602C343.414 120.79 345.348 123.102 345.101 123.596C344.865 124.068 342.313 122.389 340.812 121.345C339.513 122.411 337.29 124.181 337.094 123.97C336.902 123.763 338.383 121.431 339.322 120C338.441 118.737 336.437 115.795 336.7 115.531C336.941 115.29 339.427 117.122 340.815 118.178Z" fill="#EE684E"/>
<path fill-rule="evenodd" clip-rule="evenodd" d="M305.724 106.937C306.965 105.779 309.329 103.644 309.617 103.918C309.9 104.187 308.236 106.877 307.283 108.361C308.324 109.55 310.257 111.861 310.01 112.355C309.774 112.827 307.223 111.148 305.721 110.104C304.422 111.17 302.199 112.94 302.003 112.729C301.811 112.522 303.292 110.191 304.231 108.76C303.35 107.496 301.346 104.554 301.609 104.291C301.85 104.05 304.336 105.881 305.724 106.937Z" fill="#EE684E"/>
<path fill-rule="evenodd" clip-rule="evenodd" d="M294.363 118.37C295.603 117.211 297.967 115.077 298.255 115.351C298.538 115.62 296.874 118.31 295.921 119.794C296.962 120.983 298.896 123.294 298.648 123.788C298.413 124.26 295.861 122.581 294.359 121.537C293.06 122.603 290.837 124.373 290.641 124.162C290.449 123.956 291.93 121.624 292.87 120.193C291.988 118.929 289.985 115.987 290.248 115.724C290.489 115.483 292.974 117.314 294.363 118.37Z" fill="#EE684E"/>
<path d="M276.205 72.7964H272.489V82.617H276.205V72.7964Z" fill="#475569"/>
<path d="M284.866 72.7964H281.149V82.617H284.866V72.7964Z" fill="#475569"/>
<path d="M293.51 72.7964H289.793V82.617H293.51V72.7964Z" fill="#475569"/>
<path d="M302.171 72.7964H298.454V82.617H302.171V72.7964Z" fill="#475569"/>
<path d="M310.816 72.7964H307.099V82.617H310.816V72.7964Z" fill="#475569"/>
<path d="M319.46 72.7964H315.743V82.617H319.46V72.7964Z" fill="#475569"/>
<path d="M328.121 72.7964H324.405V82.617H328.121V72.7964Z" fill="#475569"/>
<path d="M336.765 72.7964H333.048V82.617H336.765V72.7964Z" fill="#475569"/>
<path d="M345.426 72.7964H341.71V82.617H345.426V72.7964Z" fill="#475569"/>
<path d="M354.072 72.7964H350.355V82.617H354.072V72.7964Z" fill="#475569"/>
<path d="M362.715 72.7964H358.998V82.617H362.715V72.7964Z" fill="#475569"/>
<path d="M4.14612 52.6777V180.338H95.5568V52.6777H4.14612ZM92.8376 177.62H6.86531V55.3949H92.8376V177.62Z" fill="#D3DBE7"/>
<path d="M92.951 55.1074H6.84491V177.615H92.951V55.1074Z" fill="#475569"/>
<path d="M81.3056 128.425L81.9731 129.783L83.4614 129.997L82.3797 131.048L82.6328 132.529L81.3056 131.831L79.9708 132.529L80.2239 131.048L79.1422 129.997L80.6382 129.783L81.3056 128.425Z" fill="#FFE9A9"/>
<path d="M40.431 125.172L41.0985 126.522L42.5868 126.745L41.5051 127.796L41.7659 129.276L40.431 128.578L39.0962 129.276L39.3493 127.796L38.2753 126.745L39.7636 126.522L40.431 125.172Z" fill="#FFE9A9"/>
<path d="M22.5103 158.42L23.1777 159.771L24.6737 159.985L23.592 161.036L23.8451 162.525L22.5103 161.819L21.1831 162.525L21.4362 161.036L20.3546 159.985L21.8505 159.771L22.5103 158.42Z" fill="#FFE9A9"/>
<path d="M81.3058 90.4575L81.7124 91.2937L82.633 91.4241L81.9732 92.0762L82.1266 92.9968L81.3058 92.5595L80.4772 92.9968L80.6383 92.0762L79.9709 91.4241L80.8915 91.2937L81.3058 90.4575Z" fill="#FFE9A9"/>
<path d="M17.6697 121.03L18.084 121.858L19.0046 121.996L18.3371 122.648L18.4906 123.561L17.6697 123.132L16.8488 123.561L17.0023 122.648L16.3348 121.996L17.2554 121.858L17.6697 121.03Z" fill="#DBDBDB"/>
<path d="M71.1409 157.155L71.5551 157.983L72.4757 158.121L71.8083 158.773L71.9694 159.686L71.1409 159.257L70.32 159.686L70.4811 158.773L69.8137 158.121L70.7343 157.983L71.1409 157.155Z" fill="#FFE9A9"/>
<path d="M43.9217 95.7358L44.3282 96.572L45.2488 96.7025L44.5891 97.3545L44.7425 98.2675L43.9217 97.8379L43.0931 98.2675L43.2542 97.3545L42.5868 96.7025L43.5074 96.572L43.9217 95.7358Z" fill="#FFE9A9"/>
<path d="M79.2915 83.2582C78.4721 84.6869 77.31 85.8891 75.9098 86.7563C74.5097 87.6235 72.9156 88.1285 71.2716 88.2256C69.6275 88.3227 67.9851 88.0089 66.4926 87.3125C65.0001 86.6162 63.7045 85.5591 62.7227 84.2368C61.7409 82.9145 61.1037 81.3686 60.8688 79.7385C60.6338 78.1084 60.8085 76.4454 61.3769 74.8997C61.9454 73.3539 62.8898 71.9741 64.1249 70.8846C65.36 69.7951 66.8469 69.0303 68.4515 68.6592C67.1955 69.234 66.0838 70.082 65.1975 71.1414C64.3112 72.2008 63.6727 73.4448 63.3286 74.7825C62.9845 76.1202 62.9436 77.5179 63.2087 78.8734C63.4739 80.229 64.0384 81.5082 64.8612 82.6177C65.684 83.7271 66.7441 84.6388 67.9643 85.2862C69.1845 85.9335 70.5338 86.3002 71.9138 86.3594C73.2937 86.4185 74.6695 86.1688 75.9406 85.6283C77.2117 85.0878 78.3461 84.2702 79.2608 83.2352L79.2915 83.2582Z" fill="#FFE9A9"/>
<path d="M51.2557 55.813H48.54V178.973H51.2557V55.813Z" fill="#D3DBE7"/>
<path d="M122.151 310.143C91.9419 306.963 124.058 278.199 124.058 278.199L193.599 278.098C193.599 278.098 190.665 293.271 193.106 295.218C194.724 296.482 234.256 302.634 255.175 308.534C231.574 308.534 132.342 311.216 122.151 310.143Z" fill="#37474F"/>
<path d="M115.178 306.388C95.3319 307.997 117.433 278.149 117.433 278.149H185.545C184.24 286.089 182.169 293.885 179.362 301.426C179.362 311.215 175.729 310.331 115.178 306.388Z" fill="#37474F"/>
<path d="M191.563 296.609C189.538 297.063 187.558 297.697 185.646 298.505C183.648 299.281 181.68 300.124 179.741 301.034C175.951 302.913 172.266 304.998 168.704 307.28C168.59 307.343 168.704 307.495 168.817 307.445C172.61 305.485 176.492 303.727 180.399 302.046L186.025 299.618C187.922 298.796 189.932 298.101 191.728 297.089C191.762 297.051 191.786 297.004 191.796 296.953C191.807 296.902 191.803 296.85 191.787 296.801C191.77 296.752 191.74 296.708 191.701 296.675C191.662 296.641 191.614 296.618 191.563 296.609Z" fill="#263238"/>
<path d="M187.378 279.413C186.582 282.599 185.874 285.798 184.963 288.946C184.546 290.4 184.142 291.867 183.585 293.271C183.13 294.459 182.422 295.799 181.057 296.077C179.476 296.381 179.021 295.028 179.147 293.726C179.274 292.423 179.666 290.805 179.957 289.376C180.285 287.72 180.627 286.076 180.918 284.407C181.069 283.585 181.904 279.704 181.916 279.653C181.929 279.603 181.916 279.501 181.828 279.413C181.808 279.398 181.783 279.389 181.758 279.389C181.733 279.389 181.709 279.398 181.689 279.413C181.164 280.466 180.77 281.578 180.513 282.726C180.07 284.243 179.64 285.76 179.249 287.29C178.857 288.82 178.477 290.362 178.098 291.892C177.702 293.028 177.598 294.246 177.794 295.433C177.939 296 178.264 296.505 178.72 296.872C179.176 297.239 179.738 297.448 180.323 297.468C180.323 297.569 180.197 297.671 180.159 297.772C180.02 298.088 179.919 298.417 179.792 298.745C179.666 299.074 179.565 299.403 179.463 299.731C179.362 300.06 179.4 300.06 179.375 300.225C179.35 300.389 179.375 300.591 179.375 300.781C179.364 300.843 179.375 300.907 179.406 300.961C179.438 301.016 179.487 301.057 179.546 301.079C179.606 301.1 179.67 301.099 179.729 301.077C179.788 301.055 179.837 301.013 179.868 300.958C179.944 300.794 180.07 300.667 180.159 300.515C180.255 300.343 180.332 300.161 180.386 299.972C180.5 299.656 180.589 299.34 180.677 299.011C180.766 298.682 180.854 298.366 180.905 298.05C180.938 297.853 180.96 297.655 180.968 297.456C181.632 297.4 182.267 297.159 182.801 296.76C183.71 295.999 184.374 294.988 184.711 293.852C185.191 292.588 185.558 291.159 185.975 289.806C186.951 286.455 187.628 283.023 187.998 279.552C188.016 279.47 188.001 279.384 187.956 279.313C187.911 279.242 187.84 279.191 187.758 279.173C187.676 279.154 187.589 279.169 187.518 279.214C187.447 279.259 187.397 279.331 187.378 279.413Z" fill="#263238"/>
<path d="M172.319 204.006C177.819 230.558 189.376 264.228 198.72 271.182C206.243 276.783 246.172 287.227 248.397 287.518C253.922 288.188 265.87 248.601 260.004 247.589C252.253 246.249 218.444 243.619 216.522 241.571C214.6 239.522 202.386 222.213 188.706 202.274C179.16 188.492 168.918 187.531 172.319 204.006Z" fill="#FCE1DC"/>
<path d="M243.997 285.33C249.05 288.052 254.289 290.414 259.675 292.397C263.974 293.738 276.441 297.291 278.388 292.701C279.728 289.578 272.635 286.632 267.679 284.445C265.062 283.281 261.863 280.449 262.685 278.768C264.101 275.834 270.84 278.957 275.252 281.65C283.774 286.86 295.09 296.14 300.464 291.866C302.5 290.261 300.249 287.188 296.924 284.154C302.348 287.719 308.151 290.678 310.478 288.971C311.805 287.997 311.894 286.632 311.199 285.051C311.883 285.399 312.657 285.53 313.417 285.429C314.178 285.327 314.89 284.997 315.46 284.483C317.293 282.649 316.471 279.868 314.574 276.997C314.913 276.97 315.241 276.861 315.529 276.681C315.817 276.5 316.058 276.253 316.231 275.961C320.138 270.271 301.551 253.303 295.027 251.609C275.847 246.615 255.301 247.816 255.301 247.816C247.601 253.72 243.984 285.254 243.997 285.33Z" fill="#F7A9A0"/>
<path d="M272.724 268.136C277.297 268.955 281.646 270.735 285.481 273.357C290.299 276.683 293.459 280.539 297.48 284.421C297.581 284.522 297.48 284.699 297.316 284.585C295.407 282.739 287.454 275.734 285.393 274.179C281.684 271.259 277.361 269.218 272.749 268.211C272.749 268.211 272.673 268.123 272.724 268.136Z" fill="#263238"/>
<path d="M276.491 260.043C281.617 261.369 286.595 263.211 291.348 265.543C296.405 268.274 300.363 272.636 304.244 276.834C306.558 279.363 308.834 281.891 311.047 284.559C311.135 284.673 310.983 284.837 310.882 284.724C306.963 280.391 302.908 276.176 298.719 272.08C294.861 268.272 290.29 265.264 285.266 263.229C282.383 262.066 279.425 261.118 276.479 260.182C276.415 260.106 276.441 260.043 276.491 260.043Z" fill="#263238"/>
<path d="M282.105 252.988C287.011 254.113 291.284 255.061 295.583 257.792C301.286 261.409 306.722 267.414 308.644 269.538C310.743 271.89 312.779 274.318 314.764 276.758C314.852 276.859 314.675 277.011 314.6 276.91C310.03 271.541 305.118 266.473 299.895 261.737C297.44 259.444 294.647 257.542 291.613 256.098C288.535 254.818 285.354 253.798 282.105 253.051V252.988Z" fill="#263238"/>
<path d="M257.703 246.134L242.366 288.491C242.366 288.491 200.313 276.087 194.749 268.779C189.186 261.471 175.189 224.817 172.168 205.181C169.146 185.546 178.97 189.604 187.34 199.542C195.71 209.48 216.61 240.242 217.318 240.71C218.026 241.178 257.703 246.134 257.703 246.134Z" fill="#A788CE"/>
<path d="M235.968 278.477C236.537 277.061 237.144 275.67 237.675 274.242L240.988 265.391C242.075 262.42 243.162 259.436 244.225 256.452C245.287 253.468 246.235 250.421 247.348 247.45C247.348 247.31 247.196 247.222 247.145 247.361C245.881 250.282 244.541 253.139 243.352 256.073C242.164 259.006 240.95 262.066 239.825 265.088C238.699 268.109 237.675 271.055 236.664 274.052C236.158 275.569 235.753 277.112 235.285 278.629C234.818 280.146 234.337 281.562 234.021 283.067C234.021 283.168 234.148 283.206 234.185 283.067C234.843 281.537 235.323 280.007 235.968 278.477Z" fill="#263238"/>
<path opacity="0.1" d="M224.032 282.586C211.957 278.376 197.822 272.8 194.749 268.766C189.186 261.471 175.177 224.817 172.167 205.181C170.739 195.863 172.167 191.867 175.025 191.273L224.032 282.586Z" fill="black"/>
<path d="M195.091 286.745C193.105 288.667 108.064 297.531 107.634 296.962C106.509 295.406 122.402 215.612 156.464 188.112C162.457 183.269 172.471 185.292 176.997 188.213C179.261 189.667 185.532 201.122 187.34 211.313C189.148 221.504 196.342 285.519 195.091 286.745Z" fill="#A788CE"/>
<path d="M157.893 210.276C154.606 223.881 137.663 272.231 133.516 276.428C128.458 281.423 106.686 296.785 99.0744 276.327C93.8019 262.153 129.634 212.489 146.552 196.469C154.833 188.643 163.406 187.505 157.893 210.276Z" fill="#A788CE"/>
<path d="M157.298 220.126C156.464 221.39 155.592 222.768 154.77 224.134C154.605 224.412 154.466 224.69 154.315 224.968C154.58 224.071 154.858 223.16 155.098 222.263C155.743 219.936 156.262 217.584 156.831 215.245C156.838 215.202 156.829 215.157 156.805 215.12C156.78 215.083 156.743 215.056 156.7 215.045C156.658 215.034 156.612 215.039 156.573 215.06C156.534 215.08 156.504 215.115 156.489 215.157C155.832 217.167 155.098 219.152 154.428 221.163C153.758 223.173 153.164 224.956 152.582 226.903C151.284 230.856 149.948 234.805 148.574 238.75C145.881 246.589 142.96 254.34 139.888 262.04C138.181 266.301 136.436 270.549 134.831 274.848C134.831 274.962 134.97 275.038 135.033 274.924C138.782 267.536 142.1 259.937 144.971 252.165C147.955 244.49 150.711 236.727 153.139 228.863L153.733 226.903L153.998 226.486C154.403 225.803 154.808 225.107 155.187 224.412C155.958 223.021 156.628 221.567 157.336 220.126H157.298Z" fill="#263238"/>
<path d="M174.33 201.691C169.551 203.246 160.574 196.507 156.78 190.767C156.515 190.362 156.869 173.711 156.591 170.398C156.591 169.728 177.782 173.723 177.782 173.723C176.94 177.954 176.621 182.273 176.833 186.582C176.884 187.062 178.932 200.187 174.33 201.691Z" fill="#F7A9A0"/>
<path d="M177.794 173.711C177.794 173.812 177.693 174.23 177.579 174.887C177.377 176.025 177.099 177.871 176.922 179.945C176.7 182.138 176.675 184.347 176.846 186.545C176.838 186.696 176.838 186.848 176.846 187V187.076C176.846 187.341 176.922 187.708 176.972 188.125C176.312 188.28 175.639 188.378 174.962 188.416C163.583 189.099 158.677 175.532 157.185 170.297H157.552C158.108 170.297 158.816 170.424 159.726 170.55L160.396 170.639L165.252 171.41L166.996 171.701L170.701 172.346C171.207 172.459 171.713 172.548 172.18 172.624L173.685 172.889L174.38 173.016L174.709 173.079C175.404 173.205 175.973 173.307 176.467 173.408L177.314 173.559L177.668 173.635H177.744L177.794 173.711Z" fill="#263238"/>
<path d="M154.024 145.212C151.723 152.583 155.504 173.926 160.725 178.718C168.312 185.646 180.778 186.38 186.696 177.276C192.436 168.426 187.024 140.711 181.183 136.348C172.573 129.938 157.425 134.338 154.024 145.212Z" fill="#F7A9A0"/>
<path opacity="0.2" d="M173.268 156.781C170.6 156.869 170.954 162.18 173.42 162.116C175.885 162.053 175.493 156.718 173.268 156.781Z" fill="black"/>
<path opacity="0.2" d="M184.42 155.175C181.891 155.946 183.623 160.903 185.95 160.233C188.276 159.562 186.519 154.543 184.42 155.175Z" fill="black"/>
<path d="M174.811 157.831C174.811 157.831 174.709 157.919 174.722 157.982C175.063 159.398 175.203 161.093 174.001 161.775C174.001 161.775 174.001 161.864 174.001 161.851C175.569 161.421 175.354 159.12 174.811 157.831Z" fill="#263238"/>
<path d="M173.23 156.592C170.891 156.882 171.637 161.535 173.811 161.27C175.986 161.004 175.19 156.364 173.23 156.592Z" fill="#263238"/>
<path d="M183.193 156.717C183.193 156.717 183.32 156.717 183.332 156.831C183.522 158.285 183.977 159.904 185.355 160.182V160.258C183.724 160.295 183.143 158.121 183.193 156.717Z" fill="#263238"/>
<path d="M184.243 155.011C186.531 154.455 187.467 159.082 185.343 159.588C183.219 160.094 182.321 155.466 184.243 155.011Z" fill="#263238"/>
<path d="M170.183 152.179C170.638 151.698 171.131 151.332 171.624 150.914C172.078 150.397 172.685 150.038 173.356 149.89C173.575 149.887 173.789 149.956 173.965 150.086C174.141 150.216 174.269 150.401 174.33 150.611C174.39 151.047 174.331 151.49 174.16 151.896C173.989 152.301 173.711 152.652 173.356 152.912C172.723 153.558 171.87 153.941 170.967 153.987C170.755 153.992 170.546 153.935 170.368 153.821C170.189 153.707 170.048 153.542 169.964 153.348C169.88 153.153 169.855 152.938 169.894 152.73C169.933 152.521 170.034 152.33 170.183 152.179Z" fill="#263238"/>
<path d="M186.797 151.965C186.23 151.656 185.648 151.377 185.052 151.13C184.479 150.744 183.794 150.562 183.105 150.612C182.891 150.665 182.701 150.789 182.566 150.963C182.431 151.138 182.358 151.352 182.359 151.573C182.43 152.007 182.614 152.414 182.891 152.756C183.168 153.097 183.529 153.361 183.939 153.52C184.71 153.942 185.607 154.077 186.468 153.899C186.669 153.847 186.851 153.738 186.991 153.586C187.131 153.433 187.225 153.243 187.259 153.038C187.294 152.834 187.269 152.624 187.187 152.433C187.105 152.242 186.969 152.08 186.797 151.965Z" fill="#263238"/>
<path d="M176.897 169.513C178.643 168.657 180.566 168.224 182.511 168.249C182.662 168.249 182.763 167.857 182.763 167.692L182.182 164.671C182.612 164.797 184.799 165.391 184.711 164.822C183.784 159.903 182.361 155.091 180.462 150.459C180.445 150.434 180.42 150.415 180.391 150.406C180.362 150.397 180.331 150.397 180.302 150.407C180.274 150.417 180.249 150.436 180.232 150.462C180.216 150.487 180.208 150.517 180.209 150.547C181.044 155.087 182.662 159.461 183.573 164.026C182.792 163.801 181.983 163.69 181.17 163.697C181.019 163.76 181.954 166.871 181.98 167.364C180.126 167.174 178.271 167.714 176.808 168.868C176.214 169.374 176.075 169.994 176.897 169.513Z" fill="#263238"/>
<path d="M180.614 170.765C181.41 170.411 182.118 167.415 180.614 167.415C179.109 167.415 175.948 168.603 175.114 170.563C174.38 172.282 178.376 170.563 179.109 170.74C179.843 170.917 180.032 171.018 180.614 170.765Z" fill="#263238"/>
<path d="M179.147 170.74L179.501 170.816C179.349 169.893 178.3 168.906 176.302 169.109C175.8 169.489 175.4 169.989 175.139 170.563C174.418 172.27 178.426 170.588 179.147 170.74Z" fill="#EE684E"/>
<path d="M174.33 172.106C174.722 172.384 175.139 172.788 175.67 172.751C176.195 172.643 176.694 172.433 177.137 172.131C177.137 172.131 177.238 172.131 177.213 172.194C177.054 172.508 176.815 172.773 176.519 172.962C176.223 173.151 175.882 173.257 175.531 173.269C175.227 173.244 174.938 173.128 174.702 172.936C174.465 172.744 174.291 172.486 174.203 172.194C174.166 172.118 174.267 172.068 174.33 172.106Z" fill="#263238"/>
<path d="M154.934 164.089C154.934 164.089 147.753 151.635 148.612 144.554C149.004 141.343 153.43 139.282 153.43 139.282C153.122 137.964 153.189 136.586 153.623 135.304C154.056 134.022 154.839 132.886 155.882 132.024C159.751 128.535 168.931 129.496 168.931 129.496C168.931 129.496 175.088 121.012 183.446 124.615C191.803 128.219 186.101 137.664 186.101 137.664C186.101 137.664 189.098 142.114 181.461 145.389C174.026 148.575 159.056 144.946 159.056 144.946C159.636 150.143 159.44 155.397 158.474 160.536C158.276 161.4 157.838 162.191 157.213 162.819C156.587 163.447 155.797 163.887 154.934 164.089Z" fill="#263238"/>
<path d="M170.372 129.685C168.512 128.862 166.502 128.432 164.468 128.421C162.653 128.349 160.839 128.593 159.107 129.142C156.047 130.153 153.291 132.34 152.709 135.653C152.566 136.469 152.587 137.306 152.772 138.113C152.956 138.921 153.3 139.684 153.784 140.357C153.784 140.357 153.91 140.357 153.872 140.281C151.976 137.828 153.076 134.085 155.137 132.113C157.463 129.875 160.978 129.078 164.114 129.015C166.207 129.034 168.291 129.301 170.322 129.812C170.334 129.808 170.346 129.801 170.355 129.792C170.365 129.783 170.372 129.772 170.377 129.76C170.382 129.748 170.384 129.735 170.383 129.722C170.382 129.709 170.379 129.697 170.372 129.685Z" fill="#263238"/>
<path d="M183.269 145.869C179.875 147.158 176.245 147.705 172.623 147.475C168.86 147.288 165.129 146.69 161.496 145.692C159.372 145.136 157.273 144.428 155.175 143.821C155.111 143.821 155.073 143.897 155.175 143.922C158.824 145.583 162.638 146.854 166.554 147.715C170.185 148.475 173.93 148.523 177.579 147.854C179.577 147.459 181.518 146.818 183.357 145.945C183.357 145.945 183.319 145.844 183.269 145.869Z" fill="#263238"/>
<path d="M158.69 162.597C158.69 162.597 153.759 155.769 150.661 157.54C147.563 159.31 151.319 169.248 155.011 170.563C155.474 170.756 155.972 170.856 156.474 170.856C156.977 170.855 157.474 170.755 157.938 170.561C158.401 170.367 158.821 170.083 159.174 169.725C159.527 169.367 159.805 168.943 159.992 168.476L158.69 162.597Z" fill="#F7A9A0"/>
<path d="M151.874 160.359V160.461C154.403 161.472 155.857 163.836 156.843 166.302C156.69 166.045 156.483 165.825 156.236 165.657C155.989 165.489 155.709 165.376 155.414 165.326C155.12 165.277 154.818 165.292 154.53 165.371C154.242 165.45 153.974 165.591 153.746 165.784C153.746 165.784 153.746 165.935 153.822 165.91C154.271 165.763 154.755 165.758 155.208 165.896C155.66 166.034 156.059 166.308 156.35 166.681C156.846 167.306 157.27 167.985 157.615 168.704C157.741 168.932 158.158 168.805 158.057 168.54C157.956 165.215 155.339 160.638 151.874 160.359Z" fill="#263238"/>
<path d="M177.162 188.314L173.369 201.135L156.489 187.062L152.696 192.499C152.696 192.499 170.157 215.789 170.145 214.664L174.165 203.525L182.232 210.188L179.792 191.69L177.162 188.314Z" fill="#A788CE"/>
<path d="M181.512 200.984C181.006 197.936 180.589 194.864 179.944 191.842C179.944 191.741 179.741 191.703 179.729 191.842C179.413 194.851 181.41 206.471 181.676 209.278C181.335 208.987 174.229 203.449 174.178 203.55C173.243 205.346 170.284 213.463 170.094 214.196C167.338 210.492 156.818 197.089 153.657 193.638C153.641 193.616 153.616 193.601 153.589 193.598C153.561 193.594 153.534 193.602 153.512 193.619C153.49 193.635 153.476 193.66 153.472 193.687C153.469 193.715 153.476 193.742 153.493 193.764C156.022 197.721 169.93 215.789 170.12 215.713C171.717 211.869 173.114 207.944 174.305 203.955C175.569 205.219 182.789 211.541 182.763 211.061C182.525 207.682 182.107 204.318 181.512 200.984Z" fill="#263238"/>
<path d="M182.131 234.755C182.131 234.755 176.846 227.788 181.891 224.64C186.936 221.492 191.07 229.065 191.07 229.065L182.131 234.755Z" fill="#455A64"/>
<path d="M223.944 280.563L224.677 289.085L224.93 291.892L222.477 290.489L215.055 286.228L182.017 234.388L190.868 228.711L223.906 280.551L223.944 280.563Z" fill="#455A64"/>
<path d="M224.614 289.098L224.867 291.905L222.401 290.501L224.614 289.098Z" fill="#263238"/>
<path d="M191.394 228.045L181.022 234.661L182.334 236.718L192.706 230.103L191.394 228.045Z" fill="#263238"/>
<path d="M192.857 230.268L182.486 236.886L183.798 238.943L194.169 232.326L192.857 230.268Z" fill="#263238"/>
<path d="M183.787 238.979L187.138 236.842L197.24 256.756L195.963 257.464L183.787 238.979Z" fill="#263238"/>
<path d="M164.202 247.652C169.361 247.361 178.642 292.424 171.081 293.233C137.385 296.836 111.415 288.024 105.523 284.117C97.7975 279.059 98.5815 268.274 102.729 263.887C109.898 256.174 156.186 248.12 164.202 247.652Z" fill="#F7A9A0"/>
<path d="M227.067 254.037C226.296 258.98 214.259 256.06 214.259 256.06C215.855 257.514 216.889 259.483 217.18 261.623C217.509 265.416 211.718 267.591 211.718 267.591C213.046 269.437 213.79 271.639 213.855 273.913C213.855 277.579 208.279 280.614 208.279 280.614C208.563 282.997 207.979 285.403 206.635 287.391C202.842 292.562 168.362 293.27 164.051 293.46L162.053 248.347C162.053 248.347 190.628 237.031 197.873 238.548C203.967 239.813 228.23 246.476 227.067 254.037Z" fill="#F7A9A0"/>
<path d="M214.183 255.895C208.025 252.987 201.185 251.546 194.56 250.244C194.421 250.244 194.37 250.446 194.56 250.471C201.16 251.736 207.583 254.72 214.12 256.199C214.259 256.249 214.347 255.971 214.183 255.895Z" fill="#263238"/>
<path d="M211.616 267.072C210.154 266.541 208.628 266.205 207.077 266.073C205.459 265.833 203.828 265.63 202.184 265.441C198.905 265.07 195.626 264.783 192.347 264.581C192.196 264.581 192.145 264.796 192.347 264.809C195.609 265.188 198.871 265.605 202.108 266.073C203.739 266.326 205.358 266.591 206.976 266.87C208.488 267.237 210.036 267.437 211.591 267.464C211.627 267.446 211.657 267.419 211.679 267.386C211.701 267.353 211.713 267.315 211.716 267.275C211.719 267.235 211.711 267.196 211.693 267.16C211.676 267.125 211.649 267.094 211.616 267.072Z" fill="#263238"/>
<path d="M208.139 280.639C206.815 280.175 205.42 279.948 204.017 279.969L199.529 279.527C196.545 279.223 193.561 278.907 190.577 278.49C190.438 278.49 190.387 278.705 190.577 278.73C193.599 279.16 196.608 279.64 199.63 279.994C201.122 280.197 202.601 280.386 204.093 280.563C205.432 280.868 206.816 280.928 208.177 280.74C208.183 280.722 208.182 280.702 208.175 280.683C208.168 280.665 208.156 280.649 208.139 280.639Z" fill="#263238"/>
<path d="M159.17 247.538L167.047 297.974C167.047 297.974 113.564 293.195 103.31 283.333C96.1917 276.467 98.3538 265.72 102.45 262.483C111.415 255.402 159.17 247.538 159.17 247.538Z" fill="#A788CE"/>
<path d="M153.303 294.181C151.938 287.126 147.424 258.07 146.88 251.736C146.88 251.293 147.108 251.154 147.209 251.609C151.786 272.636 152.595 287.126 153.531 294.118C153.594 294.257 153.329 294.332 153.303 294.181Z" fill="#263238"/>
<path d="M159.246 247.032C146.869 248.889 134.603 251.422 122.503 254.618L121.53 254.985C119.267 255.2 117.016 255.655 114.778 256.072C114.778 256.072 114.778 256.186 114.778 256.174C116.561 255.845 118.369 255.63 120.164 255.415C119.14 255.744 118.116 256.085 117.092 256.452C115.296 257.084 113.514 257.792 111.718 258.45C111.718 258.45 111.718 258.563 111.718 258.538C114.728 257.476 117.825 256.591 120.885 255.681C123.945 254.77 158.917 247.614 159.056 247.626C159.196 247.639 159.17 247.943 159.183 248.056C159.196 248.17 159.373 248.221 159.36 248.056C159.362 247.712 159.323 247.368 159.246 247.032Z" fill="#263238"/>
<path d="M159.625 297.153C158.108 296.837 152.38 296.318 150.85 296.116C147.791 295.686 144.718 295.281 141.658 294.776C135.514 293.764 129.432 292.462 123.376 290.982C121.694 290.591 120.025 290.173 118.318 289.718C116.611 289.263 110.921 287.366 109.215 286.81C109.151 286.81 109.113 286.886 109.215 286.911C111.926 288.081 114.704 289.09 117.534 289.933C119.039 290.35 120.518 290.843 122.01 291.273C125.019 292.133 128.066 292.879 131.126 293.562C137.22 294.915 143.416 295.939 149.611 296.697C151.356 296.9 157.906 297.532 159.65 297.431C159.84 297.481 159.802 297.191 159.625 297.153Z" fill="#263238"/>
<path d="M494.475 302.634H8.36383C7.81155 302.634 7.36383 303.082 7.36383 303.634V318.799C7.36383 319.351 7.81155 319.799 8.36384 319.799H494.475C495.027 319.799 495.475 319.351 495.475 318.799V303.634C495.475 303.082 495.027 302.634 494.475 302.634Z" fill="#C8DEFE"/>
<path d="M3 297.771H489.111C489.387 297.771 489.611 297.994 489.611 298.271V313.435C489.611 313.711 489.387 313.935 489.111 313.935H3.00001C2.72386 313.935 2.5 313.711 2.5 313.435V298.271C2.5 297.994 2.72386 297.771 3 297.771Z" fill="white" stroke="#1E437D"/>
<path d="M348.987 292.002H243.47V296.739H348.987V292.002Z" fill="#BDC6D5"/>
<path d="M296.588 292.002H243.47V296.739H296.588V292.002Z" fill="#D3DBE7"/>
<path d="M296.588 292.002H243.47V296.739L243.91 292.442L296.588 292.002Z" fill="#475569"/>
<path d="M305.123 296.725H407.956L422.49 226.888H319.656L305.123 296.725Z" fill="#D3DBE7"/>
<path d="M305.123 296.725L320.078 227.54L421.454 228.076L415.223 261.806L422.49 226.888H319.657L305.123 296.725Z" fill="#475569"/>
<path d="M355.835 263.362C355.719 264.229 355.791 265.11 356.047 265.946C356.304 266.782 356.738 267.553 357.321 268.205C357.903 268.857 358.62 269.375 359.422 269.724C360.223 270.073 361.091 270.244 361.965 270.225C363.843 270.183 365.642 269.466 367.035 268.206C368.427 266.945 369.319 265.226 369.547 263.362C369.662 262.495 369.588 261.614 369.329 260.779C369.071 259.944 368.635 259.174 368.051 258.524C367.467 257.873 366.749 257.356 365.947 257.009C365.145 256.662 364.277 256.493 363.403 256.513C361.528 256.553 359.731 257.267 358.341 258.525C356.95 259.783 356.061 261.501 355.835 263.362Z" fill="white"/>
<path d="M454.078 97.5105C479.486 97.5105 500.083 76.9133 500.083 51.5053C500.083 26.0973 479.486 5.5 454.078 5.5C428.67 5.5 408.073 26.0973 408.073 51.5053C408.073 76.9133 428.67 97.5105 454.078 97.5105Z" fill="#D3DBE7"/>
<path opacity="0.1" d="M456.19 96.4241C480.432 96.4241 500.083 76.7723 500.083 52.5307C500.083 28.289 480.432 8.63721 456.19 8.63721C431.948 8.63721 412.296 28.289 412.296 52.5307C412.296 76.7723 431.948 96.4241 456.19 96.4241Z" fill="black"/>
<path d="M461.183 93.3525C483.726 90.5966 499.766 70.0877 497.01 47.5446C494.254 25.0016 473.745 8.96097 451.202 11.7169C428.659 14.4729 412.619 34.9818 415.375 57.5248C418.131 80.0679 438.639 96.1085 461.183 93.3525Z" fill="white"/>
<path d="M456.586 14.3872H455.794V20.62H456.586V14.3872Z" fill="#C7C7C7"/>
<path d="M437.463 19.272L436.777 19.668L439.894 25.0657L440.58 24.6697L437.463 19.272Z" fill="#C7C7C7"/>
<path d="M423.332 33.0969L422.936 33.7827L428.334 36.8991L428.73 36.2133L423.332 33.0969Z" fill="#C7C7C7"/>
<path d="M424.278 52.1348H418.045V52.9267H424.278V52.1348Z" fill="#C7C7C7"/>
<path d="M428.361 68.1453L422.963 71.2617L423.359 71.9476L428.757 68.8312L428.361 68.1453Z" fill="#C7C7C7"/>
<path d="M439.864 79.9439L436.751 85.3433L437.437 85.7389L440.55 80.3395L439.864 79.9439Z" fill="#C7C7C7"/>
<path d="M456.586 84.4277H455.794V90.6605H456.586V84.4277Z" fill="#C7C7C7"/>
<path d="M472.493 79.9688L471.807 80.3647L474.923 85.7625L475.609 85.3665L472.493 79.9688Z" fill="#C7C7C7"/>
<path d="M483.997 68.1203L483.601 68.8062L488.998 71.9225L489.394 71.2367L483.997 68.1203Z" fill="#C7C7C7"/>
<path d="M494.335 52.1348H488.102V52.9267H494.335V52.1348Z" fill="#C7C7C7"/>
<path d="M489.02 33.117L483.623 36.2334L484.019 36.9192L489.416 33.8028L489.02 33.117Z" fill="#C7C7C7"/>
<path d="M474.94 19.3194L471.825 24.7183L472.511 25.114L475.626 19.7152L474.94 19.3194Z" fill="#C7C7C7"/>
<path d="M480.637 26.7354L452.744 52.7224L455.545 55.4501L481.4 27.4833L480.637 26.7354Z" fill="#475569"/>
<path d="M448.286 25.5477L454.841 55.2304L458.581 54.1305L449.298 25.2397L448.286 25.5477Z" fill="#1D293F"/>
<path d="M455.251 51.5777C455.023 51.831 454.9 52.1623 454.908 52.5035C454.916 52.8448 455.054 53.1699 455.294 53.4122C455.535 53.6545 455.859 53.7955 456.2 53.8061C456.541 53.8168 456.873 53.6964 457.129 53.4696C457.377 53.2172 457.516 52.8775 457.516 52.5236C457.516 52.1698 457.377 51.8301 457.129 51.5777C456.879 51.3305 456.541 51.1919 456.19 51.1919C455.838 51.1919 455.501 51.3305 455.251 51.5777Z" fill="#FFC727"/>
<path d="M437.286 237.184H375.31V296.74H437.286V237.184Z" fill="white"/>
<path d="M460.839 237.184H437.286V296.74H460.839V237.184Z" fill="#EBF0F7"/>
<path opacity="0.5" d="M460.839 237.184H437.286L460.61 237.516L460.839 296.74V237.184Z" fill="#1D375E"/>
<path d="M375.31 266.955H437.286L388.89 268.494L375.31 266.955Z" fill="#C6D7EF"/>
<path d="M437.286 289.54H375.31L423.721 291.079L437.286 289.54Z" fill="#C6D7EF"/>
<path d="M375.31 250.309H414.569L379.68 251.555L375.31 250.309Z" fill="#C6D7EF"/>
<path d="M437.286 280.769H398.027L432.93 282.016L437.286 280.769Z" fill="#C6D7EF"/>
<path d="M390.181 243.68H434.456L427.079 244.428L390.181 243.68Z" fill="#C6D7EF"/>
<path d="M381.338 273.35H425.612L418.236 274.098L381.338 273.35Z" fill="#C6D7EF"/>
<path d="M405.898 255.968L407.722 255.754L434.863 255.968L437.545 257.577L437.009 257.673L405.898 255.968Z" fill="#C6D7EF"/>
<path d="M408.571 255.985H437.286L442.419 257.98L408.571 255.985Z" fill="white"/>
<path d="M367.406 255.985H396.121L401.253 257.98L367.406 255.985Z" fill="#C6D7EF"/>
<path d="M404.26 282.75H375.53L370.397 284.744L404.26 282.75Z" fill="#C6D7EF"/>
<path d="M437.286 275.946H460.355L465.488 277.955L437.286 275.946Z" fill="#C6D7EF"/>
<path d="M445.338 266.955H463.23L460.839 265.327L445.338 266.955Z" fill="#C6D7EF"/>
<path opacity="0.6" d="M50.883 265.107C50.883 265.107 32.2873 256.542 32.2873 245.059C32.2873 233.576 56.4118 226.185 56.4118 217.195C56.4118 208.205 45.8968 202.94 45.8968 202.94C45.8968 202.94 62.4979 208.616 62.4979 219.967C62.4979 231.318 46.6007 239.032 45.0902 246.233C42.9783 256.278 50.883 265.107 50.883 265.107Z" fill="#DBDBDB"/>
<path opacity="0.6" d="M49.9738 265.107C49.9738 265.107 68.5548 258.375 68.5548 249.341C68.5548 240.308 44.445 234.5 44.445 227.446C44.445 220.392 54.96 216.242 54.96 216.242C54.96 216.242 38.3588 220.641 38.3588 229.631C38.3588 238.621 56.6025 244.693 57.9078 251.937C59.213 259.182 49.9738 265.107 49.9738 265.107Z" fill="#DBDBDB"/>
<path d="M59.5354 293.968H41.849V296.725H59.5354V293.968Z" fill="#FFC727"/>
<path opacity="0.1" d="M59.5354 293.968H41.849V295.786H59.5354V293.968Z" fill="black"/>
<path d="M80.5218 286.548C79.4472 288.141 77.9367 289.39 76.1708 290.147C74.4049 290.904 72.4584 291.136 70.564 290.816C69.9538 290.698 69.3551 290.526 68.7749 290.303C67.8932 289.956 67.0522 289.513 66.2671 288.983L68.5109 285.654C68.9319 285.943 69.3786 286.194 69.8454 286.402C71.1336 286.997 72.5939 287.105 73.9556 286.706C75.3174 286.307 76.4883 285.428 77.2514 284.231C79.6712 280.829 80.5365 273.042 78.0874 270.05C77.9261 269.83 77.2074 269.478 74.3624 270.05C73.8344 270.167 73.2331 270.299 72.5585 270.475C72.0377 270.66 71.4957 270.778 70.9453 270.827V268.833L70.7547 266.838C70.9453 266.838 71.224 266.721 71.6053 266.618C72.9188 266.227 74.263 265.947 75.6236 265.782C76.6283 265.566 77.6714 265.608 78.6559 265.902C79.6404 266.197 80.5345 266.736 81.2551 267.469C85.1708 272.396 83.5576 282.281 80.5218 286.548Z" fill="#FFC727"/>
<path opacity="0.1" d="M68.5109 285.653C68.9319 285.943 69.3786 286.193 69.8454 286.401L68.7749 290.302C67.8932 289.955 67.0522 289.513 66.2671 288.982L68.5109 285.653Z" fill="black"/>
<path opacity="0.1" d="M75.5502 265.825L74.3623 270.092C73.8344 270.21 73.2331 270.342 72.5585 270.518C72.0376 270.702 71.4956 270.82 70.9453 270.87V268.875L70.7546 266.881C70.9453 266.881 71.2239 266.763 71.6052 266.661C72.8948 266.273 74.2143 265.994 75.5502 265.825Z" fill="black"/>
<path d="M27.1544 260.795C27.1544 260.795 27.3157 262.101 27.609 264.183C27.609 264.506 27.7117 264.843 27.7704 265.195C27.9757 266.662 28.2543 268.304 28.577 270.123V270.431C29.0463 273.041 29.6182 275.871 30.2781 278.555C30.2781 278.672 30.2781 278.79 30.3808 278.892C30.5568 279.611 30.7621 280.359 30.9527 281.004C31.1434 281.65 31.3487 282.339 31.554 282.984C31.943 284.146 32.3934 285.287 32.9032 286.401C36.5696 293.983 41.7025 294.819 44.8555 294.819H56.4265C59.5942 294.819 64.7271 293.983 68.3787 286.401C68.4814 286.166 68.5987 285.917 68.7014 285.653C68.804 285.389 68.8774 285.272 68.9507 285.081C69.024 284.891 69.112 284.7 69.1853 284.48C69.2587 284.26 69.288 284.201 69.3467 284.055C70.0993 281.902 70.7309 279.708 71.2385 277.485C71.2452 277.392 71.2452 277.299 71.2385 277.206C71.2385 277.206 71.2385 277.206 71.2385 277.089C71.4585 276.15 71.6638 275.197 71.8545 274.258C72.1918 272.704 72.4851 271.178 72.7344 269.727C72.837 269.067 72.9543 268.421 73.057 267.791L73.145 267.277C73.2183 266.867 73.277 266.456 73.3357 266.06C73.3943 265.664 73.453 265.298 73.5116 264.946C73.5703 264.594 73.5996 264.242 73.6583 263.919C73.9369 261.998 74.0689 260.795 74.0689 260.795H27.1544Z" fill="#FFC727"/>
<g clip-path="url(#clip0_1_741)">
<path d="M49.3553 270.786C49.2312 271.564 49.1568 272.215 49.003 272.845C48.4622 275.059 49.0588 276.995 50.5449 278.714C52.0806 280.491 52.6041 282.435 51.794 284.662C51.5993 285.197 51.2978 285.415 50.7148 285.457C48.8541 285.59 47.5393 284.698 46.656 283.3C44.7693 280.313 44.4021 277.104 45.6041 273.804C46.1772 272.228 47.2874 271.085 49.3553 270.786Z" fill="#402D1C" fill-opacity="0.74"/>
<path d="M52.8695 284.97C53.0171 284.268 53.1175 283.741 53.2416 283.22C53.6299 281.595 53.3656 280.059 52.1425 278.867C49.844 276.636 49.6616 274.04 50.3352 271.193C50.4952 270.514 50.8128 270.389 51.4342 270.471C52.7987 270.651 53.8668 271.322 54.6371 272.349C56.994 275.479 57.3289 278.853 55.725 282.37C55.4653 282.969 55.0771 283.509 54.5854 283.957C54.0937 284.405 53.5093 284.75 52.8695 284.97Z" fill="#402D1C" fill-opacity="0.74"/>
</g>
<defs>
<clipPath id="clip0_1_741">
<rect width="11.8005" height="15.0188" fill="white" transform="translate(44.9107 270.451)"/>
</clipPath>
</defs>
</svg>
