<svg width="395" height="250" viewBox="0 0 395 250" fill="none" xmlns="http://www.w3.org/2000/svg">
<path d="M154.471 0H21.201V161.462H154.471V0Z" fill="#F2F5F8"/>
<path d="M149.134 3.12402H25.4465V157.413H149.134V3.12402Z" fill="white"/>
<path d="M149.134 52.0654H25.4465V55.7919H149.134V52.0654Z" fill="#F2F5F8"/>
<path d="M149.134 104.735H25.4465V108.462H149.134V104.735Z" fill="#F2F5F8"/>
<path d="M48.6124 52.057V10.1182H35.886V52.057H48.6124Z" fill="#D8E8FF"/>
<path d="M48.6124 40.1721V35.564H35.886V40.1721H48.6124Z" fill="#C7D8F1"/>
<path d="M48.6124 20.0997V18.3862H35.886V20.0997H48.6124Z" fill="#C7D8F1"/>
<path d="M131.042 10.1266V52.0654H143.769V10.1266H131.042Z" fill="#D8E8FF"/>
<path d="M131.042 22.013V26.6211H143.769V22.013H131.042Z" fill="#C7D8F1"/>
<path d="M143.777 49.5626V47.8491H131.051V49.5626H143.777Z" fill="#C7D8F1"/>
<path d="M143.769 41.6852V39.9717H131.043V41.6852H143.769Z" fill="#C7D8F1"/>
<path d="M108.127 52.057V10.1182H98.4695V52.057H108.127Z" fill="#D8E8FF"/>
<path d="M108.135 40.1721V35.564H98.478V40.1721H108.135Z" fill="#C7D8F1"/>
<path d="M108.135 20.1095V18.396H98.478V20.1095H108.135Z" fill="#C7D8F1"/>
<path d="M57.5126 52.0568V3.13086L48.6124 3.13086V52.0568H57.5126Z" fill="#C7D8F1"/>
<path d="M55.6907 26.547V7.73193H50.3506V26.547H55.6907Z" fill="#F2F5F8"/>
<path d="M143.777 6.05177V52.0581H149.142V6.05177H143.777Z" fill="#E1EDF8"/>
<path d="M144.867 9.23654V26.9287H148.086V9.23654H144.867Z" fill="#F2F5F8"/>
<path d="M108.135 7.32441V52.0581H117.035V7.32441H108.135Z" fill="#C7D8F1"/>
<path d="M109.957 30.656V47.8574H115.297V30.656H109.957Z" fill="#F2F5F8"/>
<path d="M72.6096 52.0658V14.9014L57.5043 14.9014V52.0658H72.6096Z" fill="#E1EDF8"/>
<path d="M72.6096 48.1233V44.6631H57.5043V48.1233H72.6096Z" fill="#D8E8FF"/>
<path d="M72.6096 42.3841V41.0449H57.5043V42.3841H72.6096Z" fill="#D8E8FF"/>
<path d="M35.886 52.0743V17.1475H25.447V52.0743H35.886Z" fill="#E1EDF8"/>
<path d="M35.886 48.3558V45.1035H25.447V48.3558H35.886Z" fill="#D8E8FF"/>
<path d="M35.886 27.5858V24.3335H25.447V27.5858H35.886Z" fill="#D8E8FF"/>
<path d="M35.8774 31.0885V29.8242H25.4385V31.0885H35.8774Z" fill="#D8E8FF"/>
<path d="M131.042 52.0651V3.13086L117.027 3.13086V52.0651H131.042Z" fill="#E1EDF8"/>
<path d="M131.042 46.8751V42.3169H117.027V46.8751H131.042Z" fill="#D8E8FF"/>
<path d="M131.042 17.7799V13.2217H117.027V17.7799H131.042Z" fill="#D8E8FF"/>
<path d="M131.042 22.6789V20.9072H117.027V22.6789H131.042Z" fill="#D8E8FF"/>
<path d="M98.4446 50.4296L85.2317 10.4775L80.2801 12.1151L93.493 52.0672L98.4446 50.4296Z" fill="#E1EDF8"/>
<path d="M97.0528 46.1933L95.8201 42.4658L90.8685 44.1034L92.1013 47.8309L97.0528 46.1933Z" fill="#D8E8FF"/>
<path d="M89.1909 22.4375L87.9581 18.71L83.0066 20.3475L84.2393 24.075L89.1909 22.4375Z" fill="#D8E8FF"/>
<path d="M72.6176 4.99441V52.0654H80.2867V4.99441H72.6176Z" fill="#D8E8FF"/>
<path d="M72.6176 9.9856V14.3691H80.2867V9.9856H72.6176Z" fill="#F2F5F8"/>
<path d="M72.6096 37.9836V42.3672H80.2787V37.9836H72.6096Z" fill="#F2F5F8"/>
<path d="M72.6176 33.268V34.9731H80.2867V33.268H72.6176Z" fill="#F2F5F8"/>
<path d="M120.504 104.727V62.7881H107.778V104.727H120.504Z" fill="#D8E8FF"/>
<path d="M120.504 92.8405V88.2324H107.778V92.8405H120.504Z" fill="#C7D8F1"/>
<path d="M120.504 72.7692V71.0557H107.778V72.7692H120.504Z" fill="#C7D8F1"/>
<path d="M30.8036 62.7877L30.8036 104.727H43.53V62.7877H30.8036Z" fill="#D8E8FF"/>
<path d="M30.8115 74.6741V79.2822H43.5379V74.6741H30.8115Z" fill="#C7D8F1"/>
<path d="M43.538 102.231V100.518H30.8116V102.231H43.538Z" fill="#C7D8F1"/>
<path d="M43.538 94.3463V92.6328H30.8116V94.3463H43.538Z" fill="#C7D8F1"/>
<path d="M76.1027 104.718V62.7793H66.4456V104.718H76.1027Z" fill="#D8E8FF"/>
<path d="M76.1027 92.8405V88.2324H66.4456V92.8405H76.1027Z" fill="#C7D8F1"/>
<path d="M76.1027 72.7692V71.0557H66.4456V72.7692H76.1027Z" fill="#C7D8F1"/>
<path d="M107.769 104.727V55.8008H98.8688V104.727H107.769Z" fill="#C7D8F1"/>
<path d="M106.031 79.2067V60.3916H100.691V79.2067H106.031Z" fill="#F2F5F8"/>
<path d="M25.4465 68.9092L25.4465 104.718H30.8116V68.9092H25.4465Z" fill="#E1EDF8"/>
<path d="M26.4866 71.3808V85.1553H29.7056V71.3808H26.4866Z" fill="#F2F5F8"/>
<path d="M57.5541 59.9841V104.718H66.4542V59.9841H57.5541Z" fill="#C7D8F1"/>
<path d="M59.2924 83.3162V100.518H64.6325V83.3162H59.2924Z" fill="#F2F5F8"/>
<path d="M98.8773 104.735V67.5708H83.772V104.735H98.8773Z" fill="#E1EDF8"/>
<path d="M98.8773 100.784V97.3242H83.772V100.784H98.8773Z" fill="#D8E8FF"/>
<path d="M98.8859 95.054V93.7148H83.7805V95.054H98.8859Z" fill="#D8E8FF"/>
<path d="M149.134 104.726V59.9844H138.695V104.726H149.134Z" fill="#E1EDF8"/>
<path d="M149.142 99.9851V95.8179H138.703V99.9851H149.142Z" fill="#D8E8FF"/>
<path d="M149.134 73.3763V69.209H138.695V73.3763H149.134Z" fill="#D8E8FF"/>
<path d="M149.134 77.8598V76.2461H138.695V77.8598H149.134Z" fill="#D8E8FF"/>
<path d="M57.5541 104.735V55.8008H43.5384V104.735H57.5541Z" fill="#E1EDF8"/>
<path d="M57.5541 99.5362V94.978H43.5384V99.5362H57.5541Z" fill="#D8E8FF"/>
<path d="M57.5541 70.441V65.8828H43.5384V70.441H57.5541Z" fill="#D8E8FF"/>
<path d="M57.5541 75.3401V73.5684H43.5384V75.3401H57.5541Z" fill="#D8E8FF"/>
<path d="M125.462 104.735L138.675 64.7827L133.724 63.1451L120.511 103.097L125.462 104.735Z" fill="#C7D8F1"/>
<path d="M126.866 100.51L128.099 96.7822L123.147 95.1447L121.914 98.8721L126.866 100.51Z" fill="#D8E8FF"/>
<path d="M134.719 76.746L135.952 73.0186L131 71.381L129.768 75.1085L134.719 76.746Z" fill="#D8E8FF"/>
<path d="M76.1027 57.6555V104.727H83.7718V57.6555H76.1027Z" fill="#C7D8F1"/>
<path d="M76.1027 62.655V67.0386H83.7718V62.655H76.1027Z" fill="#F2F5F8"/>
<path d="M76.1027 90.6516V95.0352H83.7718V90.6516H76.1027Z" fill="#F2F5F8"/>
<path d="M76.1027 85.9276V87.6328H83.7718V85.9276H76.1027Z" fill="#F2F5F8"/>
<path d="M43.9957 157.404V115.465H34.3386V157.404H43.9957Z" fill="#D8E8FF"/>
<path d="M43.9957 145.526V140.918H34.3386V145.526H43.9957Z" fill="#C7D8F1"/>
<path d="M43.9957 125.455V123.741H34.3387V125.455H43.9957Z" fill="#C7D8F1"/>
<path d="M34.3387 157.412V108.486H25.4386L25.4386 157.412H34.3387Z" fill="#C7D8F1"/>
<path d="M32.6005 131.892V113.077H27.2604V131.892H32.6005Z" fill="#F2F5F8"/>
<path d="M43.9957 120.248V157.412H59.101V120.248H43.9957Z" fill="#E1EDF8"/>
<path d="M43.9957 124.191V127.651H59.101V124.191H43.9957Z" fill="#D8E8FF"/>
<path d="M43.9957 129.93V131.27H59.101V129.93H43.9957Z" fill="#D8E8FF"/>
<path d="M140.459 157.404V115.465H132.623V157.404H140.459Z" fill="#D8E8FF"/>
<path d="M140.459 145.517V140.909H132.623V145.517H140.459Z" fill="#C7D8F1"/>
<path d="M140.459 125.446V123.733H132.623V125.446H140.459Z" fill="#C7D8F1"/>
<path d="M59.1093 111.813V157.412H69.2405V111.813H59.1093Z" fill="#D8E8FF"/>
<path d="M59.1013 124.731V129.739H69.2325V124.731H59.1013Z" fill="#C7D8F1"/>
<path d="M69.2319 154.685V152.821H59.1007V154.685H69.2319Z" fill="#C7D8F1"/>
<path d="M69.2405 146.116V144.253H59.1093V146.116H69.2405Z" fill="#C7D8F1"/>
<path d="M93.1296 157.396V110.092H83.4726V157.396H93.1296Z" fill="#D8E8FF"/>
<path d="M93.1296 143.987V138.788H83.4726V143.987H93.1296Z" fill="#C7D8F1"/>
<path d="M93.1296 121.354V119.424H83.4726V121.354H93.1296Z" fill="#C7D8F1"/>
<path d="M74.3729 157.395V110.332H69.2325V157.395H74.3729Z" fill="#C7D8F1"/>
<path d="M73.3665 132.866V114.767H70.2805V132.866H73.3665Z" fill="#F2F5F8"/>
<path d="M115.912 112.67V157.403H132.623V112.67H115.912Z" fill="#C7D8F1"/>
<path d="M119.181 135.993V153.194H129.204V135.993H119.181Z" fill="#F2F5F8"/>
<path d="M115.912 157.404V117.437H100.807V157.404H115.912Z" fill="#E1EDF8"/>
<path d="M115.912 153.17V149.443H100.807V153.17H115.912Z" fill="#D8E8FF"/>
<path d="M115.912 147.006V145.559H100.807V147.006H115.912Z" fill="#D8E8FF"/>
<path d="M149.142 157.404V112.662H140.467V157.404H149.142Z" fill="#E1EDF8"/>
<path d="M149.134 152.663V148.496H140.459V152.663H149.134Z" fill="#D8E8FF"/>
<path d="M149.142 126.053V121.886H140.467V126.053H149.142Z" fill="#D8E8FF"/>
<path d="M149.134 130.529V128.915H140.459V130.529H149.134Z" fill="#D8E8FF"/>
<path d="M83.4806 157.403V115.032H74.3725V157.403H83.4806Z" fill="#E1EDF8"/>
<path d="M83.4727 152.921V148.97H74.3645V152.921H83.4727Z" fill="#D8E8FF"/>
<path d="M83.4727 127.725V123.774H74.3645V127.725H83.4727Z" fill="#D8E8FF"/>
<path d="M83.4806 131.95V130.42H74.3725V131.95H83.4806Z" fill="#D8E8FF"/>
<path d="M93.1296 112.37V157.403H100.799V112.37H93.1296Z" fill="#C7D8F1"/>
<path d="M93.1376 117.145V121.345H100.807V117.145H93.1376Z" fill="#F2F5F8"/>
<path d="M93.1296 143.929V148.13H100.799V143.929H93.1296Z" fill="#F2F5F8"/>
<path d="M93.1296 139.42V141.051H100.799V139.42H93.1296Z" fill="#F2F5F8"/>
<path d="M103.705 248.644L97.8952 213.348H20.1776L17.8479 248.644H103.705Z" fill="#DBDBDB"/>
<path d="M26.818 248.644L28.9225 213.348H20.1777L17.8589 248.644H26.818Z" fill="#A6A6A6"/>
<path d="M100.743 154.964H134.054V144.273H100.743V154.964Z" fill="#263238"/>
<path d="M70.6071 231.303C74.9711 229.865 80.2354 229.265 83.7491 226.014C85.3127 224.458 86.4198 222.503 86.9502 220.362C87.2854 219.131 87.5278 217.877 87.6754 216.61C87.8958 215.265 88.0419 213.908 88.1131 212.546C88.1131 212.513 88.1262 212.481 88.1497 212.458C88.1731 212.435 88.205 212.421 88.2381 212.421C88.2713 212.421 88.3031 212.435 88.3265 212.458C88.35 212.481 88.3631 212.513 88.3631 212.546C88.3631 214.034 88.6632 215.51 88.6382 217.01C88.628 218.338 88.4856 219.662 88.2131 220.962C87.7574 223.306 86.6476 225.474 85.012 227.214C83.2392 228.838 81.0477 229.934 78.6849 230.377C76.0422 231.094 73.3375 231.559 70.6071 231.765C70.3821 231.79 70.3946 231.403 70.6071 231.303Z" fill="#263238"/>
<path d="M127.827 152.088C137.43 183.536 140.919 206.531 150.334 211.883C157.974 216.21 168.465 218.898 179.194 220.561C190.645 222.189 202.19 223.058 213.756 223.162C217.319 223.162 220.283 223.162 222.384 223.162C227.585 223.162 233.787 188.375 229.886 184.399C228.973 183.499 225.51 182.986 220.683 182.698C204.427 181.748 172.654 183.398 170.666 181.71C168.678 180.022 153.91 159.09 140.969 139.459C128.564 120.79 121.725 132.106 127.827 152.088Z" fill="#F7A9A0"/>
<path d="M211.817 220.461C216.968 222.363 222.24 223.917 227.598 225.113C231.862 225.888 244.178 227.776 245.491 223.162C246.392 220.024 239.239 218.06 234.238 216.56C231.599 215.772 228.223 213.459 228.798 211.758C229.799 208.782 236.601 210.958 241.127 213.009C249.88 216.96 261.797 224.463 266.411 219.736C268.149 217.96 265.636 215.297 262.097 212.809C267.711 215.56 273.601 217.685 275.614 215.785C276.131 215.295 276.442 214.627 276.484 213.916C276.525 213.205 276.295 212.505 275.839 211.958C276.535 212.191 277.284 212.214 277.993 212.025C278.702 211.836 279.34 211.443 279.828 210.895C281.354 208.932 280.253 206.381 278.09 203.868C278.416 203.795 278.719 203.643 278.972 203.425C279.225 203.207 279.421 202.93 279.54 202.618C282.591 196.716 262.822 182.748 256.408 181.911C237.501 179.41 218.057 183.074 218.057 183.074C211.455 189.663 211.805 220.449 211.817 220.461Z" fill="#F7A9A0"/>
<path d="M237.151 200.467C241.618 200.659 245.986 201.837 249.943 203.918C254.557 206.419 258.383 210.17 262.71 213.046C262.822 213.121 262.71 213.309 262.585 213.221C260.534 211.683 258.321 210.345 256.208 208.895C254.094 207.444 252.119 205.994 249.955 204.718C246.057 202.369 241.673 200.94 237.139 200.542C237.139 200.542 237.101 200.455 237.151 200.467Z" fill="#263238"/>
<path d="M239.777 192.277C244.821 192.931 249.786 194.095 254.594 195.753C259.784 197.754 264.06 201.443 268.262 204.981C270.762 207.107 273.234 209.291 275.677 211.534C275.777 211.621 275.677 211.809 275.539 211.709C271.279 208.041 266.907 204.506 262.422 201.105C258.286 197.918 253.561 195.581 248.517 194.228C245.629 193.453 242.69 192.977 239.764 192.365C239.714 192.352 239.714 192.265 239.777 192.277Z" fill="#263238"/>
<path d="M244.241 184.899C249.055 185.375 253.244 185.775 257.671 187.875C263.548 190.639 269.462 195.716 271.538 197.516C273.826 199.504 276.052 201.568 278.253 203.668C278.34 203.756 278.19 203.918 278.103 203.831C273.101 199.248 267.809 194.992 262.26 191.089C259.642 189.196 256.749 187.716 253.682 186.7C250.592 185.839 247.434 185.249 244.241 184.937C244.241 184.937 244.216 184.899 244.241 184.899Z" fill="#263238"/>
<path d="M205.491 225.05L217.632 181.81C217.632 181.81 174.28 182.873 171.367 181.26C168.453 179.647 152.423 154.351 140.419 137.495C130.99 124.203 120.512 125.916 127.189 153.475C134.229 182.535 140.018 205.393 147.834 211.658C161.025 222.174 205.491 225.05 205.491 225.05Z" fill="#FFE6B3"/>
<path d="M205.253 202.218C205.899 202.007 206.59 201.973 207.254 202.118C207.615 202.247 207.929 202.484 208.152 202.797C208.376 203.11 208.499 203.484 208.504 203.868C208.506 204.117 208.57 204.362 208.69 204.58C208.81 204.799 208.982 204.984 209.192 205.119C209.429 205.269 209.699 205.359 209.979 205.381C210.299 205.421 210.617 205.48 210.93 205.556C210.29 205.783 209.597 205.809 208.942 205.631C208.59 205.484 208.29 205.235 208.081 204.917C207.871 204.598 207.762 204.224 207.766 203.843C207.757 203.59 207.684 203.343 207.556 203.125C207.427 202.906 207.246 202.723 207.028 202.593C206.785 202.452 206.51 202.374 206.228 202.368C205.891 202.343 205.578 202.305 205.253 202.218ZM151.585 183.974C151.866 183.978 152.142 184.056 152.385 184.199C152.605 184.326 152.787 184.508 152.914 184.727C153.042 184.947 153.109 185.196 153.11 185.449C153.107 185.83 153.217 186.203 153.427 186.522C153.636 186.84 153.935 187.089 154.286 187.237C154.945 187.409 155.641 187.383 156.286 187.162C155.961 187.075 155.649 187.037 155.336 186.975C155.056 186.964 154.783 186.878 154.548 186.725C154.339 186.59 154.166 186.405 154.046 186.187C153.926 185.968 153.862 185.724 153.86 185.474C153.853 185.09 153.73 184.718 153.507 184.405C153.284 184.093 152.971 183.855 152.61 183.724C151.958 183.568 151.275 183.589 150.634 183.786C150.947 183.874 151.26 183.911 151.585 183.974ZM180.157 200.504C180.44 200.513 180.716 200.595 180.957 200.742C181.177 200.869 181.359 201.051 181.487 201.271C181.614 201.49 181.681 201.739 181.682 201.992C181.68 202.372 181.791 202.743 182 203.059C182.209 203.375 182.508 203.622 182.858 203.768C183.516 203.952 184.216 203.926 184.858 203.693C184.533 203.618 184.221 203.581 183.908 203.518C183.626 203.509 183.352 203.418 183.12 203.255C182.911 203.12 182.738 202.936 182.618 202.717C182.498 202.499 182.434 202.254 182.433 202.005C182.424 201.621 182.3 201.249 182.077 200.937C181.854 200.625 181.542 200.387 181.182 200.254C180.522 200.107 179.834 200.146 179.194 200.367C179.519 200.404 179.844 200.442 180.157 200.504ZM160.638 202.018C160.429 202.213 160.176 202.354 159.9 202.43C159.654 202.492 159.396 202.49 159.151 202.425C158.906 202.359 158.682 202.232 158.5 202.055C158.233 201.785 157.892 201.6 157.52 201.525C157.148 201.449 156.762 201.486 156.411 201.63C155.686 201.942 155.411 202.568 155.048 203.08C155.325 202.916 155.592 202.736 155.849 202.543C156.059 202.357 156.313 202.228 156.586 202.168C156.837 202.114 157.096 202.125 157.341 202.2C157.586 202.274 157.808 202.409 157.987 202.593C158.26 202.862 158.609 203.041 158.987 203.106C159.364 203.171 159.753 203.118 160.1 202.955C160.67 202.596 161.129 202.085 161.426 201.48C161.1 201.642 160.85 201.842 160.638 202.018ZM152.71 167.906C152.503 168.101 152.249 168.239 151.972 168.306C151.727 168.37 151.47 168.37 151.225 168.306C150.98 168.243 150.755 168.118 150.572 167.943C150.307 167.671 149.966 167.484 149.594 167.407C149.222 167.329 148.836 167.363 148.484 167.506C147.758 167.831 147.496 168.456 147.133 168.969C147.408 168.806 147.658 168.606 147.921 168.431C148.128 168.241 148.383 168.111 148.659 168.056C148.909 168.003 149.169 168.014 149.414 168.088C149.659 168.162 149.881 168.298 150.059 168.481C150.334 168.747 150.683 168.924 151.06 168.989C151.437 169.054 151.825 169.003 152.172 168.844C152.885 168.494 153.135 167.881 153.51 167.368C153.135 167.531 152.923 167.731 152.66 167.906H152.71ZM196.35 217.273C196.139 217.462 195.886 217.599 195.612 217.673C195.367 217.736 195.11 217.737 194.865 217.673C194.62 217.61 194.395 217.485 194.212 217.31C193.946 217.038 193.606 216.851 193.234 216.773C192.862 216.695 192.476 216.73 192.123 216.873C191.535 217.216 191.061 217.724 190.76 218.336C191.048 218.173 191.298 217.973 191.561 217.798C191.768 217.608 192.023 217.478 192.298 217.423C192.549 217.367 192.809 217.377 193.055 217.451C193.3 217.526 193.522 217.662 193.699 217.848C193.974 218.114 194.322 218.291 194.7 218.356C195.077 218.42 195.464 218.37 195.812 218.21C196.378 217.846 196.836 217.337 197.138 216.735C196.812 216.898 196.562 217.085 196.3 217.273H196.35ZM175.368 181.811C175.338 182.187 175.171 182.54 174.899 182.802C174.628 183.065 174.27 183.219 173.892 183.236C173.512 183.231 173.14 183.338 172.821 183.545C172.503 183.752 172.253 184.05 172.104 184.399C171.932 185.059 171.958 185.755 172.179 186.4C172.267 186.087 172.304 185.762 172.367 185.449C172.379 185.169 172.465 184.898 172.617 184.662C172.752 184.452 172.937 184.28 173.155 184.16C173.373 184.04 173.618 183.976 173.867 183.974C174.252 183.968 174.625 183.846 174.938 183.622C175.251 183.399 175.488 183.085 175.618 182.723C175.717 182.439 175.751 182.135 175.718 181.836L175.368 181.811ZM140.881 151.863C140.873 152.146 140.791 152.422 140.643 152.663C140.515 152.881 140.332 153.063 140.113 153.19C139.894 153.317 139.646 153.385 139.393 153.389C139.012 153.386 138.639 153.496 138.321 153.705C138.002 153.914 137.753 154.213 137.605 154.564C137.427 155.219 137.453 155.913 137.68 156.552C137.755 156.24 137.793 155.927 137.855 155.614C137.869 155.333 137.96 155.06 138.118 154.827C138.253 154.617 138.438 154.445 138.656 154.324C138.874 154.204 139.119 154.141 139.368 154.139C139.752 154.132 140.125 154.008 140.437 153.785C140.75 153.562 140.987 153.249 141.119 152.888C141.265 152.229 141.23 151.542 141.019 150.9C140.931 151.275 140.894 151.538 140.831 151.863H140.881ZM170.078 212.859C170.068 213.14 169.991 213.414 169.853 213.659C169.724 213.876 169.541 214.057 169.322 214.184C169.103 214.31 168.856 214.38 168.603 214.384C168.222 214.381 167.849 214.491 167.531 214.701C167.212 214.91 166.963 215.209 166.815 215.56C166.64 216.215 166.666 216.908 166.89 217.548C166.977 217.223 167.002 216.91 167.065 216.597C167.079 216.316 167.17 216.043 167.328 215.81C167.462 215.6 167.647 215.428 167.866 215.308C168.084 215.188 168.329 215.124 168.578 215.122C168.962 215.115 169.335 214.991 169.647 214.768C169.96 214.545 170.197 214.232 170.329 213.872C170.475 213.212 170.44 212.525 170.228 211.883C170.128 212.221 170.091 212.546 170.028 212.859H170.078ZM136.455 132.707L136.217 132.869C136.014 133.067 135.758 133.202 135.479 133.257C135.231 133.306 134.974 133.292 134.732 133.218C134.49 133.144 134.27 133.011 134.091 132.832C133.803 132.552 133.433 132.372 133.035 132.316C132.638 132.259 132.233 132.331 131.878 132.519C131.306 132.885 130.843 133.399 130.54 134.007C130.816 133.838 131.084 133.654 131.34 133.457C131.548 133.262 131.802 133.124 132.078 133.057C132.322 132.994 132.578 132.996 132.821 133.062C133.064 133.128 133.287 133.255 133.466 133.432C133.751 133.698 134.11 133.873 134.496 133.933C134.881 133.993 135.276 133.936 135.629 133.769C136.044 133.583 136.386 133.267 136.605 132.869L136.455 132.707ZM137.255 187.725C137.052 187.923 136.795 188.058 136.517 188.113H136.342C136.393 188.308 136.456 188.5 136.53 188.688C136.583 188.701 136.639 188.701 136.692 188.688C137.43 188.375 137.692 187.738 138.055 187.225C137.717 187.3 137.48 187.538 137.205 187.675L137.255 187.725ZM195.85 189.088C196.057 188.89 196.31 188.748 196.587 188.675C196.833 188.613 197.091 188.615 197.336 188.681C197.582 188.747 197.806 188.874 197.988 189.051C198.254 189.322 198.595 189.508 198.967 189.583C199.339 189.659 199.725 189.622 200.076 189.476C200.801 189.163 201.064 188.538 201.427 188.025C201.151 188.188 200.901 188.375 200.639 188.563C200.428 188.748 200.175 188.877 199.901 188.938C199.651 188.991 199.391 188.98 199.146 188.906C198.901 188.832 198.679 188.696 198.501 188.513C198.226 188.247 197.877 188.07 197.5 188.005C197.123 187.94 196.735 187.991 196.387 188.15C195.814 188.509 195.351 189.02 195.049 189.626C195.287 189.413 195.537 189.213 195.8 189.038L195.85 189.088Z" fill="white"/>
<path d="M203.152 203.068C204.111 199.667 205.045 196.261 205.953 192.852C206.879 189.338 207.516 185.725 208.542 182.236C208.542 182.086 208.354 182.048 208.317 182.236C207.341 185.712 205.991 189.113 204.915 192.577C203.84 196.041 202.865 199.304 201.889 202.693C199.951 209.52 197.951 216.385 196.475 223.325C196.475 223.537 196.763 223.65 196.838 223.437C199.301 216.748 201.239 209.87 203.152 203.068Z" fill="#263238"/>
<path d="M170.641 220.211C161.376 218.185 152.635 215.384 147.909 211.595C140.093 205.343 134.304 182.473 127.264 153.413C121.912 131.356 127.577 125.904 134.879 131.356L170.641 220.211Z" fill="#263238"/>
<path d="M143.132 231.303C140.994 232.978 57.0279 230.052 56.6777 229.515C55.7399 227.889 79.4354 151.626 115.448 128.231C121.8 124.117 131.34 127.13 135.454 130.444C137.505 132.107 143.407 144.586 144.107 154.714C144.808 164.843 144.382 230.19 143.132 231.303Z" fill="#FFE6B3"/>
<path d="M129.617 142.952C124.385 142.91 117.749 133.254 115.897 126.315C115.775 125.839 121.649 109.476 122.477 106.11C122.649 105.428 142.378 116.443 142.378 116.443C140.138 120.348 138.386 124.513 137.163 128.845C136.999 129.332 134.684 143 129.617 142.952Z" fill="#F7A9A0"/>
<path d="M123.144 106.268C122.877 111.943 123.285 126.988 134.696 130.089C135.386 130.272 136.089 130.398 136.799 130.466C136.992 129.543 137.106 128.953 137.117 128.832C138.343 124.505 140.095 120.346 142.333 116.445C142.234 116.371 142.126 116.309 142.011 116.261C141.872 116.161 141.689 116.077 141.474 115.949L141.244 115.822C141.121 115.736 140.968 115.666 140.815 115.582L140.263 115.27L139.344 114.777L139.006 114.578L138.301 114.182L135.512 112.657L134.455 112.078C133.995 111.838 133.536 111.599 133.091 111.329L131.728 110.61L131.56 110.526L129.247 109.285L128.481 108.876L126.951 108.118L125.957 107.612L124 106.658L123.557 106.463L123.144 106.268Z" fill="#263238"/>
<path d="M128.322 80.7913C123.622 87.3288 120.316 109.628 123.927 116.159C129.14 125.52 141.243 130.355 150.103 123.281C158.699 116.426 162.483 87.1969 158.129 80.9172C151.724 71.854 135.272 71.139 128.322 80.7913Z" fill="#F7A9A0"/>
<path d="M143.869 101.557C143.869 101.557 143.734 101.562 143.738 101.667C143.46 103.18 142.89 104.913 141.41 105.13L141.413 105.221C143.13 105.341 143.862 103.061 143.869 101.557Z" fill="#263238"/>
<path d="M142.857 99.6842C140.443 98.9874 139.216 103.855 141.523 104.51C143.831 105.166 144.876 100.275 142.857 99.6842Z" fill="#263238"/>
<path d="M152.489 103.058C152.489 103.058 152.598 103.16 152.495 103.223C152.067 104.741 151.813 106.494 153.046 107.352C153.046 107.352 153.049 107.457 153.046 107.352C151.477 106.761 151.8 104.405 152.489 103.058Z" fill="#263238"/>
<path d="M154.249 101.824C156.715 102.279 155.64 107.186 153.356 106.77C151.072 106.354 152.177 101.461 154.249 101.824Z" fill="#263238"/>
<path d="M138.38 116.341C139.114 116.079 139.922 115.64 140.706 115.914C141.491 116.277 142.184 116.81 142.736 117.475C142.736 117.475 142.911 117.485 142.843 117.361C142.726 116.809 142.463 116.299 142.082 115.883C141.701 115.467 141.215 115.162 140.675 114.998C140.194 114.916 139.699 114.978 139.253 115.176C138.807 115.374 138.429 115.699 138.166 116.111C138.151 116.125 138.139 116.141 138.13 116.16C138.122 116.179 138.117 116.199 138.116 116.22C138.115 116.24 138.119 116.261 138.126 116.28C138.133 116.299 138.144 116.317 138.158 116.332C138.172 116.347 138.189 116.36 138.207 116.368C138.226 116.377 138.246 116.382 138.267 116.382C138.288 116.383 138.308 116.38 138.327 116.373C138.347 116.365 138.365 116.355 138.38 116.341Z" fill="#263238"/>
<path d="M148.523 109.54C148.523 109.54 148.29 111.878 148.041 112.939C145.951 112.461 143.806 112.268 141.664 112.366C141.154 112.384 141.246 112.02 141.856 111.833C143.638 111.268 145.549 111.253 147.34 111.791C147.495 111.515 147.634 108.189 147.801 108.228C148.613 108.496 149.384 108.874 150.095 109.35C150.706 104.504 150.548 99.5799 151.236 94.7614C151.245 94.731 151.263 94.7042 151.288 94.6848C151.313 94.6653 151.343 94.6543 151.375 94.6531C151.406 94.652 151.438 94.6609 151.464 94.6786C151.49 94.6962 151.51 94.7217 151.521 94.7514C151.864 100.009 151.677 105.287 150.962 110.507C150.91 111.155 148.984 109.825 148.523 109.54Z" fill="#263238"/>
<path d="M140.975 95.7367C141.662 95.6074 142.307 95.5847 142.996 95.5154C143.701 95.3471 144.441 95.4107 145.107 95.6968C145.297 95.829 145.437 96.02 145.508 96.2403C145.578 96.4607 145.574 96.698 145.495 96.9156C145.273 97.3205 144.948 97.6593 144.552 97.8976C144.157 98.1359 143.705 98.2651 143.243 98.2722C142.31 98.4311 141.351 98.24 140.549 97.7355C140.372 97.6101 140.234 97.4352 140.155 97.2325C140.076 97.0299 140.058 96.8085 140.103 96.5956C140.148 96.3828 140.255 96.1879 140.41 96.0352C140.565 95.8825 140.762 95.7787 140.975 95.7367Z" fill="#263238"/>
<path d="M158.283 96.4222C157.755 95.9907 157.204 95.5886 156.632 95.2177C156.117 94.7141 155.451 94.3941 154.736 94.3073C154.506 94.3206 154.288 94.4114 154.116 94.5647C153.944 94.7181 153.829 94.9251 153.789 95.1521C153.771 95.6151 153.878 96.0743 154.099 96.4816C154.319 96.889 154.645 97.2296 155.043 97.4677C155.768 98.0783 156.697 98.3944 157.644 98.3533C157.858 98.3327 158.062 98.2501 158.231 98.1156C158.399 97.9811 158.525 97.8006 158.593 97.5959C158.66 97.3913 158.667 97.1714 158.612 96.963C158.557 96.7546 158.442 96.5667 158.283 96.4222Z" fill="#263238"/>
<path d="M134.134 99.5237C136.005 100.164 136.215 96.2945 136.258 94.9404C136.433 93.5437 136.732 92.1652 137.15 90.8211C136.653 92.1401 136.033 93.4097 135.299 94.6133C134.48 95.6791 132.262 98.853 134.134 99.5237Z" fill="white"/>
<path d="M121.775 102.363C121.775 102.363 117.698 86.8451 120.685 79.451C122.07 76.111 127.404 75.1873 127.404 75.1873C127.459 73.6776 127.935 72.2134 128.778 70.9596C129.621 69.7059 130.797 68.7124 132.174 68.0913C137.372 65.4591 146.973 69.24 146.973 69.24C146.973 69.24 156.079 61.9017 164.026 68.2206C171.973 74.5395 163.044 83.0589 163.044 83.0589C163.044 83.0589 164.971 88.7325 155.773 90.0172C146.8 91.2791 131.75 82.9852 131.75 82.9852C130.861 88.7546 129.112 94.3582 126.563 99.6094C126.095 100.464 125.4 101.173 124.555 101.659C123.711 102.144 122.749 102.388 121.775 102.363Z" fill="#263238"/>
<path d="M148.497 69.8182C146.722 68.4042 144.675 67.371 142.483 66.7829C140.532 66.1684 138.488 65.8993 136.444 65.988C134.642 65.9604 132.866 66.4255 131.309 67.333C129.751 68.2405 128.472 69.556 127.607 71.1376C127.215 71.9737 126.994 72.8796 126.957 73.8023C126.92 74.7249 127.067 75.6457 127.39 76.5107C127.393 76.5858 127.525 76.506 127.495 76.507C126.18 73.2918 128.47 69.6044 131.257 68.0788C134.554 66.5747 138.286 66.3261 141.753 67.3796C144.003 68.0018 146.169 68.8948 148.204 70.0388C148.218 70.0581 148.236 70.0742 148.257 70.0865C148.278 70.0987 148.301 70.1067 148.325 70.11C148.348 70.1134 148.373 70.112 148.396 70.106C148.419 70.0999 148.441 70.0894 148.46 70.0749C148.48 70.0604 148.496 70.0423 148.508 70.0215C148.52 70.0008 148.528 69.9778 148.532 69.954C148.535 69.9301 148.534 69.9059 148.528 69.8826C148.522 69.8593 148.511 69.8374 148.497 69.8182Z" fill="#263238"/>
<path d="M169.206 74.5013C169.139 73.1786 168.749 71.8924 168.07 70.7554C167.391 69.6184 166.443 68.6655 165.31 67.9801C162.756 66.2964 159.714 65.5144 156.665 65.7587C153.598 66.0131 150.656 67.0871 148.147 68.8682C148.147 68.8682 148.152 69.0033 148.151 68.9733C150.4 67.4167 153.027 66.4957 155.755 66.3073C158.484 66.119 161.212 66.6702 163.654 67.903C164.807 68.3722 165.825 69.1206 166.616 70.0809C167.408 71.0411 167.949 72.1832 168.19 73.4042C168.431 74.6253 168.365 75.8872 167.998 77.0763C167.63 78.2655 166.973 79.3447 166.085 80.2168C164.006 82.2609 161.395 83.6804 158.549 84.3139C158.549 84.3139 158.553 84.434 158.552 84.419C161.208 83.9684 163.703 82.846 165.802 81.1586C166.813 80.3571 167.64 79.348 168.227 78.1996C168.814 77.0511 169.148 75.7899 169.206 74.5013Z" fill="#263238"/>
<path d="M157.643 91.035C153.61 91.419 149.541 90.942 145.706 89.6356C141.702 88.3329 137.851 86.5984 134.222 84.4628C132.105 83.2446 130.03 81.9348 127.984 80.5938C127.984 80.5938 127.864 80.5981 127.988 80.6989C131.423 83.546 135.147 86.0246 139.099 88.094C142.79 89.9747 146.812 91.1198 150.94 91.4657C153.206 91.6367 155.484 91.5214 157.721 91.1225C157.721 91.1225 157.703 91.0179 157.643 91.035Z" fill="#263238"/>
<path d="M127.01 99.489C127.01 99.489 124.386 91.1046 120.729 91.8341C117.073 92.5637 117.521 103.64 120.751 106.156C121.135 106.503 121.585 106.77 122.074 106.94C122.563 107.111 123.081 107.182 123.598 107.15C124.115 107.118 124.62 106.983 125.084 106.753C125.548 106.523 125.961 106.203 126.3 105.811L127.01 99.489Z" fill="#F7A9A0"/>
<path d="M120.93 94.9982L120.933 95.0883C123.163 96.9488 123.757 99.7385 123.929 102.498C123.86 102.193 123.726 101.906 123.536 101.658C123.346 101.409 123.105 101.205 122.828 101.059C122.552 100.913 122.247 100.829 121.934 100.812C121.622 100.795 121.31 100.846 121.019 100.962C121.019 100.962 121.025 101.112 121.025 101.112C121.521 101.114 122.005 101.269 122.41 101.556C122.816 101.843 123.123 102.248 123.29 102.716C123.562 103.499 123.751 104.308 123.856 105.13C123.865 105.401 124.347 105.414 124.351 105.113C125.423 101.814 124.332 96.4418 120.93 94.9982Z" fill="#263238"/>
<path d="M127.061 152.41C127.703 152.198 128.39 152.163 129.05 152.31C129.411 152.441 129.723 152.678 129.946 152.991C130.17 153.303 130.293 153.676 130.3 154.06C130.302 154.309 130.366 154.554 130.486 154.772C130.606 154.991 130.778 155.176 130.988 155.311C131.223 155.464 131.495 155.55 131.776 155.561C132.088 155.561 132.401 155.661 132.713 155.748C132.074 155.976 131.38 156.002 130.725 155.823C130.374 155.675 130.075 155.426 129.866 155.107C129.657 154.789 129.547 154.416 129.55 154.035C129.545 153.782 129.476 153.535 129.349 153.316C129.222 153.097 129.042 152.914 128.825 152.785C128.582 152.642 128.306 152.564 128.024 152.56C127.687 152.522 127.374 152.522 127.061 152.41ZM141.754 213.918C142.04 213.93 142.319 214.012 142.567 214.155C142.782 214.287 142.962 214.47 143.088 214.688C143.215 214.907 143.285 215.154 143.292 215.406C143.289 215.787 143.399 216.16 143.608 216.478C143.818 216.797 144.117 217.046 144.467 217.194C145.123 217.365 145.815 217.339 146.456 217.119C146.143 217.031 145.83 216.994 145.505 216.931C145.225 216.919 144.953 216.833 144.717 216.681C144.51 216.545 144.338 216.359 144.218 216.142C144.098 215.924 144.034 215.68 144.03 215.431C144.022 215.046 143.898 214.672 143.675 214.357C143.452 214.043 143.14 213.803 142.779 213.668C142.119 213.52 141.431 213.559 140.791 213.78C141.129 213.793 141.441 213.855 141.754 213.918ZM99.5272 177.656C99.8133 177.668 100.092 177.75 100.34 177.893C100.556 178.025 100.735 178.208 100.862 178.426C100.988 178.645 101.058 178.891 101.065 179.144C101.062 179.525 101.172 179.898 101.382 180.216C101.591 180.534 101.89 180.783 102.241 180.932C102.896 181.103 103.588 181.077 104.229 180.857C103.916 180.769 103.604 180.732 103.278 180.669C102.998 180.657 102.727 180.571 102.491 180.419C102.284 180.281 102.114 180.095 101.994 179.878C101.875 179.66 101.809 179.417 101.803 179.169C101.795 178.783 101.671 178.409 101.448 178.095C101.225 177.781 100.913 177.541 100.552 177.406C99.8921 177.258 99.2038 177.297 98.5643 177.518C98.9019 177.531 99.2146 177.531 99.5272 177.593V177.656ZM136.415 234.337C136.701 234.34 136.981 234.418 137.227 234.562C137.443 234.694 137.622 234.877 137.749 235.095C137.876 235.314 137.946 235.56 137.953 235.813C137.948 236.194 138.058 236.568 138.267 236.887C138.476 237.205 138.776 237.454 139.128 237.601C139.784 237.772 140.475 237.746 141.116 237.526C140.804 237.438 140.491 237.401 140.166 237.338C139.886 237.326 139.614 237.24 139.378 237.088C139.171 236.952 139.001 236.766 138.883 236.548C138.765 236.33 138.703 236.086 138.703 235.838C138.696 235.454 138.572 235.081 138.349 234.769C138.126 234.456 137.813 234.219 137.452 234.087C136.793 233.941 136.106 233.975 135.464 234.187C135.789 234.175 136.102 234.212 136.415 234.275V234.337ZM118.459 204.14C118.744 204.142 119.025 204.22 119.271 204.365C119.485 204.498 119.664 204.681 119.79 204.899C119.916 205.117 119.987 205.363 119.997 205.615C119.994 205.996 120.104 206.369 120.313 206.687C120.522 207.006 120.821 207.255 121.172 207.403C121.827 207.582 122.521 207.555 123.16 207.328C122.848 207.241 122.535 207.203 122.222 207.141C121.942 207.13 121.67 207.044 121.435 206.891C121.225 206.756 121.053 206.571 120.933 206.352C120.812 206.134 120.749 205.889 120.747 205.64C120.74 205.256 120.616 204.883 120.393 204.571C120.17 204.258 119.857 204.021 119.496 203.89C118.837 203.743 118.15 203.778 117.508 203.99C117.833 203.977 118.121 204.015 118.459 204.077V204.14ZM84.4971 209.729C84.7788 209.733 85.0546 209.811 85.2973 209.954C85.517 210.081 85.6996 210.263 85.8268 210.483C85.9541 210.702 86.0216 210.951 86.0226 211.204C86.0197 211.585 86.1298 211.959 86.339 212.277C86.5483 212.595 86.8472 212.844 87.198 212.993C87.8536 213.164 88.5453 213.138 89.1862 212.918C88.8736 212.83 88.5609 212.793 88.2483 212.73C87.968 212.719 87.6957 212.633 87.4606 212.48C87.2511 212.345 87.0786 212.16 86.9585 211.942C86.8385 211.723 86.7746 211.479 86.7728 211.23C86.7657 210.846 86.6424 210.473 86.4191 210.16C86.1959 209.848 85.8833 209.61 85.5224 209.479C84.8628 209.333 84.1759 209.367 83.5342 209.579C83.8593 209.566 84.172 209.604 84.4971 209.666V209.729ZM134.101 178.468C134.384 178.479 134.659 178.561 134.902 178.706C135.121 178.834 135.304 179.016 135.433 179.235C135.562 179.454 135.633 179.702 135.639 179.956C135.634 180.336 135.741 180.709 135.949 181.028C136.156 181.346 136.453 181.596 136.802 181.745C137.462 181.916 138.158 181.89 138.803 181.67C138.49 181.582 138.165 181.544 137.853 181.482C137.573 181.47 137.301 181.383 137.065 181.232C136.855 181.097 136.683 180.912 136.563 180.694C136.443 180.475 136.379 180.231 136.377 179.981C136.372 179.597 136.249 179.223 136.026 178.911C135.802 178.598 135.489 178.361 135.127 178.231C134.467 178.08 133.779 178.115 133.139 178.331C133.459 178.352 133.78 178.356 134.101 178.343V178.468ZM118.246 141.606L118.033 141.768C118.039 141.864 118.039 141.96 118.033 142.056C118.019 142.338 117.938 142.612 117.796 142.856C117.669 143.076 117.487 143.259 117.267 143.386C117.048 143.513 116.799 143.581 116.545 143.582C116.256 143.581 115.97 143.645 115.708 143.769C115.389 143.925 115.117 144.162 114.92 144.457C114.851 144.549 114.797 144.65 114.757 144.757C114.586 145.417 114.612 146.113 114.832 146.758C114.92 146.433 114.957 146.12 115.02 145.807C115.03 145.527 115.117 145.255 115.27 145.02C115.407 144.812 115.592 144.64 115.81 144.521C116.028 144.401 116.272 144.336 116.52 144.332C116.905 144.322 117.278 144.198 117.592 143.975C117.906 143.753 118.147 143.441 118.284 143.081C118.42 142.597 118.407 142.083 118.246 141.606ZM120.159 185.271C120.151 185.554 120.069 185.829 119.922 186.071C119.795 186.291 119.613 186.473 119.393 186.6C119.174 186.728 118.925 186.795 118.671 186.796C118.292 186.794 117.921 186.905 117.605 187.114C117.289 187.323 117.042 187.622 116.896 187.972C116.711 188.63 116.737 189.33 116.971 189.972C117.046 189.647 117.083 189.335 117.146 189.022C117.155 188.739 117.246 188.466 117.408 188.234C117.543 188.025 117.728 187.852 117.946 187.732C118.165 187.612 118.409 187.548 118.659 187.546C119.044 187.54 119.419 187.417 119.734 187.194C120.048 186.971 120.288 186.658 120.422 186.296C120.569 185.636 120.53 184.947 120.309 184.308C120.259 184.633 120.222 184.958 120.159 185.271ZM89.5613 187.259C89.5531 187.542 89.4712 187.818 89.3237 188.059C89.195 188.277 89.0124 188.458 88.7934 188.585C88.5744 188.712 88.3264 188.781 88.0733 188.784C87.6924 188.782 87.3192 188.892 87.0009 189.101C86.6826 189.31 86.4336 189.609 86.2852 189.96C86.1067 190.615 86.1329 191.308 86.3602 191.948C86.4352 191.635 86.4727 191.323 86.5353 191.01C86.5495 190.729 86.6403 190.456 86.7978 190.222C86.9328 190.013 87.1178 189.84 87.3361 189.72C87.5544 189.6 87.7991 189.536 88.0483 189.535C88.4322 189.528 88.805 189.404 89.1175 189.181C89.43 188.958 89.6676 188.645 89.7989 188.284C89.9452 187.625 89.9106 186.938 89.6988 186.296C89.6613 186.621 89.6238 186.934 89.5613 187.259ZM105.729 157.736C105.726 158.022 105.649 158.303 105.504 158.549C105.373 158.765 105.19 158.944 104.971 159.071C104.753 159.197 104.506 159.267 104.254 159.274C103.873 159.272 103.5 159.382 103.181 159.591C102.863 159.8 102.614 160.099 102.466 160.45C102.287 161.105 102.313 161.798 102.541 162.438C102.628 162.125 102.666 161.813 102.728 161.5C102.739 161.22 102.825 160.948 102.978 160.712C103.113 160.503 103.298 160.33 103.517 160.21C103.735 160.09 103.98 160.026 104.229 160.025C104.613 160.018 104.985 159.894 105.298 159.671C105.61 159.448 105.848 159.135 105.979 158.774C106.126 158.115 106.091 157.428 105.879 156.786C105.829 157.111 105.792 157.424 105.729 157.736ZM148.331 161.863C148.323 162.146 148.241 162.422 148.094 162.663C147.965 162.881 147.782 163.062 147.563 163.189C147.344 163.316 147.096 163.385 146.843 163.388C146.462 163.385 146.089 163.496 145.771 163.705C145.453 163.914 145.203 164.213 145.055 164.564C144.877 165.219 144.903 165.912 145.13 166.552C145.205 166.239 145.243 165.927 145.305 165.614C145.319 165.332 145.41 165.06 145.568 164.826C145.703 164.617 145.888 164.444 146.106 164.324C146.324 164.204 146.569 164.14 146.818 164.139C147.202 164.131 147.575 164.008 147.887 163.785C148.2 163.562 148.437 163.249 148.569 162.888C148.715 162.229 148.681 161.542 148.469 160.9C148.431 161.275 148.394 161.538 148.331 161.863ZM107.855 218.057C107.846 218.342 107.769 218.621 107.63 218.87C107.497 219.084 107.313 219.262 107.095 219.388C106.877 219.515 106.631 219.586 106.379 219.595C105.999 219.592 105.625 219.702 105.307 219.911C104.989 220.121 104.74 220.419 104.591 220.77C104.413 221.425 104.439 222.119 104.666 222.758C104.754 222.446 104.779 222.133 104.841 221.808C104.864 221.528 104.954 221.258 105.104 221.02C105.24 220.813 105.426 220.643 105.644 220.525C105.862 220.407 106.106 220.346 106.354 220.345C106.738 220.338 107.111 220.215 107.424 219.991C107.736 219.768 107.974 219.456 108.105 219.095C108.251 218.435 108.217 217.748 108.005 217.106C107.955 217.432 107.917 217.744 107.855 218.057ZM73.4183 219.795C73.4097 220.08 73.3325 220.359 73.1933 220.608C73.0602 220.822 72.8766 221 72.6585 221.126C72.4405 221.253 72.1947 221.324 71.9428 221.333C71.5616 221.328 71.1877 221.438 70.8691 221.647C70.5505 221.857 70.3017 222.157 70.1547 222.508C69.9763 223.163 70.0025 223.857 70.2297 224.496C70.3073 224.184 70.3658 223.866 70.4048 223.546C70.4269 223.266 70.517 222.996 70.6674 222.758C70.8038 222.551 70.9894 222.381 71.2076 222.263C71.4258 222.146 71.6698 222.084 71.9178 222.083C72.3009 222.073 72.6721 221.948 72.984 221.725C73.2959 221.502 73.5342 221.192 73.6684 220.833C73.8147 220.173 73.7802 219.486 73.5684 218.845C73.5183 219.17 73.4808 219.482 73.4183 219.795ZM93.5126 226.56C93.5098 226.846 93.4322 227.126 93.2875 227.372C93.1588 227.59 92.9762 227.772 92.7572 227.899C92.5382 228.026 92.2903 228.094 92.0371 228.098C91.6562 228.095 91.2831 228.205 90.9648 228.414C90.6465 228.623 90.3974 228.922 90.249 229.273C90.0776 229.929 90.1037 230.62 90.324 231.261C90.4116 230.949 90.4491 230.636 90.5116 230.323C90.5222 230.043 90.6086 229.771 90.7617 229.536C90.8966 229.326 91.0816 229.154 91.2999 229.034C91.5182 228.914 91.763 228.85 92.0121 228.848C92.3961 228.841 92.7689 228.717 93.0813 228.494C93.3938 228.271 93.6314 227.958 93.7627 227.598C93.909 226.938 93.8745 226.251 93.6627 225.609C93.6127 225.934 93.5751 226.297 93.5126 226.56ZM144.38 142.369C144.13 142.519 143.892 142.706 143.642 142.869C143.439 143.067 143.183 143.202 142.904 143.257C142.656 143.305 142.399 143.292 142.157 143.218C141.915 143.144 141.695 143.011 141.516 142.831C141.234 142.568 140.878 142.397 140.496 142.342C140.114 142.286 139.724 142.348 139.378 142.519C138.806 142.884 138.343 143.399 138.04 144.007C138.317 143.838 138.584 143.654 138.84 143.457C139.048 143.262 139.302 143.124 139.578 143.056C139.822 142.994 140.078 142.996 140.321 143.062C140.565 143.127 140.787 143.255 140.966 143.432C141.252 143.698 141.61 143.872 141.996 143.932C142.382 143.993 142.776 143.936 143.129 143.769C143.681 143.443 144.118 142.954 144.38 142.369ZM116.233 167.627C116.438 167.427 116.693 167.285 116.971 167.215C117.217 167.153 117.474 167.154 117.72 167.22C117.965 167.286 118.189 167.413 118.371 167.59C118.638 167.86 118.979 168.044 119.35 168.12C119.722 168.196 120.108 168.159 120.459 168.015C121.184 167.702 121.46 167.065 121.822 166.552C121.546 166.721 121.279 166.904 121.022 167.102C120.812 167.287 120.558 167.416 120.284 167.477C120.034 167.527 119.775 167.514 119.531 167.44C119.286 167.366 119.064 167.233 118.884 167.052C118.61 166.784 118.262 166.605 117.885 166.538C117.508 166.471 117.12 166.519 116.77 166.677C116.198 167.043 115.736 167.557 115.433 168.165C115.745 168.002 115.995 167.802 116.258 167.627H116.233ZM98.9269 201.714C99.1358 201.518 99.389 201.377 99.6647 201.301C99.9108 201.239 100.169 201.241 100.414 201.307C100.659 201.372 100.883 201.5 101.065 201.676C101.331 201.948 101.672 202.133 102.044 202.209C102.416 202.285 102.803 202.247 103.153 202.101C103.879 201.789 104.141 201.164 104.516 200.651C104.24 200.816 103.973 200.995 103.716 201.189C103.506 201.374 103.252 201.503 102.978 201.564C102.728 201.617 102.468 201.606 102.223 201.532C101.978 201.457 101.756 201.322 101.578 201.139C101.305 200.869 100.956 200.69 100.578 200.626C100.2 200.561 99.8117 200.613 99.4646 200.776C98.891 201.135 98.4278 201.646 98.1267 202.251C98.4393 202.089 98.6894 201.889 98.952 201.714H98.9269ZM106.429 237.126C106.64 236.936 106.893 236.799 107.167 236.726C107.413 236.664 107.671 236.665 107.916 236.731C108.161 236.797 108.386 236.924 108.568 237.101C108.83 237.365 109.163 237.548 109.527 237.628C109.89 237.707 110.269 237.681 110.618 237.551C111.344 237.238 111.619 236.601 111.981 236.088C111.694 236.25 111.444 236.451 111.181 236.626C110.974 236.819 110.72 236.953 110.443 237.013C110.193 237.063 109.934 237.05 109.69 236.976C109.445 236.902 109.223 236.769 109.043 236.588C108.769 236.32 108.421 236.141 108.044 236.074C107.667 236.007 107.279 236.055 106.93 236.213C106.367 236.571 105.912 237.077 105.617 237.676C105.917 237.551 106.167 237.313 106.429 237.126ZM139.928 198.2C140.133 198.009 140.382 197.871 140.654 197.8C140.9 197.738 141.157 197.74 141.403 197.805C141.648 197.871 141.872 197.998 142.054 198.175C142.323 198.442 142.663 198.625 143.034 198.7C143.406 198.776 143.791 198.741 144.142 198.6C144.88 198.288 145.143 197.65 145.505 197.137C145.218 197.3 144.98 197.5 144.705 197.675C144.502 197.873 144.245 198.008 143.967 198.063C143.719 198.114 143.461 198.102 143.219 198.027C142.976 197.953 142.756 197.819 142.579 197.637C142.303 197.37 141.953 197.191 141.574 197.124C141.195 197.057 140.805 197.105 140.454 197.262C139.88 197.64 139.422 198.168 139.128 198.788C139.378 198.588 139.653 198.388 139.928 198.2ZM124.198 223.021C124.407 222.829 124.661 222.691 124.936 222.621C125.181 222.557 125.438 222.557 125.683 222.621C125.928 222.684 126.153 222.809 126.336 222.983C126.601 223.256 126.942 223.442 127.314 223.52C127.686 223.598 128.072 223.564 128.424 223.421C129.013 223.078 129.487 222.569 129.787 221.958C129.5 222.121 129.25 222.321 128.987 222.496C128.78 222.686 128.525 222.816 128.249 222.871C127.999 222.927 127.739 222.917 127.493 222.842C127.248 222.768 127.026 222.631 126.849 222.446C126.574 222.18 126.225 222.003 125.848 221.938C125.471 221.873 125.083 221.924 124.736 222.083C124.168 222.449 123.706 222.958 123.398 223.559C123.685 223.396 123.935 223.196 124.198 223.021ZM71.0425 236.888C71.2466 236.693 71.4957 236.551 71.7678 236.476C72.014 236.417 72.2709 236.421 72.5154 236.486C72.7599 236.552 72.9842 236.677 73.1682 236.851C73.4344 237.121 73.7746 237.307 74.1462 237.385C74.5177 237.463 74.904 237.429 75.2564 237.288C75.9942 236.963 76.2568 236.338 76.6194 235.825C76.3432 235.99 76.076 236.17 75.8191 236.363C75.6088 236.548 75.355 236.677 75.0814 236.738C74.831 236.792 74.5712 236.781 74.3263 236.706C74.0814 236.632 73.8593 236.497 73.6809 236.313C73.4061 236.047 73.0573 235.87 72.6803 235.805C72.3033 235.741 71.9155 235.791 71.5677 235.95C71.0015 236.314 70.5437 236.824 70.2423 237.426C70.5173 237.263 70.7674 237.063 71.0425 236.888Z" fill="#1D375E"/>
<path d="M104.819 138.371C91.0645 153.851 58.3659 212.071 69.5197 222.225C80.6735 232.378 140.669 216.71 157.399 208.182C162.401 205.681 142.394 174.708 136.43 174.133C131.428 173.658 106.557 185.875 105.794 184.437C105.032 182.999 108.608 170.607 114.097 148.525C120.412 123.066 110.871 131.531 104.819 138.371Z" fill="#F7A9A0"/>
<path d="M161.213 163.317C173.43 161.291 176.881 162.642 186.222 155.452C192.386 150.738 198.051 152.638 194.65 159.966C189.098 171.957 173.893 177.884 168.028 178.422L161.213 163.317Z" fill="#F7A9A0"/>
<path d="M128.977 175.983C128.977 175.983 142.544 167.968 155.348 164.517C164.189 162.128 184.033 159.077 203.602 178.209C208.241 182.748 211.63 192.501 201.364 187.85C194.061 184.536 190.435 180.235 185.846 179.097C185.846 179.097 188.685 192.014 183.958 196.49C179.827 200.399 175.422 204.01 170.779 207.294C169.982 206.578 169.23 205.814 168.528 205.005C168.528 205.005 163.726 208.757 154.461 208.131L128.977 175.983Z" fill="#F7A9A0"/>
<path d="M164.151 163.592C168.478 165.693 177.556 170.319 183.658 176.671C190.448 183.749 201.627 199.179 196.35 204.181C192.486 207.819 187.709 202.292 187.709 202.292C187.709 202.292 190.985 209.657 186.772 212.171C182.933 214.472 179.494 209.97 179.494 209.97C179.494 209.97 180.744 214.784 176.593 216.285C171.591 218.085 169.891 207.719 163.301 205.218C161.813 204.618 164.151 163.592 164.151 163.592Z" fill="#F7A9A0"/>
<path d="M175.005 182.611C181.142 187.646 185.596 194.434 187.772 202.067C187.772 202.255 187.697 202.405 187.61 202.23C184.195 195.219 179.937 188.652 174.93 182.673C174.93 182.673 174.955 182.536 175.005 182.611Z" fill="#263238"/>
<path d="M168.066 189.662C171.054 192.276 177.831 201.041 179.645 209.844C179.645 210.044 179.557 210.182 179.482 210.007C176.435 202.831 172.58 196.027 167.991 189.725C167.991 189.725 168.028 189.625 168.066 189.662Z" fill="#263238"/>
<path d="M185.847 178.997C189.873 180.072 192.524 181.961 195.95 184.211C197.639 185.346 199.388 186.39 201.189 187.337C202.84 188.175 205.278 189.438 206.966 188.013C207.362 187.577 207.632 187.042 207.746 186.465C207.861 185.888 207.816 185.29 207.616 184.736C207.091 183.126 206.31 181.61 205.303 180.247C205.303 180.247 205.303 180.122 205.391 180.172C206.357 181.414 207.195 182.751 207.892 184.161C208.346 185.128 208.498 186.208 208.329 187.262C207.804 189.488 205.216 189.838 203.328 189.288C202.224 188.915 201.16 188.433 200.151 187.85C199.164 187.325 198.213 186.737 197.263 186.137C195.337 184.887 193.512 183.636 191.549 182.311C189.684 181.13 187.746 180.069 185.747 179.135C185.709 179.097 185.772 178.985 185.847 178.997Z" fill="#263238"/>
<path d="M194.587 192.839C191.965 188.072 189.041 183.478 185.834 179.084L185.909 179.009C189.097 181.873 194.312 189.575 195.549 192.064C196.787 194.552 198.175 197.653 198.25 200.417C198.363 204.593 195.612 205.418 194.599 205.681C193.392 205.94 192.132 205.772 191.035 205.206C189.743 204.46 188.619 203.456 187.734 202.255L187.809 202.18C189.297 203.78 191.748 205.343 194.061 204.981C194.553 204.916 195.028 204.755 195.457 204.506C195.886 204.257 196.262 203.925 196.562 203.53C197.148 202.504 197.352 201.303 197.137 200.141C196.711 197.579 195.848 195.109 194.587 192.839Z" fill="#263238"/>
<path d="M128.977 175.984L149.384 216.123C149.384 216.123 74.2713 235.104 67.394 222.125C60.5167 209.145 88.5012 156.878 101.331 141.535C116.198 123.741 118.311 129.606 115.348 145.099C112.234 161.354 106.032 184.812 106.032 184.812L128.977 175.984Z" fill="#FFE6B3"/>
<path d="M133.316 203.793C133.956 203.572 134.644 203.533 135.305 203.68C135.665 203.815 135.977 204.056 136.2 204.37C136.423 204.684 136.547 205.058 136.555 205.443C136.559 205.692 136.624 205.936 136.744 206.154C136.863 206.372 137.035 206.557 137.243 206.694C137.479 206.845 137.75 206.932 138.03 206.944C138.356 207.006 138.668 207.044 138.981 207.131C138.34 207.352 137.648 207.378 136.993 207.207C136.642 207.058 136.343 206.809 136.134 206.491C135.924 206.172 135.814 205.799 135.817 205.418C135.81 205.166 135.74 204.919 135.614 204.701C135.487 204.483 135.308 204.299 135.092 204.168C134.844 204.024 134.565 203.943 134.279 203.93C133.942 203.855 133.629 203.793 133.316 203.793ZM92.0524 167.643C92.3385 167.656 92.6173 167.737 92.8651 167.881C93.0808 168.012 93.2601 168.195 93.3867 168.414C93.5134 168.632 93.5834 168.879 93.5904 169.131C93.5875 169.512 93.6976 169.885 93.9068 170.203C94.1161 170.522 94.415 170.771 94.7658 170.919C95.4214 171.091 96.1131 171.065 96.754 170.844C96.4413 170.757 96.1287 170.719 95.8036 170.657C95.5236 170.644 95.2518 170.558 95.0159 170.407C94.8095 170.268 94.6393 170.083 94.5196 169.865C94.3999 169.648 94.3342 169.404 94.3281 169.156C94.32 168.771 94.1965 168.397 93.9736 168.083C93.7507 167.768 93.4386 167.528 93.0777 167.393C92.4174 167.246 91.729 167.285 91.0895 167.506C91.4021 167.531 91.7148 167.531 92.0274 167.593L92.0524 167.643ZM110.984 194.127C111.27 194.13 111.55 194.207 111.797 194.352C112.011 194.485 112.189 194.669 112.315 194.887C112.442 195.105 112.513 195.351 112.522 195.603C112.519 195.983 112.629 196.357 112.838 196.675C113.047 196.993 113.346 197.242 113.697 197.391C114.352 197.569 115.046 197.543 115.685 197.316C115.373 197.228 115.06 197.191 114.748 197.128C114.467 197.118 114.195 197.031 113.96 196.878C113.75 196.743 113.578 196.558 113.458 196.34C113.338 196.121 113.274 195.877 113.272 195.628C113.265 195.244 113.142 194.871 112.918 194.558C112.695 194.246 112.382 194.008 112.022 193.877C111.362 193.731 110.675 193.765 110.033 193.977C110.334 193.977 110.621 194.015 110.959 194.077L110.984 194.127ZM77.0223 199.716C77.304 199.721 77.5798 199.798 77.8225 199.942C78.0422 200.068 78.2248 200.251 78.352 200.47C78.4793 200.689 78.5468 200.938 78.5478 201.192C78.5449 201.573 78.655 201.946 78.8643 202.264C79.0735 202.583 79.3724 202.832 79.7232 202.98C80.3788 203.152 81.0705 203.125 81.7114 202.905C81.3988 202.818 81.0862 202.78 80.7735 202.717C80.4932 202.707 80.2209 202.621 79.9858 202.467C79.7763 202.332 79.6038 202.147 79.4837 201.929C79.3637 201.711 79.2999 201.466 79.298 201.217C79.2909 200.833 79.1676 200.46 78.9444 200.148C78.7211 199.835 78.4085 199.598 78.0476 199.466C77.388 199.32 76.7011 199.355 76.0594 199.566C76.3595 199.566 76.6722 199.604 76.9973 199.666L77.0223 199.716ZM110.784 132.006L110.409 132.269C110.385 132.498 110.313 132.72 110.196 132.919C110.069 133.139 109.887 133.321 109.668 133.448C109.448 133.576 109.199 133.643 108.946 133.644H108.708C108.195 134.094 107.633 134.607 107.057 135.182C107.019 135.726 107.079 136.272 107.232 136.795C107.32 136.47 107.358 136.157 107.42 135.845C107.431 135.564 107.517 135.292 107.67 135.057C107.807 134.849 107.992 134.678 108.21 134.558C108.428 134.438 108.672 134.373 108.921 134.369C109.305 134.36 109.679 134.235 109.993 134.013C110.307 133.79 110.547 133.479 110.684 133.119C110.83 132.75 110.878 132.349 110.821 131.956L110.784 132.006ZM82.024 177.309C82.0158 177.592 81.9339 177.868 81.7864 178.109C81.6577 178.327 81.475 178.508 81.2561 178.635C81.0371 178.762 80.7891 178.831 80.536 178.834C80.1551 178.832 79.7819 178.942 79.4636 179.151C79.1453 179.36 78.8962 179.659 78.7479 180.01C78.5694 180.665 78.5956 181.358 78.8229 181.998C78.8979 181.685 78.9354 181.373 78.998 181.06C79.0122 180.779 79.103 180.506 79.2605 180.272C79.3955 180.063 79.5805 179.89 79.7988 179.77C80.0171 179.65 80.2618 179.586 80.511 179.585C80.8949 179.577 81.2677 179.454 81.5802 179.231C81.8927 179.008 82.1302 178.695 82.2616 178.334C82.4079 177.675 82.3733 176.988 82.1615 176.346C82.1615 176.621 82.124 176.934 82.0615 177.259L82.024 177.309ZM98.1919 147.786C98.1891 148.072 98.1115 148.353 97.9669 148.599C97.8355 148.815 97.6523 148.994 97.4339 149.121C97.2155 149.247 96.9688 149.317 96.7164 149.324C96.3356 149.322 95.9624 149.432 95.6441 149.641C95.3258 149.85 95.0767 150.149 94.9283 150.5C94.7499 151.155 94.7761 151.848 95.0033 152.488C95.0909 152.175 95.1284 151.863 95.1909 151.55C95.2015 151.27 95.2879 150.998 95.441 150.762C95.576 150.553 95.7609 150.38 95.9792 150.26C96.1975 150.14 96.4423 150.076 96.6914 150.075C97.0754 150.068 97.4482 149.944 97.7607 149.721C98.0732 149.498 98.3107 149.185 98.442 148.824C98.5883 148.165 98.5538 147.478 98.342 146.836C98.3295 147.111 98.292 147.424 98.2294 147.736L98.1919 147.786ZM100.318 208.107C100.309 208.392 100.232 208.671 100.093 208.92C99.9595 209.134 99.7759 209.312 99.5579 209.438C99.3398 209.565 99.0941 209.636 98.8422 209.645C98.4613 209.642 98.0881 209.752 97.7698 209.961C97.4515 210.171 97.2024 210.469 97.054 210.82C96.8756 211.475 96.9018 212.169 97.1291 212.808C97.2166 212.496 97.2416 212.183 97.3041 211.858C97.3262 211.578 97.4164 211.308 97.5667 211.07C97.7031 210.863 97.8887 210.693 98.1069 210.575C98.3251 210.457 98.5692 210.396 98.8171 210.395C99.2011 210.388 99.5739 210.265 99.8864 210.041C100.199 209.818 100.436 209.506 100.568 209.145C100.714 208.485 100.68 207.798 100.468 207.156C100.455 207.432 100.418 207.744 100.355 208.057L100.318 208.107ZM85.9753 216.61C85.9725 216.896 85.8949 217.176 85.7502 217.422C85.6215 217.64 85.4389 217.822 85.2199 217.949C85.0009 218.076 84.7529 218.144 84.4998 218.148C84.1189 218.145 83.7457 218.255 83.4275 218.464C83.1092 218.673 82.8601 218.972 82.7117 219.323C82.5402 219.979 82.5664 220.67 82.7867 221.311C82.8743 220.999 82.9118 220.686 82.9743 220.373C82.9848 220.093 83.0713 219.821 83.2244 219.586C83.3593 219.376 83.5443 219.204 83.7626 219.084C83.9809 218.964 84.2257 218.9 84.4748 218.898C84.8588 218.891 85.2315 218.767 85.544 218.544C85.8565 218.321 86.0941 218.008 86.2254 217.648C86.3717 216.988 86.3371 216.301 86.1254 215.659C86.1129 215.934 86.0753 216.297 86.0128 216.56L85.9753 216.61ZM111.371 157.102C111.098 156.834 110.75 156.655 110.373 156.588C109.996 156.521 109.607 156.569 109.258 156.727C108.686 157.093 108.223 157.607 107.92 158.215C108.208 158.052 108.458 157.852 108.72 157.677C108.926 157.477 109.18 157.335 109.458 157.265C109.704 157.203 109.962 157.204 110.207 157.27C110.452 157.336 110.677 157.463 110.859 157.64C111.073 157.856 111.336 158.018 111.625 158.113C111.913 158.209 112.221 158.235 112.522 158.19L112.672 157.54C112.438 157.562 112.202 157.53 111.983 157.445C111.764 157.36 111.567 157.226 111.409 157.052L111.371 157.102ZM91.3646 191.764C91.5735 191.568 91.8266 191.427 92.1024 191.351C92.3484 191.289 92.6063 191.291 92.8514 191.357C93.0965 191.422 93.3208 191.55 93.5028 191.726C93.7686 191.998 94.1096 192.183 94.4818 192.259C94.854 192.335 95.2403 192.297 95.5911 192.151C96.3163 191.839 96.5789 191.214 96.954 190.701C96.6778 190.866 96.4106 191.045 96.1537 191.239C95.9434 191.424 95.6896 191.553 95.416 191.614C95.1657 191.667 94.9059 191.656 94.6609 191.582C94.416 191.507 94.1939 191.372 94.0155 191.189C93.7426 190.919 93.3937 190.74 93.0158 190.676C92.638 190.611 92.2494 190.663 91.9023 190.826C91.3286 191.185 90.8655 191.696 90.5644 192.301C90.9395 192.089 91.1896 191.889 91.4522 191.714L91.3646 191.764ZM134.692 187.45C134.424 187.275 134.116 187.171 133.797 187.147C133.477 187.123 133.157 187.18 132.866 187.312C132.332 187.688 131.905 188.197 131.628 188.788C131.903 188.625 132.153 188.425 132.429 188.238C132.633 188.046 132.883 187.909 133.154 187.837C133.4 187.775 133.658 187.777 133.903 187.843C134.148 187.909 134.372 188.036 134.554 188.213C134.794 188.448 135.092 188.616 135.417 188.7L134.692 187.45ZM116.611 213.071C116.82 212.879 117.073 212.742 117.348 212.671C117.593 212.607 117.851 212.607 118.096 212.671C118.341 212.734 118.566 212.859 118.749 213.033C119.014 213.306 119.354 213.492 119.726 213.57C120.098 213.648 120.485 213.614 120.837 213.471C121.425 213.128 121.899 212.619 122.2 212.008C121.912 212.171 121.662 212.371 121.4 212.546C121.193 212.736 120.938 212.866 120.662 212.921C120.412 212.977 120.151 212.967 119.906 212.892C119.661 212.818 119.439 212.681 119.262 212.496C118.987 212.23 118.638 212.053 118.261 211.988C117.884 211.923 117.496 211.974 117.148 212.133C116.58 212.499 116.119 213.008 115.81 213.609C116.186 213.396 116.436 213.196 116.698 213.021L116.611 213.071Z" fill="#1D375E"/>
<path d="M83.3366 196.29C86.7894 193.781 90.4165 191.52 94.1903 189.526C97.9246 187.573 101.799 185.901 105.782 184.524C108.045 183.711 110.346 183.011 112.634 182.286C112.709 182.286 112.734 182.373 112.634 182.398C108.637 183.81 104.726 185.451 100.918 187.312C97.1163 189.138 93.365 191.022 89.6638 192.964C87.5506 194.077 85.4999 195.278 83.4117 196.453C83.3241 196.44 83.2491 196.29 83.3366 196.29Z" fill="#263238"/>
<path d="M128.764 175.871C128.389 175.983 107.907 183.373 107.232 183.698C107.32 183.373 110.733 172.294 111.246 170.669C111.246 170.506 111.334 170.344 111.384 170.181C111.746 169.456 112.109 168.731 112.434 167.98C112.859 167.03 113.272 166.08 113.684 165.13C113.234 166.055 112.772 166.993 112.321 167.93C112.109 168.356 111.909 168.793 111.721 169.181C112.059 168.043 112.371 166.893 112.697 165.73C113.197 163.892 113.647 161.978 114.097 160.19C114.097 160.128 114.022 160.115 113.997 160.19C112.984 163.429 111.871 166.63 110.858 169.856C109.846 173.082 105.857 184.999 105.932 184.986C106.007 184.974 128.439 176.346 128.914 176.158C128.953 176.138 128.981 176.104 128.994 176.063C129.007 176.022 129.003 175.978 128.983 175.939C128.963 175.901 128.929 175.873 128.888 175.86C128.847 175.847 128.803 175.851 128.764 175.871Z" fill="#263238"/>
<path d="M130.865 202.354C128.614 197.865 126.401 193.376 123.988 188.975C122.625 186.474 121.262 183.973 119.874 181.472C119.811 181.385 119.649 181.472 119.686 181.56C121.774 186.136 123.863 190.738 126.151 195.227C128.439 199.716 130.665 204.18 133.003 208.619C134.329 211.12 135.729 213.621 137.205 216.059C137.205 216.059 137.317 216.059 137.292 216.059C135.367 211.37 133.128 206.856 130.865 202.354Z" fill="#263238"/>
<path d="M147.733 212.546C147.508 212.233 147.258 212.308 147.446 212.633C148.046 213.759 148.558 215.022 149.159 216.172C148.108 216.41 147.045 216.622 145.995 216.885L142.344 217.748C139.951 218.315 137.555 218.848 135.154 219.348C130.302 220.39 125.426 221.32 120.524 222.137C110.709 223.838 100.814 225.036 90.8764 225.725C88.1005 225.9 85.3162 226.009 82.5236 226.051C79.9102 226.051 73.358 225.6 71.5074 224.8C70.3917 224.361 69.3919 223.672 68.5853 222.785C67.7787 221.898 67.187 220.838 66.8558 219.686C66.2605 217.174 66.3512 214.548 67.1184 212.083C67.7811 209.47 68.6189 206.894 69.4316 204.331C72.6754 194.233 76.6455 184.383 81.3107 174.858C83.9199 169.498 86.6958 164.221 89.6385 159.028C89.6437 159.007 89.6422 158.985 89.6342 158.966C89.6262 158.946 89.6121 158.929 89.5939 158.918C89.5758 158.907 89.5546 158.902 89.5333 158.904C89.5121 158.905 89.492 158.914 89.4759 158.928C87.3669 162.196 85.3745 165.53 83.4989 168.931C83.8615 167.793 84.2367 166.668 84.6743 165.568C84.6743 165.48 84.5868 165.417 84.5618 165.493C83.9957 166.857 83.5032 168.251 83.0863 169.669C79.7407 175.826 76.7271 182.158 74.0582 188.638C71.9492 193.765 70.036 198.958 68.3188 204.218C67.4435 206.907 66.5432 209.632 65.9055 212.396C65.2371 214.847 65.1941 217.426 65.7804 219.898C66.1146 221.163 66.7414 222.331 67.6102 223.308C68.4791 224.286 69.5656 225.045 70.7821 225.525C74.0332 226.776 83.0238 227.013 88.9758 226.776C93.9775 226.526 98.9792 226.126 103.981 225.525C113.876 224.35 123.708 222.762 133.478 220.761C136.213 220.194 138.939 219.602 141.656 218.986C143.032 218.673 144.407 218.36 145.77 218.01C147.133 217.66 150.422 217.035 150.297 216.822C149.571 215.497 148.571 213.721 147.733 212.546Z" fill="#263238"/>
<path d="M136.98 130.342L131.666 142.246L116.036 124.861L111.647 129.6C111.647 129.6 126.639 155.913 126.764 154.825L132.066 144.647L138.968 152.149V134.056L136.98 130.342Z" fill="white"/>
<path d="M139.493 143.147C139.406 140.158 139.393 137.145 139.168 134.169C139.168 134.056 138.993 134.006 138.968 134.169C138.268 137.02 138.681 148.449 138.568 151.187C138.293 150.862 132.178 144.622 132.103 144.71C130.978 146.323 127.102 153.725 126.814 154.401C124.638 150.487 116.273 136.244 113.672 132.518C113.655 132.502 113.633 132.492 113.61 132.489C113.587 132.486 113.563 132.491 113.543 132.502C113.522 132.513 113.505 132.53 113.495 132.551C113.485 132.571 113.481 132.595 113.485 132.618C115.385 136.732 126.439 155.914 126.614 155.876C128.657 152.388 130.515 148.794 132.178 145.11C133.204 146.46 139.343 153.488 139.381 153.038C139.59 149.745 139.627 146.443 139.493 143.147Z" fill="#263238"/>
<path d="M394.831 228.968H0.168945V250H394.831V228.968Z" fill="#455A64"/>
<path d="M264.312 224.838H166.041V229.239H264.312V224.838Z" fill="#C7C7C7"/>
<path d="M264.325 224.838H214.858V229.239H264.325V224.838Z" fill="#A6A6A6"/>
<path d="M220.172 229.239H315.942L328.471 164.192H232.701L220.172 229.239Z" fill="#C7C7C7"/>
<path d="M268.489 196.715C268.407 197.458 268.484 198.21 268.716 198.92C268.948 199.631 269.328 200.284 269.833 200.835C270.337 201.387 270.953 201.824 271.64 202.119C272.327 202.413 273.068 202.558 273.816 202.542C275.402 202.514 276.923 201.905 278.091 200.832C279.259 199.758 279.993 198.294 280.155 196.715C280.235 195.973 280.156 195.222 279.924 194.513C279.691 193.803 279.31 193.151 278.807 192.6C278.303 192.049 277.688 191.611 277.002 191.316C276.316 191.021 275.575 190.875 274.828 190.889C273.243 190.92 271.723 191.529 270.556 192.602C269.388 193.675 268.653 195.138 268.489 196.715Z" fill="white"/>
<path d="M316.695 207.095H389.982V192.635H316.695V207.095Z" fill="#6AA6DA"/>
<path d="M376.301 207.095H383.462V192.635H376.301V207.095Z" fill="#E1EDF8"/>
<path d="M370.655 207.095H373.644V192.635H370.655V207.095Z" fill="#E1EDF8"/>
<path d="M323.357 207.095H330.518V192.635H323.357V207.095Z" fill="#E1EDF8"/>
<path d="M304.94 155.872L286.12 226.701L296.508 229.461L315.328 158.632L304.94 155.872Z" fill="#37474F"/>
<path d="M289.632 213.478L287.793 220.398L298.181 223.159L300.02 216.238L289.632 213.478Z" fill="#E1EDF8"/>
<path d="M303.23 162.315L301.391 169.235L311.779 171.996L313.618 165.075L303.23 162.315Z" fill="#E1EDF8"/>
<path d="M301.183 229.154H386.062V221.926H301.183V229.154Z" fill="#FFC727"/>
<path d="M363.679 229.154H367.138V221.926H363.679V229.154Z" fill="#FFE9A9"/>
<path d="M369.425 229.154H372.884V221.926H369.425V229.154Z" fill="#FFE9A9"/>
<path d="M309.652 229.154H313.111V221.926H309.652V229.154Z" fill="#FFE9A9"/>
<path d="M315.394 229.154H318.854V221.926H315.394V229.154Z" fill="#FFE9A9"/>
<path d="M360.024 181.846H309.185V192.634H360.024V181.846Z" fill="#455A64"/>
<path d="M389.002 181.846H360.02V192.634H389.002V181.846Z" fill="#455A64"/>
<path d="M360.024 182.964H309.185V191.515H360.024V182.964Z" fill="#F7F8FC"/>
<path d="M312.473 184.725C316.435 184.663 320.397 184.622 324.361 184.6L336.246 184.561L348.135 184.6C352.097 184.622 356.058 184.663 360.02 184.725C356.058 184.784 352.097 184.827 348.135 184.853L336.246 184.889L324.347 184.85C320.395 184.828 316.437 184.787 312.473 184.725Z" fill="#DBDBDB"/>
<path d="M312.473 186.403C316.435 186.344 320.397 186.301 324.361 186.275L336.246 186.239L348.135 186.275C352.097 186.301 356.058 186.344 360.02 186.403C356.058 186.463 352.097 186.504 348.135 186.528L336.246 186.567L324.347 186.528C320.395 186.506 316.437 186.465 312.473 186.403Z" fill="#DBDBDB"/>
<path d="M312.473 188.081C316.435 188.021 320.397 187.979 324.361 187.953L336.246 187.917L348.135 187.953C352.097 187.974 356.058 188.017 360.02 188.081C356.058 188.143 352.097 188.184 348.135 188.206L336.246 188.245L324.347 188.206C320.395 188.184 316.437 188.143 312.473 188.081Z" fill="#DBDBDB"/>
<path d="M312.473 189.759C316.435 189.697 320.397 189.655 324.361 189.631L336.246 189.592L348.135 189.631C352.097 189.652 356.058 189.695 360.02 189.759C356.058 189.821 352.097 189.863 348.135 189.884L336.246 189.923L324.347 189.884C320.395 189.863 316.437 189.821 312.473 189.759Z" fill="#DBDBDB"/>
<path d="M355.745 150.11H314.137V157.855H355.745V150.11Z" fill="#6AA6DA"/>
<path d="M379.465 150.11H355.745V157.855H379.465V150.11Z" fill="#6AA6DA"/>
<path d="M355.745 150.916H314.137V157.054H355.745V150.916Z" fill="#F7F8FC"/>
<path d="M316.83 152.177C320.075 152.134 323.318 152.105 326.56 152.088L336.289 152.06L346.019 152.088C349.261 152.102 352.503 152.132 355.745 152.177C352.503 152.22 349.261 152.251 346.019 152.27L336.289 152.295L326.56 152.27C323.318 152.253 320.075 152.222 316.83 152.177Z" fill="#DBDBDB"/>
<path d="M316.83 153.381C320.075 153.338 323.318 153.309 326.56 153.292L336.289 153.264L346.019 153.292C349.261 153.306 352.503 153.336 355.745 153.381C352.503 153.424 349.261 153.455 346.019 153.474L336.289 153.499L326.56 153.474C323.318 153.457 320.075 153.426 316.83 153.381Z" fill="#DBDBDB"/>
<path d="M316.83 154.584C320.075 154.542 323.318 154.512 326.56 154.495L336.289 154.467L346.019 154.495C349.261 154.51 352.503 154.539 355.745 154.584C352.503 154.629 349.261 154.66 346.019 154.677L336.289 154.702L326.56 154.677C323.318 154.66 320.075 154.629 316.83 154.584Z" fill="#DBDBDB"/>
<path d="M316.83 155.808C320.075 155.765 323.318 155.736 326.56 155.719L336.289 155.69L346.019 155.719C349.261 155.733 352.503 155.763 355.745 155.808C352.503 155.855 349.261 155.886 346.019 155.901L336.289 155.926L326.56 155.901C323.318 155.872 320.075 155.841 316.83 155.808Z" fill="#DBDBDB"/>
<path d="M301.418 169.698L291.286 207.764L285.508 229.468L279.932 227.982L285.711 206.279L295.843 168.212L301.418 169.698Z" fill="#00B67B"/>
<path opacity="0.1" d="M301.418 169.698L291.286 207.764L285.508 229.468L279.932 227.982L285.711 206.279L295.843 168.212L301.418 169.698Z" fill="black"/>
<path d="M290.705 207.602L300.84 169.537L296.42 168.36L286.284 206.425L290.705 207.602Z" fill="white"/>
<path d="M299.274 171.765C298.519 174.738 297.751 177.707 296.972 180.671L294.621 189.578L292.234 198.484C291.431 201.448 290.619 204.41 289.797 207.37C290.557 204.394 291.326 201.425 292.102 198.463L294.45 189.556L296.841 180.65C297.643 177.686 298.454 174.724 299.274 171.765Z" fill="#DBDBDB"/>
<path d="M298.408 171.532C297.65 174.511 296.882 177.479 296.103 180.439L293.755 189.345L291.364 198.252C290.564 201.216 289.753 204.178 288.931 207.137C289.689 204.163 290.457 201.195 291.236 198.231L293.584 189.324L295.974 180.417C296.777 177.453 297.588 174.492 298.408 171.532Z" fill="#DBDBDB"/>
<path d="M297.542 171.304C296.785 174.28 296.016 177.249 295.237 180.211L292.889 189.117L290.499 198.024C289.699 200.988 288.887 203.949 288.066 206.906C288.821 203.93 289.588 200.961 290.367 197.999L292.718 189.092L295.105 180.186C295.906 177.234 296.718 174.273 297.542 171.304Z" fill="#DBDBDB"/>
<path d="M296.673 171.072C295.918 174.046 295.151 177.015 294.372 179.979L292.02 188.885L289.633 197.792C288.833 200.756 288.021 203.717 287.197 206.674C287.954 203.7 288.723 200.731 289.502 197.767L291.849 188.86L294.24 179.954C295.043 176.99 295.854 174.029 296.673 171.072Z" fill="#DBDBDB"/>
<path d="M337.625 221.922H380.217V207.094H337.625V221.922Z" fill="#263238"/>
<path d="M307.71 221.922H337.626V207.094H307.71V221.922Z" fill="#263238"/>
<path d="M337.625 220.384H380.217V208.634H337.625V220.384Z" fill="#F7F8FC"/>
<path d="M377.459 217.969C374.134 218.028 370.815 218.07 367.502 218.093L357.544 218.132L347.569 218.093C344.243 218.072 340.918 218.03 337.593 217.969C340.918 217.909 344.243 217.866 347.569 217.84L357.544 217.805L367.502 217.84C370.822 217.866 374.141 217.909 377.459 217.969Z" fill="#DBDBDB"/>
<path d="M377.459 215.659C374.134 215.718 370.815 215.76 367.502 215.784L357.544 215.823L347.569 215.784C344.243 215.762 340.918 215.721 337.593 215.659C340.918 215.6 344.243 215.557 347.569 215.531L357.544 215.495L367.502 215.531C370.822 215.554 374.141 215.597 377.459 215.659Z" fill="#DBDBDB"/>
<path d="M377.459 213.358C374.134 213.417 370.815 213.459 367.502 213.483L357.544 213.522L347.569 213.483C344.243 213.461 340.918 213.42 337.593 213.358C340.918 213.296 344.243 213.253 347.569 213.23L357.544 213.19L367.502 213.23C370.822 213.251 374.141 213.294 377.459 213.358Z" fill="#DBDBDB"/>
<path d="M377.459 211.052C374.134 211.113 370.815 211.155 367.502 211.176L357.544 211.216L347.569 211.176C344.243 211.155 340.918 211.113 337.593 211.052C340.918 210.988 344.243 210.945 347.569 210.923L357.544 210.884L367.502 210.923C370.822 210.945 374.141 210.988 377.459 211.052Z" fill="#DBDBDB"/>
<path d="M390.203 171.785H312.032V181.889H390.203V171.785Z" fill="#E1EDF8"/>
<path d="M349.446 173.848H319.381V179.912H349.446V173.848Z" fill="white"/>
<path d="M384.926 173.848H356.703V174.785H384.926V173.848Z" fill="white"/>
<path d="M384.926 176.37H356.703V177.307H384.926V176.37Z" fill="white"/>
<path d="M384.926 178.889H356.703V179.826H384.926V178.889Z" fill="white"/>
<path d="M375.079 157.855H317.436V171.739H375.079V157.855Z" fill="#00B67B"/>
<path d="M368.966 157.855H363.594V171.739H368.966V157.855Z" fill="#B3E9D7"/>
<path d="M360.07 157.855H357.986V171.739H360.07V157.855Z" fill="#B3E9D7"/>
<path d="M337.157 57.6027C339.735 39.779 327.385 23.2415 309.572 20.6651C291.759 18.0887 275.229 30.449 272.651 48.2727C270.073 66.0964 282.423 82.634 300.236 85.2104C318.049 87.7868 334.579 75.4264 337.157 57.6027Z" fill="#D3DBE7"/>
<path opacity="0.1" d="M337.455 55.0577C338.222 37.891 324.936 23.3525 307.78 22.5849C290.624 21.8174 276.095 35.1116 275.328 52.2783C274.561 69.445 287.847 83.9835 305.002 84.7511C322.158 85.5186 336.688 72.2244 337.455 55.0577Z" fill="black"/>
<path d="M335.48 55.2586C336.356 39.1842 324.043 25.443 307.979 24.5668C291.915 23.6906 278.182 36.0112 277.306 52.0856C276.431 68.16 288.744 81.9012 304.808 82.7774C320.872 83.6536 334.605 71.333 335.48 55.2586Z" fill="white"/>
<path d="M306.675 26.6372H306.112V31.0557H306.675V26.6372Z" fill="#C7C7C7"/>
<path d="M293.128 30.115L292.641 30.3965L294.849 34.223L295.336 33.9415L293.128 30.115Z" fill="#C7C7C7"/>
<path d="M283.133 39.904L282.852 40.3916L286.676 42.6009L286.957 42.1133L283.133 39.904Z" fill="#C7C7C7"/>
<path d="M283.793 53.3887H279.377V53.9517H283.793V53.3887Z" fill="#C7C7C7"/>
<path d="M286.677 64.7341L282.853 66.9434L283.134 67.4309L286.958 65.2217L286.677 64.7341Z" fill="#C7C7C7"/>
<path d="M294.848 73.1142L292.642 76.9419L293.129 77.2231L295.335 73.3954L294.848 73.1142Z" fill="#C7C7C7"/>
<path d="M306.675 76.2842H306.112V80.7027H306.675V76.2842Z" fill="#C7C7C7"/>
<path d="M317.936 73.114L317.449 73.3955L319.657 77.2221L320.144 76.9406L317.936 73.114Z" fill="#C7C7C7"/>
<path d="M326.104 64.7282L325.823 65.2158L329.647 67.4251L329.928 66.9375L326.104 64.7282Z" fill="#C7C7C7"/>
<path d="M333.409 53.3887H328.993V53.9517H333.409V53.3887Z" fill="#C7C7C7"/>
<path d="M329.65 39.9143L325.825 42.1235L326.107 42.6111L329.931 40.4019L329.65 39.9143Z" fill="#C7C7C7"/>
<path d="M319.659 30.1191L317.453 33.9468L317.94 34.228L320.146 30.4003L319.659 30.1191Z" fill="#C7C7C7"/>
<path d="M306.816 28.6355L307.774 55.6373L305.01 55.6011L306.066 28.6289L306.816 28.6355Z" fill="#475569"/>
<path d="M323.624 44.2518L305.47 55.8479L304.151 53.4181L323.265 43.5933L323.624 44.2518Z" fill="#263238"/>
<path d="M306.391 54.6135C306.913 54.6135 307.336 54.1905 307.336 53.6686C307.336 53.1467 306.913 52.7236 306.391 52.7236C305.87 52.7236 305.447 53.1467 305.447 53.6686C305.447 54.1905 305.87 54.6135 306.391 54.6135Z" fill="#FFC727"/>
</svg>
