<svg width="47" height="31" viewBox="0 0 47 31" fill="none" xmlns="http://www.w3.org/2000/svg">
<g filter="url(#filter0_d_1_3282)">
<path d="M5 4.5C5 2.29086 6.79086 0.5 9 0.5H43C45.2091 0.5 47 2.29086 47 4.5V26.5C47 28.7091 45.2091 30.5 43 30.5H9C6.79086 30.5 5 28.7091 5 26.5V20L0 15.5L5 11V4.5Z" fill="white"/>
</g>
<path d="M19.32 20.5C19.2133 20.5 19.1227 20.4627 19.048 20.388C18.9733 20.3133 18.936 20.2227 18.936 20.116V18.068H13.864C13.7573 18.068 13.6667 18.0307 13.592 17.956C13.5173 17.8813 13.48 17.7907 13.48 17.684V16.58C13.48 16.4093 13.5387 16.2493 13.656 16.1L18.376 9.572C18.4293 9.48667 18.5093 9.42267 18.616 9.38C18.7227 9.32667 18.84 9.3 18.968 9.3H20.728C20.8453 9.3 20.936 9.33733 21 9.412C21.0747 9.476 21.112 9.56667 21.112 9.684V16.164H22.552C22.6693 16.164 22.76 16.2013 22.824 16.276C22.8987 16.34 22.936 16.4307 22.936 16.548V17.684C22.936 17.7907 22.8987 17.8813 22.824 17.956C22.76 18.0307 22.6693 18.068 22.552 18.068H21.112V20.116C21.112 20.2227 21.0747 20.3133 21 20.388C20.936 20.4627 20.8453 20.5 20.728 20.5H19.32ZM15.736 16.228H18.984V11.636L15.736 16.228ZM24.6253 20.5C24.5186 20.5 24.4279 20.4627 24.3533 20.388C24.2786 20.3133 24.2413 20.2227 24.2413 20.116V18.5C24.2413 18.3933 24.2786 18.3027 24.3533 18.228C24.4279 18.1533 24.5186 18.116 24.6253 18.116H26.2413C26.3479 18.116 26.4386 18.1533 26.5133 18.228C26.5879 18.3027 26.6253 18.3933 26.6253 18.5V20.116C26.6253 20.2227 26.5879 20.3133 26.5133 20.388C26.4493 20.4627 26.3586 20.5 26.2413 20.5H24.6253ZM32.5731 20.66C31.6771 20.66 30.8878 20.4893 30.2051 20.148C29.5331 19.8067 29.0105 19.3373 28.6371 18.74C28.2745 18.1427 28.0931 17.4707 28.0931 16.724C28.0931 15.7853 28.5091 14.7507 29.3411 13.62L32.2531 9.62C32.3385 9.51333 32.4185 9.43333 32.4931 9.38C32.5678 9.32667 32.6745 9.3 32.8131 9.3H34.3331C34.4291 9.3 34.5038 9.33733 34.5571 9.412C34.6211 9.476 34.6531 9.556 34.6531 9.652C34.6531 9.72667 34.6318 9.796 34.5891 9.86L32.3491 12.948C32.5198 12.9053 32.7438 12.884 33.0211 12.884C33.7358 12.8947 34.3918 13.0707 34.9891 13.412C35.5971 13.7427 36.0771 14.196 36.4291 14.772C36.7918 15.348 36.9731 15.988 36.9731 16.692C36.9731 17.4173 36.7918 18.084 36.4291 18.692C36.0771 19.2893 35.5651 19.7693 34.8931 20.132C34.2318 20.484 33.4585 20.66 32.5731 20.66ZM32.5411 18.804C33.1385 18.804 33.6451 18.6227 34.0611 18.26C34.4771 17.8867 34.6851 17.3747 34.6851 16.724C34.6851 16.084 34.4771 15.5827 34.0611 15.22C33.6558 14.8467 33.1491 14.66 32.5411 14.66C31.9438 14.66 31.4371 14.8467 31.0211 15.22C30.6158 15.5827 30.4131 16.084 30.4131 16.724C30.4131 17.3747 30.6158 17.8867 31.0211 18.26C31.4371 18.6227 31.9438 18.804 32.5411 18.804Z" fill="#1D293F"/>
<defs>
<filter id="filter0_d_1_3282" x="-30" y="-9.5" width="107" height="90" filterUnits="userSpaceOnUse" color-interpolation-filters="sRGB">
<feFlood flood-opacity="0" result="BackgroundImageFix"/>
<feColorMatrix in="SourceAlpha" type="matrix" values="0 0 0 0 0 0 0 0 0 0 0 0 0 0 0 0 0 0 127 0" result="hardAlpha"/>
<feOffset dy="20"/>
<feGaussianBlur stdDeviation="15"/>
<feColorMatrix type="matrix" values="0 0 0 0 0.054902 0 0 0 0 0.054902 0 0 0 0 0.172549 0 0 0 0.2 0"/>
<feBlend mode="normal" in2="BackgroundImageFix" result="effect1_dropShadow_1_3282"/>
<feBlend mode="normal" in="SourceGraphic" in2="effect1_dropShadow_1_3282" result="shape"/>
</filter>
</defs>
</svg>
