<svg width="40" height="31" viewBox="0 0 40 31" fill="none" xmlns="http://www.w3.org/2000/svg">
<g opacity="0.5">
<path fill-rule="evenodd" clip-rule="evenodd" d="M27.6343 0.291026C25.2014 0.287944 22.8223 0.983686 20.7987 2.29003L21.094 2.52562C24.0023 4.96642 25.6727 8.50738 25.6727 12.2315C25.6727 15.9556 24.0023 19.4966 21.094 21.9374L20.7987 22.173C25.2011 25.0116 30.984 24.8225 35.1782 21.703C39.3723 18.5834 41.0458 13.2264 39.3392 8.3827C37.6327 3.53898 32.9254 0.284781 27.6343 0.291026ZM3.05904 20.1254C7.13775 24.6299 14.0347 25.5175 19.1895 22.2015L18.8942 21.9588C15.9859 19.518 14.3154 15.977 14.3154 12.2529C14.3154 8.5288 15.9859 4.98784 18.8942 2.54704L19.1895 2.31145C14.0347 -1.00457 7.13775 -0.116895 3.05904 4.38753C-1.01968 8.89195 -1.01968 15.621 3.05904 20.1254ZM38.0354 25.7712V28.6269V30.2047H37.2972V29.8191C37.0501 30.1258 36.6654 30.2986 36.2637 30.2832C35.3138 30.2832 34.5437 29.5384 34.5437 28.6197C34.5437 27.701 35.3138 26.9563 36.2637 26.9563C36.6654 26.9409 37.0501 27.1137 37.2972 27.4203V25.7712H38.0354ZM17.9493 27.042H16.783V26.0782H16.0448V27.042H15.3804V27.6702H16.0448V29.0981C16.0448 29.812 16.3401 30.2689 17.1816 30.2689C17.497 30.2709 17.8066 30.1868 18.0748 30.0262L17.8681 29.4336C17.6777 29.543 17.462 29.6044 17.2407 29.6121C16.8863 29.6121 16.7682 29.3979 16.7682 29.0838V27.6559H17.9345L17.9493 27.042ZM7.2899 30.2118V28.2199C7.31623 27.8802 7.18914 27.546 6.94144 27.3037C6.69373 27.0614 6.34968 26.9347 5.99807 26.9563C5.53667 26.9275 5.09554 27.1435 4.8465 27.5203C4.61927 27.1539 4.20271 26.9374 3.76137 26.9563C3.37781 26.9381 3.01287 27.1173 2.80173 27.4275V27.0348H2.06354V30.2047H2.80173V28.4555C2.7583 28.2334 2.82621 28.0045 2.98482 27.8385C3.14342 27.6724 3.37396 27.5888 3.60635 27.6131C4.07879 27.6131 4.34454 27.913 4.34454 28.4484V30.2118H5.08272V28.4555C5.0393 28.2334 5.10721 28.0045 5.26581 27.8385C5.42441 27.6724 5.65496 27.5888 5.88735 27.6131C6.37455 27.6131 6.62553 27.913 6.62553 28.4484V30.2118H7.2899ZM23.1683 27.4275C23.3466 27.1315 23.6779 26.9535 24.032 26.9634H24.0246C24.1981 26.9642 24.3703 26.9932 24.5339 27.0491L24.3125 27.6988C24.1714 27.6454 24.021 27.6187 23.8696 27.6202C23.4045 27.6202 23.1683 27.913 23.1683 28.4341V30.2118H22.4301V27.042H23.1683V27.4275ZM14.8342 27.2918C14.4305 27.061 13.9667 26.947 13.498 26.9634C12.6713 26.9634 12.1324 27.3489 12.1324 27.9772C12.1324 28.4984 12.531 28.8125 13.2618 28.9125L13.6014 28.9553C13.9926 29.0053 14.1772 29.1052 14.1772 29.2837C14.1772 29.4622 13.9188 29.6692 13.439 29.6692C13.047 29.6818 12.662 29.5661 12.3465 29.3408L12.0069 29.8763C12.4215 30.1571 12.9182 30.3023 13.4242 30.2903C14.3691 30.2903 14.9006 29.862 14.9006 29.2551C14.9006 28.6483 14.4651 28.4056 13.7564 28.3056L13.4168 28.2628C13.1068 28.2199 12.8632 28.1628 12.8632 27.9486C12.8632 27.7345 13.0994 27.5774 13.4907 27.5774C13.8485 27.5832 14.1989 27.6765 14.5094 27.8487L14.8342 27.2918ZM33.0821 27.4275C33.2604 27.1315 33.5918 26.9535 33.9458 26.9634H33.9384C34.112 26.9642 34.2841 26.9932 34.4478 27.0491L34.2263 27.6988C34.0853 27.6454 33.9349 27.6187 33.7834 27.6202C33.3183 27.6202 33.0821 27.913 33.0821 28.4341V30.2118H32.3439V27.042H33.0821V27.4275ZM25.249 29.8276C25.5835 30.1416 26.0396 30.3045 26.5049 30.2761C26.9336 30.2969 27.3549 30.1619 27.686 29.8977L27.3464 29.3408C27.099 29.5204 26.7994 29.6203 26.4901 29.6264C25.9112 29.6264 25.4419 29.1725 25.4419 28.6126C25.4419 28.0527 25.9112 27.5988 26.4901 27.5988C26.7994 27.6049 27.099 27.7048 27.3464 27.8844L27.686 27.3275C27.3553 27.0627 26.9337 26.9276 26.5049 26.9491C26.0343 26.92 25.5732 27.0867 25.2376 27.4071C24.902 27.7276 24.7239 28.1714 24.748 28.6269C24.7325 29.0775 24.9144 29.5136 25.249 29.8276ZM31.4286 27.042V28.6269V30.2047H30.6904V29.8191C30.4433 30.1258 30.0586 30.2986 29.6569 30.2832C28.707 30.2832 27.937 29.5384 27.937 28.6197C27.937 27.701 28.707 26.9563 29.6569 26.9563C30.0586 26.9409 30.4433 27.1137 30.6904 27.4203V27.042H31.4286ZM29.7949 27.728C30.332 27.7471 30.755 28.1775 30.7476 28.6972C30.7402 29.2169 30.3051 29.6359 29.7677 29.6407C29.4928 29.6453 29.2285 29.5382 29.0391 29.3455C28.8497 29.1528 28.7525 28.8921 28.7711 28.6269C28.8032 28.108 29.2578 27.7089 29.7949 27.728ZM18.4771 28.6447C18.4628 27.726 19.2213 26.9701 20.1712 26.9563L20.1639 26.9491C20.6052 26.9513 21.0253 27.1327 21.3215 27.4491C21.6178 27.7654 21.7629 28.1877 21.7214 28.6126V28.8768H19.2854C19.3397 29.3511 19.7757 29.6966 20.2672 29.6549C20.6136 29.6509 20.9486 29.5354 21.2195 29.3265L21.5664 29.8406C21.1903 30.1431 20.7118 30.3008 20.2229 30.2832C19.273 30.297 18.4914 29.5634 18.4771 28.6447ZM20.7498 27.7901C20.9048 27.9347 20.9941 28.133 20.998 28.3413H19.3002C19.3241 27.8973 19.7119 27.5541 20.1712 27.5703C20.3866 27.5664 20.5947 27.6455 20.7498 27.7901ZM36.4071 27.7136C36.9503 27.7316 37.3784 28.1671 37.3695 28.6927C37.3606 29.2182 36.9179 29.64 36.3744 29.6407C36.0996 29.6453 35.8353 29.5382 35.6459 29.3455C35.4565 29.1528 35.3592 28.8921 35.3779 28.6269C35.4061 28.102 35.8639 27.6957 36.4071 27.7136ZM11.2909 27.042V28.6269V30.2047H10.5527V29.8191C10.3056 30.1258 9.92089 30.2986 9.51922 30.2832C8.56931 30.2832 7.79925 29.5384 7.79925 28.6197C7.79925 27.701 8.56931 26.9563 9.51922 26.9563C9.92089 26.9409 10.3056 27.1137 10.5527 27.4203V27.042H11.2909ZM8.6334 28.6269C8.66551 28.108 9.12009 27.7089 9.65716 27.728C10.1942 27.7471 10.6173 28.1775 10.6099 28.6972C10.6025 29.2169 10.1674 29.6359 9.62995 29.6407C9.35892 29.6393 9.10053 29.5296 8.91599 29.3376C8.73146 29.1456 8.6372 28.8884 8.65554 28.6269H8.6334ZM15.2864 12.2279C15.2864 8.77097 16.8369 5.484 19.5364 3.21814C19.684 3.08963 19.8391 2.96826 20.0015 2.84689L20.4665 3.21814C23.166 5.484 24.7165 8.77097 24.7165 12.2279C24.7165 15.6849 23.166 18.9718 20.4665 21.2377L20.0015 21.609C19.844 21.49 19.689 21.3662 19.5364 21.2377C16.8369 18.9718 15.2864 15.6849 15.2864 12.2279Z" fill="#E1EDF8"/>
</g>
</svg>
