<svg width="418" height="401" viewBox="0 0 418 401" fill="none" xmlns="http://www.w3.org/2000/svg">
<path d="M293.673 78.1188C311.563 87.3702 318.244 117.061 338.721 142.449C358.981 167.621 393.036 188.491 399.502 213.018C406.184 237.545 385.492 265.73 363.507 288.536C341.738 311.126 318.676 328.123 294.104 332.426C269.533 336.729 243.453 328.123 217.588 327.263C191.723 326.617 166.505 333.502 139.132 330.92C111.974 328.123 82.6609 315.86 69.2975 293.914C55.9341 272.184 58.5206 240.557 58.3051 208.93C58.0895 177.518 55.072 145.676 64.3401 116.846C73.8238 88.0157 95.3777 62.1977 122.967 58.5401C150.556 54.8826 183.748 73.6006 215.217 77.2582C246.47 80.7006 275.568 69.0825 293.673 78.1188Z" fill="white" fill-opacity="0.3"/>
<path d="M53.6736 327.694L95.9456 327.502L138.226 327.43L222.778 327.294L307.33 327.43L349.61 327.502L391.882 327.694L349.61 327.894L307.33 327.958L222.778 328.094L138.226 327.958L95.9456 327.894L53.6736 327.694Z" fill="#1E437D"/>
<path d="M367.157 96.5976C386.996 96.5976 403.079 80.5146 403.079 60.6751C403.079 40.8357 386.996 24.7527 367.157 24.7527C347.318 24.7527 331.234 40.8357 331.234 60.6751C331.234 80.5146 347.318 96.5976 367.157 96.5976Z" fill="#C8DEFE"/>
<path d="M366.516 93.4598C385.444 93.4598 400.789 78.1151 400.789 59.1863C400.789 40.2576 385.444 24.9128 366.516 24.9128C347.587 24.9128 332.242 40.2576 332.242 59.1863C332.242 78.1151 347.587 93.4598 366.516 93.4598Z" fill="white"/>
<path fill-rule="evenodd" clip-rule="evenodd" d="M366.516 92.3147C384.812 92.3147 399.644 77.4826 399.644 59.1863C399.644 40.89 384.812 26.058 366.516 26.058C348.219 26.058 333.387 40.89 333.387 59.1863C333.387 77.4826 348.219 92.3147 366.516 92.3147ZM400.789 59.1863C400.789 78.1151 385.444 93.4598 366.516 93.4598C347.587 93.4598 332.242 78.1151 332.242 59.1863C332.242 40.2576 347.587 24.9128 366.516 24.9128C385.444 24.9128 400.789 40.2576 400.789 59.1863Z" fill="#1E437D"/>
<path opacity="0.3" d="M397.904 52.3731C383.28 61.2249 359.244 75.7679 345.812 83.7265C342.016 80.5415 339.009 76.52 337.029 71.9776L381.46 30.7532C385.613 32.9381 389.237 36.0058 392.077 39.7408C394.918 43.4758 396.907 47.7875 397.904 52.3731Z" fill="#E1EDF8"/>
<path opacity="0.3" d="M398.602 60.3088C398.491 63.881 397.775 67.4085 396.484 70.7409L356.404 89.6812C354.658 89.1031 352.964 88.3751 351.343 87.5055C363.47 80.5202 385.582 67.7979 398.602 60.3088Z" fill="#E1EDF8"/>
<path fill-rule="evenodd" clip-rule="evenodd" d="M366.207 29.4019H366.825V34.2686H366.207V29.4019ZM351.357 33.5252L351.893 33.2161L354.326 37.4308L353.791 37.74L351.357 33.5252ZM340.859 44.0101L340.55 44.5456L344.765 46.979L345.074 46.4435L340.859 44.0101ZM336.731 58.8773H341.598V59.4956H336.731V58.8773ZM344.786 71.3777L340.571 73.8111L340.88 74.3466L345.095 71.9132L344.786 71.3777ZM351.337 84.8063L353.768 80.5903L354.304 80.8992L351.872 85.1152L351.337 84.8063ZM366.825 84.0929H366.207V88.9596H366.825V84.0929ZM378.71 80.9189L379.245 80.6097L381.678 84.8245L381.143 85.1337L378.71 80.9189ZM388.227 71.3586L387.918 71.8941L392.133 74.3275L392.442 73.792L388.227 71.3586ZM391.433 58.8773H396.3V59.4956H391.433V58.8773ZM392.151 44.0273L387.936 46.4607L388.245 46.9962L392.46 44.5628L392.151 44.0273ZM378.724 37.468L381.156 33.2524L381.692 33.5614L379.26 37.777L378.724 37.468Z" fill="#D3DBE7"/>
<path d="M385.605 39.0437L363.825 59.3353L366.012 61.4652L386.2 39.6277L385.605 39.0437Z" fill="#475569"/>
<path d="M360.343 38.1162L365.462 61.2935L368.382 60.4346L361.134 37.8757L360.343 38.1162Z" fill="#1D293F"/>
<path d="M365.783 58.4421C365.604 58.6399 365.508 58.8986 365.515 59.1651C365.521 59.4315 365.629 59.6854 365.817 59.8746C366.004 60.0638 366.257 60.1738 366.524 60.1822C366.79 60.1905 367.05 60.0964 367.249 59.9193C367.443 59.7223 367.551 59.457 367.551 59.1807C367.551 58.9044 367.443 58.6392 367.249 58.4421C367.054 58.2491 366.79 58.1409 366.516 58.1409C366.242 58.1409 365.978 58.2491 365.783 58.4421Z" fill="#FFC727"/>
<path d="M367.371 269.213C367.371 269.213 387.756 264.604 398.871 254.331C409.986 244.058 416.252 225.649 416.252 225.649C408.521 227.129 400.898 229.131 393.438 231.641C391.612 233.591 388.12 237.606 386.533 241.391C386.34 239.07 386.322 236.738 386.48 234.415C383.871 235.553 381.432 237.044 379.23 238.847C369.985 246.912 367.371 269.213 367.371 269.213Z" fill="#B3E9D7"/>
<path d="M403.55 234.592C406.324 232.678 409.143 230.825 411.908 228.884C411.936 228.859 411.954 228.825 411.96 228.787C411.965 228.75 411.957 228.712 411.936 228.68C411.916 228.648 411.885 228.625 411.849 228.613C411.813 228.602 411.774 228.604 411.74 228.619C406.492 231.747 401.325 235.098 396.326 238.599C394.554 239.822 392.87 241.089 391.177 242.392L391.531 241.789C392.143 240.761 392.79 239.76 393.428 238.758C394.708 236.721 396.154 234.794 397.753 232.997C397.806 232.926 397.709 232.829 397.647 232.9C396.069 234.725 394.483 236.533 393.038 238.475C392.347 239.361 391.717 240.345 391.106 241.32C390.787 241.834 390.485 242.339 390.219 242.862L389.909 243.385C387.25 245.45 384.724 247.604 382.278 249.882C380.765 251.288 379.309 252.744 377.908 254.251C378.688 251.787 379.38 249.297 380.293 246.877C380.297 246.866 380.298 246.855 380.296 246.843C380.295 246.832 380.291 246.821 380.284 246.812C380.278 246.802 380.269 246.795 380.259 246.789C380.249 246.784 380.238 246.781 380.226 246.781C380.215 246.781 380.203 246.784 380.193 246.789C380.183 246.795 380.174 246.802 380.168 246.812C380.161 246.821 380.157 246.832 380.156 246.843C380.154 246.855 380.156 246.866 380.16 246.877C379.273 249.421 378.298 251.973 377.616 254.588C376.056 256.272 374.567 258.009 373.184 259.826C373.184 259.72 373.228 259.605 373.255 259.498C373.486 258.541 373.725 257.584 373.982 256.627C374.478 254.792 375.019 252.957 375.639 251.158C376.811 247.409 378.665 243.908 381.108 240.832C381.161 240.77 381.064 240.673 381.002 240.744C377.031 245.441 374.7 251.087 373.211 257.008C372.998 257.894 372.785 258.78 372.59 259.614C372.484 260.083 372.369 260.553 372.289 261.023C371.669 261.856 371.066 262.698 370.516 263.558C367.054 268.848 364.169 274.493 361.91 280.398C359.368 287.052 357.19 293.839 355.387 300.73C355.387 300.863 355.555 300.908 355.599 300.73C359.579 288.827 363.638 276.8 370.454 266.11C371.892 263.868 373.443 261.7 375.099 259.614C378.468 259.394 381.794 258.733 384.99 257.646C388.484 256.47 391.816 254.859 394.908 252.851C396.669 251.664 398.364 250.383 399.987 249.013C399.996 249.008 400.004 249.001 400.011 248.993C400.017 248.984 400.022 248.974 400.024 248.964C400.026 248.954 400.026 248.943 400.023 248.933C400.02 248.922 400.016 248.913 400.009 248.905C400.002 248.896 399.993 248.89 399.984 248.886C399.974 248.881 399.964 248.879 399.953 248.879C399.942 248.879 399.932 248.882 399.922 248.887C399.913 248.891 399.905 248.898 399.898 248.907C397.059 251.201 393.923 253.1 390.574 254.553C387.286 256.064 383.845 257.217 380.31 257.992C378.812 258.319 377.288 258.568 375.763 258.772C377.643 256.45 379.646 254.231 381.764 252.124C382.446 251.442 383.155 250.786 383.864 250.121C386.236 248.459 388.755 247.017 391.389 245.813C394.722 244.2 398.001 242.49 401.299 240.814C403.16 239.866 405.012 238.9 406.891 237.987C406.971 237.943 406.891 237.828 406.812 237.863C403.47 239.485 400.075 240.992 396.699 242.534C393.525 243.988 390.308 245.45 387.259 247.161L386.878 247.391C389.634 244.998 392.488 242.711 395.404 240.504C398.028 238.51 400.785 236.516 403.55 234.592Z" fill="#1E437D"/>
<path d="M301.286 166.691C305.043 171.54 307.171 177.453 307.366 183.584C307.428 185.41 307.144 187.954 306.932 190.941C314.519 194.991 320.227 202.286 320.227 202.286C315.919 199.698 309.998 198.652 306.808 199.077C306.913 201.121 307.173 203.153 307.588 205.157C308.997 205.078 311.718 205.264 316.212 206.859C313.541 206.834 310.895 207.362 308.438 208.41C312.064 219.933 322.841 231.801 352.604 236.835C352.604 236.835 358.348 216.627 347.34 194.947C338.397 177.398 301.286 166.691 301.286 166.691Z" fill="#B3E9D7"/>
<path d="M362.895 286.24C362.381 281.312 361.725 276.393 360.963 271.5C359.461 261.69 357.458 251.963 354.963 242.357C353.8 237.843 352.364 233.403 350.664 229.062C350.751 228.271 350.79 227.475 350.779 226.678C350.779 225.73 350.779 224.773 350.779 223.824C350.779 221.91 350.673 220.013 350.513 218.107C350.208 214.344 349.595 210.612 348.679 206.949C348.138 204.83 347.5 202.738 346.906 200.638C346.898 200.623 346.885 200.611 346.87 200.605C346.854 200.598 346.837 200.598 346.82 200.603C346.804 200.608 346.791 200.619 346.782 200.634C346.773 200.648 346.77 200.665 346.773 200.682C347.756 204.329 348.484 208.04 348.953 211.788C349.491 215.489 349.825 219.218 349.955 222.956C349.955 223.984 350.008 225.003 350.017 226.031C350.017 226.466 350.017 226.918 350.017 227.343C348.535 223.791 346.843 220.331 344.947 216.982C341.923 211.66 338.516 206.565 334.754 201.737C334.746 201.174 334.665 200.614 334.515 200.071C334.373 199.406 334.231 198.741 334.081 198.076C333.771 196.72 333.434 195.364 333.061 194.026C332.326 191.367 331.351 188.708 330.5 186.049C330.495 186.035 330.486 186.024 330.474 186.015C330.462 186.007 330.448 186.003 330.433 186.003C330.419 186.003 330.405 186.007 330.393 186.015C330.381 186.024 330.372 186.035 330.367 186.049C331.156 188.708 331.679 191.42 332.281 194.106C332.583 195.426 332.875 196.765 333.168 198.085L333.593 200.079V200.23C332.411 198.717 331.182 197.223 329.906 195.745C324.216 189.08 317.985 182.929 311.719 176.822C310.947 176.069 310.15 175.342 309.37 174.597C309.308 174.535 309.21 174.597 309.272 174.704C315.273 180.908 321.176 187.281 326.76 193.902C328.089 195.479 329.419 197.066 330.686 198.679L328.656 197.332C326.884 196.197 325.164 195.098 323.338 194.088C321.513 193.077 319.713 192.085 317.861 191.163C316.008 190.241 313.908 189.452 312.073 188.38C311.993 188.336 311.922 188.469 312.002 188.504C313.885 189.371 315.701 190.375 317.435 191.509C319.208 192.581 321.052 193.662 322.833 194.797C324.615 195.931 326.379 196.995 328.08 198.13C329.525 199.069 330.952 200.097 332.459 200.966C335.91 205.399 339.095 210.034 341.996 214.846C343.797 217.877 345.441 220.998 346.924 224.197L345.851 223.727L343.174 222.566C341.402 221.786 339.629 221.032 337.91 220.261C334.568 218.817 331.174 217.478 327.903 215.883C326.066 215.016 324.29 214.027 322.585 212.922C322.514 212.869 322.443 212.993 322.514 213.038C328.621 217.248 335.463 220.208 342.217 223.204L345.151 224.498C345.958 224.852 346.755 225.251 347.588 225.562C349.589 230.034 351.271 234.643 352.623 239.353C355.294 248.831 357.466 258.443 359.128 268.15C360.83 277.899 361.982 287.649 362.878 297.496C362.993 298.719 363.099 299.942 363.241 301.166C363.255 301.258 363.302 301.342 363.372 301.403C363.443 301.463 363.533 301.497 363.627 301.497C363.72 301.497 363.81 301.463 363.881 301.403C363.952 301.342 363.998 301.258 364.012 301.166C363.924 296.158 363.418 291.159 362.895 286.24Z" fill="#1E437D"/>
<path opacity="0.1" d="M367.743 233.946C367.743 233.946 386.568 229.452 395.219 216.822C403.479 204.759 406.147 184.205 406.36 182.396C406.014 184.054 402.132 202.02 389.316 210.387C379.513 216.83 370.012 222.104 367.743 233.946Z" fill="#263238"/>
<path d="M385.125 201.444C381.774 204.522 379.365 208.487 378.175 212.879C378.175 212.879 378.228 212.941 378.237 212.879C379.622 208.593 382.014 204.702 385.213 201.532C385.275 201.488 385.187 201.382 385.125 201.444Z" fill="#263238"/>
<path d="M367.742 233.946C367.742 233.946 386.568 229.452 395.218 216.822C403.479 204.759 406.147 184.205 406.36 182.397C406.363 182.352 406.363 182.308 406.36 182.264C406.36 182.264 397.337 195.098 387.844 198.377C378.352 201.657 365.021 212.993 367.742 233.946Z" fill="#B3E9D7"/>
<path d="M403.036 189.372C401.355 192.83 399.418 196.157 397.24 199.325C395.044 202.334 392.436 205.019 389.493 207.302C386.941 209.332 384.237 211.176 381.649 213.161L381.702 213.072C382.19 212.346 382.713 211.645 383.245 210.963C384.326 209.589 385.505 208.304 386.692 207.001C389.032 204.466 391.417 201.976 393.517 199.228C394.678 197.708 395.688 196.079 396.531 194.362C396.575 194.282 396.442 194.238 396.398 194.318C393.349 200.682 387.251 204.75 382.899 210.121C382.279 210.892 381.694 211.681 381.126 212.505C380.697 213.112 380.335 213.762 380.045 214.446C377.661 216.353 375.508 218.53 373.628 220.934C373.789 219.7 374.041 218.48 374.381 217.283C374.821 215.608 375.492 214.003 376.376 212.514C376.42 212.434 376.305 212.363 376.26 212.434C375.348 213.925 374.611 215.517 374.062 217.176C373.665 218.495 373.435 219.859 373.38 221.236C372.449 222.498 371.599 223.818 370.836 225.189C370.916 224.79 370.987 224.382 371.066 223.983C371.439 222.104 371.855 220.234 372.343 218.39C373.223 214.609 374.756 211.01 376.872 207.754C376.925 207.684 376.81 207.604 376.757 207.675C374.595 210.876 372.906 214.371 371.74 218.054C371.137 219.897 370.659 221.776 370.233 223.673C370.029 224.604 369.843 225.534 369.666 226.465C369.569 226.944 369.471 227.44 369.391 227.936C367.521 232.035 366.066 236.311 365.048 240.699C363.197 248.537 361.856 256.486 361.033 264.497C360.058 272.89 359.623 281.336 359.73 289.784C359.73 290.839 359.81 291.903 359.863 292.957C359.863 293.232 360.289 293.268 360.298 292.957C360.484 288.774 360.59 284.599 360.838 280.425C361.086 276.25 361.45 272.076 361.902 267.919C362.758 259.74 364.066 251.614 365.819 243.58C367.353 236.693 369.365 229.762 373.087 223.735C374.957 220.733 377.246 218.014 379.885 215.661C382.544 213.285 385.407 211.229 388.19 209.022C391.003 206.878 393.561 204.419 395.813 201.692C398.116 198.64 400.122 195.375 401.804 191.942C402.248 191.056 402.691 190.249 403.152 189.399C403.187 189.372 403.072 189.292 403.036 189.372Z" fill="#1E437D"/>
<path d="M298.662 225.649C298.662 225.649 298.36 252.399 314.359 260.128C330.357 267.857 338.928 261.413 349.812 264.001C349.395 263.363 341.64 252.204 329.302 249.137C316.583 245.964 302.508 236.799 298.662 225.649Z" fill="#B3E9D7"/>
<path d="M350.849 264.48C348.948 262.747 346.808 261.296 344.494 260.172C344.148 260.004 343.794 259.871 343.448 259.72C343.28 259.507 343.094 259.303 342.908 259.108C342.429 258.612 341.933 258.133 341.401 257.681C340.401 256.811 339.324 256.034 338.183 255.359C335.524 253.799 332.635 252.7 329.923 251.264C329.843 251.22 329.772 251.344 329.852 251.38C331.19 252.08 332.511 252.842 333.796 253.604C335.081 254.367 336.358 255.049 337.59 255.847C338.7 256.562 339.757 257.356 340.754 258.222C341.037 258.47 341.312 258.736 341.578 259.011C339.811 258.409 338.004 257.93 336.172 257.575C333.247 256.981 330.286 256.565 327.361 255.935C325.927 255.63 324.51 255.249 323.116 254.792C321.786 253.72 320.457 252.665 319.207 251.504C317.686 250.11 316.3 248.576 315.068 246.921C315.015 246.842 314.9 246.921 314.953 246.992C316.894 249.614 319.091 252.037 321.512 254.225C320.82 253.965 320.138 253.669 319.464 253.338C313.971 250.874 309.257 246.953 305.832 242.002C305.788 241.931 305.664 242.002 305.717 242.073C308.619 246.342 312.373 249.963 316.743 252.709C318.932 254.07 321.27 255.176 323.71 256.006C326.547 256.884 329.44 257.568 332.369 258.054C335.241 258.52 338.076 259.192 340.851 260.066C343.395 260.936 345.787 262.198 347.942 263.806C352.014 266.971 355.295 271.04 357.523 275.692C360.554 281.763 361.999 288.552 362.841 295.253C362.841 295.537 363.32 295.537 363.293 295.253C362.531 283.988 359.526 272.288 350.849 264.48Z" fill="#1E437D"/>
<path d="M385.054 347.104H342.394L349.949 289.71H377.337L385.054 347.104Z" fill="#6AA6DA"/>
<path fill-rule="evenodd" clip-rule="evenodd" d="M339.684 346.082L347.345 289.869L346.187 289.71L338.345 347.252H382.989L378.269 312.635L377.11 312.793L381.65 346.082H339.684Z" fill="#1E437D"/>
<path d="M378.029 285.742H342.313V295.663H378.029V285.742Z" fill="#1E437D"/>
<path d="M37.1243 377.067C39.1499 377.714 96.7668 377.113 98.9518 375.697C99.7864 375.163 100.18 366.77 100.377 356.604C100.424 354.41 100.452 352.15 100.471 349.843C100.612 334.904 100.405 319.046 100.405 319.046L61.8909 319.346L63.0256 350.134L63.2694 356.895C63.2694 356.895 41.2599 366.995 39.0467 368.795C36.8336 370.596 35.108 376.41 37.1243 377.067Z" fill="#F7A9A0"/>
<path d="M37.1243 377.067C39.1499 377.723 96.7668 377.067 98.9518 375.698C99.7864 375.163 100.19 366.77 100.377 356.614C100.424 354.42 100.462 352.15 100.471 349.853C100.48 347.555 100.471 345.089 100.471 342.735H62.7068L62.9787 350.134L63.2319 356.886C63.2319 356.886 41.2599 366.995 39.0467 368.796C36.8336 370.596 35.108 376.41 37.1243 377.067Z" fill="#EBEBEB"/>
<path d="M36.9554 377.151C38.981 377.807 96.973 377.198 99.1205 375.772C100.143 375.116 100.527 362.794 100.649 349.777L62.9599 350.068L63.2037 356.867C63.2037 356.867 41.1191 367.023 38.8778 368.833C36.6365 370.643 34.9204 376.495 36.9554 377.151Z" fill="#FFC727"/>
<path d="M37.7623 374.825C47.4683 374.478 86.6673 374.019 96.2982 374.422C96.3732 374.422 96.3732 374.478 96.2982 374.488C86.6766 375.031 47.4776 375.172 37.7623 374.985C37.556 374.975 37.556 374.834 37.7623 374.825Z" fill="#1E437D"/>
<path d="M61.8065 354.719C65.6233 353.969 70.3028 354.504 73.2568 357.195C73.3693 357.298 73.2568 357.458 73.0973 357.42C69.4352 356.286 65.6629 355.544 61.844 355.207C61.7794 355.212 61.7154 355.191 61.6661 355.149C61.6169 355.107 61.5864 355.047 61.5815 354.982C61.5765 354.917 61.5974 354.853 61.6396 354.804C61.6818 354.755 61.7419 354.724 61.8065 354.719Z" fill="#1E437D"/>
<path d="M59.0778 356.417C62.8945 355.657 67.574 356.192 70.5186 358.892C70.6405 358.996 70.5186 359.155 70.3592 359.117C66.6878 357.989 62.9055 357.26 59.0778 356.942C59.0081 356.942 58.9413 356.914 58.8921 356.865C58.8428 356.816 58.8152 356.749 58.8152 356.679C58.8152 356.61 58.8428 356.543 58.8921 356.494C58.9413 356.444 59.0081 356.417 59.0778 356.417Z" fill="#1E437D"/>
<path d="M56.3297 358.105C60.1371 357.355 64.8166 357.889 67.7706 360.58C67.8831 360.684 67.7706 360.843 67.6111 360.806C63.9492 359.669 60.177 358.924 56.3578 358.583C56.3015 358.576 56.2495 358.549 56.2108 358.507C56.1721 358.466 56.1491 358.412 56.1457 358.356C56.1424 358.299 56.159 358.243 56.1925 358.197C56.2261 358.151 56.2746 358.119 56.3297 358.105Z" fill="#1E437D"/>
<path d="M53.5821 359.755C57.3989 359.005 62.0783 359.54 65.0323 362.231C65.1449 362.344 65.0323 362.503 64.8729 362.466C61.2122 361.324 57.4395 360.579 53.6196 360.243C53.5876 360.245 53.5554 360.242 53.5249 360.232C53.4944 360.222 53.4661 360.206 53.4417 360.185C53.4173 360.164 53.3973 360.138 53.3828 360.11C53.3683 360.081 53.3595 360.05 53.357 360.018C53.3546 359.986 53.3584 359.954 53.3684 359.923C53.3784 359.893 53.3943 359.864 53.4152 359.84C53.4361 359.816 53.4616 359.796 53.4902 359.781C53.5189 359.767 53.5501 359.758 53.5821 359.755Z" fill="#1E437D"/>
<path d="M56.4235 351.381C59.1524 353.453 62.6785 354.279 65.8013 355.413C65.8735 355.431 65.9489 355.431 66.0214 355.415C66.0938 355.398 66.1614 355.365 66.2188 355.318C66.2761 355.27 66.3217 355.21 66.3518 355.142C66.3818 355.074 66.3956 355 66.3921 354.926C66.4577 354.926 66.514 354.869 66.4858 354.794C65.2877 351.42 63.2246 348.419 60.5028 346.092C58.8992 344.77 56.0859 343.869 54.6042 345.961C53.1226 348.052 54.8387 350.171 56.4235 351.381ZM55.4201 348.314C54.698 344.132 59.2275 346.289 60.3715 347.311C61.1045 347.972 61.7908 348.684 62.4253 349.44C63.7093 351.044 64.9112 352.712 66.0263 354.438C64.5071 353.782 62.9411 353.266 61.3937 352.675C59.5557 352 55.814 350.621 55.4201 348.314Z" fill="#1E437D"/>
<path d="M79.2304 348.83C78.2926 346.458 75.3386 346.673 73.4631 347.583C70.2858 349.207 67.5894 351.635 65.642 354.626C65.6324 354.639 65.6261 354.655 65.6238 354.671C65.6214 354.688 65.6231 354.704 65.6286 354.72C65.6341 354.736 65.6434 354.75 65.6555 354.761C65.6676 354.772 65.6823 354.781 65.6983 354.785C65.6758 354.856 65.6708 354.932 65.6834 355.005C65.6961 355.079 65.7262 355.148 65.7711 355.208C65.816 355.268 65.8746 355.316 65.9418 355.348C66.0091 355.381 66.0831 355.397 66.1578 355.395C69.5056 355.038 73.1255 355.066 76.267 353.688C78.0675 352.881 80.1306 351.071 79.2304 348.83ZM71.0905 353.81C69.4494 354.025 67.8083 354.166 66.1765 354.438C67.7145 353.069 69.1774 351.625 70.8654 350.424C71.6591 349.828 72.4925 349.286 73.3599 348.802C74.7197 348.08 79.6242 347.048 77.9456 350.95C77.0078 353.097 73.0504 353.557 71.0905 353.81Z" fill="#1E437D"/>
<path d="M111.996 154.073C111.996 154.073 100.743 248.732 100.518 250.008C100.518 250.176 103.706 351.175 103.706 351.175H61.6752C61.6752 351.175 60.5405 262.668 62.0972 247.701C64.0853 228.608 76.614 154.073 76.614 154.073H111.996Z" fill="#6AA6DA"/>
<path d="M101.277 342.528C94.8159 342.397 96.6727 342.341 90.2114 342.285C87.0511 342.285 66.2794 342.069 63.3348 342.557C63.2691 342.557 63.2691 342.678 63.3348 342.688C66.2794 343.185 87.0511 342.997 90.2114 342.969C96.6727 342.904 94.8159 342.857 101.277 342.716C101.302 342.716 101.326 342.706 101.343 342.689C101.361 342.671 101.371 342.647 101.371 342.622C101.371 342.597 101.361 342.573 101.343 342.556C101.326 342.538 101.302 342.528 101.277 342.528Z" fill="#1E437D"/>
<path d="M94.9665 242.252C95.5573 236.907 96.3263 231.571 97.0202 226.235C98.4331 215.5 99.8617 204.757 101.306 194.003C102.947 181.812 104.691 169.668 106.417 157.505C106.417 157.355 106.67 157.365 106.651 157.505C105.351 168.365 104.035 179.221 102.703 190.074C101.372 200.821 99.9555 211.568 98.5488 222.306C97.1421 233.043 95.3228 243.64 95.3697 254.406C95.3697 259.826 95.6323 265.237 95.7824 270.657C95.9324 276.078 96.0918 281.489 96.2325 286.909C96.5607 299.175 97.0296 325.414 96.9077 337.689C96.9077 337.722 96.8948 337.753 96.872 337.776C96.8491 337.798 96.8181 337.811 96.7858 337.811C96.7535 337.811 96.7224 337.798 96.6996 337.776C96.6767 337.753 96.6639 337.722 96.6639 337.689C95.9137 326.755 95.6792 301.829 95.3229 290.876C94.9665 279.922 94.582 269.204 94.3851 258.363C94.227 252.986 94.4212 247.604 94.9665 242.252Z" fill="#1E437D"/>
<path d="M138.282 375.125C140.317 374.535 187.684 341.713 188.697 339.321C189.091 338.383 184.712 331.238 179.179 322.713C177.978 320.838 176.74 318.962 175.428 317.087C167.156 304.642 158.097 291.626 158.097 291.626L126.344 313.495L144.547 338.346L148.542 343.804C148.542 343.804 136.022 364.435 135.197 367.248C134.372 370.061 136.238 375.698 138.282 375.125Z" fill="#F7A9A0"/>
<path d="M138.282 375.125C140.317 374.535 187.684 341.712 188.697 339.33C189.091 338.393 184.72 331.237 179.169 322.722C177.987 320.847 176.74 318.971 175.418 317.096C174.095 315.22 172.773 313.129 171.47 311.178L140.176 332.382L144.546 338.346L148.541 343.804C148.541 343.804 136.059 364.444 135.225 367.257C134.39 370.071 136.247 375.697 138.282 375.125Z" fill="#EBEBEB"/>
<path d="M138.179 375.294C140.232 374.703 187.881 341.694 188.884 339.293C189.353 338.177 182.76 327.758 175.568 316.908L144.527 338.289L148.541 343.813C148.541 343.813 135.975 364.575 135.112 367.332C134.249 370.089 136.134 375.894 138.179 375.294Z" fill="#FFC727"/>
<path d="M137.541 372.884C145.39 367.154 177.593 344.751 185.78 339.725C185.855 339.678 185.883 339.724 185.78 339.771C178.128 345.623 145.746 367.726 137.597 373.016C137.466 373.166 137.382 373.044 137.541 372.884Z" fill="#263238"/>
<path d="M146.187 342.791C148.916 339.978 153.099 337.84 157.047 338.421C157.197 338.421 157.169 338.656 157.047 338.693C153.371 339.805 149.825 341.308 146.469 343.176C146.418 343.198 146.361 343.203 146.307 343.188C146.253 343.174 146.206 343.142 146.173 343.097C146.14 343.052 146.124 342.997 146.127 342.941C146.129 342.886 146.151 342.833 146.187 342.791Z" fill="#263238"/>
<path d="M144.865 345.689C147.594 342.875 151.776 340.746 155.725 341.319C155.884 341.319 155.846 341.562 155.725 341.6C152.05 342.713 148.505 344.212 145.146 346.073C145.096 346.096 145.039 346.1 144.985 346.086C144.931 346.071 144.884 346.039 144.851 345.994C144.818 345.949 144.802 345.894 144.804 345.839C144.807 345.783 144.828 345.73 144.865 345.689Z" fill="#263238"/>
<path d="M143.543 348.661C146.281 345.904 150.454 343.719 154.402 344.291C154.562 344.291 154.524 344.535 154.402 344.573C150.726 345.685 147.18 347.188 143.824 349.055C143.772 349.084 143.711 349.092 143.653 349.079C143.595 349.065 143.544 349.031 143.509 348.983C143.474 348.934 143.459 348.875 143.465 348.816C143.471 348.756 143.499 348.702 143.543 348.661Z" fill="#263238"/>
<path d="M142.22 351.606C144.959 348.84 149.132 346.655 153.089 347.236C153.239 347.236 153.202 347.47 153.089 347.508C149.422 348.62 145.885 350.122 142.539 351.99C142.488 352.033 142.423 352.053 142.357 352.047C142.291 352.041 142.23 352.009 142.188 351.958C142.145 351.907 142.125 351.841 142.131 351.775C142.137 351.709 142.169 351.648 142.22 351.606Z" fill="#263238"/>
<path d="M139.858 343.044C143.271 343.232 146.656 341.928 149.92 341.094C149.99 341.069 150.054 341.028 150.105 340.974C150.157 340.92 150.195 340.855 150.216 340.783C150.237 340.712 150.241 340.636 150.227 340.563C150.213 340.49 150.182 340.421 150.136 340.362C150.149 340.353 150.16 340.34 150.168 340.325C150.175 340.311 150.179 340.294 150.179 340.278C150.179 340.261 150.175 340.245 150.168 340.23C150.16 340.216 150.149 340.203 150.136 340.193C147.25 338.079 143.862 336.753 140.308 336.349C138.235 336.161 135.403 336.986 135.347 339.546C135.291 341.938 137.851 342.932 139.858 343.044ZM137.307 341.066C134.362 338.008 139.314 337.249 140.842 337.455C141.825 337.605 142.796 337.821 143.749 338.102C145.715 338.703 147.646 339.411 149.535 340.222C147.913 340.531 146.328 340.981 144.715 341.356C142.793 341.797 138.929 342.754 137.307 341.066Z" fill="#263238"/>
<path d="M157.3 328.143C155.19 326.708 152.874 328.537 151.833 330.337C150.099 333.468 149.219 337 149.282 340.578C149.281 340.594 149.284 340.61 149.291 340.625C149.298 340.64 149.308 340.653 149.321 340.663C149.334 340.673 149.349 340.68 149.365 340.683C149.381 340.686 149.397 340.685 149.413 340.681C149.437 340.751 149.476 340.815 149.528 340.867C149.58 340.919 149.644 340.958 149.714 340.982C149.784 341.006 149.858 341.013 149.931 341.003C150.004 340.993 150.074 340.966 150.135 340.925C152.705 338.749 155.762 336.742 157.553 333.845C158.613 332.147 159.307 329.493 157.3 328.143ZM153.361 336.827C152.123 337.933 150.839 338.965 149.61 340.109C150.116 338.111 150.548 336.105 151.232 334.163C151.558 333.222 151.946 332.304 152.395 331.416C153.108 330.056 156.587 326.445 157.384 330.619C157.853 332.916 154.833 335.514 153.361 336.827Z" fill="#263238"/>
<path d="M76.6138 154.073C76.6138 154.073 83.1782 174.245 90.5585 184.42C90.5585 184.42 92.4903 259.01 95.5006 267.582C100.499 281.77 139.342 339.153 139.342 339.153L174.93 314.564C174.93 314.564 137.71 260.689 135.759 255.531C134.475 252.108 130.705 192.982 131.249 191.5C137.813 173.607 127.938 154.073 127.938 154.073H76.6138Z" fill="#6AA6DA"/>
<path d="M167.344 307.071C161.952 310.625 163.443 309.528 158.097 313.148C155.472 314.911 138.273 326.558 136.125 328.64C136.116 328.651 136.11 328.665 136.11 328.68C136.109 328.694 136.114 328.709 136.122 328.721C136.131 328.733 136.143 328.741 136.158 328.745C136.172 328.749 136.187 328.748 136.2 328.743C138.911 327.477 155.894 315.53 158.482 313.738C163.762 309.987 162.233 311.028 167.447 307.249C167.541 307.155 167.438 307.005 167.344 307.071Z" fill="#263238"/>
<path d="M126.747 189.343C127.282 187.017 127.863 184.701 128.22 182.338C128.568 179.951 128.668 177.534 128.52 175.126C128.14 170.25 127.256 165.426 125.885 160.731C125.566 159.559 125.228 158.387 124.881 157.215C124.816 157.008 125.153 156.924 125.209 157.13C126.769 161.722 127.982 166.424 128.839 171.197C129.543 175.808 129.419 180.508 128.473 185.076C127.535 189.765 126.128 194.379 126.316 199.246C126.41 201.768 129.411 248.629 129.411 251.067C129.293 253.455 129.61 255.845 130.348 258.119C131.252 260.265 132.361 262.319 133.659 264.252C134.943 266.353 136.238 268.435 137.541 270.517C142.671 278.713 154.421 295.302 159.879 303.273L161.97 306.302C162.045 306.405 161.876 306.499 161.801 306.396C156.053 298.472 143.984 282.014 138.732 273.743C136.134 269.71 133.481 265.668 131.117 261.486C129.96 259.548 129.19 257.405 128.848 255.175C128.548 252.915 125.378 198.646 125.566 196.207C125.788 193.893 126.183 191.598 126.747 189.343Z" fill="#263238"/>
<path d="M110.505 160.947C111.396 164.576 111.265 169.115 113.844 172.106C115.19 173.496 116.95 174.411 118.861 174.713C121.023 175.13 123.231 175.25 125.425 175.07C125.442 175.075 125.456 175.086 125.466 175.1C125.477 175.115 125.482 175.132 125.482 175.149C125.482 175.167 125.477 175.184 125.466 175.198C125.456 175.213 125.442 175.223 125.425 175.229C121.524 176.476 116.113 176.27 113.159 173.053C111.888 171.528 111.104 169.656 110.909 167.68C110.577 165.453 110.396 163.207 110.365 160.956C110.372 160.944 110.381 160.934 110.393 160.926C110.405 160.919 110.419 160.914 110.432 160.914C110.446 160.913 110.46 160.915 110.473 160.921C110.486 160.927 110.497 160.936 110.505 160.947Z" fill="#263238"/>
<path d="M90.2964 184.551C90.3086 184.484 90.3439 184.423 90.3961 184.38C90.4484 184.336 90.5143 184.312 90.5824 184.312C90.6505 184.312 90.7164 184.336 90.7687 184.38C90.821 184.423 90.8563 184.484 90.8684 184.551C91.0185 186.201 90.9903 187.861 91.0466 189.512C91.1029 191.162 91.1216 192.644 91.1685 194.2C91.2529 197.426 91.3186 200.643 91.3936 203.869C91.5436 210.311 91.7312 216.745 92.0031 223.187C92.2751 229.63 92.5564 236.053 92.8847 242.486C93.0535 245.703 93.241 248.92 93.4286 252.127C93.5348 255.23 93.8481 258.322 94.3663 261.383C95.6355 267.683 97.9967 273.713 101.343 279.2C101.428 279.322 101.231 279.425 101.137 279.304C97.6868 274.703 95.2107 269.448 93.8599 263.858C92.4064 257.838 92.247 251.602 91.9 245.45C91.1685 232.452 90.6903 219.455 90.362 206.448C90.2776 202.79 90.1932 199.133 90.1839 195.476C90.1839 193.694 90.1839 191.912 90.1839 190.13C90.1839 188.349 90.1463 186.417 90.2964 184.551Z" fill="#1E437D"/>
<path d="M83.7319 181.4C87.9987 182.882 92.1332 184.72 96.0917 186.895C96.1078 186.903 96.1222 186.913 96.1341 186.926C96.1461 186.939 96.1554 186.954 96.1615 186.971C96.1676 186.987 96.1703 187.005 96.1696 187.022C96.1689 187.04 96.1648 187.057 96.1574 187.073C96.15 187.089 96.1395 187.104 96.1266 187.116C96.1136 187.128 96.0984 187.137 96.0819 187.143C96.0653 187.149 96.0478 187.152 96.0302 187.151C96.0125 187.151 95.9952 187.146 95.9792 187.139C91.8155 185.432 87.5392 183.801 83.5068 181.878C83.188 181.728 83.4036 181.297 83.7319 181.4Z" fill="#1E437D"/>
<path d="M82.5219 154.185C82.5219 154.054 82.7845 154.017 82.7845 154.185C82.7815 158.621 83.0162 163.054 83.4878 167.464C83.6754 169.509 85.3634 180.818 89.1145 179.993C89.7334 179.862 90.0523 179.271 90.1554 178.38C90.1382 177.207 89.9712 176.041 89.6584 174.91C89.2458 172.538 88.9176 170.165 88.7206 167.774C88.2876 163.321 88.3379 158.834 88.8707 154.392C88.8707 154.359 88.8835 154.328 88.9064 154.306C88.9292 154.283 88.9603 154.27 88.9926 154.27C89.0249 154.27 89.0559 154.283 89.0788 154.306C89.1017 154.328 89.1145 154.359 89.1145 154.392C88.9999 160.567 89.3794 166.742 90.2492 172.857C90.7087 175.801 92.2654 180.227 89.0395 180.678C85.8135 181.128 83.6285 173.719 83.2253 171.694C82.1994 165.916 81.9628 160.026 82.5219 154.185Z" fill="#1E437D"/>
<path d="M88.9738 180.284C89.3065 181.046 89.5884 181.829 89.8178 182.628C90.0508 183.226 90.1685 183.862 90.1648 184.504C90.1648 184.635 89.9773 184.644 89.9022 184.56C89.5194 183.983 89.2284 183.351 89.0395 182.684C88.7581 181.962 88.4581 181.24 88.1955 180.509C88.0267 180.068 88.7675 179.815 88.9738 180.284Z" fill="#1E437D"/>
<path d="M70.8854 121.231C69.9989 127.239 64.4113 156.642 55.6155 160.464C44.9583 165.092 30.1646 167.037 23.1097 165.986C19.1532 165.394 22.5185 145.957 26.1435 146.038C31.8511 146.174 44.1238 144.432 46.1618 143.95C48.1997 143.469 56.7612 127.072 62.6876 118.835C68.0311 111.439 71.5114 116.997 70.8854 121.231Z" fill="#FFAE9D"/>
<path d="M13.0751 165.398C17.0772 166.693 26.3046 166.153 28.4786 165.165C30.6526 164.178 30.2319 148.449 28.2538 147.002C26.2757 145.555 12.4541 142.221 8.43604 143.739C4.41799 145.256 8.92419 164.05 13.0751 165.398Z" fill="#FFAE9D"/>
<path d="M25.9973 146.017C25.9973 146.017 21.741 142.568 19.2041 138.463C17.086 135.002 14.331 129.625 12.4301 130.694C8.5225 132.889 15.3995 146.297 15.3995 146.297C15.3995 146.297 19.3806 151.732 23.4427 149.899C24.1865 149.552 24.8192 149.006 25.2703 148.321C25.7214 147.635 25.9731 146.838 25.9973 146.017Z" fill="#FFAE9D"/>
<path d="M15.0992 142.636C16.557 144.324 13.7356 145.075 13.7356 145.075C13.7356 145.075 18.061 144.974 18.8944 147.289C19.7278 149.604 16.2533 150.324 16.0052 150.384C16.2364 150.377 20.209 150.383 20.8068 152.805C21.4296 155.319 17.8391 155.519 17.6066 155.532C17.8228 155.593 20.6783 156.495 20.7173 158.436C20.7769 161.77 13.4067 159.669 11.1063 161.08C11.1063 161.08 13.0447 165.239 13.0888 165.388C13.0888 165.388 6.02017 163.515 4.30198 160.322C4.04163 159.859 3.94754 159.321 4.03538 158.798C4.12322 158.275 4.38769 157.797 4.78473 157.446C4.78473 157.446 2.45275 157.091 1.91541 155.208C1.64343 154.238 2.95972 152.942 2.95972 152.942C2.95972 152.942 1.09663 152.584 0.727883 150.879C0.437587 149.506 1.79088 148.427 1.79088 148.427C1.79088 148.427 0.162946 147.255 0.307973 145.765C0.58948 142.762 11.954 139.036 15.0992 142.636Z" fill="#FFAE9D"/>
<path d="M1.96866 148.23C1.96579 148.235 1.96175 148.239 1.95692 148.241C1.9521 148.244 1.94666 148.246 1.94105 148.246C1.93544 148.246 1.92986 148.245 1.92481 148.243C1.91977 148.24 1.91542 148.237 1.91215 148.232C1.90888 148.228 1.9068 148.222 1.90609 148.217C1.90538 148.211 1.90608 148.205 1.90811 148.2C1.91013 148.195 1.91342 148.19 1.91769 148.187C1.92196 148.183 1.92708 148.181 1.93256 148.179C5.49679 145.942 9.65832 144.845 13.8638 145.032C13.9987 145.046 14.0345 145.27 13.891 145.283C9.79441 145.681 5.77814 146.674 1.96866 148.23Z" fill="#1E437D"/>
<path d="M2.88171 152.95C2.84508 152.976 2.80631 152.893 2.83249 152.881C6.38715 150.697 11.4095 149.382 16.0665 150.256C16.227 150.287 16.338 150.471 16.1513 150.452C13.0459 150.11 6.43545 151.432 2.88171 152.95Z" fill="#1E437D"/>
<path d="M17.8957 155.714C13.4079 155.037 9.15566 155.87 4.92605 157.372C4.88026 157.405 4.84736 157.311 4.87354 157.299C6.75108 156.003 9.55039 155.337 11.7765 155.012C13.8365 154.664 15.9524 154.863 17.9119 155.591C17.9944 155.581 17.99 155.729 17.8957 155.714Z" fill="#1E437D"/>
<path d="M13.7717 145.029C13.9315 145.039 13.7374 145.261 13.8959 145.28C14.5673 145.347 18.562 146.099 18.7365 147.562C18.8693 148.715 17.3999 149.69 16.6876 149.847L14.8906 150.239L16.705 150.5C17.5113 150.605 18.2948 150.843 19.0238 151.204C19.3713 151.352 19.6837 151.572 19.9406 151.85C20.1976 152.127 20.3932 152.455 20.5149 152.813C20.6225 153.146 20.613 153.506 20.4878 153.833C20.3626 154.159 20.1293 154.433 19.8268 154.609C19.1417 154.989 18.3709 155.187 17.5873 155.186L15.4197 155.254L17.462 155.872C18.0366 156.048 18.5859 156.298 19.0958 156.616C19.5926 156.896 19.9953 157.317 20.2529 157.826C20.3655 158.059 20.4099 158.32 20.381 158.577C20.3521 158.835 20.251 159.079 20.0895 159.281C19.6617 159.677 19.1271 159.94 18.5517 160.035C17.32 160.269 16.0715 160.405 14.8181 160.441C14.1894 160.482 13.5529 160.522 12.9191 160.594C12.2787 160.631 11.6533 160.802 11.0836 161.097C11.6721 160.87 12.2992 160.761 12.9299 160.774C13.5592 160.753 14.1925 160.757 14.8409 160.792C16.1234 160.839 17.4073 160.767 18.6763 160.577C19.3666 160.485 20.0146 160.193 20.5395 159.735C20.797 159.456 20.9678 159.107 21.0312 158.732C21.0945 158.357 21.0477 157.971 20.8964 157.622C20.5964 156.981 20.111 156.444 19.5029 156.082C18.9405 155.72 18.3338 155.432 17.698 155.225L17.5924 155.938C18.5209 155.954 19.4372 155.726 20.2496 155.277C20.6903 155.014 21.0279 154.608 21.2066 154.127C21.3641 153.647 21.3733 153.131 21.2331 152.645C21.0802 152.192 20.8331 151.777 20.5081 151.426C20.1832 151.076 19.7877 150.798 19.3477 150.612C18.5399 150.225 17.6734 149.976 16.784 149.875L16.8282 150.536C17.7211 150.313 19.4788 149.402 19.5093 147.577C19.1709 145.15 14.6086 144.998 13.7717 145.029Z" fill="#1E437D"/>
<path d="M47.5245 140.522L69.4684 135.111C70.9545 126.938 71.9565 118.683 72.4693 110.391C73.1726 97.7221 68.6057 99.2976 60.0719 112.783C54.7167 121.453 50.4996 130.776 47.5245 140.522Z" fill="#A788CE"/>
<path d="M55.5043 128.641C55.1869 129.439 54.9878 130.279 54.9135 131.135C55.4176 130.444 55.8246 129.686 56.1232 128.885C56.4395 128.092 56.6386 127.258 56.714 126.409C56.2115 127.095 55.8045 127.845 55.5043 128.641ZM67.611 103.021C67.4001 103.627 67.2677 104.257 67.2171 104.896C67.7262 104.206 68.1365 103.449 68.4362 102.646C68.4762 102.544 68.5107 102.441 68.5394 102.336C68.2169 102.546 67.9069 102.775 67.611 103.021ZM66.5794 116.459C65.809 116.811 65.0898 117.265 64.4413 117.809C66.1352 117.534 67.7285 116.823 69.0645 115.746C68.2072 115.868 67.3709 116.108 66.5794 116.459Z" fill="white"/>
<path d="M68.5493 131.041C62.6665 132.861 56.6867 134.352 50.6378 135.505C50.5628 135.505 50.5534 135.402 50.6378 135.383C52.1007 135.102 61.8067 132.27 68.568 130.91C68.6243 130.938 68.6243 131.013 68.5493 131.041Z" fill="#1E437D"/>
<path opacity="0.1" d="M72.4689 110.392C71.9561 118.684 70.9541 126.938 69.468 135.111L59.5276 137.559L71.0528 101.989C72.2063 102.805 72.7315 105.618 72.4689 110.392Z" fill="black"/>
<path d="M73.2753 165.326L130.067 154.073C130.067 154.073 111.377 115.624 83.9284 100.742C77.5797 97.2908 67.7612 99.804 66.7765 105.853C63.4099 126.69 73.2753 165.326 73.2753 165.326Z" fill="#A788CE"/>
<path d="M82.2127 114.855C81.889 115.649 81.6867 116.486 81.6125 117.34C82.125 116.656 82.5356 115.901 82.8316 115.099C83.1488 114.303 83.3509 113.466 83.4318 112.614C82.9252 113.302 82.5151 114.056 82.2127 114.855ZM77.0643 148.971C76.7452 149.764 76.54 150.597 76.4548 151.447C76.9708 150.762 77.3817 150.003 77.6739 149.196C77.9879 148.403 78.1899 147.57 78.2741 146.721C77.7643 147.409 77.3569 148.167 77.0643 148.971ZM96.3919 145.436C96.0768 146.232 95.8748 147.069 95.7917 147.921C96.3001 147.233 96.7133 146.479 97.0202 145.68C97.3355 144.887 97.5345 144.053 97.611 143.204C97.1037 143.888 96.6935 144.639 96.3919 145.436ZM67.3208 104.174C67.3208 104.408 67.2458 104.633 67.2271 104.877C67.7361 104.187 68.1464 103.43 68.4462 102.627C68.4502 102.58 68.4502 102.533 68.4462 102.486C67.9817 102.989 67.5989 103.562 67.3115 104.183L67.3208 104.174ZM107.073 120.022C106.839 119.9 106.604 119.807 106.37 119.703C105.577 119.388 104.743 119.189 103.894 119.113C104.574 119.627 105.326 120.038 106.126 120.332C106.655 120.526 107.197 120.683 107.748 120.801C107.523 120.547 107.298 120.285 107.064 120.032L107.073 120.022ZM110.055 151.653C109.263 151.336 108.429 151.137 107.58 151.063C108.959 152.061 110.575 152.681 112.268 152.863C111.584 152.366 110.837 151.962 110.046 151.663L110.055 151.653ZM76.0797 128.462C75.2878 128.14 74.4543 127.932 73.6039 127.843C74.289 128.357 75.0437 128.771 75.8452 129.072C76.6406 129.388 77.4777 129.587 78.3303 129.663C77.6386 129.158 76.8773 128.757 76.0703 128.472L76.0797 128.462ZM122.031 142.848C121.69 142.064 121.242 141.332 120.699 140.672C120.97 142.365 121.678 143.959 122.753 145.295C122.638 144.455 122.407 143.635 122.068 142.857L122.031 142.848ZM94.9758 125.03C94.6339 124.244 94.1858 123.509 93.6442 122.845C93.7648 123.696 94.0114 124.524 94.3757 125.302C94.7112 126.086 95.1564 126.819 95.6979 127.478C95.5777 126.65 95.3475 125.843 95.0133 125.077L94.9758 125.03ZM108.424 135.392C107.637 135.724 106.904 136.169 106.248 136.715C107.093 136.594 107.914 136.347 108.686 135.983C109.474 135.655 110.208 135.209 110.862 134.661C110.027 134.8 109.218 135.062 108.461 135.439L108.424 135.392ZM87.6143 157.196C86.8276 157.53 86.0944 157.979 85.4387 158.527C86.2824 158.402 87.1036 158.156 87.8769 157.796C88.6617 157.458 89.3943 157.009 90.0525 156.464C89.2088 156.589 88.3876 156.836 87.6143 157.196ZM66.58 116.459L66.0455 116.731V117.368C66.3209 117.283 66.5903 117.18 66.852 117.059C67.6364 116.72 68.3689 116.272 69.0276 115.727C68.1822 115.858 67.3587 116.104 66.58 116.459ZM85.7481 137.746C84.9596 138.077 84.226 138.526 83.5725 139.078C84.4172 138.957 85.2391 138.711 86.0107 138.346C86.7992 138.015 87.5328 137.566 88.1863 137.015C87.3567 137.149 86.5491 137.395 85.7856 137.746H85.7481ZM92.2469 106.143C92.1869 106.178 92.1304 106.219 92.0781 106.265C92.167 106.259 92.255 106.243 92.3407 106.218L92.2469 106.143Z" fill="white"/>
<path d="M83.4594 103.743C95.0221 100.085 125.078 91.9361 129.917 82.8772C136.275 70.9862 131.642 44.3534 128.435 39.8802C126.672 37.4138 109.876 44.1189 108.113 46.8385C106.35 49.558 109.548 70.2172 108.911 72.5616C108.273 74.9061 87.5012 87.8005 78.3766 95.2464C66.8701 104.68 74.3817 106.612 83.4594 103.743Z" fill="#FFAE9D"/>
<path d="M113.994 94.665L95.1539 82.1738C95.1539 82.1738 88.2331 87.1159 78.4333 95.1808C68.6336 103.246 69.2431 108.31 84.9978 105.496C100.752 102.683 113.994 94.665 113.994 94.665Z" fill="#A788CE"/>
<path d="M99.3078 92.8459C98.5154 92.5306 97.6815 92.3316 96.8321 92.2551C97.5175 92.7605 98.2684 93.1706 99.064 93.4742C99.8597 93.7895 100.697 93.9885 101.549 94.065C100.863 93.5561 100.108 93.1458 99.3078 92.8459ZM82.8217 98.0318C82.485 97.2463 82.0365 96.5135 81.4901 95.8562C81.6133 96.7022 81.8565 97.5263 82.2122 98.3038C82.5489 99.0893 82.9974 99.8221 83.5438 100.479C83.4219 99.6331 83.1787 98.8088 82.8217 98.0318Z" fill="white"/>
<path d="M92.7715 85.6248C98.1018 88.7238 103.255 92.1175 108.207 95.7903C108.264 95.7903 108.207 95.9216 108.123 95.8747C106.923 94.937 98.2669 89.7698 92.6871 85.7186C92.6215 85.6717 92.7059 85.578 92.7715 85.6248Z" fill="#1E437D"/>
<path d="M84.9506 105.478C85.7377 105.183 86.5467 104.951 87.3701 104.784C88.1924 104.587 89.0301 104.462 89.8739 104.408C89.1115 104.783 88.3049 105.061 87.4732 105.234C86.647 105.427 85.7986 105.509 84.9506 105.478Z" fill="#1E437D"/>
<path d="M86.2076 105.975C86.8054 105.558 87.4322 105.186 88.0831 104.859C87.8621 105.162 87.573 105.409 87.2391 105.581C86.917 105.763 86.5693 105.896 86.2076 105.975Z" fill="#1E437D"/>
<path d="M70.5185 111.067C73.6413 111.132 77.5799 105.027 78.799 100.92C78.8834 100.639 78.1051 98.5286 77.0923 95.2932C76.4827 93.3614 75.845 91.1952 75.4137 89.1696C75.3293 88.7569 63.4008 94.9744 63.4008 94.9744C64.6681 97.348 65.6412 99.8673 66.2985 102.477C66.3514 102.758 66.3828 103.044 66.3923 103.33C66.3882 103.377 66.3882 103.424 66.3923 103.471C66.486 105.14 67.5176 111.001 70.5185 111.067Z" fill="#FFAE9D"/>
<path d="M67.7142 103.293C67.2832 103.4 66.8441 103.473 66.4013 103.508C66.3972 103.462 66.3972 103.415 66.4013 103.368C66.3918 103.081 66.3605 102.796 66.3075 102.514C65.6514 99.9061 64.6816 97.387 63.4192 95.0121C63.4192 95.0121 73.0877 89.9669 75.0757 89.2729C75.1695 91.7018 75.1508 101.52 67.7142 103.293Z" fill="#1D293F"/>
<path d="M70.8562 73.959C73.8758 77.7101 76.6047 90.914 74.6823 94.8808C71.869 100.639 64.8544 103.921 59.3403 100.001C53.995 96.25 50.7503 78.9199 53.1322 75.0562C56.6301 69.3733 66.3924 68.4355 70.8562 73.959Z" fill="#FFAE9D"/>
<path d="M63.8693 85.925C63.8693 85.925 63.9443 85.9251 63.9537 85.9907C64.1131 86.8816 64.4507 87.8662 65.3134 88.0069V88.0632C64.31 88.1476 63.8786 86.8628 63.8693 85.925Z" fill="#1D293F"/>
<path d="M64.4698 84.8466C65.8764 84.434 66.5985 87.2848 65.2856 87.6599C63.9727 88.0351 63.2882 85.1936 64.4698 84.8466Z" fill="#1D293F"/>
<path d="M58.5897 87.144C58.5897 87.144 58.5335 87.2097 58.5897 87.2378C58.8429 88.1193 58.9742 89.1134 58.2521 89.6479C58.2521 89.6479 58.2521 89.7135 58.2521 89.7042C59.1618 89.3197 58.9648 87.9318 58.5897 87.144Z" fill="#1D293F"/>
<path d="M57.5677 86.422C56.1235 86.6752 56.7331 89.5448 58.0741 89.3104C59.4151 89.0759 58.7868 86.2157 57.5677 86.422Z" fill="#1D293F"/>
<path d="M65.2388 82.8773C64.8405 82.9253 64.4397 82.9504 64.0384 82.9523C63.6175 83.0412 63.179 82.9885 62.7912 82.8023C62.6816 82.7196 62.6022 82.6033 62.5649 82.4713C62.5277 82.3392 62.5347 82.1985 62.5849 82.0708C62.7261 81.8356 62.9273 81.6422 63.1679 81.5103C63.4085 81.3785 63.6798 81.313 63.954 81.3206C64.5088 81.2467 65.0711 81.3839 65.5295 81.7051C65.6323 81.7825 65.71 81.8885 65.753 82.0098C65.796 82.1311 65.8024 82.2623 65.7714 82.3872C65.7405 82.5121 65.6735 82.6252 65.5788 82.7123C65.4841 82.7994 65.3658 82.8568 65.2388 82.8773Z" fill="#1D293F"/>
<path d="M56.1144 85.2685C56.4763 85.0968 56.8271 84.9026 57.1647 84.687C57.5534 84.5314 57.8821 84.2553 58.1025 83.8993C58.1534 83.7708 58.1598 83.629 58.1207 83.4964C58.0816 83.3638 57.9993 83.2482 57.8868 83.1678C57.6423 83.0442 57.3693 82.9878 57.0958 83.0043C56.8223 83.0207 56.558 83.1096 56.3301 83.2616C55.8193 83.4993 55.4173 83.9214 55.2048 84.4432C55.1558 84.5673 55.1459 84.7033 55.1762 84.8332C55.2065 84.9631 55.2756 85.0806 55.3744 85.1702C55.4731 85.2598 55.5969 85.3172 55.7291 85.3348C55.8613 85.3523 55.9957 85.3292 56.1144 85.2685Z" fill="#1D293F"/>
<path d="M65.2754 94.8255C65.116 95.088 64.9847 95.4256 64.6658 95.5288C64.3351 95.5992 63.9932 95.5992 63.6624 95.5288C63.6624 95.5288 63.6624 95.5288 63.6624 95.5851C63.833 95.7277 64.0391 95.8214 64.2588 95.856C64.4785 95.8907 64.7034 95.8651 64.9097 95.782C65.0775 95.6942 65.2149 95.5576 65.3036 95.3902C65.3923 95.2228 65.4283 95.0324 65.4067 94.8442C65.3785 94.7879 65.3035 94.788 65.2754 94.8255Z" fill="#1D293F"/>
<path d="M61.2177 91.4111C61.002 91.5987 59.7433 92.4989 59.6682 92.1426C58.9784 89.0625 58.6014 85.9207 58.5429 82.7648C58.5429 82.7424 58.5518 82.721 58.5676 82.7051C58.5835 82.6893 58.6049 82.6804 58.6273 82.6804C58.6497 82.6804 58.6712 82.6893 58.687 82.7051C58.7028 82.721 58.7117 82.7424 58.7117 82.7648C59.3682 85.5782 59.5182 88.5509 60.1371 91.4111C60.5334 91.0899 61.2177 90.7943 62.1309 90.0249C63.1101 89.2 62.1309 90.5974 61.2177 91.4111Z" fill="#1D293F"/>
<path d="M61.3554 94.1502C61.8374 94.504 62.4028 94.727 62.9965 94.7972C63.3229 94.8271 63.6506 94.755 63.9343 94.5909C64.5438 94.2252 64.3844 93.6063 64.1125 93.128C63.964 92.8695 63.7845 92.6302 63.5779 92.4153C63.045 93.2194 62.2649 93.8284 61.3554 94.1502Z" fill="#1D293F"/>
<path d="M62.9964 94.7974C63.3228 94.8273 63.6504 94.7552 63.9342 94.5911C64.5437 94.2254 64.3843 93.6064 64.1123 93.1282C63.765 93.2393 63.4656 93.4648 63.263 93.768C63.0603 94.0711 62.9663 94.434 62.9964 94.7974Z" fill="#EE684E"/>
<path d="M76.1542 83.5336C72.8251 85.0153 69.5898 81.5831 69.1772 78.0195C69.1772 78.0195 60.5309 82.5115 57.455 75.375C57.1785 76.5929 56.606 77.7238 55.7881 78.6676C54.9702 79.6114 53.9323 80.339 52.7661 80.786V83.8431C51.7346 83.9088 49.784 81.6206 51.3126 78.7229C50.6641 76.432 50.9262 73.9792 52.044 71.8771C52.541 70.9885 53.2844 70.2625 54.1845 69.7866C55.0847 69.3108 56.1032 69.1053 57.1174 69.1951C58.2833 67.4761 60.0727 66.2786 62.1064 65.8566C63.1727 65.6552 64.2717 65.711 65.3122 66.0192C66.3527 66.3275 67.3048 66.8793 68.0894 67.629C68.0894 67.629 72.9002 66.86 74.8226 69.7765C75.3802 70.5893 75.7617 71.5098 75.9426 72.4788C76.1234 73.4478 76.0997 74.4439 75.8729 75.4031C75.8729 75.4031 77.4578 76.2471 77.8704 79.1542C78.0579 81.1048 77.1483 83.1116 76.1542 83.5336Z" fill="#1D293F"/>
<path d="M57.4179 74.6716C57.5637 75.2891 57.7743 75.8895 58.0462 76.4628C58.2942 77.0326 58.609 77.5709 58.984 78.0664C59.7322 79.0523 60.8232 79.7216 62.0411 79.9419C63.2697 80.1074 64.5199 79.9788 65.6891 79.5668C66.2799 79.3418 66.8801 79.1448 67.4521 78.8822C68.0241 78.6197 68.5868 78.3196 69.1682 78.057C68.6431 78.404 68.0898 78.7322 67.5459 79.0792C67.002 79.4261 66.3924 79.6231 65.8016 79.895C64.5841 80.376 63.2653 80.5437 61.9661 80.3827C60.6508 80.1351 59.4837 79.385 58.712 78.2914C57.9852 77.2118 57.5402 75.9674 57.4179 74.6716Z" fill="#1D293F"/>
<path d="M68.0142 67.6288C69.1721 67.2229 70.4006 67.057 71.6247 67.1412C72.8914 67.206 74.0942 67.7177 75.0194 68.5853C75.4523 69.0433 75.8072 69.5692 76.0697 70.142C76.3531 70.6966 76.5371 71.2964 76.6136 71.9144C76.7917 73.1504 76.5006 74.4083 75.7978 75.4405C76.3294 74.3664 76.4972 73.1486 76.276 71.9707C76.0584 70.8177 75.5112 69.7525 74.7006 68.9042C74.2884 68.5094 73.8088 68.1918 73.2845 67.9664C72.7385 67.7498 72.1687 67.5987 71.5871 67.5163C70.3976 67.3668 69.192 67.4048 68.0142 67.6288Z" fill="#1D293F"/>
<path d="M57.0428 69.195C56.0869 69.1923 55.1368 69.3443 54.2295 69.6451C53.3305 69.9332 52.5202 70.4465 51.8757 71.1362C51.2577 71.8562 50.8319 72.7207 50.6378 73.6494C50.4372 74.5983 50.3771 75.5715 50.4596 76.5378C50.2051 75.5744 50.1508 74.569 50.3002 73.5838C50.4214 72.5638 50.855 71.6063 51.5417 70.8425C52.2283 70.0786 53.1344 69.5457 54.1357 69.3169C55.0848 69.0681 56.0763 69.0266 57.0428 69.195Z" fill="#1D293F"/>
<path d="M54.2666 80.5703C55.1346 79.8679 55.8822 79.0285 56.4798 78.0853C56.7659 77.6195 56.9897 77.1182 57.1456 76.5942C57.295 76.0525 57.3831 75.4957 57.4081 74.9343C57.5551 75.5009 57.5807 76.0921 57.4832 76.6692C57.3858 77.2543 57.1756 77.8148 56.8642 78.3197C56.5564 78.819 56.1737 79.2682 55.7295 79.6513C55.2942 80.0339 54.8002 80.3442 54.2666 80.5703Z" fill="#1D293F"/>
<path d="M57.1459 92.705C55.6455 93.0145 54.0325 91.4297 53.5542 89.1696C53.076 86.9096 53.9106 84.7996 55.4298 84.4807C56.949 84.1619 58.5432 85.7467 59.0215 88.0161C59.4997 90.2856 58.6464 92.3862 57.1459 92.705ZM55.5236 85.034C54.3232 85.2872 53.6949 87.0878 54.1075 89.0477C54.5201 91.0077 55.833 92.4049 57.0334 92.1517C58.2337 91.8985 58.9089 90.098 58.44 88.1287C57.9712 86.1594 56.7145 84.7808 55.5236 85.034Z" fill="#1E437D"/>
<path d="M66.3548 90.7545C65.5419 90.9846 64.6786 90.9648 63.877 90.6977C63.0755 90.4306 62.3729 89.9286 61.8605 89.2569C61.3481 88.5852 61.0496 87.7749 61.0038 86.9313C60.958 86.0877 61.167 85.2499 61.6037 84.5266C62.0404 83.8034 62.6845 83.2283 63.4524 82.876C64.2203 82.5237 65.0764 82.4105 65.9094 82.5512C66.7425 82.6919 67.5139 83.08 68.1235 83.6649C68.7331 84.2499 69.1526 85.0047 69.3275 85.8312C69.5802 86.8779 69.4097 87.9821 68.8531 88.9039C68.2965 89.8257 67.3988 90.4907 66.3548 90.7545ZM64.7043 83.1117C63.9775 83.2144 63.2987 83.5339 62.7564 84.0286C62.2141 84.5232 61.8337 85.1699 61.6648 85.8842C61.4959 86.5985 61.5463 87.3471 61.8096 88.0322C62.0729 88.7174 62.5367 89.3072 63.1405 89.7245C63.7443 90.1419 64.4599 90.3674 65.1939 90.3716C65.9279 90.3758 66.646 90.1585 67.2545 89.7481C67.8631 89.3377 68.3336 88.7533 68.6048 88.0712C68.8759 87.3891 68.9349 86.6412 68.7742 85.925C68.6032 85.0145 68.0798 84.2083 67.3177 83.6815C66.5556 83.1548 65.6165 82.95 64.7043 83.1117Z" fill="#1E437D"/>
<path d="M61.7597 87.0408C59.5466 86.7595 58.7589 87.6316 58.7495 87.641L58.3181 87.2753C58.3181 87.2284 59.2559 86.1593 61.8254 86.4876L61.7597 87.0408Z" fill="#1E437D"/>
<path d="M68.9708 85.531L68.7551 85.0058C69.102 84.8652 74.6162 82.5582 75.5164 82.3144C76.4167 82.0706 78.9768 82.8396 79.2675 82.924L79.0987 83.4585C78.0101 83.0756 76.8671 82.8698 75.7134 82.8489C75.0194 83.0459 71.8591 84.3306 68.9708 85.531Z" fill="#1E437D"/>
<path d="M72.5533 84.987C72.5533 84.987 73.8287 79.9043 76.0325 80.2138C78.2362 80.5232 78.3394 87.1345 76.5013 88.7475C76.2805 88.9703 76.0169 89.1461 75.7264 89.2643C75.4358 89.3826 75.1244 89.4408 74.8107 89.4356C74.4971 89.4303 74.1878 89.3616 73.9014 89.2337C73.6149 89.1058 73.3574 88.9213 73.1441 88.6913L72.5533 84.987Z" fill="#FFAE9D"/>
<path d="M76.014 82.0989V82.1551C74.7386 83.3274 74.4854 85.0247 74.476 86.6752C74.5075 86.4929 74.5777 86.3194 74.6818 86.1665C74.786 86.0135 74.9218 85.8847 75.08 85.7887C75.2382 85.6927 75.4152 85.6318 75.5989 85.61C75.7827 85.5882 75.969 85.6061 76.1453 85.6624C76.2015 85.6624 76.1453 85.7468 76.1453 85.7562C75.8498 85.7748 75.5672 85.8837 75.3358 86.0682C75.1043 86.2527 74.9351 86.5039 74.8511 86.7878C74.7184 87.2622 74.6367 87.7495 74.6073 88.2413C74.6073 88.4007 74.3166 88.4195 74.3072 88.2413C73.5664 86.3095 74.0821 83.1117 76.014 82.0989Z" fill="#1D293F"/>
<path d="M65.9795 105.712C66.6547 108.188 68.3896 113.88 72.3564 112.164C73.9095 111.372 75.2092 110.16 76.1075 108.666C77.0476 107.277 77.8337 105.79 78.4519 104.23C79.1953 102.523 79.7945 100.757 80.2431 98.9506C80.2431 98.8756 80.3743 98.9506 80.365 98.9506C80.1059 100.791 79.6404 102.597 78.9771 104.333C78.3715 106.065 77.5322 107.706 76.4826 109.21C75.5202 110.755 74.1288 111.987 72.4783 112.755C71.7551 113.052 70.9528 113.097 70.2008 112.883C69.4488 112.669 68.7909 112.207 68.3333 111.573C67.0923 109.835 66.2852 107.825 65.9795 105.712Z" fill="#1E437D"/>
<path d="M105.488 49.7643C105.18 49.0342 105.112 48.2253 105.292 47.4537C105.472 46.6822 105.892 45.9875 106.492 45.4693C106.492 45.4693 102.984 44.766 102.365 41.887C102.047 40.3959 104.157 38.5673 104.157 38.5673C104.157 38.5673 101.343 37.8827 100.987 35.2851C100.668 33.2126 102.862 31.684 102.862 31.684C102.862 31.684 100.518 29.8085 100.874 27.5672C101.615 23.0752 119.17 18.377 123.569 24.0599C125.613 26.7044 121.262 27.6234 121.262 27.6234C121.262 27.6234 127.826 27.8016 128.858 31.3745C129.889 34.9475 124.169 35.7821 124.169 35.7821C124.169 35.7821 130.527 36.0165 131.221 39.8145C131.943 43.7719 126.082 43.65 126.082 43.65C126.082 43.65 130.677 45.2255 130.536 48.2639C130.302 53.281 120.849 49.5768 117.229 51.5179L117.285 58.2418C117.285 58.2418 106.67 52.7371 105.488 49.7643Z" fill="#FFAE9D"/>
<path d="M103.153 31.3932C103.097 31.3932 103.059 31.3369 103.106 31.3088C108.715 28.2454 115.116 26.9386 121.477 27.5577C121.683 27.5577 121.721 27.9234 121.477 27.9328C115.235 28.2067 109.065 29.372 103.153 31.3932Z" fill="#1E437D"/>
<path d="M104.091 38.5486C104.025 38.5486 103.988 38.4642 104.091 38.4361C109.718 35.4352 117.426 33.8504 124.375 35.5571C124.609 35.6134 124.769 35.9041 124.487 35.8572C119.714 35.0789 109.596 36.5606 104.091 38.5486Z" fill="#1E437D"/>
<path d="M126.523 43.9124C119.799 42.5433 113.281 43.4529 106.717 45.3378C106.632 45.3378 106.604 45.2347 106.67 45.1972C109.643 43.406 113.947 42.6371 117.342 42.3182C120.497 41.9747 123.687 42.4595 126.598 43.7249C126.691 43.7249 126.663 43.9406 126.523 43.9124Z" fill="#1E437D"/>
<path d="M291.467 12H130.113C127.95 12.0196 125.811 12.4653 123.819 13.3115C121.828 14.1577 120.022 15.3879 118.506 16.9318C116.99 18.4758 115.793 20.3032 114.983 22.3099C114.174 24.3165 113.767 26.463 113.787 28.6268V360.787C113.749 365.156 115.448 369.361 118.509 372.479C121.57 375.597 125.744 377.371 130.113 377.413H291.467C295.838 377.371 300.014 375.597 303.078 372.48C306.142 369.363 307.845 365.158 307.812 360.787V28.6268C307.847 24.2551 306.146 20.0483 303.081 16.9307C300.016 13.8131 295.839 12.0396 291.467 12ZM297.6 350.537C297.6 359.277 291.036 366.348 282.98 366.348H138.628C130.535 366.348 123.98 359.277 123.98 350.537V41.2211C123.98 23.4033 130.545 22.5406 138.628 22.5406H167.54C169.228 22.5406 170.597 24.4161 170.597 26.8168V27.839C170.597 33.3813 173.636 33.4 177.359 33.4H244.222C247.973 33.4 251.002 33.4 251.002 27.839V26.845C251.002 24.4724 252.362 22.5687 254.069 22.5687H282.98C291.054 22.5687 297.6 24.9319 297.6 41.2492V350.537Z" fill="#1D293F"/>
<path d="M297.61 41.493V350.79C297.61 359.53 291.045 366.601 282.99 366.601H138.638C130.545 366.601 123.99 359.53 123.99 350.79V41.493C123.99 23.6753 130.554 22.8125 138.638 22.8125H167.559C169.237 22.8125 170.607 24.6881 170.607 27.0888V28.1109C170.607 33.6532 173.645 33.6719 177.368 33.6719H244.231C247.982 33.6719 251.011 33.6719 251.011 28.1109V27.0888C251.011 24.7162 252.371 22.8125 254.078 22.8125H282.99C291.064 22.8125 297.61 25.1757 297.61 41.493Z" fill="white"/>
<path d="M297.61 41.493V69.5512H123.99V41.493C123.99 23.6753 130.554 22.8125 138.638 22.8125H167.559C169.237 22.8125 170.607 24.6881 170.607 27.0888V28.1109C170.607 33.6532 173.645 33.6719 177.368 33.6719H244.231C247.982 33.6719 251.011 33.6719 251.011 28.1109V27.0888C251.011 24.7256 252.371 22.8125 254.078 22.8125H282.99C291.064 22.8125 297.61 25.1851 297.61 41.493Z" fill="#6AA6DA"/>
<path d="M219.915 26.4699H201.675C201.377 26.4699 201.09 26.3513 200.879 26.1403C200.668 25.9293 200.55 25.643 200.55 25.3446C200.55 25.0461 200.668 24.7599 200.879 24.5488C201.09 24.3378 201.377 24.2192 201.675 24.2192H219.915C220.213 24.2192 220.499 24.3378 220.71 24.5488C220.922 24.7599 221.04 25.0461 221.04 25.3446C221.041 25.4927 221.013 25.6396 220.957 25.7767C220.901 25.9138 220.818 26.0383 220.713 26.1431C220.609 26.2478 220.484 26.3307 220.347 26.3868C220.21 26.4429 220.063 26.4711 219.915 26.4699Z" fill="white"/>
<path d="M162.551 29.48L162.27 29.7613C162.27 29.8176 162.167 29.8645 162.11 29.9208C161.396 29.2072 160.428 28.8064 159.419 28.8064C158.409 28.8064 157.441 29.2072 156.727 29.9208L156.577 29.7707L156.305 29.4894L156.652 29.1799C156.905 28.9716 157.182 28.7952 157.478 28.6548C157.819 28.4856 158.182 28.3626 158.556 28.289L159.1 28.2234H159.569C159.691 28.2234 159.822 28.2234 159.944 28.2234C160.281 28.2592 160.612 28.338 160.929 28.4578C161.164 28.541 161.39 28.6479 161.604 28.7767C161.833 28.9029 162.05 29.0505 162.251 29.2174L162.542 29.4894L162.551 29.48Z" fill="white"/>
<path d="M157.609 30.8024L157.168 30.3617C157.646 29.8555 158.28 29.5251 158.968 29.4239C159.457 29.3518 159.955 29.3948 160.424 29.5494C160.893 29.7041 161.32 29.9662 161.669 30.3148C161.519 30.4648 161.379 30.6149 161.228 30.7555C160.747 30.2788 160.096 30.0124 159.419 30.0147C159.08 30.0181 158.745 30.0896 158.434 30.2249C158.123 30.3602 157.842 30.5566 157.609 30.8024Z" fill="white"/>
<path d="M160.788 31.243L160.347 31.6743C160.224 31.5521 160.077 31.456 159.916 31.3915C159.755 31.3271 159.583 31.2957 159.409 31.2992C159.235 31.2947 159.061 31.3265 158.9 31.3927C158.738 31.4589 158.593 31.558 158.471 31.6837L158.031 31.243C158.206 31.0526 158.419 30.9006 158.657 30.7967C158.894 30.6928 159.15 30.6392 159.409 30.6392C159.668 30.6392 159.924 30.6928 160.162 30.7967C160.399 30.9006 160.612 31.0526 160.788 31.243Z" fill="white"/>
<path d="M159.822 32.0778C159.824 32.1579 159.802 32.2368 159.758 32.3043C159.715 32.3719 159.653 32.425 159.579 32.457C159.506 32.4889 159.425 32.4983 159.346 32.4838C159.267 32.4693 159.194 32.4317 159.137 32.3757C159.079 32.3197 159.04 32.2478 159.024 32.1694C159.007 32.0909 159.015 32.0094 159.045 31.9351C159.075 31.8609 159.127 31.7974 159.194 31.7526C159.26 31.7079 159.338 31.684 159.418 31.6839C159.471 31.6827 159.523 31.692 159.572 31.7112C159.621 31.7304 159.665 31.7592 159.703 31.7959C159.741 31.8326 159.77 31.8765 159.791 31.9249C159.811 31.9733 159.822 32.0253 159.822 32.0778Z" fill="white"/>
<path d="M135.309 30.3335C135.307 30.105 135.373 29.881 135.498 29.6901C135.624 29.4992 135.803 29.3499 136.014 29.2612C136.225 29.1724 136.457 29.1482 136.681 29.1917C136.906 29.2351 137.112 29.3442 137.274 29.5052C137.437 29.6661 137.547 29.8716 137.593 30.0956C137.638 30.3196 137.616 30.552 137.529 30.7633C137.442 30.9747 137.294 31.1554 137.104 31.2825C136.914 31.4097 136.691 31.4776 136.462 31.4776C136.158 31.4776 135.866 31.3574 135.65 31.1431C135.434 30.9288 135.311 30.6378 135.309 30.3335Z" fill="white"/>
<path d="M138.928 30.3335C138.927 30.105 138.993 29.881 139.118 29.6901C139.244 29.4992 139.423 29.3499 139.634 29.2612C139.845 29.1724 140.077 29.1482 140.301 29.1917C140.526 29.2351 140.732 29.3442 140.894 29.5052C141.056 29.6661 141.167 29.8716 141.213 30.0956C141.258 30.3196 141.235 30.552 141.148 30.7633C141.061 30.9747 140.914 31.1554 140.724 31.2825C140.534 31.4097 140.31 31.4776 140.082 31.4776C139.778 31.4776 139.486 31.3574 139.27 31.1431C139.054 30.9288 138.931 30.6378 138.928 30.3335Z" fill="white"/>
<path d="M142.539 30.3335C142.537 30.105 142.603 29.881 142.729 29.6901C142.854 29.4992 143.034 29.3499 143.244 29.2612C143.455 29.1724 143.687 29.1482 143.912 29.1917C144.136 29.2351 144.342 29.3442 144.505 29.5052C144.667 29.6661 144.778 29.8716 144.823 30.0956C144.868 30.3196 144.846 30.552 144.759 30.7633C144.672 30.9747 144.524 31.1554 144.334 31.2825C144.144 31.4097 143.921 31.4776 143.692 31.4776C143.388 31.4776 143.096 31.3574 142.88 31.1431C142.664 30.9288 142.541 30.6378 142.539 30.3335Z" fill="white"/>
<path d="M146.178 30.3335C146.176 30.105 146.242 29.881 146.368 29.6901C146.493 29.4992 146.673 29.3499 146.883 29.2612C147.094 29.1724 147.326 29.1482 147.55 29.1917C147.775 29.2351 147.981 29.3442 148.143 29.5052C148.306 29.6661 148.416 29.8716 148.462 30.0956C148.507 30.3196 148.485 30.552 148.398 30.7633C148.311 30.9747 148.163 31.1554 147.973 31.2825C147.783 31.4097 147.56 31.4776 147.331 31.4776C147.027 31.4776 146.735 31.3574 146.519 31.1431C146.303 30.9288 146.18 30.6378 146.178 30.3335Z" fill="white"/>
<path d="M149.807 30.3336C149.805 30.1059 149.87 29.8827 149.995 29.6922C150.12 29.5017 150.298 29.3525 150.508 29.2632C150.717 29.1739 150.949 29.1487 151.172 29.1906C151.396 29.2326 151.603 29.3398 151.766 29.4989C151.929 29.658 152.041 29.8617 152.088 30.0844C152.136 30.3072 152.116 30.539 152.032 30.7506C151.948 30.9622 151.803 31.1442 151.615 31.2735C151.428 31.4029 151.206 31.474 150.979 31.4777C150.827 31.4802 150.675 31.4525 150.534 31.3962C150.392 31.3399 150.263 31.2562 150.154 31.1498C150.045 31.0435 149.959 30.9166 149.899 30.7765C149.839 30.6364 149.808 30.4859 149.807 30.3336Z" fill="white"/>
<path d="M284.575 32.8372H275.197V28.5046H284.575V32.8372ZM275.703 32.3589H284.143V28.9829H275.703V32.3589Z" fill="white"/>
<path d="M282.024 29.2363H275.985V32.1059H282.024V29.2363Z" fill="white"/>
<path d="M285.418 29.5081H284.584V31.8337H285.418V29.5081Z" fill="white"/>
<path d="M140.438 58.8139L135.309 54.0125L140.438 49.2017L141.235 50.055L137.006 54.0125L141.235 57.9699L140.438 58.8139Z" fill="white"/>
<path d="M154.608 224.312V223.609L158.359 223.562V224.266L154.608 224.312ZM149.919 224.312C148.644 224.312 147.396 224.312 146.168 224.256V223.553C147.418 223.553 148.669 223.572 149.919 223.609V224.312ZM163.048 224.162V223.459L166.799 223.328V224.031L163.048 224.162ZM141.479 224.162C140.213 224.106 138.956 224.05 137.728 223.975V223.281L141.479 223.459V224.162ZM171.488 223.862V223.159C172.716 223.093 173.964 223.028 175.239 222.943V223.647L171.488 223.862ZM133.039 223.665C131.773 223.572 130.526 223.459 129.288 223.337L129.363 222.643C130.582 222.756 131.82 222.868 133.114 222.962L133.039 223.665ZM179.928 223.347L179.881 222.643L183.632 222.362L183.688 223.065L179.928 223.347ZM124.599 222.831C123.333 222.681 122.086 222.512 120.848 222.334L120.951 221.64C122.161 221.818 123.399 221.977 124.702 222.137L124.599 222.831ZM188.321 222.681L188.255 221.977L192.006 221.64L192.072 222.343L188.321 222.681ZM196.761 221.893L196.695 221.19L200.446 220.796L200.521 221.499L196.761 221.893ZM116.281 221.527C115.024 221.302 113.796 221.058 112.586 220.815L112.727 220.121C113.927 220.374 115.156 220.608 116.403 220.833L116.281 221.527ZM205.163 220.927L205.088 220.224L206.026 220.121L208.783 219.774L208.877 220.468C207.939 220.599 207.001 220.711 206.064 220.815L205.163 220.927ZM213.547 219.792L213.435 219.098C214.672 218.901 215.901 218.695 217.139 218.47L217.261 219.164C216.004 219.38 214.747 219.595 213.528 219.792H213.547ZM108.01 219.792C106.781 219.483 105.562 219.155 104.371 218.855L104.568 218.179C105.75 218.517 106.96 218.845 108.179 219.117L108.01 219.792ZM221.875 218.301L221.734 217.607C222.962 217.354 224.181 217.092 225.401 216.82L225.551 217.504C224.313 217.757 223.084 218.02 221.856 218.273L221.875 218.301ZM99.8888 217.41C98.6791 216.998 97.4881 216.557 96.3534 216.116L96.6066 215.46C97.7413 215.901 98.9229 216.332 100.114 216.745L99.8888 217.41ZM230.127 216.426L229.958 215.751C231.168 215.45 232.378 215.141 233.578 214.813L233.766 215.488C232.565 215.788 231.318 216.098 230.108 216.398L230.127 216.426ZM92.0209 214.259C90.8674 213.725 89.7327 213.153 88.6542 212.581L88.9918 211.953C90.0609 212.525 91.1769 213.087 92.3209 213.622L92.0209 214.259ZM238.314 214.259L238.117 213.584L241.699 212.525L241.905 213.2L238.314 214.259ZM246.388 211.793L246.172 211.118L249.726 209.946L249.952 210.612C248.723 210.968 247.57 211.371 246.341 211.756L246.388 211.793ZM84.6124 210.208C83.5528 209.533 82.5024 208.811 81.499 208.08L81.921 207.507C82.8588 208.239 83.9466 208.942 84.9969 209.617L84.6124 210.208ZM254.35 209.064L254.115 208.398C255.297 207.976 256.469 207.545 257.632 207.114L257.885 207.77C256.704 208.173 255.531 208.595 254.34 209.027L254.35 209.064ZM262.274 206.091L262.011 205.435C263.184 204.985 264.346 204.497 265.5 204.047L265.762 204.704C264.6 205.135 263.437 205.594 262.265 206.054L262.274 206.091ZM77.7948 205.154C76.857 204.319 75.9193 203.447 75.0471 202.556L75.5535 202.068C76.4163 202.95 77.3259 203.803 78.2543 204.629L77.7948 205.154ZM270.076 202.875L269.804 202.218C270.958 201.731 272.111 201.281 273.246 200.746L273.527 201.384C272.402 201.89 271.248 202.378 270.076 202.875ZM277.822 199.48L277.532 198.842L280.936 197.276L281.236 197.914L277.822 199.48ZM71.8962 199.002C71.0933 198.024 70.3749 196.979 69.7487 195.879L70.3583 195.532C70.9702 196.601 71.6696 197.617 72.4495 198.57L71.8962 199.002ZM285.484 195.898L285.174 195.27C286.309 194.716 287.434 194.172 288.541 193.619L288.86 194.257L285.484 195.898ZM293.052 192.147L292.733 191.518C293.868 190.946 294.974 190.365 296.071 189.793L296.39 190.421C295.321 190.956 294.205 191.565 293.07 192.147H293.052ZM67.9857 191.406C67.7129 190.254 67.5744 189.073 67.5731 187.889V187.599H68.2764V187.87C68.2761 189.001 68.4083 190.128 68.6703 191.228L67.9857 191.406ZM300.554 188.217L300.216 187.599C301.342 186.998 302.439 186.398 303.517 185.807L303.855 186.417C302.786 187.017 301.689 187.617 300.563 188.217H300.554ZM307.953 184.129L307.606 183.519L310.86 181.644L311.216 182.244C310.175 182.872 309.088 183.454 307.962 184.129H307.953ZM69.0266 183.116L68.3608 182.9C68.7446 181.692 69.2374 180.521 69.8331 179.402L70.452 179.721C69.8814 180.81 69.4046 181.946 69.0266 183.116ZM315.277 179.871L314.921 179.271C316.04 178.608 317.109 177.961 318.128 177.33L318.494 177.93C317.471 178.558 316.402 179.205 315.277 179.871ZM72.9559 175.829L72.3932 175.407C73.1153 174.47 73.9406 173.476 74.8314 172.51L75.3472 172.988C74.4751 173.935 73.6686 174.892 72.9559 175.829ZM322.498 175.454L322.123 174.864C323.267 174.141 324.327 173.466 325.292 172.838L325.668 173.429C324.702 174.076 323.642 174.732 322.498 175.454ZM329.606 170.85L329.212 170.259C331.238 168.909 332.316 168.14 332.316 168.14L332.729 168.712C332.729 168.712 331.641 169.481 329.606 170.85ZM78.6669 169.725L78.1981 169.199C79.1358 168.384 80.0736 167.568 81.077 166.761L81.5178 167.314C80.5144 168.112 79.5578 168.918 78.6669 169.725ZM85.2314 164.52L84.8187 163.938C85.8222 163.235 86.8725 162.532 87.9509 161.838L88.3354 162.429C87.2945 163.123 86.2723 163.817 85.2595 164.52H85.2314ZM92.3209 160L91.974 159.39C93.043 158.762 94.1496 158.152 95.2656 157.515L95.5938 158.134C94.5153 158.762 93.4181 159.381 92.3491 160.009L92.3209 160ZM99.7669 156.042L99.4574 155.414C100.592 154.861 101.736 154.326 102.871 153.82L103.152 154.467C102.055 154.964 100.92 155.498 99.795 156.042H99.7669ZM107.466 152.648L107.213 152.001C108.404 151.522 109.567 151.063 110.664 150.716L110.898 151.382C109.839 151.757 108.685 152.179 107.494 152.648H107.466Z" fill="#1E437D"/>
<path d="M338.437 150.35L331.911 169.838L346.365 157.919L402.26 135.964L338.437 150.35Z" fill="#89B8FF"/>
<path d="M348.383 162.37L331.911 169.838L346.365 157.918L348.383 162.37Z" fill="#1E437D"/>
<path d="M346.364 157.919L402.26 135.964L379.717 159.163L357.174 182.363L346.364 157.919Z" fill="#C8DEFE"/>
<path d="M346.364 157.919L402.26 135.964L379.717 159.163L357.174 182.363L346.364 157.919Z" fill="white" fill-opacity="0.7"/>
<path d="M338.437 150.35L314.576 135.829L402.26 135.964L338.437 150.35Z" fill="#C8DEFE"/>
<path d="M338.437 150.35L314.576 135.829L402.26 135.964L338.437 150.35Z" fill="white" fill-opacity="0.7"/>
<path fill-rule="evenodd" clip-rule="evenodd" d="M402.527 135.859C402.585 136.006 402.512 136.173 402.365 136.23L346.747 158.076L357.436 182.247C357.5 182.391 357.434 182.56 357.29 182.624C357.145 182.688 356.976 182.623 356.912 182.478L345.982 157.761L402.156 135.697C402.303 135.64 402.469 135.712 402.527 135.859Z" fill="#1E437D"/>
<path fill-rule="evenodd" clip-rule="evenodd" d="M314.332 135.68C314.414 135.545 314.59 135.503 314.725 135.585L338.19 149.865C338.381 149.98 338.608 150.018 338.826 149.969L402.197 135.685C402.352 135.65 402.505 135.747 402.54 135.901C402.574 136.055 402.477 136.208 402.323 136.243L338.951 150.527C338.589 150.609 338.21 150.547 337.893 150.354L314.427 136.074C314.292 135.992 314.249 135.816 314.332 135.68Z" fill="#1E437D"/>
<path d="M277.412 276.557C277.412 278.454 275.874 279.992 273.976 279.992H148.078C146.181 279.992 144.643 278.454 144.643 276.557V185.606C144.643 184.43 145.244 183.337 146.236 182.706L209.169 130.129C210.293 129.415 211.729 129.414 212.853 130.128L275.818 182.706C276.811 183.337 277.412 184.431 277.412 185.606V276.557Z" fill="#FFC727"/>
<path d="M267.67 251.331V136.433L239.583 108.347H153.741C152.476 108.347 151.45 109.372 151.45 110.637V251.331C151.45 252.595 152.476 253.621 153.741 253.621H265.379C266.644 253.621 267.67 252.595 267.67 251.331Z" fill="white"/>
<path fill-rule="evenodd" clip-rule="evenodd" d="M267.67 136.433L239.583 108.347H153.741C152.476 108.347 151.45 109.372 151.45 110.637V251.331C151.45 252.595 152.476 253.621 153.741 253.621H265.379C266.644 253.621 267.67 252.595 267.67 251.331V136.433ZM239.109 109.492L266.525 136.907V251.331C266.525 251.963 266.012 252.476 265.379 252.476H153.741C153.108 252.476 152.595 251.963 152.595 251.331V110.637C152.595 110.004 153.108 109.492 153.741 109.492H239.109Z" fill="#1E437D"/>
<path fill-rule="evenodd" clip-rule="evenodd" d="M215.371 146.648H165.978V148.585H215.371V146.648ZM165.978 154.396H215.371V156.333H165.978V154.396ZM233.772 169.891H165.978V171.828H233.772V169.891ZM241.52 189.262H165.978V191.199H241.52V189.262ZM241.52 220.253H165.978V222.19H241.52V220.253ZM165.978 197.009H229.898V198.946H165.978V197.009ZM165.978 162.143H253.142V164.08H165.978V162.143ZM253.142 204.757H165.978V206.694H253.142V204.757ZM165.978 228.001H253.142V229.938H165.978V228.001ZM243.457 212.505H165.978V214.442H243.457V212.505ZM165.978 235.749H243.457V237.686H165.978V235.749Z" fill="#CAD1DD"/>
<rect x="166.337" y="126.668" width="43.5146" height="6.87073" fill="#CAD1DD"/>
<path d="M239.584 108.346L267.67 136.433H239.584L239.584 108.346Z" fill="#1E437D"/>
<path d="M163.628 247.458H259.585V243.571H163.628V247.458Z" fill="#DBDBDB"/>
<path d="M163.628 257.267H259.585V253.38H163.628V257.267Z" fill="#DBDBDB"/>
<path d="M277.414 195.796V276.557C277.414 278.454 275.876 279.992 273.979 279.992H148.113C146.216 279.992 144.677 278.454 144.677 276.557V195.796C150.387 199.049 156.064 202.416 161.627 205.718C167.191 209.02 172.868 212.469 178.447 215.901C184.672 219.697 190.886 223.536 197.089 227.418L197.3 227.304C197.3 227.304 197.203 227.402 197.138 227.434L211.078 236.153C215.698 233.242 220.35 230.314 224.986 227.434C224.935 227.387 224.881 227.344 224.824 227.304L225.035 227.402C231.238 223.53 237.452 219.686 243.677 215.869C249.256 212.469 254.852 209.069 260.48 205.718C266.109 202.367 271.721 199.033 277.414 195.796Z" fill="#FFE9A9"/>
<path fill-rule="evenodd" clip-rule="evenodd" d="M178.447 215.901C172.868 212.469 167.191 209.02 161.627 205.718C156.436 202.637 151.146 199.499 145.823 196.45C145.441 196.231 145.059 196.013 144.677 195.796V276.557C144.677 278.454 146.216 279.992 148.113 279.992H273.979C275.876 279.992 277.414 278.454 277.414 276.557V195.796C277.032 196.013 276.65 196.231 276.269 196.449C270.967 199.48 265.731 202.592 260.48 205.718C254.852 209.069 249.256 212.469 243.677 215.869C237.772 219.49 231.877 223.135 225.992 226.805C225.673 227.004 225.354 227.203 225.035 227.402L224.824 227.304C224.881 227.344 224.935 227.387 224.986 227.434C224.882 227.499 224.778 227.564 224.674 227.628C224.632 227.655 224.59 227.681 224.547 227.707C224.515 227.727 224.482 227.748 224.449 227.768C219.991 230.54 215.52 233.354 211.078 236.153L197.919 227.923L197.138 227.434C197.203 227.402 197.3 227.304 197.3 227.304L197.089 227.418C196.722 227.188 196.355 226.959 195.987 226.729C190.15 223.082 184.304 219.472 178.447 215.901ZM197.058 228.735L197.046 228.742L196.481 228.389C190.282 224.509 184.072 220.672 177.851 216.879L177.847 216.877C172.271 213.447 166.6 210.001 161.043 206.703C156.036 203.731 150.945 200.711 145.823 197.77V276.557C145.823 277.822 146.848 278.847 148.113 278.847H273.979C275.243 278.847 276.269 277.822 276.269 276.557V197.768C271.171 200.691 266.129 203.688 261.066 206.702C255.444 210.05 249.853 213.446 244.275 216.845C238.461 220.411 232.656 224 226.861 227.613L226.865 227.616L225.59 228.407C220.958 231.284 216.309 234.21 211.689 237.122L211.081 237.505L197.058 228.735Z" fill="#FFC727"/>
<path d="M277.414 195.796C272.062 199.57 266.596 203.181 261.147 206.89C255.698 210.598 250.248 214.145 244.766 217.723C239.04 221.486 233.304 225.206 227.556 228.882L227.036 229.24L211.745 239L210.98 239.456L210.248 239L194.974 229.24L194.437 228.915C188.679 225.222 182.937 221.513 177.211 217.739C171.745 214.177 166.279 210.55 160.846 206.922C155.413 203.295 149.98 199.602 144.58 195.828C150.289 199.082 155.966 202.449 161.53 205.751C167.093 209.053 172.77 212.502 178.349 215.934C184.574 219.729 190.788 223.568 196.991 227.451L210.932 236.17C215.551 233.258 220.204 230.33 224.84 227.451C231.043 223.579 237.257 219.735 243.481 215.918C249.061 212.518 254.657 209.118 260.285 205.767C265.913 202.416 271.72 199.033 277.414 195.796Z" fill="#FFC727"/>
<path d="M197.268 227.304C197.268 227.304 197.17 227.402 197.105 227.435C196.405 228.036 195.706 228.638 195.006 229.208C191.753 232.022 188.272 234.722 184.807 237.341C180.578 240.594 176.251 243.669 171.908 246.743C167.565 249.818 163.14 252.746 158.667 255.609C154.193 258.471 149.655 261.286 144.97 263.872C148.988 260.342 153.103 257.04 157.398 253.835C161.692 250.631 165.987 247.508 170.314 244.45C174.641 241.391 179.081 238.431 183.571 235.552C187.133 233.258 190.761 231.013 194.47 228.899C195.332 228.394 196.194 227.923 197.056 227.435L197.268 227.304Z" fill="#FFC727"/>
<path d="M277.105 263.855C272.42 261.269 267.865 258.471 263.408 255.592C258.951 252.713 254.526 249.736 250.134 246.727C245.742 243.717 241.464 240.562 237.235 237.324C233.786 234.722 230.387 232.038 227.068 229.191L224.953 227.386C224.903 227.338 224.848 227.295 224.791 227.255L225.002 227.353L227.589 228.833C231.297 230.948 234.909 233.193 238.504 235.486C242.977 238.366 247.369 241.342 251.728 244.384C256.088 247.426 260.415 250.533 264.644 253.77C268.874 257.007 273.07 260.326 277.105 263.855Z" fill="#FFC727"/>
<path d="M243.495 301.872H179.643C177.986 301.872 176.643 303.215 176.643 304.872V330.935C176.643 332.592 177.986 333.935 179.643 333.935H243.495C245.152 333.935 246.495 332.592 246.495 330.935V304.872C246.495 303.215 245.152 301.872 243.495 301.872Z" fill="#00B67B"/>
<path fill-rule="evenodd" clip-rule="evenodd" d="M210.997 308.099C211.629 308.099 212.142 308.611 212.142 309.244V317.502L214.32 315.324C214.768 314.877 215.493 314.877 215.94 315.324C216.387 315.771 216.387 316.496 215.94 316.943L211.806 321.075C211.359 321.522 210.634 321.522 210.187 321.075L206.054 316.943C205.607 316.496 205.607 315.771 206.054 315.324C206.501 314.877 207.226 314.877 207.673 315.324L209.852 317.502V309.244C209.852 308.611 210.364 308.099 210.997 308.099ZM203.482 320.266C203.482 319.633 202.969 319.12 202.337 319.12C201.704 319.12 201.192 319.633 201.192 320.266V325.776C201.192 326.289 201.395 326.78 201.758 327.143C202.12 327.505 202.612 327.709 203.124 327.709H218.869C219.382 327.709 219.873 327.505 220.236 327.143C220.598 326.78 220.802 326.289 220.802 325.776V320.266C220.802 319.633 220.289 319.12 219.657 319.12C219.024 319.12 218.512 319.633 218.512 320.266V325.419H203.482V320.266Z" fill="white"/>
<circle cx="260.237" cy="260.648" r="27.4829" fill="#E1EDF8"/>
<path d="M285.43 258.357C285.43 273.536 273.125 285.84 257.947 285.84C242.768 285.84 230.464 273.536 230.464 258.357C230.464 243.179 242.768 230.875 257.947 230.875C273.125 230.875 285.43 243.179 285.43 258.357Z" fill="white"/>
<path fill-rule="evenodd" clip-rule="evenodd" d="M257.947 284.695C272.493 284.695 284.284 272.903 284.284 258.357C284.284 243.811 272.493 232.02 257.947 232.02C243.401 232.02 231.609 243.811 231.609 258.357C231.609 272.903 243.401 284.695 257.947 284.695ZM257.947 285.84C273.125 285.84 285.43 273.536 285.43 258.357C285.43 243.179 273.125 230.875 257.947 230.875C242.768 230.875 230.464 243.179 230.464 258.357C230.464 273.536 242.768 285.84 257.947 285.84Z" fill="#1E437D"/>
<path d="M256.212 270.954L245.35 260.479L249.003 257.046L255.339 263.162L268.516 243.471L272.833 246.096L256.212 270.954Z" fill="#00B67A"/>
</svg>
