<svg width="20" height="21" viewBox="0 0 20 21" fill="none" xmlns="http://www.w3.org/2000/svg">
<path d="M12.4545 3.41602C13.514 3.70097 14.4801 4.25931 15.2559 5.03513C16.0317 5.81095 16.5901 6.77701 16.875 7.83653" stroke="#E1EDF8" stroke-linecap="round" stroke-linejoin="round"/>
<path d="M11.8073 5.8313C12.443 6.00227 13.0226 6.33728 13.4881 6.80277C13.9536 7.26826 14.2886 7.8479 14.4596 8.48361" stroke="#E1EDF8" stroke-linecap="round" stroke-linejoin="round"/>
<path d="M7.22471 10.0421C7.87302 11.3675 8.94739 12.437 10.2758 13.0793C10.3729 13.1253 10.4804 13.1453 10.5877 13.1372C10.6949 13.1291 10.7982 13.0932 10.8874 13.033L12.8433 11.7288C12.9298 11.6711 13.0293 11.6359 13.1328 11.6264C13.2364 11.6169 13.3407 11.6333 13.4362 11.6743L17.0954 13.2425C17.2197 13.2953 17.3234 13.3871 17.3911 13.504C17.4587 13.6209 17.4865 13.7566 17.4702 13.8907C17.3546 14.7957 16.913 15.6275 16.2282 16.2304C15.5434 16.8333 14.6624 17.1659 13.75 17.1659C10.9321 17.1659 8.22956 16.0465 6.23699 14.0539C4.24442 12.0613 3.125 9.35883 3.125 6.54091C3.12505 5.62855 3.45765 4.74748 4.06053 4.06269C4.66341 3.37789 5.49523 2.93633 6.40023 2.82067C6.53431 2.80445 6.67002 2.83224 6.78693 2.89985C6.90384 2.96746 6.99561 3.07123 7.04841 3.19554L8.61798 6.85787C8.65858 6.9526 8.67512 7.0559 8.66614 7.15857C8.65715 7.26124 8.62291 7.36009 8.56647 7.44633L7.26676 9.43224C7.2076 9.52158 7.17263 9.62473 7.16526 9.73163C7.15789 9.83852 7.17837 9.94549 7.22471 10.0421V10.0421Z" stroke="#E1EDF8" stroke-linecap="round" stroke-linejoin="round"/>
</svg>
