<svg width="400" height="400" viewBox="0 0 400 400" fill="none" xmlns="http://www.w3.org/2000/svg">
<path d="M307.2 260.344C320 272.872 322.144 292.256 319.448 309.232C319.376 309.616 318.776 309.512 318.776 309.144C318.776 305.28 318.896 301.456 318.88 297.632L318.688 297.12C315.344 294.72 312.288 291.952 310.376 288.192C308.232 283.984 307.392 279.248 305.76 274.856C305.608 274.44 306.056 274.56 306.352 274.776C314.136 280.52 316.616 286.696 318.848 294.952C318.802 290.634 318.35 286.329 317.496 282.096C315.816 274.264 312.488 266.496 306.856 260.68C306.672 260.464 307 260.12 307.2 260.344Z" fill="#B3E9D7"/>
<path d="M304.8 261.808C302.6 261.88 301.216 265.4 299.504 266.424C299.325 266.565 299.118 266.667 298.897 266.724C298.676 266.782 298.446 266.793 298.22 266.757C297.995 266.72 297.779 266.638 297.587 266.515C297.395 266.392 297.231 266.23 297.104 266.04C295.408 263.64 297.736 260.744 299.928 259.104C298.328 259.752 297.064 260.88 295.368 261.208C295.152 261.277 294.923 261.298 294.697 261.271C294.472 261.244 294.255 261.17 294.06 261.052C293.866 260.935 293.698 260.778 293.569 260.591C293.44 260.404 293.353 260.192 293.312 259.968C292.568 256.768 296.624 255.296 299.408 255.232C298.056 254.288 294.192 251.744 296.248 250.488C298.304 249.232 302.864 252.888 304.344 254.072C306.52 255.84 309.144 258.48 309.216 261.272C309.328 264.464 306.512 262.48 304.8 261.808Z" fill="#FFC727"/>
<path d="M304.8 261.808C302.6 261.88 301.216 265.4 299.504 266.424C299.325 266.565 299.118 266.667 298.897 266.724C298.676 266.782 298.446 266.793 298.22 266.757C297.995 266.72 297.779 266.638 297.587 266.515C297.395 266.392 297.231 266.23 297.104 266.04C295.408 263.64 297.736 260.744 299.928 259.104C298.328 259.752 297.064 260.88 295.368 261.208C295.152 261.277 294.923 261.298 294.697 261.271C294.472 261.244 294.255 261.17 294.06 261.052C293.866 260.935 293.698 260.778 293.569 260.591C293.44 260.404 293.353 260.192 293.312 259.968C292.568 256.768 296.624 255.296 299.408 255.232C298.056 254.288 294.192 251.744 296.248 250.488C298.304 249.232 302.864 252.888 304.344 254.072C306.52 255.84 309.144 258.48 309.216 261.272C309.328 264.464 306.512 262.48 304.8 261.808Z" fill="#EE6877"/>
<path d="M305.456 262.344C302.64 261.064 297.232 262.912 296.768 261.848C295.84 259.672 300.16 258.192 302.496 257.904C300.344 257.32 296.232 256.392 296.352 254.32C296.512 251.792 302.664 253.968 305.784 256.352C309.712 259.368 309.688 262.272 309.04 262.856C308.144 263.648 305.92 262.56 305.456 262.344Z" fill="#F9CACF"/>
<path d="M336.36 259.104C323.096 271.104 320.216 290.424 322.264 307.488C322.32 307.872 322.92 307.792 322.936 307.432C323.08 303.568 323.112 299.736 323.264 295.92C323.344 295.752 323.408 295.592 323.48 295.416C326.912 293.12 330.088 290.496 332.128 286.808C334.424 282.688 335.448 278.008 337.248 273.664C337.416 273.248 336.96 273.352 336.656 273.56C328.656 279 325.952 285.08 323.4 293.24C323.612 288.925 324.231 284.639 325.248 280.44C327.224 272.672 330.848 265.04 336.688 259.448C336.904 259.24 336.592 258.888 336.36 259.104Z" fill="#B3E9D7"/>
<path d="M338.712 260.656C340.904 260.816 342.152 264.384 343.824 265.456C343.999 265.61 344.204 265.725 344.426 265.794C344.647 265.864 344.882 265.885 345.112 265.858C345.343 265.831 345.566 265.756 345.766 265.637C345.966 265.518 346.138 265.358 346.272 265.168C348.056 262.864 345.84 259.848 343.712 258.128C345.256 258.832 346.512 260.016 348.184 260.4C348.398 260.478 348.626 260.51 348.853 260.494C349.08 260.477 349.301 260.412 349.501 260.302C349.701 260.193 349.875 260.043 350.013 259.861C350.15 259.679 350.246 259.47 350.296 259.248C351.16 256.048 347.16 254.448 344.384 254.272C345.768 253.392 349.728 250.984 347.72 249.656C345.712 248.328 341.016 251.792 339.488 252.936C337.248 254.616 334.552 257.152 334.352 259.912C334.104 263.144 336.992 261.264 338.712 260.656Z" fill="#FFC727"/>
<path d="M338.712 260.656C340.904 260.816 342.152 264.384 343.824 265.456C343.999 265.61 344.204 265.725 344.426 265.794C344.647 265.864 344.882 265.885 345.112 265.858C345.343 265.831 345.566 265.756 345.766 265.637C345.966 265.518 346.138 265.358 346.272 265.168C348.056 262.864 345.84 259.848 343.712 258.128C345.256 258.832 346.512 260.016 348.184 260.4C348.398 260.478 348.626 260.51 348.853 260.494C349.08 260.477 349.301 260.412 349.501 260.302C349.701 260.193 349.875 260.043 350.013 259.861C350.15 259.679 350.246 259.47 350.296 259.248C351.16 256.048 347.16 254.448 344.384 254.272C345.768 253.392 349.728 250.984 347.72 249.656C345.712 248.328 341.016 251.792 339.488 252.936C337.248 254.616 334.552 257.152 334.352 259.912C334.104 263.144 336.992 261.264 338.712 260.656Z" fill="#EE6877"/>
<path d="M338.056 261.176C340.912 260 346.248 262.048 346.744 261C347.76 258.872 343.504 257.216 341.184 256.84C343.352 256.344 347.496 255.576 347.448 253.496C347.392 250.96 341.152 252.904 337.952 255.176C333.912 258.032 333.824 260.936 334.456 261.576C335.312 262.376 337.6 261.4 338.056 261.176Z" fill="#F9CACF"/>
<path d="M322.8 290.88C321.906 297.316 320.528 303.675 318.68 309.904C318.656 310.027 318.584 310.135 318.479 310.205C318.375 310.275 318.247 310.3 318.124 310.276C318.001 310.252 317.893 310.179 317.823 310.075C317.753 309.971 317.728 309.843 317.752 309.72C318.624 303.856 320.216 298.104 321.088 292.24C322.034 286.309 322.374 280.296 322.104 274.296C321.544 264.416 318.864 253.904 312.416 246.176C312.272 245.992 312.576 245.736 312.72 245.904C325.624 260.952 323.576 279.4 323.56 281.056C325.392 274.824 327.272 267.688 334.184 261.344C334.48 261.064 334.712 261.2 334.664 261.664C333.432 273.216 330.216 279.264 323.52 285.424C323.328 287.256 323.088 289.08 322.8 290.88Z" fill="#B3E9D7"/>
<path d="M312.296 247.904C309.976 246.872 306.776 249.832 304.48 250.032C303.264 250.144 302.36 249.664 302.152 248.432C301.584 245.112 305.472 243.248 308.552 242.656C306.6 242.536 304.68 243.056 302.76 242.536C302.5 242.501 302.251 242.411 302.029 242.271C301.807 242.132 301.618 241.946 301.475 241.726C301.331 241.507 301.237 241.259 301.198 241C301.158 240.741 301.176 240.476 301.248 240.224C302.104 236.488 307.032 237.024 309.96 238.368C309.032 236.72 306.304 232.12 309.064 231.856C311.824 231.592 314.728 237.664 315.664 239.656C317.032 242.584 318.4 246.632 317.112 249.544C315.64 252.936 313.72 249.464 312.296 247.904Z" fill="#FFC727"/>
<path d="M312.296 247.904C309.976 246.872 306.776 249.832 304.48 250.032C303.264 250.144 302.36 249.664 302.152 248.432C301.584 245.112 305.472 243.248 308.552 242.656C306.6 242.536 304.68 243.056 302.76 242.536C302.5 242.501 302.251 242.411 302.029 242.271C301.807 242.132 301.618 241.946 301.475 241.726C301.331 241.507 301.237 241.259 301.198 241C301.158 240.741 301.176 240.476 301.248 240.224C302.104 236.488 307.032 237.024 309.96 238.368C309.032 236.72 306.304 232.12 309.064 231.856C311.824 231.592 314.728 237.664 315.664 239.656C317.032 242.584 318.4 246.632 317.112 249.544C315.64 252.936 313.72 249.464 312.296 247.904Z" fill="#EE6877"/>
<path d="M312.688 248.792C310.408 246.048 303.888 245.232 303.936 243.896C304.056 241.176 309.288 241.808 311.856 242.688C309.92 241 306.112 237.968 307.288 235.88C308.72 233.336 314.016 238.688 316.048 242.744C318.608 247.84 317.12 250.84 316.152 251.12C314.824 251.496 313.064 249.24 312.688 248.792Z" fill="#F9CACF"/>
<path d="M334.245 295.055L340 338H305C305.72 334.192 312.235 295 312.235 295L334.245 295.055Z" fill="#6AA6DA"/>
<path d="M330.849 294.859L336.414 337.348H302.941C303.464 334.354 305.113 324.321 306.685 314.711C307.535 309.508 308.363 304.427 308.979 300.646C309.287 298.755 309.542 297.19 309.719 296.097L309.925 294.831L309.929 294.805L330.849 294.859Z" stroke="#1E437D"/>
<path d="M273.874 50.7784C291.392 72.1643 296.59 104.147 309.295 130.349C322 156.552 342.213 176.974 351.453 202.792C360.886 228.609 359.153 259.628 339.518 274.078C320.075 288.335 282.729 286.023 255.779 288.528C228.829 291.225 212.273 298.546 189.173 310.106C165.88 321.666 136.042 337.079 108.706 334.767C81.1784 332.648 56.153 312.418 49.8003 286.601C43.4477 260.784 55.768 228.994 58.078 198.746C60.5805 168.497 53.2654 139.79 64.6231 122.45C75.9808 105.303 106.011 99.5228 131.037 82.1829C155.87 65.0356 175.89 36.1358 200.916 27.0805C225.941 18.2179 256.164 29.1998 273.874 50.7784Z" fill="#C8DEFE" fill-opacity="0.2"/>
<path d="M21.3682 337.784L64.0242 337.592L106.68 337.52L192 337.392L277.312 337.52L319.976 337.592L362.632 337.784L319.976 337.984L277.312 338.056L192 338.184L106.68 338.056L64.0242 337.984L21.3682 337.784Z" fill="#1E437D"/>
<path d="M333.028 191.401V91.8926C333.028 91.3621 332.817 90.8534 332.442 90.4783L309.087 67.1234C308.712 66.7483 308.203 66.5376 307.673 66.5376H233.537C232.433 66.5376 231.537 67.433 231.537 68.5376V191.401C231.537 192.506 232.433 193.401 233.537 193.401H331.028C332.133 193.401 333.028 192.506 333.028 191.401Z" fill="#6AA6DA"/>
<path d="M330.491 188.864V88.5268L305.964 64.0002H231C229.895 64.0002 229 64.8957 229 66.0002V188.864C229 189.968 229.895 190.864 231 190.864H328.491C329.595 190.864 330.491 189.968 330.491 188.864Z" fill="white"/>
<path fill-rule="evenodd" clip-rule="evenodd" d="M330.491 88.5268L305.964 64.0002H231C229.895 64.0002 229 64.8957 229 66.0002V188.864C229 189.968 229.895 190.864 231 190.864H328.491C329.595 190.864 330.491 189.968 330.491 188.864V88.5268ZM305.55 65.0002L329.491 88.941V188.864C329.491 189.416 329.043 189.864 328.491 189.864H231C230.448 189.864 230 189.416 230 188.864V66.0002C230 65.448 230.448 65.0002 231 65.0002H305.55Z" fill="#1E437D"/>
<path fill-rule="evenodd" clip-rule="evenodd" d="M284.82 97.4473H241.686V99.1388H284.82V97.4473ZM241.686 104.213H284.82V105.905H241.686V104.213ZM300.889 117.745H241.686V119.437H300.889V117.745ZM307.655 134.661H241.686V136.352H307.655V134.661ZM307.655 161.725H241.686V163.416H307.655V161.725ZM241.686 141.427H297.506V143.118H241.686V141.427ZM241.686 110.979H317.804V112.671H241.686V110.979ZM317.804 148.193H241.686V149.884H317.804V148.193ZM241.686 168.491H317.804V170.182H241.686V168.491ZM309.347 154.959H241.686V156.65H309.347V154.959ZM241.686 175.257H309.347V176.948H241.686V175.257Z" fill="#CAD1DD"/>
<rect x="242" y="80" width="38" height="6" fill="#CAD1DD"/>
<path d="M305.964 64L330.491 88.5272H305.964L305.964 64Z" fill="#1E437D"/>
<path d="M335.223 175.145L330.451 180.159L310.339 161.014L315.112 156L335.223 175.145Z" fill="#D3DBE7"/>
<path d="M352 188.271L344.784 195.85L324.35 176.405L331.566 168.819L352 188.271Z" fill="#1E437D"/>
<path d="M322.411 132.897C321.375 126.745 318.538 121.038 314.258 116.499C309.978 111.959 304.448 108.791 298.368 107.394C292.287 105.997 285.929 106.435 280.097 108.652C274.266 110.869 269.222 114.766 265.605 119.849C261.988 124.932 259.96 130.974 259.776 137.21C259.593 143.447 261.264 149.597 264.576 154.884C267.888 160.171 272.694 164.357 278.386 166.912C284.077 169.468 290.399 170.278 296.551 169.241C304.795 167.842 312.149 163.23 316.997 156.417C321.845 149.603 323.792 141.145 322.411 132.897ZM318.844 133.523C319.763 138.97 319.045 144.566 316.783 149.605C314.521 154.644 310.815 158.899 306.134 161.832C301.454 164.764 296.008 166.243 290.487 166.081C284.966 165.919 279.617 164.123 275.117 160.921C270.616 157.719 267.167 153.254 265.204 148.091C263.241 142.928 262.853 137.299 264.09 131.915C265.326 126.532 268.131 121.637 272.15 117.848C276.169 114.059 281.222 111.547 286.669 110.629C293.97 109.406 301.459 111.13 307.491 115.422C313.523 119.714 317.606 126.224 318.844 133.523Z" fill="#1E437D"/>
<path d="M282.707 169.454C290.565 171.637 298.955 170.797 306.223 167.098C313.491 163.399 319.109 157.11 321.968 149.472C324.828 141.835 324.72 133.403 321.668 125.841C318.615 118.278 312.839 112.134 305.479 108.621C298.12 105.109 289.71 104.482 281.911 106.865C274.112 109.247 267.489 114.467 263.349 121.493C259.209 128.52 257.852 136.842 259.548 144.819C261.243 152.797 265.866 159.849 272.506 164.584C275.593 166.796 279.046 168.444 282.707 169.454ZM299.455 108.62C302.899 109.582 306.149 111.134 309.062 113.208C315.24 117.633 319.537 124.211 321.106 131.647C322.674 139.083 321.4 146.837 317.535 153.38C313.671 159.924 307.495 164.782 300.226 166.998C292.956 169.214 285.121 168.627 278.263 165.352C271.405 162.077 266.023 156.352 263.177 149.306C260.33 142.26 260.227 134.403 262.886 127.284C265.545 120.165 270.775 114.3 277.544 110.845C284.312 107.391 292.13 106.597 299.455 108.62ZM283.665 165.967C288.343 167.252 293.269 167.337 297.988 166.216C302.708 165.094 307.069 162.802 310.669 159.55C314.268 156.298 316.991 152.192 318.585 147.61C320.179 143.029 320.593 138.119 319.789 133.335C318.999 128.656 317.068 124.244 314.166 120.489C311.264 116.734 307.482 113.753 303.153 111.809C298.824 109.865 294.083 109.018 289.348 109.343C284.614 109.668 280.033 111.156 276.011 113.674C271.989 116.192 268.65 119.663 266.289 123.779C263.928 127.895 262.618 132.53 262.476 137.274C262.333 142.017 263.362 146.722 265.472 150.973C267.582 155.223 270.707 158.888 274.571 161.643C277.321 163.601 280.392 165.065 283.646 165.967H283.665ZM317.918 133.648C318.963 139.811 317.839 146.145 314.736 151.571C311.634 156.998 306.746 161.18 300.905 163.406C295.064 165.632 288.632 165.763 282.705 163.777C276.778 161.792 271.724 157.812 268.402 152.517C265.081 147.222 263.699 140.938 264.492 134.738C265.285 128.538 268.203 122.805 272.75 118.516C277.297 114.227 283.19 111.647 289.426 111.216C295.662 110.786 301.854 112.531 306.947 116.155C309.837 118.213 312.293 120.819 314.176 123.826C316.058 126.833 317.33 130.181 317.918 133.679V133.648Z" fill="#1E437D"/>
<g opacity="0.4">
<path d="M290.649 111.311C295.953 111.182 301.177 112.628 305.66 115.467C310.143 118.306 313.683 122.411 315.833 127.262C317.983 132.113 318.647 137.492 317.739 142.72C316.832 147.948 314.396 152.79 310.737 156.633C307.078 160.477 302.362 163.149 297.185 164.312C292.008 165.475 286.602 165.077 281.651 163.168C276.701 161.259 272.427 157.925 269.371 153.588C266.314 149.25 264.613 144.104 264.481 138.799C264.394 135.276 265.002 131.77 266.269 128.482C267.537 125.193 269.441 122.187 271.871 119.634C274.301 117.082 277.21 115.033 280.432 113.605C283.654 112.177 287.125 111.397 290.649 111.311Z" fill="white"/>
<path d="M298.191 112.194C305.027 114.016 310.868 118.461 314.449 124.563C318.029 130.664 319.06 137.932 317.317 144.788L298.191 112.194Z" fill="#6AA6DA"/>
<path d="M272.067 119.41L298.259 164.053C296.202 164.604 294.086 164.909 291.957 164.96C289.513 165.028 287.071 164.754 284.703 164.146L265.364 131.195C266.552 126.757 268.861 122.699 272.067 119.41Z" fill="#6AA6DA"/>
<path d="M287.977 111.511L312.93 154.032C311.883 155.446 310.703 156.756 309.406 157.944L282.838 112.669C284.508 112.112 286.229 111.724 287.977 111.511Z" fill="#6AA6DA"/>
<path d="M274.827 116.963L301.739 162.857C301.439 162.982 301.114 163.107 300.832 163.22L274.07 117.576C274.314 117.369 274.571 117.157 274.827 116.963Z" fill="#6AA6DA"/>
<path d="M264.557 140.145L276.505 160.51C275.832 160.07 275.183 159.595 274.558 159.089L264.839 142.523C264.701 141.747 264.607 140.952 264.557 140.145Z" fill="#6AA6DA"/>
</g>
<path d="M312.441 133.341C311.871 130.44 310.712 127.686 309.037 125.249C308.202 124.012 307.248 122.859 306.189 121.807C305.113 120.757 303.939 119.812 302.684 118.984C300.147 117.358 297.292 116.291 294.31 115.855C291.39 115.431 288.416 115.569 285.548 116.261C288.405 116.31 291.25 116.656 294.035 117.294C295.392 117.625 296.719 118.066 298.003 118.615C299.285 119.14 300.513 119.788 301.67 120.549C304.015 122.069 306.107 123.947 307.873 126.113C309.676 128.333 311.21 130.76 312.441 133.341Z" fill="white"/>
<path d="M101.416 275.672C105.877 279.396 110.726 282.628 115.88 285.312C108.752 272.304 112.568 244.576 113.216 248.632C116.296 268.016 127.896 289.936 132.944 291.392C132.973 291.388 133.003 291.388 133.032 291.392C146.688 294.136 159.528 291.904 170.48 287.624C170.486 287.603 170.486 287.581 170.48 287.56C161.104 272.728 164.144 244.472 164.704 246.256C170.8 265.4 185.976 277.536 188.8 277.744C200 269.856 206.288 261.576 204.888 260.568C194.72 253.2 187.096 235.768 180.448 217.48C173.872 199.44 171.408 173.168 161.344 156.72C152.128 141.656 131.368 137.2 118.8 143.448C85.8321 159.8 95.2001 270.504 101.416 275.672Z" fill="#1D375E"/>
<path d="M121.032 142.472C118.292 143.425 115.778 144.934 113.648 146.904C111.564 148.773 109.66 150.832 107.96 153.056C104.759 157.482 102.075 162.26 99.9601 167.296C95.6001 177.224 93.2241 197.208 92.0081 207.784C90.9803 218.399 90.9803 229.089 92.0081 239.704C92.2161 242.36 92.6081 245 92.9041 247.648L94.0721 255.568L95.5921 263.44L97.3601 271.264L96.1201 263.376L95.0721 255.464L94.1841 247.552C93.9841 244.904 93.6881 242.272 93.5681 239.624C92.7861 229.082 92.9334 218.492 94.0081 207.976C95.0321 197.48 97.4401 177.672 101.376 167.768C103.307 162.755 105.791 157.973 108.784 153.512C110.34 151.252 112.105 149.145 114.056 147.216C115.056 146.246 116.125 145.35 117.256 144.536C118.409 143.67 119.681 142.975 121.032 142.472Z" fill="#263238"/>
<path d="M206.4 257.8C203.478 253.998 200.757 250.046 198.248 245.96C195.696 241.96 193.312 237.832 191.16 233.64C189.008 229.448 186.992 225.208 185.288 220.84C183.584 216.472 182.032 212.08 180.392 207.696C177.016 198.952 173.792 180.776 169.84 172.192C167.84 167.904 165.752 163.648 163.344 159.52C162.124 157.444 160.789 155.439 159.344 153.512C157.924 151.473 156.099 149.746 153.984 148.44C155.949 149.881 157.617 151.687 158.896 153.76C160.201 155.735 161.395 157.781 162.472 159.888C164.68 164.064 166.592 168.352 168.408 172.688C172.048 181.328 175.272 199.472 178.504 208.248C180.2 212.624 181.792 217 183.584 221.376C185.38 225.769 187.451 230.044 189.784 234.176C194.45 242.63 200.022 250.551 206.4 257.8Z" fill="#1D375E"/>
<path d="M127.136 250.864C135.744 270.2 169.424 332.464 190.208 336.208C203.808 338.656 258.328 331.408 267.28 318.12C271.184 312.336 262.832 273.32 255.6 275.104C248.368 276.888 204.728 284.296 199.288 282.928C193.848 281.56 151.824 236.528 136.336 225.552C109.6 206.6 122.504 240.456 127.136 250.864Z" fill="#EB9481"/>
<path d="M237.683 273.335C238.318 273.107 238.99 273.557 239.028 274.23L242.185 331.031C242.212 331.521 241.907 331.951 241.427 332.052C235.444 333.304 197.668 340.821 180.392 334.856C157.584 326.976 124.2 256.32 119.592 244.704C112.088 225.64 114.168 214.104 124.8 216.92C128.928 217.984 134.4 221.24 141.024 227.104C147.992 233.216 188.016 272.872 200.648 280.36C206.887 284.046 231.763 275.463 237.683 273.335Z" fill="#FFE9A9"/>
<path d="M215.872 321.824C214.714 322.239 213.621 322.815 212.624 323.536C213.848 323.44 215.052 323.17 216.2 322.736C217.359 322.327 218.453 321.753 219.448 321.032C218.224 321.122 217.019 321.388 215.872 321.824ZM183.44 275.472C182.284 275.881 181.192 276.455 180.2 277.176C182.655 276.946 185.005 276.074 187.016 274.648C185.791 274.749 184.586 275.026 183.44 275.472ZM150.72 247.472C149.562 247.887 148.469 248.463 147.472 249.184C149.929 248.953 152.282 248.081 154.296 246.656C153.072 246.755 151.868 247.027 150.72 247.464V247.472ZM174.504 310.912C173.346 311.322 172.252 311.896 171.256 312.616C173.711 312.386 176.061 311.514 178.072 310.088C176.849 310.185 175.647 310.46 174.504 310.904V310.912ZM212.568 288.168C211.409 288.581 210.316 289.158 209.32 289.88C210.544 289.784 211.748 289.514 212.896 289.08C214.055 288.671 215.149 288.097 216.144 287.376C214.92 287.463 213.716 287.727 212.568 288.16V288.168ZM155.408 277.848C154.267 278.267 153.189 278.843 152.208 279.56C153.432 279.464 154.636 279.194 155.784 278.76C156.927 278.345 158.005 277.769 158.984 277.048C157.761 277.142 156.557 277.409 155.408 277.84V277.848ZM241.008 310.432C240.872 309.888 240.696 309.352 240.512 308.832C240.097 307.674 239.521 306.581 238.8 305.584C238.893 306.809 239.162 308.013 239.6 309.16C239.969 310.193 240.463 311.176 241.072 312.088L241.008 310.432ZM195.784 313.72C195.372 312.563 194.799 311.469 194.08 310.472C194.177 311.696 194.446 312.9 194.88 314.048C195.292 315.208 195.868 316.302 196.592 317.296C196.509 316.07 196.247 314.863 195.816 313.712L195.784 313.72ZM167.2 263.184C166.785 262.029 166.209 260.938 165.488 259.944C165.585 261.168 165.854 262.372 166.288 263.52C166.699 264.677 167.276 265.769 168 266.76C167.907 265.536 167.638 264.331 167.2 263.184ZM135.688 232.16C135.278 231.002 134.704 229.908 133.984 228.912C134.214 231.367 135.086 233.718 136.512 235.728C136.4 234.503 136.109 233.301 135.648 232.16H135.688ZM180.28 328.6C179.18 328.061 178.008 327.683 176.8 327.48C177.736 328.274 178.782 328.928 179.904 329.424C181.015 329.952 182.194 330.318 183.408 330.512C182.462 329.73 181.408 329.086 180.28 328.6ZM219.536 304.32C218.426 303.794 217.246 303.43 216.032 303.24C217.939 304.805 220.218 305.849 222.648 306.272C221.708 305.469 220.661 304.801 219.536 304.288V304.32ZM206.608 336.728C205.499 336.198 204.319 335.831 203.104 335.64C203.697 336.16 204.346 336.61 205.04 336.984L206.928 336.88L206.608 336.728ZM174.864 290.688C173.755 290.158 172.575 289.791 171.36 289.6C173.263 291.166 175.54 292.211 177.968 292.632C177.034 291.828 175.989 291.162 174.864 290.656V290.688ZM126.864 249.032C125.755 248.502 124.575 248.135 123.36 247.944C124.296 248.738 125.342 249.392 126.464 249.888C127.575 250.416 128.754 250.782 129.968 250.976C129.038 250.174 127.998 249.509 126.88 249L126.864 249.032ZM156.624 300.424C156.094 301.533 155.73 302.714 155.544 303.928C156.336 302.988 156.991 301.941 157.488 300.816C158.012 299.705 158.378 298.525 158.576 297.312C157.79 298.243 157.138 299.28 156.64 300.392L156.624 300.424ZM140.624 267.432C140.094 268.541 139.73 269.722 139.544 270.936C140.336 269.996 140.991 268.949 141.488 267.824C142.012 266.713 142.378 265.533 142.576 264.32C141.795 265.254 141.146 266.29 140.648 267.4L140.624 267.432ZM191.544 293.928C191.028 295.03 190.67 296.199 190.48 297.4C191.279 296.467 191.937 295.421 192.432 294.296C192.956 293.185 193.322 292.005 193.52 290.792C192.723 291.727 192.065 292.773 191.568 293.896L191.544 293.928ZM115.776 232.024C115.856 232.464 115.944 232.904 116.048 233.36C116.431 232.464 116.7 231.524 116.848 230.56C116.456 231.005 116.105 231.484 115.8 231.992L115.776 232.024Z" fill="white"/>
<path d="M231.464 331C230.712 322.296 228.96 286.56 229.104 278.808C229.104 278.272 229.456 278.152 229.52 278.712C232.384 304.744 231.504 322.384 231.8 330.96C231.808 331.152 231.48 331.2 231.464 331Z" fill="#263238"/>
<path d="M119.624 244.696C124.184 256.312 157.584 326.976 180.424 334.848C158.5 291 136.175 236.147 123.424 216.6C121.16 216.256 119.344 216.64 118.024 217.696C113.784 221.048 114.192 230.92 119.624 244.696Z" fill="#1E437D"/>
<path d="M41.6937 336.471C41.5076 337.108 41.9953 337.711 42.6587 337.709L158.358 337.403C158.972 337.402 159.44 336.851 159.342 336.245L153.064 297.206C153.018 296.923 153.092 296.639 153.267 296.411C154.798 294.415 162.154 284.15 160.568 273.112C158.632 259.632 134.32 225.456 132.28 223.512C124.086 215.82 115.416 214.413 107.083 217.146C107.007 217.171 106.936 217.205 106.868 217.248C70.8428 240.065 44.9938 325.176 41.6937 336.471Z" fill="#FFE9A9"/>
<path d="M50.5681 314.312C49.884 314.57 49.2184 314.875 48.5761 315.224L48.3361 315.904C49.2082 315.744 50.0648 315.509 50.8961 315.2C52.0563 314.791 53.1504 314.214 54.1441 313.488C52.9186 313.589 51.7141 313.866 50.5681 314.312ZM93.2721 236.712C92.1306 237.131 91.0535 237.707 90.0721 238.424C91.2933 238.328 92.4946 238.058 93.6401 237.624C94.8003 237.215 95.8944 236.638 96.8881 235.912C95.6516 236 94.434 236.264 93.2721 236.696V236.712ZM149.04 248.2C148.48 248.479 147.944 248.805 147.44 249.176C148.103 249.136 148.759 249.029 149.4 248.856C149.304 248.64 149.168 248.424 149.04 248.2ZM118.592 265.888C117.434 266.3 116.341 266.874 115.344 267.592C117.801 267.361 120.154 266.489 122.168 265.064C120.943 265.165 119.738 265.442 118.592 265.888ZM103.392 312.168C102.234 312.578 101.14 313.152 100.144 313.872C101.368 313.776 102.572 313.506 103.72 313.072C104.863 312.657 105.941 312.081 106.92 311.36C105.72 311.461 104.54 311.733 103.416 312.168H103.392ZM155.392 277.84C154.251 278.258 153.173 278.835 152.192 279.552C153.416 279.456 154.62 279.186 155.768 278.752C156.911 278.337 157.989 277.761 158.968 277.04C157.75 277.138 156.551 277.408 155.408 277.84H155.392ZM77.8401 279.904C76.6989 280.32 75.6217 280.893 74.6401 281.608C77.0946 281.378 79.4453 280.506 81.4561 279.08C80.2225 279.179 79.0097 279.456 77.8561 279.904H77.8401ZM136.136 310.904C134.978 311.314 133.884 311.888 132.888 312.608C134.112 312.512 135.316 312.242 136.464 311.808C137.62 311.395 138.711 310.819 139.704 310.096C138.487 310.192 137.291 310.465 136.152 310.904H136.136ZM104.8 219.456L104.56 218.864C104.296 219.048 104.04 219.24 103.76 219.432C103.808 219.552 103.848 219.664 103.888 219.784C104.303 220.932 104.879 222.015 105.6 223C105.5 221.787 105.231 220.594 104.8 219.456ZM75.2961 313.328C74.8843 312.171 74.3106 311.077 73.5921 310.08C73.8237 312.537 74.6954 314.89 76.1201 316.904C76.0204 315.679 75.7428 314.474 75.2961 313.328ZM117.792 294.824C117.377 293.683 116.803 292.606 116.088 291.624C116.318 294.079 117.19 296.429 118.616 298.44C118.519 297.201 118.242 295.983 117.792 294.824ZM102.76 254.936C102.345 253.781 101.769 252.69 101.048 251.696C101.292 254.148 102.162 256.495 103.576 258.512C103.474 257.288 103.2 256.084 102.76 254.936ZM154.984 322.784C154.577 321.624 154.003 320.53 153.28 319.536C153.377 320.76 153.646 321.964 154.08 323.112C154.493 324.268 155.07 325.359 155.792 326.352C155.698 325.13 155.425 323.928 154.984 322.784ZM135.648 232.16C135.238 231.002 134.664 229.908 133.944 228.912C134.174 231.367 135.046 233.717 136.472 235.728C136.372 234.505 136.095 233.303 135.648 232.16ZM90.3281 297.968C89.218 297.442 88.0379 297.078 86.8241 296.888C88.731 298.453 91.0102 299.497 93.4401 299.92C92.4983 299.128 91.451 298.471 90.3281 297.968ZM132.304 336.536C132.712 336.891 133.148 337.212 133.608 337.496H135.512C134.493 337.028 133.413 336.705 132.304 336.536ZM62.9601 329.688C61.8497 329.161 60.6699 328.795 59.4561 328.6C60.3926 329.399 61.4411 330.057 62.5681 330.552C63.6767 331.077 64.8536 331.443 66.0641 331.64C65.1304 330.841 64.0846 330.184 62.9601 329.688ZM134.552 288.176C133.445 287.648 132.268 287.282 131.056 287.088C131.99 287.887 133.036 288.545 134.16 289.04C135.271 289.565 136.451 289.928 137.664 290.12C136.724 289.328 135.676 288.673 134.552 288.176ZM126.88 248.976C125.771 248.446 124.591 248.079 123.376 247.888C124.312 248.682 125.358 249.336 126.48 249.832C127.591 250.359 128.77 250.726 129.984 250.92C129.045 250.137 128 249.49 126.88 249V248.976ZM80.8481 259.824C80.3174 260.933 79.9509 262.114 79.7601 263.328C80.5542 262.39 81.2089 261.342 81.7041 260.216C82.2359 259.11 82.6025 257.933 82.7921 256.72C81.9967 257.664 81.3419 258.717 80.8481 259.848V259.824ZM117.936 324.136C117.412 325.247 117.048 326.427 116.856 327.64C117.644 326.724 118.299 325.7 118.8 324.6C119.327 323.49 119.694 322.31 119.888 321.096C119.1 322.023 118.443 323.054 117.936 324.16V324.136ZM140.648 267.376C140.118 268.485 139.754 269.666 139.568 270.88C140.36 269.94 141.015 268.892 141.512 267.768C142.036 266.656 142.402 265.477 142.6 264.264C141.806 265.213 141.149 266.269 140.648 267.4V267.376ZM89.8881 327.44C89.3558 328.568 88.9894 329.767 88.8001 331C89.599 330.067 90.2567 329.021 90.7521 327.896C91.2767 326.785 91.6403 325.606 91.8321 324.392C91.0427 325.32 90.3882 326.354 89.8881 327.464V327.44ZM64.2241 298.048C63.6959 299.158 63.3295 300.338 63.1361 301.552C64.7088 299.651 65.7544 297.369 66.1681 294.936C65.3759 295.876 64.7213 296.924 64.2241 298.048ZM100.368 279C99.8363 280.106 99.4697 281.284 99.2801 282.496C100.074 281.56 100.728 280.515 101.224 279.392C101.751 278.282 102.118 277.102 102.312 275.888C101.52 276.828 100.865 277.876 100.368 279ZM114.92 233.616C114.388 234.722 114.022 235.9 113.832 237.112C114.626 236.176 115.28 235.131 115.776 234.008C116.303 232.898 116.67 231.718 116.864 230.504C116.07 231.452 115.415 232.508 114.92 233.64V233.616Z" fill="white"/>
<path d="M145.104 239.976C147.392 243.784 149.904 247.456 152.304 251.176C151.336 248.52 150.392 245.864 149.336 243.248C149.333 243.238 149.333 243.227 149.337 243.217C149.341 243.207 149.348 243.198 149.357 243.193C149.366 243.187 149.377 243.185 149.388 243.186C149.399 243.188 149.409 243.193 149.416 243.2C151.096 246.356 152.465 249.668 153.504 253.088C155.298 255.911 156.902 258.851 158.304 261.888C160.025 265.533 161.108 269.446 161.504 273.456C161.762 277.497 161.19 281.548 159.824 285.36C158.215 289.735 156.212 293.955 153.84 297.968C153.536 298.504 152.792 298.008 153.04 297.472C156.392 290.32 160.096 282.8 159.76 274.696C159.424 266.592 155.696 259.296 152.04 252.344C149.904 248.107 147.5 244.01 144.84 240.08C144.728 239.968 145 239.8 145.104 239.976Z" fill="#1E437D"/>
<path d="M182.448 329L180.048 342.432H254.544C256.601 342.366 258.575 341.608 260.146 340.279C261.717 338.95 262.794 337.129 263.2 335.112L264.272 329H182.448Z" fill="#D3DBE7"/>
<path d="M174.056 335.112L175.136 329H182.452H189.768L188.688 335.112C188.286 337.123 187.218 338.939 185.656 340.268C184.094 341.596 182.129 342.359 180.08 342.432C179.171 342.456 178.267 342.276 177.437 341.905C176.606 341.534 175.869 340.982 175.28 340.288C174.71 339.567 174.305 338.73 174.094 337.836C173.882 336.942 173.87 336.012 174.056 335.112Z" fill="white"/>
<path d="M206.656 233.208L187.4 342.432H254.6C256.647 342.354 258.608 341.59 260.168 340.262C261.728 338.934 262.796 337.12 263.2 335.112L282.456 225.888H215.256C213.211 225.927 211.245 226.686 209.704 228.032C208.123 229.356 207.047 231.184 206.656 233.208Z" fill="#D3DBE7"/>
<path d="M196.696 288.383C194.015 305.113 191.337 321.833 188.517 334.37L188.509 334.394C188.5 334.422 188.486 334.465 188.467 334.521C188.43 334.633 188.373 334.796 188.3 334.996C188.152 335.399 187.935 335.951 187.657 336.554C187.093 337.779 186.314 339.132 185.411 339.884C183.704 341.305 182.08 341.863 180.139 341.933C179.305 341.954 178.477 341.789 177.715 341.449C176.956 341.109 176.281 340.605 175.742 339.971C175.22 339.309 174.849 338.541 174.655 337.721C174.461 336.898 174.449 336.042 174.62 335.214L173.641 335.011C173.44 335.982 173.454 336.986 173.682 337.951C173.91 338.917 174.347 339.82 174.963 340.599L174.968 340.605L174.974 340.612C175.611 341.362 176.409 341.96 177.308 342.362C178.207 342.763 179.184 342.958 180.168 342.932L180.173 342.932C182.33 342.855 184.168 342.219 186.05 340.652C187.137 339.747 187.993 338.216 188.565 336.972C188.857 336.34 189.084 335.762 189.238 335.341C189.315 335.131 189.375 334.959 189.415 334.84C189.426 334.807 189.436 334.777 189.444 334.753C189.451 334.733 189.456 334.715 189.461 334.701L189.473 334.664L189.476 334.654L189.477 334.651L189.477 334.65C189.477 334.649 189.477 334.649 189 334.501L189.477 334.65C189.482 334.635 189.486 334.62 189.489 334.605C192.316 322.041 195.006 305.25 197.692 288.485C199.285 278.549 200.875 268.621 202.492 259.589L201.508 259.413C199.883 268.489 198.289 278.438 196.696 288.383Z" fill="#1E437D"/>
<path d="M215.264 225.888L211.376 247.952H293.184L295.784 233.208C296.496 229.168 293.792 225.888 289.76 225.888H215.264Z" fill="white"/>
<path d="M206.656 233.208L204.056 247.952H218.688L221.288 233.208C222 229.168 219.304 225.888 215.264 225.888C213.219 225.927 211.253 226.686 209.712 228.032C208.128 229.355 207.049 231.183 206.656 233.208Z" fill="#D3DBE7"/>
<path d="M272.56 268.128C275.296 275.928 283.184 286.08 283.272 292.224C283.345 293.737 282.929 295.232 282.086 296.49C281.243 297.747 280.018 298.7 278.592 299.208C278.592 299.208 284.32 302.864 283.48 308.448C283.048 311.32 278.072 313.152 278.072 313.152C278.072 313.152 282.536 316.28 281.48 321.2C280.64 325.12 275.784 326.368 275.784 326.368C275.784 326.368 278.664 331.368 276.528 335.088C272.192 342.624 237.976 338.992 234.032 325.824C232.192 319.688 240.504 321.024 240.504 321.024C240.504 321.024 229.016 316.224 229.592 309.136C230.168 302.048 240.848 304.456 240.848 304.456C240.848 304.456 229.76 299.696 231.088 292.416C232.48 284.848 242.76 289.072 242.76 289.072C242.76 289.072 235.696 283.112 237.96 277.776C241.744 268.976 254.936 281.952 262.648 280.976L268.112 268.976L272.56 268.128Z" fill="#EB9481"/>
<path d="M278.272 279.64C276.328 272.032 286.352 263.96 285.536 256.44C284.44 246.24 272.176 254.84 268.144 269.04L266.952 280.6L278.272 279.64Z" fill="#EB9481"/>
<path d="M275.048 326.68C275.071 326.68 275.094 326.689 275.11 326.706C275.127 326.722 275.136 326.745 275.136 326.768C275.136 326.791 275.127 326.814 275.11 326.83C275.094 326.847 275.071 326.856 275.048 326.856C263.496 328.408 250.344 326.568 240.024 321.008C239.68 320.832 239.832 320.208 240.248 320.328C252 324.024 262.696 326.36 275.048 326.68Z" fill="#1E437D"/>
<path d="M278.232 313.24C278.368 313.24 278.36 313.464 278.232 313.48C266.32 315.016 251.56 312.536 240.416 304.728C240.04 304.464 239.96 303.84 240.416 304.112C248.216 308.744 267.112 313.008 278.232 313.24Z" fill="#1E437D"/>
<path d="M242.128 288.256C253.096 295.328 265.232 298.168 278.128 299.288C278.296 299.288 278.256 299.544 278.128 299.568C271.68 300.736 263.544 299.16 257.328 297.4C251.516 295.88 246.205 292.859 241.928 288.64C241.704 288.472 241.888 288.112 242.128 288.256Z" fill="#1E437D"/>
<path d="M112.896 216.64C113.056 218.72 120.624 233.208 129.856 234.192C132.864 234.504 135.312 218.192 135.312 218.192L135.776 217.032L142.176 200.72L124.296 184.928L121.688 182.808C121.688 182.808 120.24 187.384 118.488 193.096C118.408 193.36 118.32 193.632 118.24 193.896C118.16 194.16 118.024 194.52 117.936 194.824C117.664 195.672 117.392 196.544 117.136 197.416C116.936 198.08 116.744 198.72 116.56 199.424C116.376 200.128 116.184 200.816 115.984 201.512C114.136 208.464 112.84 215.8 112.896 216.64Z" fill="#EB9481"/>
<path d="M118.464 193.072C119.44 198.079 121.494 202.814 124.483 206.947C127.473 211.081 131.326 214.514 135.776 217.008L142.176 200.696L124.296 184.904L121.688 182.784C121.688 182.784 120.216 187.36 118.464 193.072Z" fill="#1D375E"/>
<path d="M170.624 181.272C166.576 211.736 147.872 212.752 141.304 211.872C135.344 211.072 115.136 207.592 116.016 176.872C116.896 146.152 132.344 138.4 146.08 139.504C159.816 140.608 174.68 150.8 170.624 181.272Z" fill="#EB9481"/>
<path d="M166.248 178C165.583 177.752 164.931 177.469 164.296 177.152C163.569 176.953 162.93 176.517 162.48 175.912C162.373 175.696 162.342 175.45 162.391 175.213C162.44 174.977 162.568 174.764 162.752 174.608C163.16 174.351 163.63 174.207 164.112 174.191C164.595 174.176 165.072 174.289 165.496 174.52C166.426 174.857 167.199 175.527 167.664 176.4C167.759 176.606 167.791 176.835 167.758 177.059C167.725 177.282 167.627 177.492 167.477 177.661C167.327 177.831 167.131 177.953 166.913 178.013C166.695 178.073 166.464 178.069 166.248 178Z" fill="#1D375E"/>
<path d="M145.648 172.768C146.354 172.804 147.062 172.804 147.768 172.768C148.519 172.866 149.28 172.714 149.936 172.336C150.117 172.178 150.241 171.965 150.289 171.729C150.336 171.493 150.305 171.248 150.2 171.032C149.925 170.634 149.548 170.317 149.11 170.113C148.671 169.909 148.186 169.826 147.704 169.872C146.717 169.818 145.746 170.132 144.976 170.752C144.812 170.905 144.696 171.101 144.64 171.318C144.585 171.535 144.593 171.764 144.664 171.976C144.735 172.189 144.865 172.376 145.04 172.517C145.214 172.657 145.425 172.744 145.648 172.768Z" fill="#1D375E"/>
<path d="M148.896 179.472C148.896 179.384 148.72 179.536 148.704 179.624C148.4 181.696 147.704 184.016 145.712 184.36C145.656 184.36 145.64 184.48 145.712 184.48C148.04 184.6 148.936 181.48 148.896 179.472Z" fill="#1D375E"/>
<path d="M147.448 176.984C144.184 176.136 142.72 182.736 145.752 183.52C148.784 184.304 150.184 177.696 147.448 176.984Z" fill="#1D375E"/>
<path d="M146.072 177.048C145.416 177.296 144.704 177.848 144 177.744C143.2 177.648 142.72 176.816 142.344 176.04C142.304 175.96 142.232 176 142.216 176.088C141.912 177.352 142.112 178.752 143.432 179.24C144.624 179.688 145.76 178.768 146.36 177.568C146.472 177.344 146.344 176.952 146.072 177.048Z" fill="#1D375E"/>
<path d="M161.096 181.4C161.096 181.328 161.232 181.536 161.208 181.624C160.672 183.648 160.408 186.056 162.096 187.152C162.152 187.192 162.096 187.288 162.056 187.264C159.872 186.408 160.264 183.216 161.096 181.4Z" fill="#1D375E"/>
<path d="M163.4 179.664C166.744 180.168 165.488 186.808 162.4 186.344C159.312 185.88 160.608 179.248 163.4 179.664Z" fill="#1D375E"/>
<path d="M164.704 180.368C165.16 180.816 165.56 181.552 166.184 181.712C166.808 181.872 167.568 181.28 168.16 180.68C168.224 180.616 168.264 180.68 168.256 180.768C168.048 182.048 167.376 183.288 166.112 183.304C164.848 183.32 164.352 182.072 164.288 180.752C164.272 180.504 164.52 180.184 164.704 180.368Z" fill="#1D375E"/>
<path d="M145.64 197.088C146 197.688 146.304 198.472 147.024 198.688C147.778 198.874 148.563 198.902 149.328 198.768C149.345 198.762 149.363 198.762 149.38 198.769C149.396 198.775 149.409 198.788 149.417 198.804C149.425 198.819 149.427 198.838 149.422 198.855C149.418 198.872 149.407 198.887 149.392 198.896C148.995 199.214 148.519 199.419 148.015 199.489C147.511 199.56 146.997 199.493 146.528 199.296C146.144 199.081 145.834 198.755 145.637 198.362C145.44 197.968 145.366 197.524 145.424 197.088C145.424 197 145.6 197 145.64 197.088Z" fill="#1D375E"/>
<path d="M155.752 191.472C155.752 191.472 155.536 194.616 155.232 196.064C155.232 196.2 154.84 196.184 154.344 196.112C154.336 196.118 154.326 196.121 154.316 196.121C154.306 196.121 154.296 196.118 154.288 196.112C153.003 196.078 151.752 195.691 150.671 194.994C149.591 194.297 148.722 193.317 148.16 192.16C148.144 192.127 148.141 192.088 148.152 192.053C148.162 192.017 148.185 191.986 148.217 191.967C148.249 191.947 148.286 191.939 148.323 191.946C148.36 191.952 148.393 191.971 148.416 192C149.993 193.647 152.062 194.736 154.312 195.104C154.496 194.728 154.496 189.704 154.728 189.736C155.831 190.066 156.883 190.545 157.856 191.16C158.496 184.616 158.08 178.024 158.816 171.52C158.816 171.467 158.837 171.416 158.875 171.379C158.912 171.341 158.963 171.32 159.016 171.32C159.069 171.32 159.12 171.341 159.158 171.379C159.195 171.416 159.216 171.467 159.216 171.52C160.136 178.4 159.56 185.92 159.072 192.72C159.024 193.544 156.28 191.84 155.752 191.472Z" fill="#1D375E"/>
<path d="M118.16 177.264C125.2 178.704 127.312 167.576 127.312 167.576C127.312 167.576 135.448 168.376 138.552 155.616C138.552 155.616 140.88 164.16 151.408 167.856C153.64 168.656 147.104 161.192 147.104 161.192C147.104 161.192 154.696 171.328 172.424 171.496C173.672 171.496 176.048 152.864 163.832 144.096C151.616 135.328 137.432 136.56 127.44 143.408C127.44 143.408 117.84 146.784 114.936 155.88C112.032 164.976 115.424 176.704 118.16 177.264Z" fill="#1D375E"/>
<path d="M141.6 191.16C139.762 190.646 138.105 189.627 136.817 188.218C135.53 186.809 134.663 185.068 134.316 183.191C133.97 181.314 134.156 179.377 134.855 177.601C135.554 175.825 136.737 174.281 138.27 173.144C139.803 172.007 141.625 171.323 143.527 171.17C145.429 171.017 147.337 171.4 149.032 172.277C150.727 173.154 152.143 174.488 153.117 176.129C154.092 177.771 154.586 179.652 154.544 181.56C154.475 184.256 153.343 186.815 151.395 188.679C149.446 190.543 146.84 191.562 144.144 191.512C143.285 191.505 142.429 191.387 141.6 191.16ZM146.728 172.824C144.963 172.335 143.089 172.41 141.368 173.036C139.647 173.663 138.165 174.811 137.127 176.321C136.09 177.83 135.549 179.626 135.581 181.457C135.612 183.289 136.215 185.064 137.304 186.537C138.393 188.01 139.914 189.106 141.656 189.673C143.398 190.24 145.273 190.249 147.02 189.699C148.767 189.15 150.299 188.069 151.403 186.607C152.506 185.145 153.126 183.375 153.176 181.544C153.217 179.586 152.609 177.669 151.448 176.091C150.286 174.514 148.635 173.366 146.752 172.824H146.728Z" fill="#1E437D"/>
<path d="M164.8 194.664C161.048 193.616 158.712 188.816 159.536 183.56C159.876 181.044 160.995 178.697 162.736 176.848C163.44 176.013 164.348 175.373 165.372 174.991C166.395 174.609 167.5 174.497 168.58 174.667C169.659 174.837 170.677 175.282 171.534 175.96C172.391 176.638 173.058 177.525 173.472 178.536C174.577 180.827 174.935 183.407 174.496 185.912C173.624 191.464 169.552 195.456 165.416 194.808C165.208 194.775 165.002 194.727 164.8 194.664ZM168.912 176.12C168.747 176.071 168.579 176.033 168.408 176.008C167.542 175.914 166.666 176.029 165.854 176.342C165.041 176.655 164.315 177.158 163.736 177.808C162.189 179.451 161.191 181.534 160.88 183.768C160.128 188.568 162.264 192.928 165.68 193.464C169.096 194 172.448 190.512 173.208 185.704C173.599 183.481 173.289 181.191 172.32 179.152C171.992 178.432 171.515 177.789 170.921 177.267C170.327 176.744 169.628 176.353 168.872 176.12H168.912Z" fill="#1E437D"/>
<path d="M154.048 182.688L153.344 181.52C155.072 180.472 158.872 179.304 160.92 182.32L159.792 183.12C157.96 180.384 154.208 182.592 154.048 182.688Z" fill="#1E437D"/>
<path d="M108.752 178.2L107.656 177.4C108.032 176.888 111.416 172.392 114.504 172.376C117.384 172.376 135.168 176.896 135.928 177.088L135.584 178.408C130.488 177.104 116.736 173.728 114.512 173.736C112.472 173.776 109.664 176.992 108.752 178.2Z" fill="#1E437D"/>
<path d="M120.552 179.856C120.552 179.856 116.08 169.032 111.312 170.424C106.544 171.816 108.448 186.488 113.024 189.456C113.585 189.877 114.225 190.18 114.906 190.348C115.588 190.515 116.295 190.542 116.988 190.429C117.68 190.315 118.341 190.063 118.933 189.687C119.525 189.31 120.035 188.819 120.432 188.24L120.552 179.856Z" fill="#EB9481"/>
<path d="M112 174.616C111.984 174.614 111.968 174.616 111.954 174.624C111.94 174.632 111.929 174.644 111.922 174.658C111.916 174.673 111.914 174.69 111.918 174.705C111.922 174.721 111.931 174.734 111.944 174.744C115.144 176.944 116.248 180.592 116.784 184.24C116.032 182.72 114.776 181.696 112.784 182.544C112.764 182.556 112.748 182.575 112.738 182.597C112.729 182.618 112.727 182.643 112.732 182.666C112.737 182.689 112.75 182.71 112.768 182.725C112.786 182.741 112.808 182.75 112.832 182.752C113.492 182.692 114.154 182.839 114.728 183.171C115.301 183.503 115.757 184.006 116.032 184.608C116.493 185.614 116.839 186.669 117.064 187.752C117.16 188.096 117.76 188.056 117.72 187.672C117.72 187.672 117.72 187.616 117.72 187.584C118.736 183.144 116.656 176.128 112 174.616Z" fill="#1D375E"/>
<path d="M136.261 220.246C135.767 219.601 134.749 219.784 134.511 220.561L131.224 231.29C131.013 231.98 130.163 232.226 129.616 231.756L113.27 217.714C112.827 217.334 112.154 217.412 111.81 217.883L108.565 222.332C108.309 222.683 108.303 223.15 108.559 223.501C111.192 227.115 125.281 246.406 126.823 247.558C126.92 247.63 126.982 247.51 127.025 247.397L131.059 236.718C131.304 236.071 132.114 235.862 132.641 236.308L138.424 241.208C139.116 241.794 140.169 241.229 140.063 240.328L137.992 222.737C137.971 222.559 137.902 222.389 137.793 222.246L136.261 220.246Z" fill="#FFE9A9"/>
<path d="M139.712 232.704C139.208 229.352 138.792 225.96 138.112 222.632C138.112 222.52 137.896 222.48 137.88 222.632C137.48 225.944 139.48 238.752 139.736 241.832C139.368 241.504 131.64 235.304 131.576 235.432C130.52 237.392 127.136 246.264 126.92 247.064C123.944 242.952 111.416 226.8 107.976 222.968C107.968 222.956 107.957 222.945 107.944 222.936C107.932 222.928 107.918 222.922 107.903 222.919C107.888 222.916 107.873 222.916 107.858 222.919C107.843 222.922 107.829 222.928 107.816 222.936C107.804 222.945 107.793 222.955 107.784 222.968C107.776 222.981 107.77 222.995 107.767 223.01C107.764 223.025 107.764 223.04 107.767 223.055C107.77 223.07 107.776 223.084 107.784 223.096C110.48 227.48 126.712 248.816 126.904 248.744C128.726 244.54 130.329 240.243 131.704 235.872C133.04 237.248 140.912 244.328 140.896 243.824C140.7 240.099 140.304 236.387 139.712 232.704Z" fill="#1E437D"/>
<path d="M106.816 245.4C99.6961 276.072 79.5281 310.384 66.7601 320.472C58.9841 326.608 34.0961 326.664 32.9841 310.56C31.8721 294.456 80.7361 243.984 87.9281 234.168C95.1201 224.352 113.248 217.728 106.816 245.4Z" fill="#EB9481"/>
<path d="M106.816 245.4C99.6961 276.072 79.5281 310.384 66.7601 320.472C58.9841 326.608 34.0961 326.664 32.9841 310.56C31.8721 294.456 80.7361 243.984 87.9281 234.168C95.1201 224.352 113.248 217.728 106.816 245.4Z" fill="#FFE9A9"/>
<path d="M50.5681 314.312C49.4266 314.731 48.3495 315.307 47.3681 316.024C48.5893 315.928 49.7905 315.658 50.9361 315.224C52.0962 314.815 53.1904 314.238 54.1841 313.512C52.9462 313.601 51.728 313.871 50.5681 314.312ZM93.2721 236.712C92.1306 237.131 91.0534 237.707 90.0721 238.424C91.2932 238.328 92.4945 238.058 93.6401 237.624C94.8002 237.215 95.8944 236.638 96.8881 235.912C95.6516 236 94.4339 236.264 93.2721 236.696V236.712ZM77.8561 279.912C76.7149 280.328 75.6377 280.901 74.6561 281.616C77.1105 281.386 79.4613 280.514 81.4721 279.088C80.2334 279.183 79.0152 279.457 77.8561 279.904V279.912ZM65.6721 266.2C65.2743 265.033 64.7112 263.928 64.0001 262.92C64.0968 264.144 64.3661 265.348 64.8001 266.496C65.2117 267.656 65.7883 268.75 66.5121 269.744C66.4004 268.529 66.1176 267.336 65.6721 266.2ZM45.7841 296.72C45.3694 295.562 44.793 294.469 44.0721 293.472C44.3037 295.929 45.1753 298.282 46.6001 300.296C46.4984 299.072 46.2236 297.868 45.7841 296.72ZM73.6001 310.08C73.6676 311.051 73.8612 312.008 74.1761 312.928L74.8081 312.128C74.4817 311.403 74.0766 310.717 73.6001 310.08ZM102.768 254.936C102.353 253.781 101.777 252.69 101.056 251.696C101.149 252.918 101.418 254.12 101.856 255.264C102.206 256.238 102.665 257.169 103.224 258.04C103.288 257.832 103.36 257.632 103.424 257.424C103.273 256.578 103.051 255.746 102.76 254.936H102.768ZM57.3441 280.6C56.2333 280.076 55.0534 279.712 53.8401 279.52C54.7762 280.314 55.8216 280.968 56.9441 281.464C58.0545 281.992 59.2344 282.358 60.4481 282.552C59.5092 281.761 58.4644 281.104 57.3441 280.6ZM80.8481 259.8C80.3173 260.909 79.9508 262.09 79.7601 263.304C80.5542 262.366 81.2089 261.318 81.7041 260.192C82.2359 259.087 82.6025 257.909 82.7921 256.696C81.9947 257.647 81.3399 258.709 80.8481 259.848V259.8ZM64.2241 298.048C63.6959 299.158 63.3295 300.338 63.1361 301.552C64.7088 299.651 65.7543 297.369 66.1681 294.936C65.3759 295.876 64.7213 296.924 64.2241 298.048ZM33.5521 308.784C33.3441 309.256 33.1441 309.736 32.9761 310.232C32.968 310.339 32.968 310.446 32.9761 310.552C32.9761 310.88 33.0321 311.208 33.0721 311.52C33.5849 310.781 34.0294 309.996 34.4001 309.176C34.9248 308.065 35.291 306.885 35.4881 305.672C34.6968 306.611 34.0448 307.66 33.5521 308.784Z" fill="white"/>
<path d="M45.2402 322.808C48.5929 323.351 52.0096 323.37 55.3682 322.864C58.6573 322.33 61.8212 321.199 64.7042 319.528C70.8002 316.024 74.8802 310.088 78.5042 304.248C82.4775 297.848 86.2108 291.294 89.7042 284.584C93.1842 277.888 96.3762 271.04 99.4562 264.152C101.016 260.68 102.432 257.16 103.912 253.656C105.392 250.152 106.792 246.688 108.08 243.144C108.408 242.248 108.712 241.352 109.024 240.456C109.029 240.439 109.041 240.425 109.057 240.417C109.073 240.409 109.091 240.407 109.108 240.412C109.125 240.418 109.139 240.429 109.148 240.445C109.156 240.461 109.157 240.479 109.152 240.496C108 244.16 106.904 247.864 105.664 251.496C105.504 251.968 105.328 252.44 105.16 252.912C106.448 250.168 107.768 247.44 109.16 244.744C109.24 244.584 109.464 244.744 109.4 244.888C108.168 247.688 106.888 250.488 105.576 253.216C104.926 254.576 104.272 255.931 103.616 257.28C102.992 258.96 102.344 260.648 101.68 262.32C98.8162 269.488 95.6322 276.504 92.1282 283.368C88.6242 290.232 84.8482 296.955 80.8002 303.536C77.0962 309.592 73.1202 315.816 67.1282 319.856C61.3888 323.712 54.3532 325.13 47.5682 323.8C46.7533 323.626 45.9514 323.397 45.1682 323.112C45.1354 323.096 45.109 323.07 45.0934 323.037C45.0777 323.004 45.0738 322.967 45.0822 322.931C45.0906 322.896 45.1108 322.864 45.1395 322.842C45.1683 322.82 45.2038 322.808 45.2402 322.808Z" fill="#1E437D"/>
<path d="M57.1442 199.704C62.2242 187.344 70.4642 170.392 76.0002 167.8C81.8242 165.104 102.68 156.464 108.176 156.024C113.672 155.584 133.16 161.28 136.68 164.736C139.488 167.504 134.616 174.096 123.512 173.152C113.112 172.264 110.712 171.552 107.696 172.008C104.68 172.464 95.7602 179.664 96.5442 184.064C97.0082 186.648 103.048 191.104 107.744 190.296C112.44 189.488 115.264 184.896 121.064 182.216C126.864 179.536 135.184 182.216 135.08 184.616C134.976 187.016 131.88 187.368 125.592 194.008C121.528 198.272 118.6 206.744 110.08 213.696C105.8 217.184 97.3282 227.232 97.3282 227.232L57.1442 199.704Z" fill="#EB9481"/>
<path d="M76.0001 167.8C81.7281 162.448 95.1281 153.592 106.48 152.296C114.152 151.408 135.168 169.304 133.28 173.712C131.392 178.12 127.296 177.088 121.4 174.8C119.256 174 108.6 166.744 106 168.688C102.224 171.48 95.4721 182.608 95.4721 182.608L76.0001 167.8Z" fill="#EB9481"/>
<path d="M133.16 171.8C131.456 166.12 125.608 161.816 119.648 158.072C119.552 158.008 119.456 158.152 119.552 158.208C121.064 159.168 130.392 166.76 133.064 171.856C133.096 171.912 133.176 171.856 133.16 171.8Z" fill="#1D375E"/>
<path d="M76.0001 167.8C81.7281 162.448 95.1281 153.592 106.48 152.296C114.152 151.408 129.304 171.28 127.424 175.696C125.544 180.112 119.544 178.952 113.616 175.008C111.696 173.728 105.912 166.944 103.288 168.88C99.5041 171.672 90.2561 178.64 90.2561 178.64L76.0001 167.8Z" fill="#EB9481"/>
<path d="M95.6961 174.28C96.6081 173.48 96.9281 173.144 97.8561 172.32C98.7841 171.496 99.7201 170.72 100.704 169.92C101.509 169.195 102.435 168.615 103.44 168.208C104.442 167.931 105.507 167.99 106.472 168.376C108.68 169.176 110.352 171.128 111.984 172.728C113.808 174.504 117.736 177.64 121.232 178.152C122.176 178.352 123.152 178.352 124.096 178.152C124.806 178.027 125.474 177.727 126.04 177.28C128.152 175.16 127.048 171.832 125.688 169.28C123.144 164.608 119.128 160.664 115.128 157.28C114.144 156.44 113.136 155.624 112.136 154.808C111.038 153.793 109.734 153.026 108.312 152.56C105.952 151.936 101.464 153.36 100.08 153.76C99.9761 153.76 99.9441 153.624 100.08 153.592C101.76 153.056 106.12 151.04 109.88 152.216C111.256 152.648 112.376 153.696 113.504 154.568C114.632 155.44 115.84 156.44 116.968 157.424C119.18 159.315 121.24 161.377 123.128 163.592C124.896 165.696 126.744 168.096 127.624 170.736C128.424 173.024 128.056 175.904 126.288 177.64C124.8 179.104 122.472 178.952 121.416 178.824C120.385 178.693 119.376 178.424 118.416 178.024C116.318 176.975 114.3 175.774 112.376 174.432C110.52 173.08 109.016 171.232 107.056 170.016C106.599 169.714 106.086 169.505 105.548 169.404C105.009 169.302 104.456 169.309 103.92 169.424C102.9 169.782 101.94 170.291 101.072 170.936C99.2899 171.966 97.6079 173.161 96.0481 174.504C95.5921 174.856 95.3121 174.632 95.6961 174.28Z" fill="#1D375E"/>
<path d="M71.5521 172.6C73.8321 169.944 79.5521 158.04 82.9921 154.816C86.4321 151.592 100.896 141.136 105.912 143.04C112.216 145.44 102.44 155.392 97.8001 159.328C93.1601 163.264 91.6321 171.608 91.6321 171.608L71.5521 172.6Z" fill="#EB9481"/>
<path d="M104.592 152.6C102.992 153.816 101.488 155.232 100.016 156.6C98.5443 157.831 97.1646 159.168 95.8881 160.6C94.737 162.115 93.8449 163.81 93.2481 165.616C92.9281 166.496 92.6721 167.392 92.4481 168.296C92.2241 169.2 92.0161 170.304 91.7361 171.28C91.7361 171.384 91.8641 171.448 91.8961 171.336C92.4811 169.561 93.1785 167.824 93.9841 166.136C94.7842 164.376 95.7942 162.719 96.9921 161.2C99.3921 158.192 102.384 155.736 104.8 152.744C104.888 152.648 104.712 152.512 104.592 152.6Z" fill="#1D375E"/>
<path d="M105.384 190.28C107.536 190.405 109.652 189.691 111.288 188.288C112.824 187.136 114.288 185.888 115.832 184.744C117.323 183.544 118.98 182.566 120.752 181.84C122.799 181.194 124.926 180.838 127.072 180.784C129.141 180.564 131.233 180.869 133.152 181.672C134.704 182.408 136.352 184.016 135.496 185.904C135.064 186.751 134.471 187.507 133.752 188.128C133.078 188.769 132.356 189.357 131.592 189.888C130.064 190.984 128.44 191.968 127.016 193.216C125.12 194.88 123.816 197.144 122.424 199.232C121.904 200.032 118.584 205.264 117.32 207.048C116.26 208.568 115.069 209.992 113.76 211.304C112.465 212.494 111.1 213.605 109.672 214.632C108.114 215.742 106.683 217.022 105.408 218.448C105.352 218.52 105.256 218.448 105.296 218.352C106.896 215.408 109.824 213.432 112.496 211.48C115.912 208.952 123.496 195.896 124.872 194.12C127.16 191.168 130.632 189.752 133.24 187.184C133.84 186.592 134.76 185.752 134.744 184.824C134.67 184.383 134.484 183.969 134.204 183.62C133.924 183.271 133.559 183 133.144 182.832C131.352 181.88 129.144 181.944 127.192 182.136C125.139 182.24 123.105 182.575 121.128 183.136C119.404 183.756 117.772 184.609 116.28 185.672C114.568 186.856 112.928 188.072 111.128 189.144C109.42 190.267 107.36 190.728 105.336 190.44C105.24 190.416 105.288 190.272 105.384 190.28Z" fill="#1D375E"/>
<path d="M133.432 163.152C132.064 162.48 130.704 161.752 129.312 161.12C129.312 161.12 129.312 161.04 129.312 161.056C130.96 161.712 132.656 162.256 134.312 162.896C135.624 163.4 136.976 164.136 137.512 165.512C137.722 166.157 137.759 166.845 137.619 167.508C137.478 168.171 137.166 168.785 136.712 169.288C135.695 170.353 134.462 171.188 133.096 171.736C133.024 171.776 132.968 171.664 133.04 171.624C135.032 170.472 138.12 168.152 136.496 165.504C135.715 164.449 134.653 163.635 133.432 163.152Z" fill="#1D375E"/>
<path d="M126.768 176.424C128.328 176.472 130.056 176.424 131.44 175.624C131.905 175.369 132.301 175.006 132.598 174.566C132.894 174.127 133.081 173.623 133.144 173.096C133.228 172.714 133.174 172.315 132.992 171.968C132.928 171.888 133.08 171.816 133.104 171.912C133.174 172.12 133.256 172.323 133.352 172.52C133.411 172.697 133.451 172.879 133.472 173.064C133.511 173.432 133.481 173.803 133.384 174.16C133.154 174.937 132.666 175.611 132 176.072C130.44 177.192 128.504 177.088 126.744 176.568C126.672 176.536 126.688 176.424 126.768 176.424Z" fill="#1E437D"/>
<path d="M97.3121 227.248C93.9041 239.544 68.0001 305.12 60.8001 314.376C53.6001 323.632 36.0881 325.624 31.2001 308.896C26.3121 292.168 51.7601 212.216 57.1361 199.704C60.1361 192.744 98.5361 222.792 97.3121 227.248Z" fill="#EB9481"/>
<path d="M102.642 236.32C102.84 235.856 102.649 235.347 102.212 235.094L53.2485 206.697C52.6868 206.371 51.982 206.614 51.8022 207.238C49.033 216.847 30.3716 282.348 30.0161 303.64C29.7361 320.144 49.5201 332.48 65.1521 310.168C79.6585 289.463 99.814 242.916 102.642 236.32Z" fill="#FFE9A9"/>
<path d="M53.6962 207C52.9381 207.917 52.3058 208.932 51.8162 210.016C51.2916 211.127 50.928 212.307 50.7362 213.52C51.5296 212.584 52.1843 211.539 52.6802 210.416C53.1927 209.332 53.5534 208.183 53.7522 207H53.6962ZM37.3122 278.12C36.7876 279.231 36.424 280.411 36.2322 281.624C37.0256 280.688 37.6803 279.643 38.1762 278.52C38.7048 277.405 39.0712 276.219 39.2642 275C38.4729 275.945 37.816 276.995 37.3122 278.12ZM33.5522 308.784C33.0239 309.894 32.6576 311.074 32.4642 312.288C33.2554 311.349 33.9075 310.301 34.4002 309.176C34.9249 308.065 35.2911 306.885 35.4882 305.672C34.6969 306.611 34.0449 307.659 33.5522 308.784ZM64.2242 298.048C63.6959 299.158 63.3296 300.338 63.1362 301.552C64.7089 299.651 65.7544 297.369 66.1682 294.936C65.376 295.876 64.7214 296.924 64.2242 298.048ZM81.3122 223C81.3122 223.072 81.3122 223.152 81.3122 223.224L81.4482 223.056L81.3122 223ZM80.8482 259.872C80.3174 260.981 79.9509 262.162 79.7602 263.376C80.5543 262.438 81.209 261.39 81.7042 260.264C82.236 259.158 82.6026 257.981 82.7922 256.768C82.0007 257.697 81.3461 258.734 80.8482 259.848V259.872ZM57.4082 251.52C56.8786 252.621 56.5121 253.794 56.3202 255C57.8847 253.093 58.9292 250.814 59.3522 248.384C58.56 249.324 57.9054 250.372 57.4082 251.496V251.52ZM74.8162 242.68C73.7058 242.153 72.5259 241.787 71.3122 241.592C72.2459 242.391 73.2916 243.049 74.4162 243.544C75.5282 244.061 76.708 244.416 77.9202 244.6C76.983 243.808 75.9379 243.154 74.8162 242.656V242.68ZM57.3442 280.6C56.2334 280.076 55.0535 279.712 53.8402 279.52C54.7763 280.314 55.8217 280.968 56.9442 281.464C58.0546 281.991 59.2344 282.358 60.4482 282.552C59.5092 281.761 58.4645 281.104 57.3442 280.6ZM49.7442 233.736C48.6345 233.207 47.4544 232.841 46.2402 232.648C48.1419 234.221 50.4233 235.266 52.8562 235.68C51.9142 234.899 50.8665 234.256 49.7442 233.768V233.736ZM45.7442 296.688C45.3294 295.53 44.7531 294.437 44.0322 293.44C44.2638 295.897 45.1354 298.25 46.5602 300.264C46.4683 299.052 46.2071 297.86 45.7842 296.72L45.7442 296.688ZM65.6722 266.2C65.2744 265.033 64.7113 263.928 64.0002 262.92C64.0969 264.144 64.3662 265.348 64.8002 266.496C65.2118 267.656 65.7884 268.749 66.5122 269.744C66.4005 268.529 66.1177 267.336 65.6722 266.2ZM77.8562 279.936C76.715 280.352 75.6378 280.925 74.6562 281.64C77.1106 281.41 79.4613 280.538 81.4722 279.112C80.2347 279.199 79.0165 279.466 77.8562 279.904V279.936ZM43.9042 262.096C42.7613 262.511 41.6837 263.088 40.7042 263.808C41.9274 263.708 43.1307 263.438 44.2802 263.008C45.423 262.593 46.5006 262.017 47.4802 261.296C46.2558 261.389 45.0514 261.659 43.9042 262.096ZM63.8002 224.792C62.6422 225.207 61.5487 225.783 60.5522 226.504C61.7759 226.408 62.9799 226.138 64.1282 225.704C65.2875 225.293 66.3814 224.716 67.3762 223.992C66.1523 224.088 64.9482 224.357 63.8002 224.792ZM93.2722 236.696C92.1307 237.114 91.0536 237.691 90.0722 238.408C91.2933 238.312 92.4946 238.042 93.6402 237.608C94.8003 237.198 95.8945 236.622 96.8882 235.896C95.6509 235.989 94.4332 236.259 93.2722 236.696ZM50.5682 314.296C49.4267 314.714 48.3495 315.291 47.3682 316.008C48.5893 315.912 49.7906 315.642 50.9362 315.208C52.0963 314.799 53.1905 314.222 54.1842 313.496C52.9455 313.59 51.7273 313.865 50.5682 314.312V314.296Z" fill="white"/>
<path d="M96.0002 244.6C88.3042 240.464 57.4082 222.416 51.0002 218.064C50.5522 217.76 50.6402 217.4 51.1442 217.656C74.5362 229.464 88.8002 239.8 96.1762 244.272C96.3602 244.384 96.2242 244.688 96.0002 244.6Z" fill="#1E437D"/>
<path d="M79.7361 284.136C85.1041 274.056 90.2641 263.872 94.9361 253.432C96.2321 250.51 97.5015 247.576 98.7441 244.632C99.9361 241.8 101.144 238.96 102.216 236.08C101.152 235.336 96.4801 232.28 95.9761 231.808C95.8241 231.672 95.9761 231.408 96.1841 231.472C96.8081 231.704 102.232 234.848 103.384 235.704C103.552 235.824 101.24 241.44 100.184 244.128C99.1281 246.816 98.0561 249.488 96.9361 252.128C94.7175 257.392 92.3708 262.595 89.8961 267.736C87.2321 273.288 84.4481 278.76 81.4961 284.144C78.9201 288.784 72.8001 297.12 79.7361 284.136Z" fill="#1E437D"/>
<path d="M285.096 367.312C285.096 367.312 295.064 368.664 295.432 361.792C295.8 354.92 285.744 355.192 285.744 355.192L285.096 367.312Z" fill="#EE6877"/>
<path d="M215.528 351.438L214.876 363.556L285.517 367.357L286.169 355.239L215.528 351.438Z" fill="#FFC727"/>
<path d="M283.797 354.101L283.035 368.249L285.839 368.399L286.601 354.252L283.797 354.101Z" fill="#1E437D"/>
<path d="M280.687 353.927L279.925 368.075L282.737 368.226L283.499 354.079L280.687 353.927Z" fill="#1E437D"/>
<path d="M215.504 351.416L206.544 355.504L203.584 356.84L206.384 358.52L214.856 363.544L216.68 362.416L214.984 361.12L216.808 359.984L215.112 358.696L216.936 357.584C216.936 357.584 215.272 356.296 215.248 356.264L217.072 355.16L215.376 353.84L217.2 352.736L215.504 351.416Z" fill="#D3DBE7"/>
<path d="M206.544 355.504L203.584 356.84L206.384 358.52L206.544 355.504Z" fill="#1E437D"/>
<path d="M118.5 353.5L147.576 364.568" stroke="#1E437D"/>
<path d="M117.96 353.256L142.096 339L172.76 349.264L147.576 364.568L117.96 353.256Z" fill="white"/>
<path fill-rule="evenodd" clip-rule="evenodd" d="M146.04 346.992C144.465 347.931 142.971 349.001 141.576 350.192C143.269 349.496 144.902 348.662 146.456 347.696C148.032 346.757 149.525 345.686 150.92 344.496C149.226 345.187 147.593 346.022 146.04 346.992ZM138.424 355.512C140.944 353.608 143.6 351.912 146.28 350.264C148.96 348.616 151.696 347.064 154.552 345.704C152.032 347.608 149.376 349.304 146.696 350.952C144.016 352.6 141.272 354.112 138.424 355.512ZM143.904 355.16C142.36 356.168 140.832 357.184 139.352 358.28C140.714 357.615 142.028 356.886 143.346 356.154L143.346 356.154L143.346 356.153C143.63 355.996 143.915 355.838 144.2 355.68C145.808 354.792 147.392 353.856 148.96 352.896C150.528 351.936 152.088 350.976 153.624 349.96L155.92 348.432C156.196 348.236 156.472 348.043 156.749 347.85C157.227 347.516 157.705 347.182 158.176 346.832C157.57 347.115 156.991 347.423 156.421 347.726L156.421 347.726C156.187 347.851 155.953 347.975 155.72 348.096L153.32 349.432C151.712 350.328 150.12 351.256 148.56 352.216C147 353.176 145.448 354.152 143.904 355.16ZM150.608 354.808C152.32 353.435 154.124 352.181 156.008 351.056C157.873 349.901 159.817 348.877 161.824 347.992C158.383 350.712 154.621 353.001 150.624 354.808H150.608ZM146.624 360.6C148.104 359.504 149.632 358.488 151.168 357.472C152.611 356.518 154.081 355.613 155.547 354.711L155.832 354.536C157.392 353.576 158.984 352.64 160.632 351.752L163.032 350.416C163.174 350.341 163.316 350.265 163.458 350.189L163.458 350.189C164.118 349.837 164.785 349.481 165.496 349.152C165.025 349.502 164.547 349.835 164.069 350.169C163.792 350.362 163.515 350.555 163.24 350.752L160.912 352.312C159.376 353.328 157.816 354.296 156.248 355.256C154.68 356.216 153.096 357.144 151.488 358.04C149.88 358.936 148.28 359.784 146.624 360.6Z" fill="#D3DBE7"/>
<path d="M67.5 364L103.984 386.464" stroke="#1E437D"/>
<path d="M67 363.752L105.128 348.856L141.92 371.04L103.984 386.464L67 363.752Z" fill="white"/>
<path fill-rule="evenodd" clip-rule="evenodd" d="M98.5123 356.048C95.5043 357.28 92.5203 358.576 89.6323 360.088C92.6519 359.184 95.5894 358.02 98.4953 356.868C98.5997 356.826 98.704 356.785 98.8083 356.744C101.816 355.552 104.8 354.264 107.688 352.744C104.56 353.648 101.52 354.816 98.5123 356.048ZM80.9121 367.568C83.4001 366.376 85.9121 365.272 88.4321 364.176C90.9521 363.08 93.4961 362.024 96.0401 360.976C98.5841 359.928 101.136 358.92 103.712 357.952L107.568 356.504C108.03 356.342 108.489 356.178 108.947 356.014C109.783 355.714 110.617 355.415 111.464 355.136C110.71 355.501 109.95 355.848 109.19 356.195L109.19 356.195C108.7 356.419 108.209 356.643 107.72 356.872L103.944 358.528C101.872 359.435 99.7846 360.3 97.6939 361.165C97.2414 361.352 96.7887 361.54 96.3361 361.728C93.7921 362.784 91.2401 363.776 88.6641 364.744C88.24 364.903 87.8156 365.063 87.391 365.224L87.391 365.224C85.237 366.037 83.0773 366.853 80.9121 367.568ZM94.7755 365.52C92.5436 366.504 90.3117 367.488 88.1118 368.56C90.3629 367.81 92.614 366.975 94.8502 366.146L95.0078 366.088C97.2958 365.24 99.5598 364.352 101.816 363.424C104.072 362.496 106.328 361.568 108.56 360.584L111.904 359.104C112.385 358.874 112.868 358.65 113.352 358.427C113.979 358.136 114.605 357.847 115.224 357.544C114.225 357.879 113.244 358.22 112.261 358.562L112.261 358.562L112.26 358.562L111.76 358.736L108.328 360.008C106.04 360.864 103.776 361.752 101.52 362.68C99.2638 363.608 97.0078 364.536 94.7758 365.52L94.7755 365.52ZM88.416 372.36C90.896 371.168 93.416 370.064 95.936 368.968C98.2571 367.958 100.592 366.989 102.934 366.018L103.536 365.768C106.08 364.712 108.64 363.72 111.208 362.752L115.072 361.304C115.54 361.139 116.006 360.97 116.473 360.802C117.3 360.503 118.127 360.204 118.96 359.928C118.096 360.348 117.217 360.749 116.339 361.15L116.339 361.15C115.964 361.321 115.589 361.492 115.216 361.664L111.44 363.32C109.304 364.256 107.156 365.146 105.001 366.038C104.615 366.199 104.227 366.359 103.84 366.52C101.296 367.576 98.736 368.568 96.168 369.536C95.7143 369.707 95.2603 369.879 94.8059 370.051L94.8057 370.052L94.8055 370.052L94.8053 370.052L94.8053 370.052C92.6883 370.855 90.563 371.662 88.416 372.36ZM104 369.616C101.96 370.512 99.9201 371.424 97.9121 372.424C99.1997 372.008 100.476 371.524 101.747 371.042L101.747 371.042L101.747 371.042L101.747 371.042L101.747 371.042L101.747 371.042C102.577 370.727 103.404 370.414 104.232 370.12C106.328 369.376 108.408 368.576 110.472 367.72L110.902 367.542C112.821 366.746 114.734 365.953 116.632 365.112L119.72 363.776C120.056 363.616 120.393 363.459 120.73 363.301C121.404 362.987 122.077 362.672 122.744 362.336C122.008 362.563 121.29 362.813 120.573 363.062L120.573 363.062C120.23 363.181 119.888 363.3 119.544 363.416L116.408 364.568C114.312 365.344 112.232 366.16 110.168 367.008C108.104 367.856 106.04 368.72 104 369.616ZM99.688 375.624C101.856 374.568 104.064 373.584 106.272 372.616C108.48 371.648 110.704 370.728 112.936 369.808C115.168 368.888 117.408 368.008 119.664 367.168L123.056 365.912C123.454 365.775 123.851 365.637 124.247 365.498L124.247 365.498L124.248 365.498L124.248 365.498L124.248 365.498L124.248 365.498L124.248 365.498C124.989 365.239 125.729 364.981 126.48 364.736C125.775 365.086 125.059 365.415 124.344 365.745L124.344 365.745L124.344 365.745L124.344 365.745L124.344 365.745L124.344 365.745L124.344 365.745C123.964 365.92 123.585 366.094 123.208 366.272L119.896 367.744C117.697 368.711 115.466 369.631 113.235 370.551L113.235 370.551L113.235 370.551L113.234 370.551L113.234 370.551L113.234 370.551L113.232 370.552C111 371.472 108.76 372.344 106.504 373.184L106.202 373.296L106.202 373.296C104.046 374.099 101.882 374.905 99.688 375.624ZM121.576 370.216C118.744 371.384 115.936 372.608 113.216 374.048C116.176 373.184 119.048 372.128 121.88 370.96C124.712 369.792 127.52 368.576 130.24 367.128C127.28 367.992 124.408 369.048 121.576 370.216ZM110.968 378.528C108.448 379.624 105.928 380.728 103.448 381.912C106.056 381.064 108.664 380.112 111.24 379.144C113.816 378.176 116.368 377.176 118.912 376.12L119.794 375.754C122.043 374.821 124.29 373.889 126.512 372.92L130.256 371.224C130.745 370.995 131.236 370.771 131.726 370.547C132.486 370.2 133.246 369.853 134 369.488C133.111 369.781 132.232 370.096 131.354 370.41L131.354 370.41C130.938 370.56 130.521 370.709 130.104 370.856L126.24 372.304C123.672 373.272 121.104 374.28 118.568 375.328C116.032 376.376 113.488 377.432 110.968 378.528Z" fill="#D3DBE7"/>
</svg>
