<svg width="400" height="400" viewBox="0 0 400 400" fill="none" xmlns="http://www.w3.org/2000/svg">
<path d="M332.644 65.2263C348.133 94.6624 346.491 133.577 355.123 167.513C363.756 201.45 382.663 230.407 387.296 263.047C392.157 295.734 382.562 331.829 355.85 344.065C329.413 356.122 285.859 344.318 253.413 340.713C220.92 337.335 199.581 341.928 169.48 349.919C139.15 357.864 100.152 368.753 68.423 359.384C36.4198 350.195 11.78 320.294 10.558 288.356C9.33613 256.419 31.6259 221.991 41.7156 186.943C52.0326 151.942 50.3769 116.368 68.0134 98.7163C85.603 81.2918 122.485 81.7901 156.267 67.4625C189.775 53.3148 220.458 24.1613 252.224 19.5866C283.943 15.2388 316.973 35.5166 332.644 65.2263Z" fill="#C8DEFE" fill-opacity="0.2"/>
<path d="M4 359.44L36.13 359.2L88.26 359.11L192.51 358.95L296.76 359.11L348.89 359.2L395.02 359.44L348.89 359.69L296.76 359.78L192.51 359.94L88.26 359.78L36.13 359.69L4 359.44Z" fill="#1E437D"/>
<path d="M276.868 67H142.16C140.354 67.0167 138.569 67.3889 136.907 68.0955C135.245 68.8021 133.738 69.8292 132.473 71.1181C131.207 72.407 130.208 73.9325 129.533 75.6076C128.857 77.2826 128.518 79.0743 128.535 80.8803V358.168C128.503 361.815 129.92 365.326 132.475 367.928C135.03 370.531 138.513 372.013 142.16 372.049H276.868C280.516 372.013 284.001 370.532 286.559 367.929C289.116 365.327 290.537 361.817 290.509 358.168V80.8803C290.539 77.2313 289.119 73.7198 286.561 71.1171C284.003 68.5145 280.517 67.0337 276.868 67ZM281.983 349.603C281.983 356.902 276.517 362.806 269.776 362.806H149.268C142.511 362.806 137.045 356.902 137.045 349.603V91.3902C137.045 76.5218 142.511 75.7967 149.268 75.7967H173.411C174.813 75.7967 175.961 77.3903 175.961 79.3664V80.219C175.961 84.8484 178.494 84.8644 181.602 84.8644H237.41C240.55 84.8644 243.068 84.8644 243.068 80.219V79.3664C243.068 77.3903 244.199 75.7967 245.625 75.7967H269.76C276.501 75.7967 281.968 77.7728 281.968 91.3902L281.983 349.603Z" fill="#D3DBE7"/>
<path d="M281.984 91.3901V349.603C281.984 356.901 276.518 362.806 269.777 362.806H149.268C142.511 362.806 137.045 356.901 137.045 349.603V91.3901C137.045 76.5217 142.511 75.7966 149.268 75.7966H173.411C174.813 75.7966 175.961 77.3902 175.961 79.3663V80.2189C175.961 84.8483 178.495 84.8643 181.602 84.8643H237.41C240.55 84.8643 243.068 84.8643 243.068 80.2189V79.3663C243.068 77.3902 244.199 75.7966 245.626 75.7966H269.761C276.518 75.7966 281.984 77.7727 281.984 91.3901Z" fill="white"/>
<path d="M281.984 91.3901V120.466H137.013V91.3901C137.013 76.5217 142.479 75.7966 149.236 75.7966H173.379C174.782 75.7966 175.929 77.3902 175.929 79.3663V80.2189C175.929 84.8483 178.463 84.8643 181.571 84.8643H237.411C240.55 84.8643 243.068 84.8643 243.068 80.2189V79.3663C243.068 77.3902 244.2 75.7966 245.626 75.7966H269.761C276.518 75.7966 281.984 77.7727 281.984 91.3901Z" fill="#6AA6DA"/>
<path d="M169.243 81.5895L169.012 81.8206C168.965 81.8206 168.925 81.9083 168.877 81.9561C168.28 81.3625 167.472 81.0293 166.63 81.0293C165.788 81.0293 164.98 81.3625 164.383 81.9561L164.255 81.8206L164.024 81.5895L164.319 81.3346C164.528 81.1602 164.759 81.013 165.004 80.8963C165.289 80.7529 165.592 80.6509 165.905 80.5935C166.056 80.5935 166.208 80.5935 166.359 80.5298C166.51 80.4661 166.742 80.5298 166.757 80.5298H167.06C167.333 80.5655 167.6 80.6324 167.857 80.729C168.053 80.8003 168.242 80.8883 168.423 80.9919C168.61 81.103 168.789 81.2282 168.957 81.3664L169.204 81.5895H169.243Z" fill="white"/>
<path d="M165.117 82.6971C164.998 82.5696 164.878 82.4501 164.75 82.3305C164.996 82.0831 165.289 81.8868 165.611 81.7528C165.933 81.6188 166.278 81.5498 166.627 81.5498C166.976 81.5498 167.321 81.6188 167.643 81.7528C167.965 81.8868 168.258 82.0831 168.503 82.3305L168.137 82.6971C167.941 82.4975 167.706 82.3395 167.447 82.2327C167.189 82.1259 166.911 82.0725 166.631 82.0756C166.35 82.0737 166.071 82.1276 165.812 82.2343C165.552 82.341 165.316 82.4983 165.117 82.6971Z" fill="white"/>
<path d="M167.77 83.0637L167.403 83.4302C167.197 83.2268 166.92 83.1128 166.63 83.1128C166.341 83.1128 166.063 83.2268 165.857 83.4302L165.491 83.0637C165.639 82.9119 165.817 82.7913 166.012 82.709C166.208 82.6266 166.418 82.5842 166.63 82.5842C166.843 82.5842 167.053 82.6266 167.248 82.709C167.444 82.7913 167.621 82.9119 167.77 83.0637Z" fill="white"/>
<path d="M166.957 83.7649C166.957 83.8516 166.922 83.9347 166.861 83.9959C166.8 84.0572 166.717 84.0916 166.63 84.0916C166.582 84.099 166.533 84.096 166.487 84.0828C166.441 84.0696 166.398 84.0465 166.361 84.0151C166.324 83.9837 166.295 83.9447 166.274 83.9008C166.254 83.857 166.244 83.8092 166.244 83.7609C166.244 83.7126 166.254 83.6649 166.274 83.621C166.295 83.5771 166.324 83.5382 166.361 83.5067C166.398 83.4753 166.441 83.4522 166.487 83.439C166.533 83.4258 166.582 83.4228 166.63 83.4303C166.674 83.4302 166.717 83.439 166.757 83.4559C166.797 83.4728 166.833 83.4976 166.864 83.5287C166.894 83.5599 166.918 83.5969 166.934 83.6374C166.95 83.678 166.958 83.7213 166.957 83.7649Z" fill="white"/>
<path d="M146.494 82.2986C146.494 82.1079 146.551 81.9215 146.657 81.763C146.763 81.6044 146.913 81.4808 147.09 81.4079C147.266 81.3349 147.46 81.3158 147.647 81.353C147.834 81.3902 148.005 81.482 148.14 81.6169C148.275 81.7517 148.367 81.9235 148.404 82.1105C148.441 82.2975 148.422 82.4914 148.349 82.6676C148.276 82.8437 148.153 82.9943 147.994 83.1003C147.836 83.2062 147.649 83.2627 147.459 83.2627C147.203 83.2627 146.958 83.1612 146.777 82.9804C146.596 82.7995 146.494 82.5543 146.494 82.2986Z" fill="white"/>
<path d="M149.522 82.2986C149.522 82.1079 149.579 81.9215 149.685 81.763C149.791 81.6044 149.941 81.4808 150.117 81.4079C150.294 81.3349 150.487 81.3158 150.674 81.353C150.861 81.3902 151.033 81.482 151.168 81.6169C151.303 81.7517 151.395 81.9235 151.432 82.1105C151.469 82.2975 151.45 82.4914 151.377 82.6676C151.304 82.8437 151.181 82.9943 151.022 83.1003C150.863 83.2062 150.677 83.2627 150.486 83.2627C150.36 83.2627 150.234 83.2378 150.117 83.1894C150 83.1409 149.894 83.0699 149.805 82.9804C149.715 82.8908 149.644 82.7845 149.596 82.6676C149.547 82.5506 149.522 82.4252 149.522 82.2986Z" fill="white"/>
<path d="M152.551 82.2986C152.551 82.1075 152.608 81.9208 152.714 81.7621C152.82 81.6034 152.971 81.4798 153.148 81.4071C153.325 81.3344 153.519 81.3157 153.706 81.3536C153.893 81.3914 154.065 81.4841 154.2 81.6197C154.334 81.7553 154.425 81.9279 154.462 82.1154C154.498 82.303 154.478 82.4971 154.404 82.6731C154.329 82.8491 154.205 82.9991 154.045 83.1041C153.885 83.2091 153.698 83.2643 153.507 83.2627C153.381 83.2627 153.256 83.2377 153.139 83.1892C153.023 83.1406 152.917 83.0695 152.828 82.9798C152.739 82.8902 152.669 82.7839 152.621 82.6669C152.574 82.55 152.55 82.4248 152.551 82.2986Z" fill="white"/>
<path d="M155.578 82.2986C155.578 82.1075 155.635 81.9208 155.741 81.7621C155.847 81.6034 155.998 81.4798 156.175 81.4071C156.352 81.3344 156.546 81.3157 156.733 81.3536C156.92 81.3914 157.092 81.4841 157.227 81.6197C157.361 81.7553 157.452 81.9279 157.489 82.1154C157.525 82.303 157.505 82.4971 157.43 82.6731C157.356 82.8491 157.231 82.9991 157.072 83.1041C156.912 83.2091 156.725 83.2643 156.534 83.2627C156.408 83.2627 156.283 83.2377 156.166 83.1892C156.05 83.1406 155.944 83.0695 155.855 82.9798C155.766 82.8902 155.696 82.7839 155.648 82.6669C155.601 82.55 155.577 82.4248 155.578 82.2986Z" fill="white"/>
<path d="M158.598 82.2986C158.598 82.1079 158.655 81.9215 158.761 81.763C158.866 81.6044 159.017 81.4808 159.193 81.4079C159.369 81.3349 159.563 81.3158 159.75 81.353C159.937 81.3902 160.109 81.482 160.244 81.6169C160.379 81.7517 160.471 81.9235 160.508 82.1105C160.545 82.2975 160.526 82.4914 160.453 82.6676C160.38 82.8437 160.256 82.9943 160.098 83.1003C159.939 83.2062 159.753 83.2627 159.562 83.2627C159.306 83.2627 159.061 83.1612 158.88 82.9804C158.7 82.7995 158.598 82.5543 158.598 82.2986Z" fill="white"/>
<path d="M271.115 84.3943H263.29V80.7927H271.115V84.3943ZM263.704 83.9799H270.732V81.1752H263.704V83.9799Z" fill="white"/>
<path d="M268.987 81.3904H263.943V83.7808H268.987V81.3904Z" fill="white"/>
<path d="M271.808 81.6213H271.115V83.5576H271.808V81.6213Z" fill="white"/>
<path d="M150.256 112.306L145.977 108.291L150.256 104.275L150.925 104.984L147.395 108.291L150.925 111.597L150.256 112.306Z" fill="white"/>
<path d="M268.789 104.275L273.068 108.291L268.789 112.306L268.12 111.597L271.649 108.291L268.12 104.984L268.789 104.275Z" fill="white"/>
<path d="M186.51 111.907H189.312C190.786 111.907 191.57 111.108 191.57 110.024C191.57 109.016 190.875 108.407 190.129 108.37V108.304C190.811 108.144 191.314 107.642 191.314 106.84C191.314 105.818 190.584 105.093 189.136 105.093H186.51V111.907ZM187.897 110.729V108.919H189.059C189.725 108.919 190.139 109.318 190.139 109.881C190.139 110.393 189.802 110.729 189.027 110.729H187.897ZM187.897 107.944V106.258H188.95C189.565 106.258 189.914 106.587 189.914 107.079C189.914 107.618 189.492 107.944 188.925 107.944H187.897Z" fill="white"/>
<path d="M194.505 111.907L194.992 110.353H197.359L197.846 111.907H199.332L197.071 105.093H195.284L193.019 111.907H194.505ZM195.344 109.229L196.151 106.65H196.203L197.01 109.229H195.344Z" fill="white"/>
<path d="M201.023 111.907H205.222V110.719H202.41V105.093H201.023V111.907Z" fill="white"/>
<path d="M208.341 111.907L208.827 110.353H211.194L211.681 111.907H213.167L210.906 105.093H209.119L206.854 111.907H208.341ZM209.18 109.229L209.987 106.65H210.038L210.845 109.229H209.18Z" fill="white"/>
<path d="M220.345 105.093H218.965V109.378H218.907L216.076 105.093H214.859V111.907H216.246V107.618H216.294L219.147 111.907H220.345V105.093Z" fill="white"/>
<path d="M228.181 107.479C227.998 105.905 226.851 105 225.333 105C223.6 105 222.278 106.271 222.278 108.5C222.278 110.722 223.578 112 225.333 112C227.015 112 228.03 110.839 228.181 109.585L226.778 109.578C226.646 110.307 226.096 110.726 225.356 110.726C224.36 110.726 223.684 109.957 223.684 108.5C223.684 107.083 224.35 106.274 225.365 106.274C226.124 106.274 226.672 106.73 226.778 107.479H228.181Z" fill="white"/>
<path d="M230.077 111.907H234.51V110.719H231.464V109.092H234.27V107.904H231.464V106.281H234.497V105.093H230.077V111.907Z" fill="white"/>
<path d="M217.131 79.0797H201.904C201.781 79.0797 201.658 79.0554 201.544 79.0081C201.43 78.9609 201.327 78.8916 201.239 78.8043C201.152 78.717 201.083 78.6133 201.036 78.4993C200.988 78.3852 200.964 78.2629 200.964 78.1394C200.964 78.016 200.988 77.8937 201.036 77.7796C201.083 77.6656 201.152 77.5619 201.239 77.4746C201.327 77.3873 201.43 77.318 201.544 77.2708C201.658 77.2235 201.781 77.1992 201.904 77.1992H217.131C217.255 77.1992 217.377 77.2235 217.491 77.2708C217.605 77.318 217.709 77.3873 217.796 77.4746C217.883 77.5619 217.953 77.6656 218 77.7796C218.047 77.8937 218.071 78.016 218.071 78.1394C218.071 78.2629 218.047 78.3852 218 78.4993C217.953 78.6133 217.883 78.717 217.796 78.8043C217.709 78.8916 217.605 78.9609 217.491 79.0081C217.377 79.0554 217.255 79.0797 217.131 79.0797Z" fill="white"/>
<path d="M262.112 230.015H156.934V244.357H262.112V230.015Z" fill="#D3DBE7" fill-opacity="0.5"/>
<path d="M164.105 238.779C164.985 238.779 165.699 238.066 165.699 237.186C165.699 236.306 164.985 235.592 164.105 235.592C163.225 235.592 162.511 236.306 162.511 237.186C162.511 238.066 163.225 238.779 164.105 238.779Z" fill="#D3DBE7"/>
<path d="M169.684 238.779C170.564 238.779 171.277 238.066 171.277 237.186C171.277 236.306 170.564 235.592 169.684 235.592C168.804 235.592 168.09 236.306 168.09 237.186C168.09 238.066 168.804 238.779 169.684 238.779Z" fill="#D3DBE7"/>
<path d="M176.854 237.186C176.854 238.066 176.141 238.779 175.261 238.779C174.38 238.779 173.667 238.066 173.667 237.186C173.667 236.306 174.38 235.592 175.261 235.592C176.141 235.592 176.854 236.306 176.854 237.186Z" fill="#D3DBE7"/>
<path d="M180.838 238.779C181.718 238.779 182.432 238.066 182.432 237.186C182.432 236.306 181.718 235.592 180.838 235.592C179.958 235.592 179.245 236.306 179.245 237.186C179.245 238.066 179.958 238.779 180.838 238.779Z" fill="#D3DBE7"/>
<path d="M213.507 238.779C214.387 238.779 215.101 238.066 215.101 237.186C215.101 236.306 214.387 235.592 213.507 235.592C212.627 235.592 211.914 236.306 211.914 237.186C211.914 238.066 212.627 238.779 213.507 238.779Z" fill="#D3DBE7"/>
<path d="M219.085 238.779C219.965 238.779 220.679 238.066 220.679 237.186C220.679 236.306 219.965 235.592 219.085 235.592C218.205 235.592 217.492 236.306 217.492 237.186C217.492 238.066 218.205 238.779 219.085 238.779Z" fill="#D3DBE7"/>
<path d="M226.256 237.186C226.256 238.066 225.542 238.779 224.662 238.779C223.782 238.779 223.068 238.066 223.068 237.186C223.068 236.306 223.782 235.592 224.662 235.592C225.542 235.592 226.256 236.306 226.256 237.186Z" fill="#D3DBE7"/>
<path d="M230.241 238.779C231.121 238.779 231.834 238.066 231.834 237.186C231.834 236.306 231.121 235.592 230.241 235.592C229.361 235.592 228.647 236.306 228.647 237.186C228.647 238.066 229.361 238.779 230.241 238.779Z" fill="#D3DBE7"/>
<path d="M188.806 238.779C189.686 238.779 190.399 238.066 190.399 237.186C190.399 236.306 189.686 235.592 188.806 235.592C187.926 235.592 187.212 236.306 187.212 237.186C187.212 238.066 187.926 238.779 188.806 238.779Z" fill="#D3DBE7"/>
<path d="M194.382 238.779C195.262 238.779 195.976 238.066 195.976 237.186C195.976 236.306 195.262 235.592 194.382 235.592C193.502 235.592 192.789 236.306 192.789 237.186C192.789 238.066 193.502 238.779 194.382 238.779Z" fill="#D3DBE7"/>
<path d="M201.554 237.186C201.554 238.066 200.841 238.779 199.961 238.779C199.081 238.779 198.367 238.066 198.367 237.186C198.367 236.306 199.081 235.592 199.961 235.592C200.841 235.592 201.554 236.306 201.554 237.186Z" fill="#D3DBE7"/>
<path d="M205.539 238.779C206.419 238.779 207.132 238.066 207.132 237.186C207.132 236.306 206.419 235.592 205.539 235.592C204.658 235.592 203.945 236.306 203.945 237.186C203.945 238.066 204.658 238.779 205.539 238.779Z" fill="#D3DBE7"/>
<path d="M238.207 238.779C239.087 238.779 239.801 238.066 239.801 237.186C239.801 236.306 239.087 235.592 238.207 235.592C237.327 235.592 236.613 236.306 236.613 237.186C236.613 238.066 237.327 238.779 238.207 238.779Z" fill="#D3DBE7"/>
<path d="M243.785 238.779C244.665 238.779 245.378 238.066 245.378 237.186C245.378 236.306 244.665 235.592 243.785 235.592C242.905 235.592 242.191 236.306 242.191 237.186C242.191 238.066 242.905 238.779 243.785 238.779Z" fill="#D3DBE7"/>
<path d="M250.956 237.186C250.956 238.066 250.243 238.779 249.362 238.779C248.482 238.779 247.769 238.066 247.769 237.186C247.769 236.306 248.482 235.592 249.362 235.592C250.243 235.592 250.956 236.306 250.956 237.186Z" fill="#D3DBE7"/>
<path d="M254.941 238.779C255.821 238.779 256.535 238.066 256.535 237.186C256.535 236.306 255.821 235.592 254.941 235.592C254.061 235.592 253.347 236.306 253.347 237.186C253.347 238.066 254.061 238.779 254.941 238.779Z" fill="#D3DBE7"/>
<path d="M262.112 252.325H218.287V266.668H262.112V252.325Z" fill="#D3DBE7" fill-opacity="0.5"/>
<path d="M232.63 259.496C232.63 260.376 231.916 261.09 231.036 261.09C230.156 261.09 229.442 260.376 229.442 259.496C229.442 258.616 230.156 257.903 231.036 257.903C231.916 257.903 232.63 258.616 232.63 259.496Z" fill="#D3DBE7"/>
<path d="M227.052 259.496C227.052 260.376 226.339 261.09 225.459 261.09C224.579 261.09 223.865 260.376 223.865 259.496C223.865 258.616 224.579 257.903 225.459 257.903C226.339 257.903 227.052 258.616 227.052 259.496Z" fill="#D3DBE7"/>
<path d="M236.613 261.09C237.493 261.09 238.206 260.376 238.206 259.496C238.206 258.616 237.493 257.903 236.613 257.903C235.733 257.903 235.019 258.616 235.019 259.496C235.019 260.376 235.733 261.09 236.613 261.09Z" fill="#D3DBE7"/>
<path d="M212.71 252.325H156.934V266.668H212.71V252.325Z" fill="#D3DBE7" fill-opacity="0.5"/>
<path d="M169.684 261.09C170.564 261.09 171.277 260.376 171.277 259.496C171.277 258.616 170.564 257.903 169.684 257.903C168.804 257.903 168.09 258.616 168.09 259.496C168.09 260.376 168.804 261.09 169.684 261.09Z" fill="#D3DBE7"/>
<path d="M164.105 261.09C164.985 261.09 165.699 260.376 165.699 259.496C165.699 258.616 164.985 257.903 164.105 257.903C163.225 257.903 162.511 258.616 162.511 259.496C162.511 260.376 163.225 261.09 164.105 261.09Z" fill="#D3DBE7"/>
<path d="M189.603 261.09C190.483 261.09 191.196 260.376 191.196 259.496C191.196 258.616 190.483 257.903 189.603 257.903C188.723 257.903 188.009 258.616 188.009 259.496C188.009 260.376 188.723 261.09 189.603 261.09Z" fill="#D3DBE7"/>
<path d="M184.025 261.09C184.905 261.09 185.618 260.376 185.618 259.496C185.618 258.616 184.905 257.903 184.025 257.903C183.145 257.903 182.431 258.616 182.431 259.496C182.431 260.376 183.145 261.09 184.025 261.09Z" fill="#D3DBE7"/>
<path d="M175.308 261.978L177.504 256.622C177.528 256.561 177.564 256.505 177.609 256.458C177.655 256.411 177.708 256.374 177.768 256.348C177.827 256.323 177.89 256.309 177.955 256.309C178.019 256.309 178.083 256.321 178.142 256.346C178.202 256.371 178.256 256.408 178.302 256.455C178.347 256.501 178.384 256.556 178.409 256.617C178.434 256.678 178.447 256.744 178.447 256.81C178.447 256.876 178.435 256.941 178.411 257.003L176.214 262.372C176.176 262.464 176.112 262.542 176.03 262.596C175.948 262.65 175.852 262.677 175.755 262.674C175.695 262.686 175.635 262.686 175.576 262.674C175.512 262.649 175.454 262.61 175.406 262.56C175.358 262.511 175.32 262.451 175.295 262.386C175.27 262.321 175.258 262.251 175.26 262.181C175.262 262.111 175.278 262.042 175.308 261.978Z" fill="#D3DBE7"/>
<path d="M156.693 214.377L169.896 214.281L183.099 214.249L209.514 214.178L235.928 214.241L249.131 214.281L262.334 214.377L249.131 214.473L235.928 214.512L209.514 214.576L183.099 214.512L169.896 214.473L156.693 214.377Z" fill="#EBEBEB"/>
<path d="M156.693 282.616L169.896 282.52L183.099 282.48L209.514 282.417L235.928 282.48L249.131 282.52L262.334 282.616L249.131 282.711L235.928 282.751L209.514 282.815L183.099 282.751L169.896 282.711L156.693 282.616Z" fill="#EBEBEB"/>
<path d="M248 298H172C171.448 298 171 298.448 171 299V313C171 313.552 171.448 314 172 314H248C248.552 314 249 313.552 249 313V299C249 298.448 248.552 298 248 298Z" fill="#6AA6DA"/>
<path d="M189.284 308.917L189.704 307.586H191.749L192.169 308.917H193.453L191.5 303.08H189.956L188 308.917H189.284ZM190.008 306.623L190.706 304.414H190.75L191.447 306.623H190.008Z" fill="white"/>
<path d="M197.117 308.917C198.843 308.917 199.889 307.817 199.889 305.993C199.889 304.174 198.843 303.08 197.134 303.08H195.109V308.917H197.117ZM196.306 307.86V304.137H197.07C198.132 304.137 198.694 304.696 198.694 305.993C198.694 307.295 198.132 307.86 197.067 307.86H196.306Z" fill="white"/>
<path d="M203.759 308.917C205.485 308.917 206.531 307.817 206.531 305.993C206.531 304.174 205.485 303.08 203.775 303.08H201.75V308.917H203.759ZM202.948 307.86V304.137H203.712C204.774 304.137 205.336 304.696 205.336 305.993C205.336 307.295 204.774 307.86 203.709 307.86H202.948Z" fill="white"/>
<path d="M211.169 308.917H212.367V306.506H214.671V305.488H212.367V304.097H214.92V303.08H211.169V308.917Z" fill="white"/>
<path d="M220.199 303.08V306.765C220.199 307.432 219.746 307.914 219.048 307.914C218.354 307.914 217.898 307.432 217.898 306.765V303.08H216.7V306.871C216.7 308.148 217.635 309 219.048 309C220.457 309 221.397 308.148 221.397 306.871V303.08H220.199Z" fill="white"/>
<path d="M228.096 303.08H226.903V306.751H226.853L224.408 303.08H223.357V308.917H224.555V305.243H224.596L227.061 308.917H228.096V303.08Z" fill="white"/>
<path d="M232.068 308.917C233.794 308.917 234.84 307.817 234.84 305.993C234.84 304.174 233.794 303.08 232.084 303.08H230.059V308.917H232.068ZM231.257 307.86V304.137H232.021C233.083 304.137 233.645 304.696 233.645 305.993C233.645 307.295 233.083 307.86 232.018 307.86H231.257Z" fill="white"/>
<path d="M239.774 304.759H240.923C240.906 303.718 240.076 303 238.814 303C237.572 303 236.662 303.707 236.668 304.767C236.665 305.628 237.254 306.121 238.211 306.358L238.828 306.517C239.445 306.671 239.788 306.854 239.791 307.247C239.788 307.675 239.395 307.965 238.787 307.965C238.164 307.965 237.716 307.669 237.677 307.085H236.518C236.549 308.347 237.426 309 238.801 309C240.184 309 240.997 308.319 241 307.25C240.997 306.278 240.286 305.762 239.301 305.534L238.792 305.409C238.3 305.292 237.888 305.104 237.896 304.685C237.896 304.308 238.22 304.032 238.806 304.032C239.379 304.032 239.73 304.3 239.774 304.759Z" fill="white"/>
<path fill-rule="evenodd" clip-rule="evenodd" d="M179.576 305.771C179.584 304.69 179.701 303 181.449 303C183.196 303 183.203 304.69 183.196 305.771H183.781V309.374H179V305.771H179.576ZM182.518 305.771C182.495 304.224 182.214 303.693 181.449 303.693C180.682 303.693 180.286 304.2 180.253 305.771H182.518Z" fill="white"/>
<path d="M245.583 161.834C253.545 161.834 260 155.379 260 147.417C260 139.455 253.545 133 245.583 133C237.621 133 231.166 139.455 231.166 147.417C231.166 155.379 237.621 161.834 245.583 161.834Z" fill="#FFC727"/>
<path d="M176.417 198.846C184.379 198.846 190.834 192.391 190.834 184.429C190.834 176.467 184.379 170.012 176.417 170.012C168.455 170.012 162 176.467 162 184.429C162 192.391 168.455 198.846 176.417 198.846Z" fill="#D3DBE7"/>
<path d="M247.233 145.73L247.342 185.372C247.344 185.897 247.243 186.418 247.043 186.904C246.844 187.39 246.55 187.832 246.18 188.205C245.809 188.577 245.368 188.872 244.883 189.074C244.398 189.276 243.878 189.38 243.352 189.38L180.48 189.543C179.954 189.545 179.432 189.444 178.945 189.245C178.458 189.045 178.015 188.752 177.641 188.382C177.267 188.011 176.97 187.571 176.767 187.085C176.563 186.6 176.457 186.079 176.455 185.553L176.364 145.912C176.349 145.418 176.435 144.927 176.616 144.469C176.797 144.01 177.07 143.593 177.418 143.243C177.766 142.894 178.182 142.619 178.64 142.435C179.098 142.251 179.588 142.163 180.081 142.176L243.552 142.013C244.04 142.005 244.525 142.096 244.978 142.281C245.43 142.466 245.84 142.74 246.184 143.087C246.528 143.434 246.798 143.847 246.978 144.302C247.159 144.756 247.245 145.242 247.233 145.73Z" fill="#475569"/>
<path d="M237.114 179.805C237.114 180.522 236.902 181.223 236.503 181.82C236.105 182.416 235.538 182.881 234.875 183.156C234.213 183.43 233.483 183.502 232.78 183.362C232.076 183.222 231.43 182.877 230.923 182.369C230.416 181.862 230.07 181.216 229.93 180.512C229.79 179.809 229.862 179.08 230.137 178.417C230.411 177.754 230.876 177.188 231.473 176.789C232.069 176.391 232.77 176.178 233.488 176.178C234.449 176.178 235.372 176.56 236.052 177.24C236.732 177.92 237.114 178.843 237.114 179.805Z" fill="white"/>
<path d="M241.665 179.787C241.665 180.504 241.453 181.205 241.054 181.802C240.656 182.398 240.089 182.863 239.426 183.137C238.764 183.412 238.034 183.484 237.331 183.344C236.627 183.204 235.981 182.858 235.474 182.351C234.967 181.844 234.621 181.198 234.481 180.494C234.341 179.791 234.413 179.061 234.688 178.399C234.962 177.736 235.427 177.169 236.024 176.771C236.62 176.372 237.321 176.16 238.038 176.16C239 176.16 239.923 176.542 240.603 177.222C241.283 177.902 241.665 178.825 241.665 179.787Z" fill="#FFC727"/>
<path d="M191.051 159.948H186.953C185.733 159.948 184.562 159.465 183.696 158.606C182.83 157.747 182.338 156.58 182.329 155.36C182.329 154.141 182.811 152.972 183.671 152.109C184.531 151.246 185.698 150.758 186.917 150.753H191.033C192.252 150.753 193.42 151.236 194.284 152.096C195.147 152.956 195.634 154.123 195.639 155.341C195.639 156.56 195.156 157.729 194.297 158.592C193.437 159.455 192.27 159.943 191.051 159.948Z" fill="#FFC727"/>
<path d="M239.071 155.686H233.051C232.72 155.688 232.391 155.625 232.085 155.501C231.778 155.376 231.499 155.193 231.263 154.96C231.027 154.728 230.84 154.451 230.711 154.147C230.582 153.842 230.514 153.514 230.512 153.183C230.512 152.513 230.777 151.87 231.249 151.394C231.721 150.919 232.362 150.649 233.033 150.645H239.053C239.722 150.645 240.363 150.91 240.836 151.383C241.308 151.856 241.574 152.497 241.574 153.165C241.574 153.831 241.311 154.469 240.842 154.941C240.373 155.413 239.737 155.681 239.071 155.686Z" fill="white"/>
<path d="M216.06 176.539L182.403 176.627L182.407 178.277L216.064 178.189L216.06 176.539Z" fill="white"/>
<path d="M206.242 180.228L182.414 180.29L182.418 181.94L206.246 181.878L206.242 180.228Z" fill="white"/>
<path d="M228.209 150.648L211.417 150.692L211.421 152.342L228.213 152.298L228.209 150.648Z" fill="white"/>
<path d="M270.248 83.851L269.904 83.9371C269.913 83.8974 269.934 83.8615 269.964 83.8337L270.248 83.851Z" fill="#263238"/>
<path d="M280.16 332.63H280.005V332.518L280.16 332.63Z" fill="#F7A9A0"/>
<path d="M101.511 273.565L103.552 285.819L117.399 360.573H119.629L109.563 285.819L108.073 273.565H101.511Z" fill="#DBDBDB"/>
<path d="M108.073 273.565H101.511L103.552 285.819H109.563L108.073 273.565Z" fill="#A6A6A6"/>
<path d="M58.033 360.573H60.2719L74.1101 285.819L76.1596 273.565H69.5892L68.0995 285.819L58.033 360.573Z" fill="#D3DBE7"/>
<path d="M69.5896 273.565L68.0999 285.819H74.1105L76.16 273.565H69.5896Z" fill="#D3DBE7"/>
<path d="M69.5896 273.565L68.0999 285.819H74.1105L76.16 273.565H69.5896Z" fill="#1E437D" fill-opacity="0.2"/>
<path d="M16.5098 360.573H18.7401L32.5869 285.819L34.6278 273.565H28.066L26.5763 285.819L16.5098 360.573Z" fill="#D3DBE7"/>
<path d="M26.5767 285.819H32.5873L34.6282 273.565H28.0664L26.5767 285.819Z" fill="#D3DBE7"/>
<path d="M26.5767 285.819H32.5873L34.6282 273.565H28.0664L26.5767 285.819Z" fill="#1E437D" fill-opacity="0.2"/>
<path d="M20.0493 279.317H121.498V268.631H83.5228L70.7609 212.959H23.9244L20.0493 279.317Z" fill="#D3DBE7"/>
<path d="M20.0493 279.317H25.5863L29.1858 212.959H23.9244L20.0493 279.317Z" fill="#D3DBE7"/>
<path d="M20.0493 279.317H25.5863L29.1858 212.959H23.9244L20.0493 279.317Z" fill="#1E437D" fill-opacity="0.2"/>
<path d="M180.915 342.154C179.141 343.196 124.503 354.614 122.143 353.736C121.282 353.408 119.121 345.546 116.822 335.971C116.322 333.904 115.823 331.768 115.323 329.598C112.086 315.485 108.951 300.484 108.951 300.484L145.48 292.734L150.819 322.098L151.999 328.539C151.999 328.539 174.879 333.525 177.359 334.765C179.839 336.005 182.698 341.12 180.915 342.154Z" fill="#FFAE9D"/>
<path d="M181.226 342.162C179.426 343.213 124.159 354.683 121.808 353.788C120.896 353.46 118.76 345.521 116.452 335.842C116.424 335.742 116.401 335.642 116.383 335.54L151.956 327.739L152.068 328.35C152.068 328.35 175.181 333.405 177.695 334.671C180.21 335.936 183.008 341.12 181.226 342.162Z" fill="#FFC727"/>
<path d="M180.149 340.156C170.789 341.878 133.184 349.628 124.056 352.013C123.987 352.013 123.996 352.091 124.056 352.074C133.373 350.584 170.91 342.524 180.167 340.302C180.425 340.259 180.347 340.095 180.149 340.156Z" fill="#1E437D"/>
<path d="M155.917 327.015C152.111 327.093 147.745 328.591 145.481 331.777C145.394 331.906 145.575 332.027 145.679 331.967C148.952 330.107 152.417 328.606 156.012 327.489C156.075 327.476 156.13 327.439 156.166 327.386C156.201 327.333 156.214 327.267 156.202 327.205C156.189 327.142 156.152 327.087 156.099 327.051C156.045 327.016 155.98 327.003 155.917 327.015Z" fill="#1E437D"/>
<path d="M158.897 328.04C155.082 328.117 150.716 329.607 148.46 332.793C148.374 332.922 148.546 333.043 148.658 332.983C151.931 331.122 155.396 329.621 158.991 328.505C159.044 328.484 159.087 328.445 159.114 328.395C159.141 328.346 159.15 328.288 159.138 328.233C159.127 328.177 159.097 328.128 159.053 328.092C159.008 328.057 158.953 328.039 158.897 328.04Z" fill="#1E437D"/>
<path d="M161.867 329.108C158.061 329.185 153.695 330.675 151.439 333.87C151.345 333.99 151.525 334.111 151.637 334.051C154.91 332.188 158.374 330.687 161.971 329.573C162.024 329.552 162.068 329.512 162.095 329.461C162.122 329.411 162.13 329.352 162.118 329.296C162.105 329.24 162.073 329.19 162.027 329.156C161.982 329.121 161.925 329.104 161.867 329.108Z" fill="#1E437D"/>
<path d="M159.026 318.042C157.174 316.363 154.677 317.81 153.411 319.411C151.296 322.201 149.951 325.497 149.51 328.97C149.51 329.047 149.562 329.082 149.622 329.082C149.633 329.155 149.662 329.224 149.705 329.284C149.748 329.344 149.804 329.392 149.87 329.426C149.936 329.46 150.008 329.477 150.082 329.477C150.156 329.477 150.228 329.46 150.294 329.426C153.084 327.704 156.322 326.154 158.466 323.596C159.758 322.107 160.774 319.635 159.026 318.042ZM153.988 325.904C152.636 326.765 151.241 327.626 149.924 328.565C150.69 326.705 151.371 324.819 152.326 323.028C152.774 322.164 153.277 321.33 153.833 320.531C154.694 319.317 158.604 316.311 158.785 320.462C158.897 322.753 155.599 324.845 153.988 325.904Z" fill="#1E437D"/>
<path d="M139.995 329.952C143.285 330.606 146.738 329.822 150.019 329.469C150.09 329.454 150.156 329.422 150.213 329.377C150.269 329.331 150.315 329.274 150.346 329.208C150.376 329.142 150.392 329.07 150.39 328.997C150.389 328.925 150.371 328.854 150.337 328.789C150.35 328.779 150.36 328.767 150.367 328.753C150.374 328.739 150.377 328.723 150.377 328.707C150.377 328.691 150.374 328.676 150.367 328.662C150.36 328.648 150.35 328.635 150.337 328.625C147.842 326.166 144.74 324.411 141.347 323.536C139.367 323.054 136.508 323.467 136.094 325.93C135.724 328.264 138.075 329.564 139.995 329.952ZM137.799 327.678C135.371 324.303 140.279 324.234 141.726 324.673C142.661 324.956 143.576 325.301 144.464 325.706C146.283 326.569 148.056 327.523 149.778 328.565C148.159 328.643 146.557 328.858 144.938 328.987C143.009 329.151 139.134 329.547 137.799 327.678Z" fill="#1E437D"/>
<path d="M131.969 368.392C129.989 368.943 74.2742 366.059 72.1903 364.612C71.7425 364.293 72.2505 356.801 72.8878 350.059C73.3528 345.047 85.5291 310.275 85.5291 310.275L122.833 312.092L107.514 347.846C107.514 347.846 128.361 358.498 130.445 360.332C132.529 362.166 133.924 367.841 131.969 368.392Z" fill="#FFAE9D"/>
<path d="M132.675 368.9C130.669 369.443 74.3254 366.127 72.2587 364.646C71.5439 364.147 72.0175 358.618 72.7323 349.645C72.8098 348.647 73.8001 345.004 73.8001 344.901L108.142 347.346L108.099 347.958C108.099 347.958 129.093 358.859 131.194 360.737C133.295 362.614 134.682 368.358 132.675 368.9Z" fill="#FFC727"/>
<path d="M132.202 366.679C122.729 365.886 84.3836 363.587 74.9543 363.527C74.8768 363.527 74.8682 363.579 74.9543 363.587C84.3406 364.577 122.686 366.567 132.202 366.834C132.357 366.842 132.365 366.696 132.202 366.679Z" fill="#1E437D"/>
<path d="M112.19 347.691C108.487 346.769 103.888 347.071 100.874 349.568C100.754 349.663 100.874 349.826 101.021 349.792C104.661 348.855 108.391 348.307 112.147 348.156C112.208 348.161 112.27 348.142 112.317 348.103C112.365 348.063 112.395 348.006 112.401 347.945C112.406 347.883 112.387 347.822 112.348 347.774C112.308 347.726 112.251 347.696 112.19 347.691Z" fill="#1E437D"/>
<path d="M114.79 349.473C111.096 348.552 106.489 348.853 103.475 351.35C103.354 351.445 103.475 351.609 103.621 351.574C107.261 350.638 110.991 350.089 114.747 349.938C114.808 349.944 114.87 349.925 114.917 349.885C114.965 349.846 114.995 349.789 115.001 349.727C115.006 349.665 114.987 349.604 114.948 349.556C114.908 349.509 114.851 349.479 114.79 349.473Z" fill="#1E437D"/>
<path d="M117.39 351.29C113.696 350.378 109.089 350.679 106.075 353.176C105.963 353.271 106.075 353.435 106.222 353.4C109.862 352.463 113.591 351.915 117.347 351.764C117.404 351.76 117.458 351.735 117.498 351.695C117.539 351.655 117.564 351.602 117.569 351.545C117.574 351.489 117.559 351.432 117.526 351.385C117.494 351.338 117.446 351.305 117.39 351.29Z" fill="#1E437D"/>
<path d="M117.563 339.829C116.211 337.727 113.421 338.477 111.784 339.691C109.013 341.832 106.854 344.666 105.524 347.906C105.519 347.92 105.517 347.935 105.518 347.95C105.519 347.965 105.523 347.98 105.531 347.993C105.538 348.006 105.548 348.017 105.561 348.026C105.573 348.035 105.587 348.041 105.602 348.044C105.595 348.116 105.605 348.19 105.631 348.258C105.658 348.326 105.7 348.387 105.755 348.435C105.809 348.484 105.875 348.519 105.945 348.538C106.016 348.557 106.09 348.558 106.161 348.543C109.322 347.579 112.809 346.95 115.573 345.047C117.149 343.945 118.803 341.818 117.563 339.829ZM110.674 346.115C109.132 346.623 107.582 347.053 106.058 347.622C107.23 345.985 108.486 344.41 109.821 342.903C110.476 342.183 111.178 341.507 111.922 340.879C113.093 339.941 117.623 338.046 116.727 342.102C116.168 344.341 112.447 345.503 110.613 346.123L110.674 346.115Z" fill="#1E437D"/>
<path d="M96.0345 346.365C99.0312 347.863 102.579 348.001 105.834 348.509C105.907 348.515 105.98 348.504 106.048 348.476C106.115 348.449 106.175 348.405 106.222 348.349C106.27 348.294 106.303 348.228 106.319 348.156C106.335 348.085 106.334 348.011 106.316 347.94C106.332 347.936 106.346 347.928 106.358 347.918C106.37 347.907 106.38 347.893 106.386 347.878C106.391 347.863 106.394 347.847 106.392 347.831C106.391 347.815 106.385 347.799 106.377 347.785C104.608 344.765 102.074 342.264 99.0312 340.535C97.24 339.553 94.3725 339.209 93.3305 341.482C92.2886 343.755 94.3122 345.495 96.0345 346.365ZM94.5017 343.609C93.0378 339.717 97.7912 340.957 99.0828 341.732C99.9115 342.25 100.703 342.825 101.451 343.454C103.027 344.72 104.396 346.184 105.834 347.596C104.25 347.252 102.657 347.036 101.055 346.735C99.169 346.382 95.3197 345.753 94.5189 343.609H94.5017Z" fill="#1E437D"/>
<path d="M45.125 259.847C56.2335 272.222 93.5633 262.431 95.7936 267.374C97.7655 271.679 72.2849 341.482 72.2849 341.482L113.05 345.874C113.05 345.874 148.245 268.829 135.646 246.569C128.852 234.513 98.9108 239.335 80.8445 237.14C75.3935 236.476 72.836 225.239 72.836 225.239H40.5697C40.5697 225.239 32.4235 245.699 45.125 259.847Z" fill="#A788CE"/>
<path d="M124.331 239.671L90.1015 265.867C78.7347 265.626 53.8482 269.561 45.125 259.839C32.4235 245.691 40.5697 225.23 40.5697 225.23H72.8532C72.8532 225.23 75.4366 236.468 80.8617 237.131C93.546 238.681 112.06 236.761 124.331 239.671Z" fill="#1E437D"/>
<path d="M114.609 336.78C113.49 336.427 102.915 335.248 100.581 334.998C95.914 334.49 81.2232 333.121 78.5624 333.121C78.5492 333.125 78.5378 333.134 78.5298 333.146C78.5218 333.157 78.5175 333.171 78.5175 333.185C78.5175 333.199 78.5218 333.213 78.5298 333.225C78.5378 333.236 78.5492 333.245 78.5624 333.25C80.8702 333.732 90.2478 334.826 92.5815 335.067C97.2488 335.549 113.3 337.108 114.6 336.978C114.622 336.973 114.641 336.961 114.656 336.944C114.67 336.926 114.678 336.905 114.679 336.883C114.68 336.86 114.673 336.838 114.661 336.82C114.648 336.801 114.63 336.788 114.609 336.78Z" fill="#1E437D"/>
<path d="M100.745 263.283C98.1182 261.983 78.2521 262.629 63.9918 261.294C59.3504 260.872 54.7003 259.865 51.1439 256.825C48.0514 254.036 45.8448 250.401 44.7974 246.371C43.4282 241.497 43.566 236.425 43.7985 231.43C43.8588 230.199 43.9449 228.976 44.0224 227.745C44.0224 227.676 43.9018 227.667 43.8932 227.745C42.8082 236.683 41.9815 246.689 47.7941 254.439C50.3763 257.833 54.0454 260.238 58.1879 261.251C66.7991 263.516 99.1085 262.973 100.254 263.834C101.606 264.876 80.7063 328.505 80.2929 329.719C80.2154 329.943 80.6201 330.098 80.7149 329.874C82.773 324.948 103.027 264.42 100.745 263.283Z" fill="#1E437D"/>
<path d="M137.127 248.722C135.207 243.839 130.824 240.808 124.374 239.646C124.262 239.646 124.271 239.783 124.374 239.809C130.006 241.454 134.027 243.719 136.24 248.472C137.274 250.685 137.808 253.802 138.075 257.944C139.409 278.784 121.231 326.077 120.852 326.895C120.844 326.909 120.842 326.927 120.847 326.943C120.852 326.959 120.863 326.973 120.878 326.981C120.893 326.989 120.91 326.99 120.926 326.986C120.942 326.981 120.956 326.97 120.964 326.955C123.539 322.675 145.067 268.863 137.127 248.722Z" fill="#263238"/>
<path d="M151.87 320.195L121.007 326.757C121.007 326.757 145.36 254.078 133.924 244.7C130.755 242.117 123.84 241.187 115.625 244.7C103.354 250.031 89.1455 260.872 75.7723 264.79C63.2343 268.485 48.3541 265.083 43.239 259.443C32.475 247.602 40.5695 225.23 40.5695 225.23L82.9024 223.56C82.9024 223.56 83.0918 224.102 85.2102 225.98C85.2102 225.98 112.516 220.064 123.849 226.987C144.301 239.482 151.87 320.195 151.87 320.195Z" fill="#A788CE"/>
<path d="M59.7468 227.822C59.7468 227.802 59.7386 227.782 59.7241 227.767C59.7096 227.753 59.6899 227.745 59.6693 227.745C59.6487 227.745 59.629 227.753 59.6145 227.767C59.6 227.782 59.5918 227.802 59.5918 227.822C59.6294 229.49 59.5025 231.157 59.2129 232.799C58.8644 234.358 58.0892 235.789 56.974 236.933C54.5456 239.396 51.0494 240.231 47.8633 241.238C47.6911 241.299 47.7255 241.591 47.915 241.566C51.4542 241.015 55.1742 240.119 57.7576 237.467C58.9467 236.24 59.7441 234.687 60.0482 233.006C60.3798 231.28 60.2762 229.498 59.7468 227.822Z" fill="#1E437D"/>
<path d="M133.149 243.314C128.404 240.334 120.981 242.59 117.434 243.951C117.356 243.951 117.434 244.106 117.434 244.072C120.697 242.9 128.826 241.118 133.175 244.201C143.224 251.314 129.774 299.976 120.964 326.757C120.826 327.179 121.154 327.067 121.343 326.662C122.798 323.484 134.157 289.634 137.119 267.244C137.61 263.817 139.952 247.602 133.149 243.314Z" fill="#1E437D"/>
<path d="M148.348 311.989C147.418 311.989 139.418 313.711 137.653 314.124C134.131 314.916 125.959 317.035 124.047 317.758C124.004 317.758 124.047 317.887 124.09 317.879C125.916 317.706 130.178 316.768 131.935 316.363C135.457 315.545 147.521 312.652 148.408 312.178C148.486 312.135 148.443 311.989 148.348 311.989Z" fill="#1E437D"/>
<path d="M131.633 242.048C128.438 240.326 124.641 240.016 121.093 240.455C117.353 241.015 113.722 242.151 110.329 243.822C103.104 247.12 96.2237 251.159 88.9989 254.44C81.7741 257.72 74.1359 260.261 66.2136 260.467C59.4365 260.683 50.8683 259.486 46.5111 253.398C39.8029 244.011 43.7124 227.822 43.7899 226.78C43.7899 226.703 43.6866 226.703 43.6694 226.78C38.5026 246.672 45.1591 254.397 49.6972 257.643C53.2881 260.226 58.4376 260.881 61.8477 261.165C69.727 261.828 77.6321 259.899 84.9344 256.989C92.4176 254.009 99.4443 249.996 106.618 246.328C113.506 242.806 121.153 239.18 129.007 241.161C129.887 241.386 130.751 241.674 131.59 242.022C131.65 242.143 131.676 242.065 131.633 242.048Z" fill="#1E437D"/>
<path d="M92.685 179.065C92.6932 179.158 92.6671 179.251 92.6115 179.325C92.5559 179.4 92.4748 179.451 92.3836 179.47L90.825 179.574C89.43 175.931 87.923 173.046 88.3191 174.174C88.9146 175.944 89.2426 177.793 89.2922 179.66L86.218 179.815C85.0038 173.416 83.4451 168.672 83.5399 170.136C83.936 176.043 83.5829 177.946 83.1782 179.97C75.7553 180.323 66.016 180.676 58.9634 180.77C58.1539 177.24 57.4392 173.408 57.3187 173.675C56.3542 175.673 56.0959 178.575 56.0786 180.814C53.8311 180.814 52.04 180.814 50.9119 180.727C50.9119 180.727 50.3866 177.757 50.3091 176.775C50.1083 174.262 50.374 171.734 51.0927 169.318C51.938 166.915 53.0288 164.607 54.3478 162.429V162.377C55.1544 160.919 55.7818 159.369 56.2164 157.761C56.5088 156.597 56.7018 155.41 56.7934 154.213C57.1206 149.848 59.5748 146.067 63.6824 144.905C71.4325 137.594 79.1826 140.659 81.5593 146.265C81.7832 146.808 81.9985 147.436 82.2137 148.117C83.006 150.648 83.7207 153.921 84.3838 156.452C84.6327 157.446 84.9404 158.423 85.3052 159.38C87.4235 163.935 91.8583 166.519 92.685 179.065Z" fill="#1D293F"/>
<path d="M89.9375 164.263C88.0344 161.783 86.0538 159.673 84.9343 156.599C83.9182 153.8 83.3412 150.847 82.351 148.048C82.351 148.048 82.2648 148.048 82.2821 148.048C83.8751 153.017 84.1851 158.028 87.3971 162.205C89.1194 164.469 90.8416 166.571 92.03 169.292C93.2013 172.143 93.8151 175.191 93.8383 178.273C93.8383 178.294 93.8465 178.314 93.861 178.328C93.8756 178.343 93.8953 178.351 93.9158 178.351C93.9364 178.351 93.9561 178.343 93.9706 178.328C93.9852 178.314 93.9934 178.294 93.9934 178.273C94.446 173.26 92.9984 168.259 89.9375 164.263Z" fill="#263238"/>
<path d="M115.926 157.012L106.574 179.995C106.481 180.118 106.423 180.263 106.405 180.416C106.388 180.569 106.411 180.724 106.474 180.865C106.536 181.005 106.635 181.127 106.76 181.216C106.886 181.306 107.032 181.36 107.186 181.373L119.474 183.095C119.853 183.12 120.231 183.036 120.565 182.855C120.898 182.674 121.174 182.402 121.36 182.071L130.703 159.087C130.796 158.965 130.854 158.821 130.872 158.668C130.89 158.516 130.868 158.362 130.806 158.222C130.745 158.081 130.647 157.96 130.523 157.87C130.399 157.78 130.253 157.724 130.1 157.71L117.803 155.987C117.426 155.964 117.049 156.047 116.717 156.229C116.385 156.41 116.111 156.682 115.926 157.012Z" fill="#1D293F"/>
<path d="M117.382 157.21L108.039 180.185C107.946 180.307 107.888 180.452 107.87 180.604C107.852 180.756 107.875 180.91 107.936 181.051C107.997 181.191 108.095 181.313 108.219 181.403C108.343 181.493 108.489 181.548 108.642 181.563L120.939 183.285C121.317 183.311 121.694 183.228 122.027 183.046C122.359 182.865 122.633 182.592 122.816 182.26L132.202 159.26C132.295 159.138 132.353 158.993 132.371 158.841C132.39 158.689 132.367 158.534 132.305 158.394C132.244 158.253 132.146 158.132 132.022 158.042C131.898 157.952 131.752 157.897 131.599 157.882L119.303 156.16C118.915 156.132 118.529 156.217 118.188 156.403C117.848 156.589 117.568 156.869 117.382 157.21Z" fill="#1E437D"/>
<path d="M120.602 158.769C120.538 159.026 120.379 159.25 120.158 159.397C119.936 159.543 119.668 159.6 119.406 159.558C119.144 159.516 118.907 159.377 118.743 159.169C118.578 158.96 118.498 158.698 118.518 158.433C118.569 158.16 118.724 157.917 118.95 157.756C119.177 157.595 119.458 157.529 119.732 157.572C120.006 157.616 120.251 157.767 120.414 157.991C120.577 158.215 120.644 158.495 120.602 158.769Z" fill="#D3DBE7"/>
<path d="M71.2428 187.522C75.979 203.349 88.6978 224.894 95.139 225.945C98.2046 226.444 103.578 227.994 108.133 225.084C118.079 218.694 127.629 205.071 130.385 196.865C131.366 193.946 117.752 185.274 115.229 187.392C109.339 192.353 101.795 202.695 100.917 202.497C97.6449 201.747 86.3383 189.063 78.459 180.107C68.8833 169.309 69.3397 181.21 71.2428 187.522Z" fill="#FFAE9D"/>
<path d="M133.063 181.416C132.426 175.104 131.298 173.58 133.589 167.957C135.095 164.271 133.39 161.731 130.222 164.392C125.055 168.749 124.142 177.076 124.667 180.047L133.063 181.416Z" fill="#FFAE9D"/>
<path d="M129.282 199.362C129.282 199.362 133.269 191.285 133.261 184.49C133.261 179.789 132.098 169.559 119.999 162.446C117.132 160.723 111.845 160.388 115.53 164.848C118.114 168.009 120.766 169.231 121.954 171.35C121.954 171.35 115.177 171.677 113.593 174.613C112.216 177.187 111.022 179.855 110.019 182.596C110.48 182.89 110.957 183.157 111.448 183.397C111.448 183.397 110.062 186.195 111.621 190.691L129.282 199.362Z" fill="#FFAE9D"/>
<path d="M132.538 180.004C130.91 178.144 127.371 174.278 123.436 172.107C119.027 169.696 109.882 166.243 108.142 169.524C106.859 171.918 110.235 173.546 110.235 173.546C110.235 173.546 106.153 172.917 105.473 175.337C104.853 177.541 107.539 178.643 107.539 178.643C107.539 178.643 104.956 178.686 104.801 180.925C104.577 183.621 109.968 183.087 112.069 186.023C112.543 186.669 132.538 180.004 132.538 180.004Z" fill="#FFAE9D"/>
<path d="M121.671 177.188C118.352 174.829 114.393 173.537 110.321 173.485C110.218 173.485 110.166 173.563 110.261 173.58C114.19 174.329 118.013 175.556 121.645 177.231L121.671 177.188Z" fill="#1E437D"/>
<path d="M119.104 181.571C115.598 179.541 111.608 178.496 107.557 178.549C107.453 178.549 107.41 178.635 107.505 178.652C111.467 179.207 115.353 180.212 119.087 181.649C119.087 181.649 119.13 181.58 119.104 181.571Z" fill="#1E437D"/>
<path d="M128.59 202.529C129.132 202.807 129.301 203.5 128.941 203.992C125.879 208.181 113.201 225.07 106.764 226.548C99.4103 228.235 95.3458 227.004 92.8228 226.229C91.8572 225.853 90.9889 225.265 90.2824 224.507C84.0307 218.479 74.145 198.897 70.5455 188.193C67.8502 180.15 69.2882 173.451 74.7478 176.499C76.5791 177.627 78.2114 179.05 79.5787 180.71C88.8874 191.224 99.9615 201.575 100.599 201.377C101.135 201.21 106.578 194.96 108.292 192.981C108.594 192.632 109.095 192.535 109.506 192.746L128.59 202.529Z" fill="#FFE9A9"/>
<path d="M126.002 206.906C125.27 206.346 118.252 202.307 116.667 201.463C115.083 200.619 108.805 197.106 107.135 196.365C107.12 196.362 107.105 196.363 107.092 196.368C107.078 196.374 107.067 196.384 107.059 196.396C107.051 196.409 107.048 196.423 107.049 196.438C107.05 196.452 107.056 196.466 107.066 196.477C108.573 197.511 114.928 201.076 116.486 201.963C118.045 202.85 125.098 206.699 125.959 207.017C126.019 207.043 126.045 206.949 126.002 206.906Z" fill="#1E437D"/>
<path d="M95.621 197.235C90.3606 201.036 84.7796 204.373 78.9411 207.207C77.5633 204.572 76.2371 201.877 75.0402 199.259C80.0149 196.937 84.7851 194.201 89.3004 191.078C91.6426 193.438 93.8127 195.547 95.621 197.235Z" fill="white"/>
<path d="M92.8053 226.229C92.8053 226.229 90.9715 225.265 90.265 224.507C84.0132 218.479 74.1275 198.897 70.528 188.193C68.0824 180.9 69.0383 174.717 73.3008 175.897C80.5085 184.691 92.8053 226.229 92.8053 226.229Z" fill="#1E437D"/>
<path d="M84.6724 210.26C84.5435 210.465 84.4857 210.707 84.5152 210.947L86.0629 223.576C86.1328 224.147 85.7085 224.659 85.1349 224.696L39.0505 227.68C38.3648 227.724 37.8348 227.104 38.0223 226.443C40.0324 219.357 49.7929 186.007 57.6541 177.946C63.5958 171.832 70.3556 172.486 74.5579 176.981C75.6171 178.118 86.6825 191.621 87.8795 198.208C88.7863 203.282 85.5319 208.89 84.6724 210.26Z" fill="#FFE9A9"/>
<path d="M86.5623 206.621C77.3483 207.93 58.3002 209.928 44.2036 206.742C45.5125 202.927 46.9506 198.992 48.449 195.22C61.1174 196.763 73.9421 196.473 86.5279 194.359C87.1412 195.576 87.5956 196.867 87.8798 198.199C88.4051 201.127 87.544 204.227 86.5623 206.621Z" fill="white"/>
<path d="M85.3994 218.307C84.9688 215.723 84.5899 213.14 84.2369 210.6V210.522L84.2885 210.436C85.4952 208.599 86.4319 206.598 87.07 204.494C87.3885 203.452 87.5935 202.378 87.6814 201.291C87.7967 200.212 87.7386 199.122 87.5091 198.062C87.2812 196.99 86.9495 195.943 86.5188 194.936C86.1141 193.911 85.6577 192.912 85.1238 191.931C84.0881 189.967 82.938 188.067 81.6793 186.239C83.1063 187.956 84.3854 189.791 85.5027 191.724C86.6729 193.651 87.544 195.744 88.0861 197.933C88.5433 200.179 88.3947 202.506 87.6555 204.675C86.9847 206.832 85.973 208.867 84.6588 210.703V210.539C84.9602 213.131 85.2013 215.715 85.3994 218.307Z" fill="#1E437D"/>
<path d="M84.1248 188.099C84.6539 188.872 85.0903 189.704 85.4251 190.579C85.6023 191.013 85.7491 191.459 85.8642 191.913C85.993 192.368 86.0625 192.836 86.0709 193.308C85.7351 192.447 85.3648 191.586 85.0289 190.725C84.6778 189.867 84.3759 188.991 84.1248 188.099Z" fill="#1E437D"/>
<path d="M59.0754 175.724C41.9907 184.396 22.383 203.978 23.5283 210.497C24.8113 217.747 49.362 205.485 49.1122 204.4C48.897 203.47 54.0551 195.677 61.4263 184.508C68.9267 173.15 63.3122 173.58 59.0754 175.724Z" fill="#FFE9A9"/>
<path d="M54.2529 195.427C51.9882 198.932 50.3434 201.575 49.5856 203.074C43.6764 201.16 37.9193 198.806 32.3632 196.03C34.3868 193.903 36.6688 191.724 39.1316 189.562C44.005 191.923 49.062 193.885 54.2529 195.427Z" fill="white"/>
<path d="M23.5278 210.497C25.0261 215.56 32.5868 218.953 50.8168 229.295C53.3399 230.724 68.2201 215.637 65.6023 213.975C62.3128 211.874 49.0773 204.443 48.0354 204.029C39.2949 200.473 22.5116 207.052 23.5278 210.497Z" fill="#F7A9A0"/>
<path d="M62.0028 211.788C62.0028 211.788 69.8476 215.801 73.318 219.177C76.8301 222.789 79.418 227.197 80.8614 232.024C82.4286 237.234 82.6267 250.909 78.7 251.65C75.1435 252.33 75.643 238.337 75.643 238.337C75.643 238.337 77.4858 252.683 73.0596 252.709C68.6334 252.735 70.1404 236.528 70.1404 236.528C70.1404 236.528 71.6991 251.314 67.1265 250.616C63.682 250.082 64.2073 235.331 64.2073 235.331C64.2073 235.331 65.4645 248.05 61.8822 247.654C57.9297 247.223 57.5766 233.575 57.5766 233.575C48.6726 231.043 45.4176 226.195 43.5059 222.466C43.0839 221.562 62.0028 211.788 62.0028 211.788Z" fill="#FFAE9D"/>
<path d="M75.368 233.316C75.6522 234.995 75.9449 236.692 76.0655 238.388C76.1861 240.085 76.2636 241.833 76.2291 243.486C76.232 245.709 75.9806 247.925 75.4799 250.091C76.0913 246.181 75.7297 240.102 75.6005 238.405C75.4713 236.709 75.368 235.038 75.2646 233.316H75.368Z" fill="#1E437D"/>
<path d="M69.1934 233.669C69.4517 235.831 69.7962 237.975 69.9598 240.136C70.1234 242.298 70.089 244.356 70.1062 246.517C70.1062 246.689 70.0201 246.629 70.0115 246.466C69.9081 244.304 69.6498 242.306 69.5206 240.154C69.3915 238.001 69.3484 235.848 69.1417 233.678C69.1417 233.643 69.1934 233.643 69.1934 233.669Z" fill="#1E437D"/>
<path d="M63.8803 233.024C64.3536 236.322 64.492 239.66 64.2937 242.987C64.2937 243.159 64.1731 243.073 64.1731 242.901C64.0956 239.585 64.0612 236.985 63.7598 233.041C63.7598 232.98 63.8631 232.955 63.8803 233.024Z" fill="#1E437D"/>
<path d="M64.4878 211.496C65.1443 211.826 65.2293 212.718 64.6448 213.163C60.1242 216.605 44.8864 228.193 44.7031 228.149C44.4878 228.098 23.8639 215.93 23.5281 210.496C23.1922 205.063 40.2683 200.981 48.0184 203.986C54.0169 206.312 61.4392 209.964 64.4878 211.496Z" fill="#FFE9A9"/>
<path d="M58.7999 209.902C57.9388 210.393 51.3512 215.732 49.939 216.92C48.5267 218.109 42.6969 222.948 41.3277 224.274C41.3181 224.287 41.3131 224.302 41.3134 224.318C41.3137 224.333 41.3193 224.348 41.3293 224.361C41.3394 224.373 41.3532 224.381 41.3686 224.384C41.3839 224.387 41.3999 224.385 41.4138 224.378C42.9983 223.31 48.8884 218.47 50.3523 217.282C51.8162 216.094 58.2574 210.677 58.886 209.988C58.9463 209.928 58.8602 209.868 58.7999 209.902Z" fill="#1E437D"/>
<path d="M38.6927 203.177C40.4924 202.893 45.4439 202.479 49.4653 204.494C49.4653 204.494 49.4653 204.572 49.4653 204.555C45.9826 203.529 42.3542 203.087 38.7271 203.246C38.7271 203.246 38.641 203.177 38.6927 203.177Z" fill="#1E437D"/>
<path d="M64.6119 213.2L65.8777 212.167V212.27L61.7185 210.204C60.3321 209.515 58.9371 208.852 57.5334 208.197C54.7348 206.871 51.9103 205.614 49.0427 204.46L48.7069 204.322L48.8791 204.012C50.4808 201.093 52.1342 198.217 53.9081 195.401C55.663 192.584 57.5659 189.862 59.6087 187.246C57.7659 190.002 56.0064 192.803 54.33 195.651C52.6509 198.51 50.9889 201.369 49.4475 204.262L49.2839 203.823C52.1686 204.994 54.9845 206.303 57.7659 207.681C59.1437 208.378 60.5215 209.101 61.8907 209.833C63.2599 210.565 64.5946 211.34 65.938 212.115L66.0241 212.167L65.9466 212.219L64.6119 213.2Z" fill="#1E437D"/>
<path d="M55.4066 193.472C55.8992 192.812 56.4373 192.188 57.0169 191.603C57.5964 191.016 58.2307 190.485 58.9114 190.019C58.4423 190.697 57.9119 191.332 57.3269 191.913C57.0255 192.197 56.7327 192.482 56.4141 192.774C56.1008 193.038 55.7635 193.271 55.4066 193.472Z" fill="#1E437D"/>
<path d="M38.6232 224.361C40.393 225.121 42.0389 226.143 43.5057 227.392C42.6078 227.022 41.7435 226.575 40.9224 226.057C40.1114 225.555 39.3425 224.987 38.6232 224.361Z" fill="#1E437D"/>
<path d="M57.155 176.74C57.155 176.74 65.9902 184.749 72.3366 184.37C78.6831 183.991 77.7445 178.798 77.7445 178.798C77.7445 178.798 73.1978 173.391 66.9977 173.485C63.4491 173.465 59.9916 174.608 57.155 176.74Z" fill="#FFAE9D"/>
<path d="M65.0342 176.31C65.2581 177.584 68.2806 183.371 72.1643 183.199C74.1621 183.139 74.2052 176.138 74.2052 176.138L74.2999 175.621L75.6777 168.413L65.8695 162.609C65.8695 162.609 64.9309 175.948 65.0342 176.31Z" fill="#FFAE9D"/>
<path d="M65.5081 167.604C66.3332 169.475 67.5387 171.154 69.0479 172.534C70.5571 173.914 72.3369 174.966 74.2743 175.621L75.6521 168.413L65.8353 162.601C65.8353 162.601 65.6803 164.908 65.5081 167.604Z" fill="#1D293F"/>
<path d="M85.7526 157.4C86.8806 170.222 79.3286 172.34 76.5644 172.581C74.0499 172.796 65.4731 173.218 63.0275 160.586C60.5819 147.953 66.1964 143.363 71.9057 142.562C77.6149 141.762 84.6331 144.569 85.7526 157.4Z" fill="#FFAE9D"/>
<path d="M83.548 154.523C83.258 154.486 82.9704 154.431 82.6869 154.36C82.3712 154.351 82.0678 154.235 81.8257 154.032C81.7636 153.952 81.7299 153.854 81.7299 153.753C81.7299 153.651 81.7636 153.553 81.8257 153.473C81.9673 153.328 82.1449 153.224 82.3402 153.171C82.5355 153.118 82.7414 153.118 82.9366 153.171C83.3467 153.221 83.724 153.42 83.9958 153.731C84.0566 153.808 84.0932 153.901 84.1009 153.998C84.1086 154.095 84.087 154.193 84.0389 154.278C83.9908 154.363 83.9184 154.432 83.8309 154.476C83.7434 154.519 83.6449 154.536 83.548 154.523Z" fill="#1D293F"/>
<path d="M75.3161 154.799C75.6174 154.747 75.8844 154.661 76.1772 154.584C76.4996 154.562 76.8042 154.428 77.0383 154.205C77.1004 154.125 77.1342 154.026 77.1342 153.925C77.1342 153.824 77.1004 153.725 77.0383 153.645C76.888 153.509 76.7042 153.416 76.5059 153.375C76.3076 153.335 76.1019 153.347 75.9102 153.413C75.5055 153.49 75.1419 153.71 74.8855 154.033C74.8341 154.108 74.8048 154.197 74.8009 154.288C74.797 154.379 74.8186 154.47 74.8633 154.549C74.9081 154.629 74.9741 154.694 75.0541 154.739C75.1341 154.783 75.2248 154.804 75.3161 154.799Z" fill="#1D293F"/>
<path d="M77.0895 157.994C77.0895 157.994 77.0206 158.037 77.0292 158.071C77.0981 158.932 77.0292 159.957 76.2628 160.293C76.2628 160.293 76.2628 160.345 76.2628 160.336C77.2617 160.121 77.3306 158.812 77.0895 157.994Z" fill="#1D293F"/>
<path d="M76.2977 157.115C74.8855 157.115 74.9199 159.914 76.2288 159.948C77.5377 159.983 77.4775 157.15 76.2977 157.115Z" fill="#1D293F"/>
<path d="M75.7381 157.279C75.497 157.443 75.2559 157.727 74.9631 157.761C74.6703 157.796 74.3517 157.503 74.102 157.219H74.0503C74.0503 157.761 74.2656 158.312 74.8511 158.39C75.4367 158.467 75.7123 157.968 75.8845 157.425C75.9275 157.357 75.8414 157.21 75.7381 157.279Z" fill="#1D293F"/>
<path d="M81.9466 157.778C81.9466 157.778 82.0155 157.821 82.0155 157.856C82.0155 158.717 82.1102 159.742 82.8766 160.026V160.078C81.9293 159.948 81.7829 158.605 81.9466 157.778Z" fill="#1D293F"/>
<path d="M82.7218 156.857C84.134 156.745 84.2632 159.57 82.9543 159.673C81.6453 159.776 81.542 156.952 82.7218 156.857Z" fill="#1D293F"/>
<path d="M83.3243 157.021C83.5482 157.158 83.7807 157.417 84.0562 157.425C84.3318 157.434 84.5815 157.115 84.7623 156.814C84.8054 157.356 84.6504 157.925 84.1337 158.054C83.6171 158.183 83.2726 157.727 83.1434 157.193C83.1607 157.115 83.2295 156.96 83.3243 157.021Z" fill="#1D293F"/>
<path d="M76.875 164.9C77.03 165.141 77.1764 165.46 77.4864 165.554C77.8037 165.628 78.1335 165.628 78.4508 165.554C78.4508 165.554 78.5025 165.554 78.4508 165.606C78.2927 165.749 78.0985 165.847 77.889 165.888C77.6796 165.929 77.4629 165.912 77.2625 165.838C77.0976 165.755 76.9612 165.625 76.8707 165.464C76.7802 165.303 76.7397 165.118 76.7544 164.934C76.7802 164.865 76.8491 164.865 76.875 164.9Z" fill="#1D293F"/>
<path d="M80.7844 161.705C80.7844 161.705 80.9997 163.014 81.0169 163.625C80.4411 163.782 79.8338 163.78 79.2592 163.619C78.6847 163.458 78.1643 163.145 77.7532 162.713C77.7016 162.661 77.7532 162.583 77.848 162.626C78.6475 163.144 79.5931 163.389 80.5433 163.324C80.5433 163.152 80.1041 161.102 80.1988 161.094C80.6804 161.123 81.1555 161.219 81.6111 161.378C81.2494 158.648 80.4485 155.996 80.1213 153.275C80.1199 153.255 80.1256 153.235 80.1372 153.219C80.1489 153.202 80.1659 153.191 80.1853 153.185C80.2047 153.18 80.2253 153.182 80.2434 153.191C80.2616 153.199 80.2763 153.214 80.2849 153.232C81.2292 156.043 81.8898 158.943 82.2569 161.886C82.3172 162.239 81.0341 161.843 80.7844 161.705Z" fill="#1D293F"/>
<path d="M80.173 163.565C79.8416 164.003 79.4025 164.347 78.8985 164.564C78.6248 164.673 78.3237 164.695 78.0374 164.624C77.4088 164.461 77.383 163.884 77.4949 163.393C77.5589 163.127 77.6543 162.87 77.7791 162.626C78.4548 163.19 79.2946 163.519 80.173 163.565Z" fill="#1D293F"/>
<path d="M78.8985 164.581C78.6248 164.691 78.3237 164.712 78.0374 164.642C77.4088 164.478 77.383 163.901 77.4949 163.41C77.8266 163.419 78.1457 163.539 78.4005 163.752C78.6552 163.964 78.8307 164.256 78.8985 164.581Z" fill="#FF9BBC"/>
<path d="M64.8273 144.173C65.964 143.845 67.4881 137.766 63.6561 134.519C59.8241 131.273 54.3818 134.227 56.173 139.445C57.2838 142.743 62.4506 144.862 64.8273 144.173Z" fill="#1D293F"/>
<path d="M58.0242 133.719C56.7482 134.628 55.8167 135.942 55.3805 137.447C55.1676 138.147 55.1414 138.89 55.3046 139.603C55.4677 140.316 55.8145 140.974 56.3105 141.512C57.3736 142.607 58.7123 143.395 60.1856 143.794C60.9337 144.015 61.7004 144.168 62.4762 144.25C63.2578 144.371 64.0551 144.345 64.827 144.173C64.0847 144.515 63.2761 144.688 62.4589 144.681C61.6376 144.709 60.8159 144.634 60.0133 144.457C58.3522 144.144 56.8294 143.323 55.6561 142.106C55.0631 141.454 54.6583 140.654 54.4849 139.79C54.3353 138.922 54.4215 138.03 54.7347 137.206C55.0153 136.431 55.452 135.721 56.0178 135.121C56.5836 134.522 57.2665 134.044 58.0242 133.719Z" fill="#1D293F"/>
<path d="M63.7512 160.224C66.1451 160.569 66.8598 155.057 66.8598 155.057C66.8598 155.057 77.1244 153.49 78.1319 145.172C79.3643 148.585 81.8658 151.392 85.1157 153.008C85.1157 153.008 84.9176 143.863 77.7014 141.968C77.7014 141.968 68.7629 138.524 63.5876 145.594C58.4122 152.664 62.1409 159.992 63.7512 160.224Z" fill="#1D293F"/>
<path d="M78.1752 144.569C78.2795 145.857 78.1033 147.153 77.6585 148.366C77.2336 149.606 76.5563 150.743 75.6693 151.708C75.4626 151.957 75.1957 152.155 74.9632 152.388L74.6015 152.715C74.4809 152.818 74.3432 152.905 74.214 152.999C73.9384 153.18 73.6801 153.378 73.4045 153.55L72.5434 153.998L72.1129 154.213L71.6565 154.377L70.7953 154.713C70.1667 154.868 69.5381 155.006 68.9181 155.118C69.5123 154.877 70.1151 154.696 70.692 154.446L71.5531 154.041L71.9751 153.843C72.1129 153.774 72.242 153.688 72.3798 153.602C72.5176 153.516 72.9051 153.275 73.1807 153.12C73.4562 152.965 73.6715 152.75 73.9212 152.56L74.2915 152.285L74.6273 151.966C74.8582 151.761 75.0768 151.542 75.2818 151.311C76.125 150.402 76.8039 149.353 77.2882 148.211C77.784 147.052 78.0977 145.824 78.2182 144.569H78.1752Z" fill="#1D293F"/>
<path d="M65.2748 159.768C65.2748 159.768 62.4676 155.755 60.642 156.754C58.8164 157.753 60.9348 163.582 63.079 164.375C63.3467 164.496 63.6361 164.562 63.9299 164.568C64.2237 164.574 64.5157 164.521 64.7884 164.412C65.0611 164.302 65.3089 164.139 65.5168 163.931C65.7247 163.724 65.8884 163.476 65.9982 163.204L65.2748 159.768Z" fill="#F7A9A0"/>
<path d="M61.2882 158.398C61.2882 158.398 61.2882 158.398 61.2882 158.45C61.9763 158.795 62.5851 159.279 63.0759 159.872C63.5666 160.465 63.9285 161.154 64.1385 161.895C64.0518 161.744 63.9331 161.613 63.7908 161.513C63.6485 161.412 63.486 161.344 63.3146 161.313C63.1433 161.282 62.9672 161.288 62.7986 161.332C62.6301 161.376 62.4731 161.457 62.3388 161.567C62.3388 161.567 62.3388 161.653 62.3388 161.645C62.6022 161.562 62.885 161.561 63.1485 161.645C63.412 161.728 63.6435 161.89 63.8113 162.11C64.0842 162.482 64.3207 162.88 64.5174 163.298C64.5863 163.436 64.8274 163.367 64.7758 163.212C64.836 161.275 63.3118 158.605 61.2882 158.398Z" fill="#1D293F"/>
<path d="M63.3116 163.901C63.3518 164.042 63.4456 164.161 63.5727 164.234C63.6999 164.306 63.8503 164.326 63.9919 164.289C64.1335 164.251 64.2543 164.158 64.3278 164.032C64.4013 163.905 64.4214 163.754 64.3837 163.613C64.346 163.471 64.2536 163.35 64.1268 163.277C64.0001 163.203 63.8493 163.183 63.7077 163.221C63.5654 163.259 63.444 163.352 63.3698 163.479C63.2957 163.607 63.2748 163.758 63.3116 163.901Z" fill="#1D293F"/>
<path d="M63.6045 163.824C63.6124 163.857 63.6271 163.889 63.6477 163.916C63.6684 163.944 63.6944 163.967 63.7244 163.984C63.7543 164.001 63.7874 164.011 63.8216 164.015C63.8558 164.018 63.8904 164.015 63.9231 164.004C63.9898 163.986 64.0469 163.943 64.0822 163.883C64.1175 163.824 64.1284 163.753 64.1126 163.686C64.0862 163.629 64.0403 163.583 63.9831 163.556C63.926 163.529 63.8612 163.524 63.8004 163.54C63.7395 163.557 63.6864 163.594 63.6506 163.646C63.6147 163.698 63.5984 163.761 63.6045 163.824Z" fill="#263238"/>
<path d="M62.3559 163.229C62.3759 163.305 62.4181 163.374 62.4771 163.426C62.5362 163.478 62.6093 163.511 62.6873 163.521C62.7652 163.531 62.8445 163.518 62.9149 163.483C62.9854 163.448 63.0438 163.393 63.0828 163.325C63.1218 163.257 63.1396 163.178 63.134 163.1C63.1283 163.021 63.0995 162.946 63.051 162.884C63.0026 162.822 62.9369 162.776 62.8622 162.752C62.7874 162.727 62.7071 162.726 62.6314 162.747C62.5314 162.775 62.4465 162.842 62.395 162.932C62.3434 163.022 62.3294 163.129 62.3559 163.229Z" fill="#1D293F"/>
<path d="M324.235 245.923C325.019 251.423 324.726 257.024 323.374 262.413C322.74 264.912 321.893 267.353 320.842 269.707C319.534 272.73 318.164 275.675 318.492 278.973C318.81 279.188 317.717 279.154 317.682 278.835C308.856 273.806 297.54 272.885 290.746 264.669C287.534 260.786 285.907 255.851 285.14 250.891C284.279 245.527 284.072 239.576 285.459 234.289C286.63 229.811 289.239 225.497 293.45 223.301C297.661 221.105 303.474 221.234 308.046 222.647C317.932 225.738 322.84 236.381 324.235 245.923Z" fill="#B3E9D7"/>
<path d="M328.765 311.248C327.559 307.229 326.345 303.211 325.122 299.192C322.694 291.356 320.179 283.537 317.372 275.812C315.702 271.185 313.939 266.607 312.085 262.078C312.289 259.216 312.642 256.368 313.144 253.544C313.876 250.099 314.952 246.818 315.951 243.469C316.012 243.262 315.676 243.159 315.59 243.348C313.609 247.964 311.026 253.862 310.957 259.331C308.804 254.198 306.493 249.138 304.025 244.149C303.745 239.93 303.875 235.693 304.412 231.499C304.412 231.462 304.4 231.427 304.376 231.399C304.352 231.371 304.32 231.352 304.283 231.345C304.247 231.339 304.21 231.346 304.178 231.365C304.147 231.383 304.123 231.413 304.111 231.447C303.359 235.128 303.07 238.889 303.25 242.642C301.355 238.893 299.346 235.196 297.222 231.551C297.032 231.223 296.576 231.551 296.748 231.887C300.064 238.267 303.138 244.803 306.023 251.391C301.959 247.869 297.263 245.151 292.184 243.382C291.969 243.305 291.805 243.624 292.029 243.718C297.567 246.099 302.633 249.453 306.987 253.621C309.065 258.461 311.043 263.34 312.92 268.26C307.4 262.844 299.848 259.287 292.537 257.376C292.288 257.315 292.219 257.694 292.46 257.763C300.916 260.347 307.486 265.109 313.919 270.87C314.668 272.85 315.4 274.848 316.124 276.837C318.845 284.398 321.428 292.007 323.874 299.666C325.062 303.328 326.23 306.999 327.378 310.679C328.61 314.641 329.574 318.817 331.185 322.64C331.331 323.002 331.994 322.916 331.908 322.477C331.253 318.662 329.876 314.942 328.765 311.248Z" fill="#1E437D"/>
<path d="M353.988 275.898C347.624 277.784 341.243 279.532 334.888 281.392C334.337 281.565 323.59 260.975 327.474 250.392C331.064 240.575 339.28 233.23 349.071 229.897C353.609 228.356 359.189 227.055 363.985 228.115C368.248 229.062 371.262 232.549 372.648 236.554C374.534 242.005 373.905 248.506 372.872 254.069C371.925 259.236 370.03 264.308 366.62 268.355C363.21 272.402 358.939 274.426 353.988 275.898Z" fill="#B3E9D7"/>
<path d="M363.201 256.325C359.181 258.287 355.012 259.929 350.732 261.233C347.88 262.003 345.097 263.011 342.414 264.247C345.101 258.22 348.046 252.398 351.171 246.594C355.279 245.406 359.593 243.555 362.693 240.644C362.865 240.489 362.642 240.248 362.461 240.377C359.077 242.771 355.339 244.209 351.593 245.828C352.455 244.269 353.316 242.702 354.177 241.152C354.418 240.713 353.824 240.291 353.531 240.704C350.171 245.554 347.139 250.623 344.455 255.877C343.771 251.278 343.552 246.622 343.8 241.979C343.8 241.954 343.79 241.93 343.772 241.912C343.755 241.894 343.731 241.884 343.705 241.884C343.68 241.884 343.656 241.894 343.638 241.912C343.621 241.93 343.611 241.954 343.611 241.979C342.818 247.042 342.871 252.201 343.766 257.246C341.544 261.698 339.512 266.254 337.686 270.869C336.963 268.097 336.016 265.367 335.387 262.577C334.426 258.574 334.118 254.442 334.474 250.34C334.474 250.22 334.311 250.211 334.293 250.34C333.167 257.933 334.089 265.689 336.963 272.807C335.895 275.58 334.879 278.37 333.958 281.16C329.169 295.412 326.331 310.245 325.519 325.258C325.524 325.323 325.552 325.385 325.598 325.431C325.645 325.477 325.706 325.506 325.771 325.511C325.837 325.516 325.902 325.498 325.955 325.459C326.008 325.421 326.046 325.365 326.061 325.301C327.724 310.489 330.898 295.886 335.533 281.72C337.376 276.183 339.503 270.801 341.828 265.522C345.583 264.411 349.32 262.938 353.023 261.63C356.726 260.321 360.308 258.943 363.356 256.575C363.389 256.554 363.413 256.521 363.422 256.483C363.431 256.445 363.424 256.406 363.404 256.372C363.383 256.339 363.35 256.316 363.312 256.307C363.274 256.298 363.234 256.305 363.201 256.325Z" fill="#1E437D"/>
<path d="M278.381 284.975C280.249 290.891 284.675 299.063 291.685 299.123C296.232 299.123 300.813 298.632 305.368 298.563C310.242 298.494 315.133 298.503 320.007 298.796C320.412 298.796 319.43 284.157 307.702 277.061C304.412 275.063 300.4 274.426 296.671 273.617C292.405 272.602 288.026 272.144 283.642 272.256C280.947 272.359 278.708 272.936 277.743 275.7C276.736 278.585 277.494 282.159 278.381 284.975Z" fill="#B3E9D7"/>
<path d="M283.427 277.569C286.277 278.309 289.154 279.145 292.038 280.058C291.295 279.245 290.507 278.475 289.679 277.75C288.447 276.734 287.095 275.916 285.778 275.02C285.666 274.943 285.735 274.736 285.873 274.787C288.634 275.949 291.019 277.854 292.762 280.29C296.318 281.444 299.849 282.71 303.25 284.105C305.598 285.066 307.847 286.251 309.967 287.644C309.286 286.164 308.474 284.749 307.539 283.416C305.98 281.401 303.879 280.273 301.838 278.843C301.817 278.832 301.799 278.816 301.784 278.797C301.769 278.778 301.758 278.756 301.752 278.733C301.745 278.71 301.744 278.685 301.747 278.662C301.749 278.638 301.757 278.615 301.769 278.594C301.781 278.573 301.797 278.554 301.816 278.54C301.835 278.525 301.856 278.514 301.88 278.507C301.903 278.501 301.927 278.499 301.951 278.502C301.975 278.505 301.998 278.513 302.019 278.525C304.151 279.449 306.066 280.809 307.641 282.517C309.216 284.226 310.416 286.245 311.164 288.445C313.606 290.192 315.84 292.215 317.82 294.473C325.57 303.291 331.684 315.011 331.71 326.98C331.71 327.264 331.254 327.342 331.194 327.049C328.998 315.166 324.305 304.488 316.399 295.265C315.825 294.622 315.251 294.002 314.677 293.405C312.553 293.118 310.414 292.96 308.27 292.931C305.773 292.931 303.293 293.293 300.813 293.5C296.714 293.827 292.202 293.879 288.499 291.821C288.335 291.726 288.447 291.442 288.628 291.511C296.861 294.507 305.489 290.71 313.747 292.492C310.22 289.133 306.088 286.471 301.571 284.647L300.813 284.346C295.534 284.975 289.954 286.352 284.813 284.639C284.797 284.634 284.782 284.627 284.768 284.616C284.755 284.606 284.744 284.593 284.735 284.578C284.718 284.548 284.714 284.513 284.723 284.479C284.732 284.446 284.754 284.418 284.784 284.401C284.814 284.384 284.849 284.38 284.882 284.389C289.851 285.638 294.622 284.07 299.521 283.821C294.182 281.745 288.74 280.092 283.375 278.025C282.953 277.862 282.945 277.448 283.427 277.569Z" fill="#1E437D"/>
<path d="M339.874 296.746C339.788 296.936 340.063 297.116 340.175 296.918C340.194 296.951 340.221 296.978 340.252 296.999C340.283 297.02 340.319 297.034 340.356 297.039C345.076 298.165 349.862 298.999 354.685 299.536C358.56 299.881 363.029 300.096 366.422 297.814C371.021 294.766 374.052 286.619 371.589 281.453C368.644 275.304 359.783 278.645 355.331 280.833C348.477 284.168 343.008 289.798 339.874 296.746Z" fill="#B3E9D7"/>
<path d="M336.429 299.588C339.014 297.087 341.887 294.901 344.988 293.078C347.213 289.544 350.17 286.528 353.66 284.234C353.832 284.114 353.97 284.381 353.815 284.501C351.045 286.723 348.588 289.31 346.512 292.191C349.965 290.303 353.551 288.671 357.242 287.308C358.561 284.864 360.563 282.857 363.003 281.53C363.055 281.53 363.115 281.53 363.063 281.616C361.061 283.15 359.317 284.993 357.897 287.076C360.075 286.266 362.28 285.509 364.476 284.777C364.674 284.708 364.751 285.009 364.562 285.087C360.644 286.62 356.639 288.23 352.756 290.09C357.493 290.833 362.318 290.819 367.05 290.047C367.188 290.047 367.24 290.219 367.111 290.253C362.168 291.713 356.921 291.79 351.938 290.477C349.467 291.685 347.066 293.03 344.747 294.507C346.698 294.348 348.662 294.511 350.56 294.99C353.911 295.769 357.341 296.156 360.781 296.144C360.807 296.151 360.829 296.166 360.845 296.187C360.861 296.208 360.87 296.233 360.87 296.26C360.87 296.286 360.861 296.312 360.845 296.333C360.829 296.354 360.807 296.369 360.781 296.376C354.857 297.392 349.251 294.697 343.378 295.403C341.194 296.884 339.145 298.556 337.255 300.397C333.59 304.064 330.571 308.323 328.326 312.996C325.854 318.025 324.511 323.329 322.513 328.565C322.495 328.608 322.462 328.642 322.42 328.662C322.378 328.682 322.331 328.686 322.286 328.673C322.242 328.661 322.203 328.632 322.179 328.593C322.154 328.554 322.144 328.507 322.151 328.462C323.856 318.206 328.954 306.899 336.429 299.588Z" fill="#1E437D"/>
<path d="M347.038 360.288H311.732L318.052 314.649H340.719L347.038 360.288Z" fill="#C8DEFE"/>
<path fill-rule="evenodd" clip-rule="evenodd" d="M310.234 359.36L316.44 314.774L315.502 314.649L309.149 360.288H345.316L341.492 332.832L340.554 332.957L344.231 359.36H310.234Z" fill="#1E437D"/>
<path d="M341.872 311.205H312.593V318.955H341.872V311.205Z" fill="#1E437D"/>
</svg>
