<svg width="400" height="400" viewBox="0 0 400 400" fill="none" xmlns="http://www.w3.org/2000/svg">
<path d="M293.363 78.9265C322.431 98.0493 356.742 107.957 362.968 128.708C368.974 149.45 346.879 181.452 345.112 213.822C343.345 246.192 361.897 279.139 356.668 304.259C351.659 329.388 322.869 346.691 293.062 356.42C263.264 365.941 232.237 367.67 202.51 364.636C173.004 361.611 144.807 353.614 117.698 340.636C90.8019 327.875 64.9938 310.134 51.6016 286.177C38.2094 262.219 37.2246 232.254 44.5007 205.748C51.989 179.459 67.7297 156.838 80.1433 129.065C92.5655 101.084 101.669 67.7421 123.795 45.7867C145.921 23.8313 181.069 13.2624 210.556 22.1467C240.265 31.0396 264.083 59.5862 293.363 78.9265Z" fill="#C8DEFE" fill-opacity="0.2"/>
<path d="M18.9399 366.18L60.4599 365.93L109.97 365.84L209 365.68L308.03 365.84L357.54 365.93L386.06 366.18L357.54 366.42L308.03 366.51L209 366.67L109.97 366.51L60.4599 366.42L18.9399 366.18Z" fill="#1D293F"/>
<path d="M237.064 355.686C239.166 356.077 296.544 347.803 298.53 346.1C299.293 345.461 298.574 337.028 297.413 326.865C297.413 326.758 297.413 326.652 297.413 326.545C297.173 324.452 289.839 289.76 289.839 289.76L251.44 295.178L260.308 331.476L260.405 332.097C260.405 332.097 239.858 345.089 237.88 347.173C235.902 349.257 234.962 355.314 237.064 355.686Z" fill="#F7A9A0"/>
<path d="M237.055 355.686C238.137 355.881 253.745 353.797 268.981 351.491C272.04 351.03 275.082 350.604 277.982 350.099C288.828 348.378 297.767 346.746 298.53 346.09C299.292 345.434 298.601 337.266 297.465 327.289C297.465 327.147 297.465 327.006 297.465 326.864C297.456 326.757 297.456 326.651 297.465 326.544H297.421L260.387 331.466L260.485 332.096C260.485 332.096 239.928 345.088 237.95 347.172C235.973 349.256 234.953 355.313 237.055 355.686Z" fill="#FFC727"/>
<path d="M237.392 353.371C247.032 351.74 286.061 346.073 295.71 345.186C295.79 345.186 295.799 345.239 295.71 345.248C286.194 347.075 247.121 352.431 237.401 353.531C237.206 353.558 237.188 353.407 237.392 353.371Z" fill="#1D293F"/>
<path d="M256.193 332.185C259.891 330.926 264.635 330.837 267.934 333.125C268.059 333.214 267.934 333.4 267.801 333.374C263.995 332.725 260.13 332.487 256.273 332.664C256.216 332.662 256.162 332.64 256.119 332.602C256.077 332.564 256.049 332.513 256.039 332.457C256.03 332.401 256.04 332.343 256.068 332.294C256.096 332.245 256.14 332.206 256.193 332.185Z" fill="#1D293F"/>
<path d="M253.683 334.234C257.381 332.974 262.125 332.886 265.424 335.183C265.548 335.271 265.424 335.449 265.291 335.431C261.485 334.779 257.62 334.538 253.763 334.713C253.706 334.71 253.652 334.688 253.609 334.65C253.567 334.612 253.539 334.561 253.529 334.505C253.52 334.449 253.53 334.392 253.558 334.342C253.586 334.293 253.63 334.255 253.683 334.234Z" fill="#1D293F"/>
<path d="M251.174 336.283C254.872 335.023 259.616 334.943 262.915 337.231C263.039 337.32 262.915 337.497 262.782 337.48C258.976 336.832 255.111 336.592 251.253 336.761C251.197 336.759 251.143 336.737 251.1 336.699C251.058 336.661 251.029 336.61 251.02 336.554C251.011 336.498 251.021 336.441 251.049 336.391C251.077 336.342 251.121 336.303 251.174 336.283Z" fill="#1D293F"/>
<path d="M254.765 325.056L297.918 319.105C297.918 319.105 287.169 245.498 287.497 243.787C287.914 241.605 313.215 138.352 313.215 138.352H277.831C277.831 138.352 248.725 234.129 247.608 243.37C245.772 258.304 254.765 325.056 254.765 325.056Z" fill="#A788CE"/>
<path d="M256.796 316.257C264.174 314.75 291.019 311.513 293.972 311.628C293.985 311.633 293.997 311.642 294.005 311.654C294.014 311.666 294.018 311.68 294.018 311.694C294.018 311.709 294.014 311.723 294.005 311.735C293.997 311.747 293.985 311.756 293.972 311.761C291.143 312.604 268.032 315.707 256.796 316.443C256.776 316.437 256.759 316.425 256.746 316.408C256.734 316.391 256.727 316.371 256.727 316.35C256.727 316.33 256.734 316.309 256.746 316.293C256.759 316.276 256.776 316.263 256.796 316.257Z" fill="#1D293F"/>
<path d="M305.154 146.281C304.267 148.817 303.558 151.389 302.778 153.943C301.997 156.497 301.305 159.078 300.543 161.641C299.035 166.713 297.599 171.813 296.153 176.903C293.235 187.181 290.46 197.504 287.737 207.835C286.389 212.955 285.056 218.078 283.737 223.204C282.425 228.339 281.033 233.474 279.853 238.644C279.247 241.069 278.988 243.568 279.082 246.067C279.293 248.626 279.642 251.172 280.128 253.693C280.979 258.967 281.834 264.241 282.691 269.514C284.411 280.156 286.185 290.798 288.012 301.44C288.234 302.744 288.5 304.038 288.748 305.333C288.748 305.404 288.89 305.386 288.881 305.333C287.462 294.753 285.688 284.218 284.012 273.682C283.191 268.474 282.354 263.271 281.503 258.074C281.059 255.352 280.616 252.638 280.181 249.907C279.719 247.326 279.624 244.692 279.897 242.085C280.311 239.533 280.87 237.007 281.574 234.52C282.212 231.984 282.851 229.439 283.498 226.902C284.799 221.776 286.123 216.653 287.471 211.534C290.167 201.246 292.922 190.974 295.736 180.716C298.55 170.459 301.388 160.266 304.25 150.139C304.604 148.87 304.95 147.611 305.27 146.343C305.287 146.236 305.172 146.21 305.154 146.281Z" fill="#1D293F"/>
<path d="M274.089 365.3C276.129 365.947 334.092 364.883 336.273 363.437C337.107 362.905 337.444 354.445 337.559 344.22V343.901C337.559 341.79 336.406 306.45 336.406 306.45L298.512 307.035L300.162 344.158V344.796C300.162 344.796 278.16 355.128 275.925 356.964C273.69 358.799 272.049 364.661 274.089 365.3Z" fill="#F7A9A0"/>
<path d="M274.089 365.3C276.129 365.947 334.092 364.883 336.273 363.437C337.107 362.905 337.444 354.445 337.559 344.22V343.901L300.162 344.167V344.805C300.162 344.805 278.16 355.137 275.925 356.972C273.69 358.808 272.049 364.661 274.089 365.3Z" fill="#FFC727"/>
<path d="M274.71 363.038C284.465 362.621 323.911 361.849 333.604 362.151C333.675 362.151 333.684 362.204 333.604 362.213C323.928 362.842 284.491 363.295 274.718 363.171C274.497 363.197 274.497 363.046 274.71 363.038Z" fill="#1D293F"/>
<path d="M295.994 344.354C299.825 343.564 304.543 344.07 307.522 346.757C307.638 346.855 307.522 347.023 307.363 346.988C303.667 345.865 299.862 345.145 296.011 344.841C295.954 344.833 295.902 344.804 295.863 344.761C295.825 344.718 295.802 344.663 295.8 344.605C295.798 344.547 295.816 344.49 295.852 344.444C295.887 344.399 295.937 344.366 295.994 344.354Z" fill="#1D293F"/>
<path d="M293.253 346.072C297.084 345.283 301.793 345.789 304.782 348.476C304.906 348.582 304.782 348.742 304.631 348.706C300.934 347.59 297.129 346.87 293.28 346.56C293.222 346.553 293.169 346.525 293.129 346.483C293.09 346.44 293.066 346.385 293.063 346.327C293.06 346.269 293.077 346.212 293.112 346.166C293.147 346.119 293.196 346.086 293.253 346.072Z" fill="#1D293F"/>
<path d="M290.504 347.803C294.335 347.013 299.053 347.51 302.033 350.197C302.148 350.303 302.033 350.463 301.873 350.428C298.177 349.309 294.371 348.59 290.522 348.281C290.458 348.284 290.397 348.261 290.35 348.218C290.303 348.174 290.276 348.114 290.274 348.051C290.271 347.987 290.294 347.926 290.337 347.879C290.381 347.832 290.441 347.805 290.504 347.803Z" fill="#1D293F"/>
<path d="M278.948 138.352C278.948 138.352 279.764 155.282 283.64 168.69C283.95 169.799 284.287 170.89 284.651 171.936C284.651 171.936 286.185 171.936 292.348 175.696L297.474 337.879L339.226 337.436C339.226 337.436 332.566 251.485 332.619 245.977C332.699 237.109 327.839 177.195 328.345 175.679C333.533 160.203 324.948 138.352 324.948 138.352H278.948Z" fill="#A788CE"/>
<path d="M298.911 330.154C310.671 329.444 333.453 329.267 336.38 329.719C336.396 329.719 336.412 329.726 336.424 329.738C336.435 329.749 336.442 329.765 336.442 329.781C336.442 329.798 336.435 329.814 336.424 329.825C336.412 329.837 336.396 329.843 336.38 329.843C333.471 330.367 305.793 330.899 298.92 330.34C298.9 330.335 298.882 330.323 298.869 330.307C298.856 330.291 298.848 330.271 298.847 330.25C298.846 330.229 298.852 330.209 298.863 330.191C298.875 330.174 298.892 330.161 298.911 330.154Z" fill="#1D293F"/>
<path d="M296.313 262.356C295.804 243.768 295.172 225.183 294.415 206.602C293.989 196.11 293.528 185.628 292.934 175.155C292.934 175.079 292.904 175.007 292.851 174.954C292.797 174.901 292.725 174.871 292.65 174.871C292.575 174.871 292.503 174.901 292.449 174.954C292.396 175.007 292.366 175.079 292.366 175.155C292.819 193.849 293.555 212.526 294.14 231.211C294.725 249.896 295.399 268.387 296.038 286.975C296.392 297.457 296.712 307.948 297.146 318.43C297.146 318.461 297.158 318.49 297.18 318.512C297.202 318.533 297.231 318.546 297.262 318.546C297.292 318.546 297.321 318.533 297.343 318.512C297.365 318.49 297.377 318.461 297.377 318.43C297.297 299.736 296.818 281.042 296.313 262.356Z" fill="#1D293F"/>
<path d="M328.948 288.287C328.061 276.093 327.174 263.908 326.243 251.723C325.312 239.538 324.425 227.336 323.521 215.151C323.068 209.049 322.634 202.957 322.155 196.864L321.437 187.721C321.088 184.715 320.908 181.692 320.896 178.667C321.011 175.359 322.403 172.459 323.175 169.266C323.873 166.258 324.189 163.174 324.115 160.088C324.035 153.72 322.607 147.45 321.286 141.251C321.215 140.914 320.683 141.065 320.763 141.411C322.259 147.107 323.203 152.934 323.583 158.811C323.721 161.733 323.515 164.662 322.971 167.537C322.43 170.295 321.277 172.858 320.63 175.58C319.982 178.303 320.328 181.3 320.55 184.147C320.789 187.198 320.993 190.249 321.206 193.29C321.632 199.268 322.093 205.236 322.536 211.213C324.31 235.468 326.084 259.731 328.008 283.986C329.072 297.634 329.977 311.309 331.298 324.94C331.298 325.037 331.467 325.037 331.458 324.94C330.828 312.702 329.817 300.508 328.948 288.287Z" fill="#1D293F"/>
<path d="M320.398 156.771C319.689 156.497 318.908 156.426 318.181 156.213C317.417 155.999 316.667 155.735 315.938 155.423C314.55 154.818 313.247 154.034 312.062 153.091C310.936 152.099 310.074 150.844 309.552 149.437C309.233 148.684 308.941 147.921 308.666 147.167L308.204 146.05C308.142 145.899 307.743 145.11 307.672 144.861C307.687 144.874 307.706 144.882 307.726 144.882C307.745 144.882 307.764 144.874 307.779 144.861V144.817C307.789 144.804 307.794 144.789 307.794 144.773C307.794 144.757 307.789 144.741 307.779 144.728C307.734 144.64 307.726 144.631 307.628 144.604C307.607 144.601 307.586 144.605 307.567 144.615C307.548 144.624 307.532 144.639 307.522 144.657C307.38 144.906 307.522 145.145 307.584 145.411C307.717 145.908 307.841 146.404 307.965 146.901C308.196 147.788 308.426 148.63 308.692 149.491C309.115 151.105 309.989 152.566 311.211 153.703C312.481 154.772 313.936 155.602 315.503 156.151C316.31 156.449 317.14 156.678 317.986 156.834C318.764 157.022 319.569 157.07 320.363 156.975C320.54 156.984 320.496 156.807 320.398 156.771Z" fill="#263238"/>
<path d="M286.824 166.101C286.727 164.637 286.611 163.183 286.487 161.72C286.194 158.394 285.849 155.06 285.263 151.769C285.263 151.512 284.855 151.61 284.882 151.858C285.104 154.439 285.396 157.019 285.636 159.6C285.875 162.181 286.194 164.753 286.239 167.324C286.239 168.096 286.195 169.408 285.246 169.621C283.969 169.914 283.366 168.238 283.055 167.315C282.325 165.021 281.791 162.668 281.459 160.283C281.033 157.569 280.811 154.82 280.572 152.098C280.572 151.991 280.395 152.009 280.395 152.098C280.395 157.516 280.457 163.183 282.479 168.3C282.624 168.826 282.91 169.302 283.305 169.679C283.7 170.055 284.19 170.317 284.722 170.437H284.776C284.766 170.466 284.766 170.497 284.776 170.526C284.776 170.677 284.838 170.827 284.864 170.978C284.891 171.129 284.909 171.235 284.935 171.359C284.988 171.625 285.033 171.892 285.095 172.149C285.098 172.174 285.106 172.199 285.118 172.222C285.131 172.244 285.147 172.264 285.168 172.28C285.188 172.296 285.211 172.308 285.236 172.315C285.261 172.322 285.286 172.325 285.312 172.322C285.338 172.319 285.363 172.311 285.385 172.298C285.408 172.286 285.428 172.269 285.444 172.249C285.46 172.229 285.472 172.205 285.479 172.181C285.486 172.156 285.488 172.13 285.485 172.104C285.519 172.093 285.548 172.072 285.568 172.043C285.589 172.014 285.6 171.98 285.6 171.945C285.58 171.416 285.459 170.895 285.246 170.411C285.56 170.35 285.854 170.209 286.1 170.003C286.345 169.796 286.533 169.531 286.647 169.231C286.951 168.216 287.012 167.143 286.824 166.101Z" fill="#1D293F"/>
<path d="M282.913 170.925C287.064 172.662 291.058 174.754 294.85 177.177C295 177.274 294.85 177.505 294.726 177.425C290.699 175.465 286.585 173.585 282.674 171.412C282.62 171.375 282.581 171.319 282.565 171.256C282.548 171.192 282.555 171.125 282.584 171.066C282.613 171.007 282.662 170.96 282.723 170.934C282.783 170.909 282.85 170.905 282.913 170.925Z" fill="#1D293F"/>
<path d="M282.461 116.438C284.697 118.207 287.128 119.715 289.706 120.934C285.777 114.3 286.372 99.322 286.85 101.424C289.147 111.64 295.568 122.823 298.016 123.382H298.06C304.139 124.084 310.282 122.785 315.557 119.684C310.493 112.181 310.697 96.9453 311.034 97.8764C314.759 107.809 322.448 113.618 323.778 113.6C328.709 108.882 331.316 104.173 330.615 103.694C325.498 100.218 321.144 91.2785 317.215 81.7805C313.331 72.4423 311.362 63.5563 305.899 55.2201C300.898 47.5845 290.912 46.139 285.254 50.041C270.409 60.2839 279.295 113.955 282.461 116.438Z" fill="#1D293F"/>
<path d="M297.891 50.4582C302.006 51.4248 305.385 55.1939 307.54 58.6791C310.405 63.3083 312.293 68.5583 314.635 73.4536C319.201 83.1159 325.248 92.0056 332.558 99.8012C332.582 99.8362 332.593 99.8784 332.59 99.9208C332.587 99.9632 332.569 100.003 332.54 100.034C332.511 100.065 332.473 100.086 332.431 100.092C332.389 100.098 332.346 100.089 332.309 100.067C324.328 94.0546 318.856 85.4258 314.378 76.5486C312.081 72.017 310.28 67.2724 308.117 62.6787C306.982 60.1414 305.508 57.7697 303.736 55.6284C302.01 53.7521 299.922 52.2439 297.599 51.1943C297.501 51.1555 297.423 51.0795 297.381 50.983C297.34 50.8865 297.338 50.7775 297.377 50.6799C297.416 50.5823 297.492 50.5041 297.588 50.4625C297.685 50.4209 297.794 50.4194 297.891 50.4582Z" fill="#1D293F"/>
<path d="M245.037 64.8075L253.266 90.419C253.586 91.1728 253.266 91.8113 252.495 91.8645L239.059 92.7514C238.648 92.7446 238.247 92.6221 237.901 92.3978C237.556 92.1735 237.282 91.8565 237.108 91.4832L228.887 65.8628C228.559 65.1179 228.887 64.4705 229.65 64.4261L243.085 63.5393C243.497 63.544 243.9 63.6657 244.245 63.8902C244.591 64.1147 244.865 64.4329 245.037 64.8075Z" fill="#1D293F"/>
<path d="M243.44 64.8966L251.652 90.5259C251.742 90.6665 251.793 90.8284 251.799 90.9951C251.806 91.1617 251.768 91.3271 251.689 91.4742C251.61 91.6214 251.494 91.745 251.352 91.8323C251.21 91.9197 251.047 91.9677 250.881 91.9714L237.445 92.8582C237.034 92.8544 236.633 92.734 236.287 92.5111C235.942 92.2882 235.667 91.9719 235.494 91.599L227.273 65.9785C226.945 65.2336 227.273 64.5862 228.036 64.5419L241.471 63.655C241.883 63.654 242.287 63.7701 242.636 63.99C242.985 64.2098 243.263 64.5242 243.44 64.8966Z" fill="#1D293F"/>
<path d="M239.839 66.3152C239.858 66.5411 239.943 66.7564 240.084 66.9338C240.225 67.1113 240.416 67.2428 240.632 67.3117C240.847 67.3806 241.079 67.3839 241.297 67.321C241.515 67.2581 241.709 67.132 241.855 66.9586C242.001 66.7852 242.092 66.5723 242.117 66.347C242.141 66.1217 242.099 65.8941 241.994 65.6931C241.889 65.4921 241.727 65.3268 241.528 65.2181C241.329 65.1094 241.103 65.0622 240.877 65.0825C240.727 65.0936 240.581 65.1345 240.448 65.2029C240.314 65.2712 240.195 65.3656 240.099 65.4804C240.002 65.5952 239.929 65.7283 239.885 65.8716C239.84 66.015 239.825 66.1658 239.839 66.3152Z" fill="#E2E4E8"/>
<path d="M290.868 101.459C284.447 118.193 268.91 140.479 261.86 141.055C258.508 141.348 252.566 142.581 247.884 139.042C237.65 131.327 228.444 115.808 226.13 106.709C225.314 103.472 240.745 95.1799 243.299 97.7074C249.267 103.552 256.601 115.355 257.541 115.213C261.133 114.672 274.391 101.911 283.667 92.8831C294.903 81.9573 293.422 94.7897 290.868 101.459Z" fill="#F7A9A0"/>
<path d="M224.506 89.7893C225.704 83.014 227.06 81.4531 225.038 75.1921C223.708 71.0861 225.766 68.47 228.967 71.6448C234.217 76.7796 234.501 85.8341 233.694 89.0266L224.506 89.7893Z" fill="#F7A9A0"/>
<path d="M227.123 109.503C227.123 109.503 223.469 100.449 224.036 93.097C224.436 88.0066 226.52 77.0454 240.186 70.341C243.431 68.7536 249.178 68.7891 244.824 73.303C241.729 76.5133 238.802 77.613 237.348 79.8123C237.348 79.8123 244.646 80.6992 246.11 84.0336C247.393 86.9272 248.469 89.9086 249.329 92.9551C248.807 93.2363 248.268 93.4851 247.715 93.7C247.715 93.7 248.788 96.9281 246.739 101.681L227.123 109.503Z" fill="#F7A9A0"/>
<path d="M225.19 88.2991C227.096 86.4278 231.202 82.5258 235.681 80.5038C240.647 78.2602 250.819 75.2804 252.433 78.9608C253.621 81.6212 249.843 83.1377 249.843 83.1377C249.843 83.1377 254.277 82.7919 254.845 85.4701C255.333 87.9088 252.335 88.8755 252.335 88.8755C252.335 88.8755 255.084 89.1327 255.102 91.536C255.102 94.4625 249.373 93.4515 246.828 96.449C246.261 97.1496 225.19 88.2991 225.19 88.2991Z" fill="#F7A9A0"/>
<path d="M237.17 86.1533C240.951 83.8715 245.338 82.7979 249.745 83.0761C249.86 83.0761 249.914 83.1736 249.807 83.1913C245.497 83.6782 241.263 84.6878 237.197 86.1977L237.17 86.1533Z" fill="#1D293F"/>
<path d="M239.582 91.1011C241.516 90.0192 247.369 88.0948 252.317 88.7776C252.432 88.7776 252.477 88.8841 252.37 88.8929C248.042 89.1617 243.759 89.9173 239.6 91.1455C239.6 91.1455 239.565 91.11 239.582 91.1011Z" fill="#1D293F"/>
<path d="M248.681 103.295L230.164 124.765C230.164 124.765 246.021 140.276 251.182 141.499C255.379 142.488 259.767 142.301 263.864 140.958C267.473 139.921 285.219 119.355 291.054 102.541C296.889 85.7269 290.628 84.9199 280.669 95.1006C270.71 105.281 258.383 115.303 257.789 114.611C257.195 113.919 248.681 103.295 248.681 103.295Z" fill="#FFC727"/>
<path d="M248.681 103.295L230.164 124.765C230.164 124.765 246.021 140.276 251.182 141.499C255.379 142.488 259.767 142.301 263.864 140.958C267.473 139.921 285.219 119.355 291.054 102.541C296.889 85.7269 290.628 84.9199 280.669 95.1006C270.71 105.281 258.383 115.303 257.789 114.611C257.195 113.919 248.681 103.295 248.681 103.295Z" fill="#FFE6B3"/>
<path d="M252.042 109.149C251.289 109.832 245.107 116.82 243.733 118.39C242.358 119.959 237.108 126.371 235.751 127.976C235.698 128.047 235.751 128.145 235.858 128.074C236.576 127.293 237.357 126.566 238.075 125.786C238.793 125.005 242.917 120.323 244.283 118.762C245.648 117.201 251.608 110.098 252.175 109.238C252.22 109.149 252.104 109.149 252.042 109.149Z" fill="#1D293F"/>
<path d="M273.965 130.964L270.533 160.753C270.533 160.753 318.891 160.025 330.837 158.819C330.837 158.819 319.388 103.659 306.068 90.0369C299.408 83.2261 291.879 83.971 287.161 89.0171C285.972 90.2941 271.969 109.999 270.657 117.396C269.548 123.94 273.965 130.964 273.965 130.964Z" fill="#FFE6B3"/>
<path d="M272.05 126.122C271.498 124.435 271.199 122.674 271.163 120.899C271.282 117.279 272.19 113.729 273.823 110.497C274.71 108.643 275.774 106.887 276.635 105.034C276.635 104.98 276.581 104.945 276.555 104.989C275.717 106.229 274.953 107.517 274.267 108.847C274.277 108.801 274.292 108.757 274.311 108.714C274.533 107.996 274.754 107.295 275.012 106.594C275.012 106.524 274.914 106.47 274.879 106.541C274.595 107.224 274.32 107.907 274.072 108.608C273.916 109.049 273.786 109.499 273.681 109.956C272.823 111.586 272.096 113.282 271.509 115.028C270.299 118.485 270.218 122.236 271.278 125.741C271.577 126.654 271.944 127.544 272.378 128.402C272.848 129.359 273.442 130.246 273.947 131.177C273.947 131.257 274.107 131.177 274.063 131.106C273.227 129.516 272.553 127.847 272.05 126.122Z" fill="#1D293F"/>
<path d="M298.211 89.2036C297.812 90.0904 292.207 95.3138 287.977 94.3117C286.602 93.9747 288.065 86.3303 288.065 86.3303V85.745L287.799 77.5507L298.157 73.3649L299.638 72.8328C299.638 72.8328 299.568 75.0853 299.452 77.8788C299.452 78.0118 299.452 78.1449 299.452 78.2779C299.452 78.4109 299.452 78.5883 299.452 78.739C299.452 79.1558 299.452 79.5815 299.452 80.0072C299.452 80.4329 299.452 80.6457 299.39 80.9827C299.328 81.3197 299.337 81.6567 299.319 81.9937C299.113 84.4192 298.742 86.828 298.211 89.2036Z" fill="#F7A9A0"/>
<path d="M299.434 77.9237C298.216 79.9863 296.564 81.7586 294.591 83.1171C292.618 84.4756 290.373 85.3877 288.012 85.7899L287.746 77.5956L298.104 73.4098L299.585 72.8777C299.585 72.8777 299.541 75.1302 299.434 77.9237Z" fill="#1D293F"/>
<path d="M278.097 64.9759C276.128 79.245 284.447 82.0296 287.524 82.4553C290.318 82.8366 299.878 83.7855 303.31 69.8003C306.742 55.815 300.729 50.3876 294.397 49.1816C288.065 47.9755 280.031 50.7158 278.097 64.9759Z" fill="#F7A9A0"/>
<path d="M281.955 62.0224C282.287 62.0167 282.619 61.993 282.948 61.9514C283.303 61.9774 283.656 61.8837 283.95 61.6854C284.032 61.6059 284.083 61.5014 284.098 61.3888C284.112 61.2762 284.089 61.162 284.03 61.0646C283.889 60.8889 283.704 60.7537 283.494 60.6727C283.283 60.5918 283.056 60.5678 282.833 60.6034C282.37 60.6049 281.924 60.7788 281.583 61.0912C281.509 61.1674 281.459 61.2633 281.439 61.3672C281.418 61.4712 281.428 61.5788 281.468 61.6772C281.507 61.7756 281.574 61.8605 281.66 61.9217C281.747 61.9829 281.849 62.0179 281.955 62.0224Z" fill="#1D293F"/>
<path d="M291.346 63.4241C291.018 63.3354 290.725 63.2024 290.406 63.0871C290.062 63.0136 289.75 62.8299 289.519 62.5639C289.464 62.4651 289.442 62.3507 289.458 62.2384C289.474 62.1261 289.527 62.0223 289.608 61.9431C289.791 61.8107 290.005 61.7294 290.23 61.7076C290.454 61.6858 290.68 61.7242 290.885 61.8189C291.333 61.9458 291.716 62.2372 291.958 62.6348C292.007 62.7281 292.027 62.8332 292.018 62.9379C292.008 63.0425 291.969 63.1423 291.905 63.2253C291.84 63.3084 291.754 63.3712 291.655 63.4065C291.556 63.4417 291.449 63.4478 291.346 63.4241Z" fill="#1D293F"/>
<path d="M288.943 66.7578C288.943 66.7578 289.014 66.811 289.005 66.8554C288.819 67.8131 288.766 68.9483 289.59 69.4183C289.59 69.4183 289.59 69.4804 289.59 69.4715C288.526 69.1434 288.615 67.6358 288.943 66.7578Z" fill="#1D293F"/>
<path d="M289.972 65.8884C291.55 66.0214 291.169 69.1607 289.706 69.0366C288.243 68.9124 288.651 65.7731 289.972 65.8884Z" fill="#1D293F"/>
<path d="M290.575 66.1286C290.823 66.3414 291.054 66.6873 291.382 66.7582C291.71 66.8292 292.091 66.5543 292.375 66.2705H292.428C292.366 66.8735 292.056 67.4677 291.4 67.4766C290.743 67.4854 290.442 66.9001 290.362 66.2794C290.353 66.1996 290.468 66.0399 290.575 66.1286Z" fill="#1D293F"/>
<path d="M283.348 65.8357C283.348 65.8357 283.268 65.8357 283.259 65.9155C283.179 66.891 282.922 67.9995 282 68.2213V68.2745C283.099 68.2479 283.427 66.7757 283.348 65.8357Z" fill="#1D293F"/>
<path d="M282.594 64.7187C281.042 64.4172 280.554 67.5477 281.991 67.8226C283.428 68.0975 283.898 64.967 282.594 64.7187Z" fill="#1D293F"/>
<path d="M281.911 64.807C281.636 64.9312 281.344 65.1972 281.024 65.1706C280.705 65.144 280.475 64.7627 280.306 64.408C280.306 64.408 280.306 64.408 280.253 64.408C280.146 65.0021 280.253 65.6495 280.803 65.8535C281.352 66.0575 281.769 65.5874 282.009 65.0199C282.08 64.9578 282.018 64.807 281.911 64.807Z" fill="#1D293F"/>
<path d="M287.666 74.5622C287.409 74.775 287.152 75.0677 286.78 75.0765C286.418 75.0386 286.068 74.9269 285.751 74.7484C285.751 74.7484 285.68 74.7484 285.698 74.7484C285.825 74.9509 286.004 75.1159 286.215 75.2265C286.427 75.3372 286.665 75.3895 286.904 75.378C287.106 75.3386 287.292 75.2414 287.44 75.0981C287.588 74.9549 287.691 74.7718 287.737 74.571C287.729 74.561 287.717 74.5545 287.704 74.5529C287.691 74.5513 287.677 74.5546 287.666 74.5622Z" fill="#1D293F"/>
<path d="M284.075 70.4564C284.075 70.4564 283.676 71.8842 283.587 72.567C283.587 72.6291 283.738 72.6823 283.969 72.7267C284.542 72.9114 285.155 72.9354 285.742 72.7963C286.328 72.6572 286.865 72.3601 287.294 71.9374C287.302 71.9316 287.308 71.9243 287.313 71.916C287.318 71.9078 287.321 71.8986 287.322 71.8892C287.323 71.8797 287.323 71.8701 287.32 71.8608C287.318 71.8516 287.313 71.843 287.308 71.8354C287.302 71.8278 287.294 71.8215 287.286 71.8167C287.278 71.812 287.269 71.8089 287.259 71.8076C287.25 71.8064 287.24 71.807 287.231 71.8095C287.222 71.812 287.213 71.8163 287.206 71.8221C286.253 72.3047 285.17 72.4635 284.119 72.2744C284.119 72.0793 284.882 69.8622 284.776 69.8356C284.237 69.8116 283.697 69.8594 283.171 69.9775C283.907 66.9889 285.122 64.1422 285.831 61.1092C285.835 61.0872 285.831 61.0644 285.82 61.0448C285.809 61.0252 285.792 61.0099 285.771 61.0016C285.75 60.9933 285.727 60.9924 285.706 60.9991C285.684 61.0057 285.666 61.0196 285.654 61.0383C284.263 64.0535 283.176 67.1995 282.408 70.4298C282.31 70.8643 283.782 70.5362 284.075 70.4564Z" fill="#1D293F"/>
<path d="M302.06 69.8531C298.512 69.5959 297.927 58.7146 297.865 57.3843C297.865 58.2712 297.812 62.7053 297.466 62.8561C297.089 62.8301 296.718 62.7464 296.366 62.6077C296.386 62.0716 296.362 61.5348 296.295 61.0026C296.295 60.7543 296.18 61.5347 296.011 62.4925L295.364 62.2885C295.447 61.1493 295.379 60.0041 295.16 58.8831C295.071 58.4574 294.885 60.3463 294.424 61.9958C291.45 60.9989 288.374 60.3327 285.254 60.0093C284.367 59.9473 283.614 59.9295 282.94 59.9295C282.984 58.617 283.188 57.2158 283.081 57.5174C282.789 58.3042 282.575 59.1182 282.443 59.9473C282.07 59.9473 281.733 59.9473 281.432 59.9473C281.432 58.0761 282.416 55.1407 282.097 55.5841C281.16 56.9499 280.492 58.4819 280.128 60.098C278.842 60.302 278.488 60.5326 278.461 60.2044C278.998 56.5607 280.811 53.226 283.578 50.7952C288.145 46.8134 296.978 46.1128 301.687 52.693C301.687 52.693 305.669 55.5131 306.121 59.7876C306.573 64.0621 304.09 70.0039 302.06 69.8531Z" fill="#1D293F"/>
<path d="M300.889 70.5802C300.889 70.5802 304.259 66.2525 306.21 67.4763C308.161 68.7001 305.5 75.0853 303.061 75.848C302.756 75.9675 302.429 76.0242 302.101 76.0145C301.773 76.0048 301.45 75.9289 301.152 75.7914C300.854 75.654 300.586 75.4577 300.366 75.2145C300.146 74.9712 299.976 74.686 299.869 74.3758L300.889 70.5802Z" fill="#F7A9A0"/>
<path d="M305.421 69.2859V69.348C303.709 69.9421 302.76 71.4586 302.051 73.0372C302.156 72.8743 302.296 72.7364 302.46 72.6327C302.624 72.5291 302.808 72.4624 303 72.4371C303.193 72.4118 303.388 72.4285 303.573 72.4862C303.759 72.5439 303.929 72.6411 304.073 72.7711C304.117 72.7711 304.073 72.8687 304.029 72.8598C303.739 72.7499 303.422 72.7327 303.121 72.8105C302.821 72.8884 302.553 73.0574 302.352 73.2943C302.01 73.6918 301.712 74.1261 301.466 74.5891C301.377 74.731 301.111 74.6423 301.173 74.4738V74.4295C301.315 72.2922 303.088 69.3834 305.421 69.2859Z" fill="#1D293F"/>
<path d="M308.666 90.0022C325.259 103.562 338.676 124.296 339.386 129.546C340.166 135.328 338.144 156.319 332.673 166.979C331.227 169.79 309.775 156.993 311.194 153.925C313.925 148.018 317.978 131.834 317.402 128.615C316.861 125.635 308.409 107.694 302.627 98.2763C297.271 89.6386 300.942 83.6968 308.666 90.0022Z" fill="#F7A9A0"/>
<path d="M294.681 179.43C295.125 180.058 295.75 180.535 296.473 180.796C297.196 181.058 297.982 181.092 298.725 180.893C298.754 182.198 299.237 183.453 300.091 184.44C301.678 186.107 304.986 184.343 304.986 184.343C305.296 185.702 306.006 186.938 307.026 187.89C308.711 189.327 312.302 188.023 312.302 188.023C313.27 189.104 314.596 189.8 316.036 189.983C319.902 190.311 323.467 185.549 325.791 182.587C328.114 179.625 331.795 168.974 332.708 167.023L313.65 152.133C313.65 152.133 299.55 162.606 297.35 166.5C295.47 169.754 293.076 176.964 294.681 179.43Z" fill="#F7A9A0"/>
<path d="M298.521 180.52C299.656 176.564 301.891 173.15 303.939 169.612C303.984 169.532 304.108 169.612 304.055 169.683C301.988 173.177 300.632 177.034 298.734 180.599C298.654 180.697 298.494 180.626 298.521 180.52Z" fill="#1D293F"/>
<path d="M304.791 184.084C305.132 183.209 305.588 182.383 306.148 181.628C306.689 180.794 307.247 179.961 307.815 179.145C308.95 177.513 310.121 175.899 311.362 174.32C311.416 174.249 311.54 174.32 311.487 174.391C310.351 176.032 309.252 177.681 308.188 179.358C307.655 180.244 307.132 181.043 306.618 181.894C306.175 182.724 305.646 183.506 305.039 184.226C305.02 184.259 304.989 184.283 304.953 184.293C304.916 184.303 304.877 184.298 304.844 184.279C304.811 184.261 304.787 184.23 304.777 184.193C304.767 184.156 304.772 184.117 304.791 184.084Z" fill="#1D293F"/>
<path d="M312.347 187.915C312.681 187.126 313.149 186.4 313.73 185.769C314.271 185.033 314.794 184.297 315.327 183.552C316.373 182.071 317.428 180.59 318.422 179.074C318.475 179.003 318.59 179.074 318.546 179.145C317.535 180.697 316.55 182.258 315.53 183.792C315.034 184.548 314.528 185.302 314.014 186.053C313.612 186.777 313.087 187.426 312.462 187.969C312.455 187.984 312.442 187.996 312.426 188.002C312.411 188.007 312.393 188.007 312.378 188C312.363 187.993 312.351 187.98 312.345 187.964C312.339 187.948 312.34 187.931 312.347 187.915Z" fill="#1D293F"/>
<path d="M300.686 96.5194C303.887 105.547 316.808 127.017 316.728 129.084C316.648 131.15 310.343 152.682 310.343 152.682L335.964 168.237C335.964 168.237 341.675 138.919 339.511 128.72C337.87 120.881 319.814 98.1246 311.035 91.1187C302.255 84.1127 296.588 84.9552 300.686 96.5194Z" fill="#FFC727"/>
<path d="M300.686 96.5194C303.887 105.547 316.808 127.017 316.728 129.084C316.648 131.15 310.343 152.682 310.343 152.682L335.964 168.237C335.964 168.237 341.675 138.919 339.511 128.72C337.87 120.881 319.814 98.1246 311.035 91.1187C302.255 84.1127 296.588 84.9552 300.686 96.5194Z" fill="#FFE6B3"/>
<path d="M316.754 127.835C316.34 126.323 315.7 124.882 314.856 123.56C313.233 120.572 311.619 117.574 309.917 114.63C308.968 112.998 305.154 106.746 304.028 104.742C303.922 104.556 303.656 104.742 303.753 104.91C304.365 106.134 306.174 109.389 307.443 111.65C307.247 111.411 307.052 111.163 306.839 110.932C306.458 110.506 306.068 110.045 305.642 109.682C305.166 109.287 304.73 108.847 304.339 108.369C304.294 108.298 304.17 108.369 304.223 108.44C304.937 109.365 305.697 110.253 306.502 111.1C306.893 111.553 307.283 111.987 307.655 112.466C307.913 112.768 308.152 113.087 308.418 113.353C308.48 113.468 308.542 113.566 308.587 113.655C310.254 116.537 311.823 119.481 313.393 122.416C314.222 123.82 314.968 125.271 315.628 126.762C315.919 127.451 316.055 128.196 316.027 128.943C315.939 129.834 315.752 130.711 315.468 131.56C314.581 134.761 313.748 137.971 312.914 141.182C312.435 143.035 311.956 144.897 311.513 146.76C311.07 148.622 310.555 150.484 310.289 152.382C310.289 152.506 310.458 152.613 310.511 152.471C311.112 150.87 311.63 149.239 312.063 147.584C312.554 145.917 313.024 144.247 313.473 142.574C314.36 139.195 315.247 135.807 316.133 132.411C316.541 130.93 317.047 129.387 316.754 127.835Z" fill="#1D293F"/>
<path d="M335.706 161.515C328.756 156.614 321.544 152.096 314.103 147.982C314.088 147.978 314.072 147.979 314.058 147.985C314.044 147.99 314.033 148 314.025 148.013C314.017 148.026 314.013 148.041 314.014 148.056C314.016 148.071 314.022 148.086 314.032 148.097C320.97 153.015 328.17 157.553 335.599 161.692C335.622 161.699 335.647 161.698 335.669 161.69C335.691 161.681 335.71 161.666 335.722 161.645C335.734 161.625 335.739 161.601 335.736 161.577C335.733 161.553 335.723 161.531 335.706 161.515Z" fill="#1D293F"/>
<path d="M219.893 224.961V87.5509C219.893 87.0205 219.682 86.5118 219.307 86.1367L186.868 53.6981C186.493 53.323 185.984 53.1123 185.454 53.1123H82.8141C81.7095 53.1123 80.8141 54.0077 80.8141 55.1123V224.961C80.8141 226.066 81.7095 226.961 82.8141 226.961H217.893C218.998 226.961 219.893 226.066 219.893 224.961Z" fill="#C8DEFE"/>
<path d="M216.416 221.483V83.245L182.806 49.6348H79.3374C78.2328 49.6348 77.3374 50.5302 77.3374 51.6348V221.483C77.3374 222.588 78.2328 223.483 79.3374 223.483H214.416C215.521 223.483 216.416 222.588 216.416 221.483Z" fill="white"/>
<path fill-rule="evenodd" clip-rule="evenodd" d="M216.416 83.245L182.806 49.6348H79.3374C78.2328 49.6348 77.3374 50.5302 77.3374 51.6348V221.483C77.3374 222.588 78.2328 223.483 79.3374 223.483H214.416C215.521 223.483 216.416 222.588 216.416 221.483V83.245ZM182.391 50.6348L215.416 83.6592V221.483C215.416 222.036 214.969 222.483 214.416 222.483H79.3374C78.7851 222.483 78.3374 222.036 78.3374 221.483V51.6348C78.3374 51.0825 78.7851 50.6348 79.3374 50.6348H182.391Z" fill="#1D293F"/>
<path fill-rule="evenodd" clip-rule="evenodd" d="M153.83 95.4695H94.7219V97.7875H153.83V95.4695ZM94.7213 104.74H153.83V107.058H94.7213V104.74ZM175.851 123.285H94.7213V125.603H175.851V123.285ZM185.123 146.464H94.7213V148.782H185.123V146.464ZM185.123 183.552H94.7213V185.87H185.123V183.552ZM94.7213 155.736H171.215V158.054H94.7213V155.736ZM94.7213 114.012H199.031V116.33H94.7213V114.012ZM199.031 165.009H94.7213V167.327H199.031V165.009ZM94.7213 192.824H199.031V195.142H94.7213V192.824ZM187.441 174.28H94.7213V176.598H187.441V174.28ZM94.7213 202.096H187.441V204.414H94.7213V202.096Z" fill="#CAD1DD"/>
<rect x="95.1517" y="71.5603" width="52.0737" height="8.22216" fill="#CAD1DD"/>
<path d="M182.806 49.6348L216.417 83.2458H182.806L182.806 49.6348Z" fill="#1D293F"/>
<path d="M89.0319 320.809C89.3026 314.017 89.2092 307.215 88.7519 300.433C87.7454 286.445 85.6051 272.562 82.3519 258.921C80.5759 251.241 78.3519 243.721 76.0959 236.145C76.0319 235.913 75.6639 235.977 75.7279 236.217C82.7919 262.809 88.5839 290.257 88.1839 317.905C88.0799 325.641 87.1839 333.241 86.4479 340.929C86.4479 341.129 86.7679 341.217 86.8079 341.001C88.2879 334.425 88.7599 327.529 89.0319 320.809Z" fill="#1D293F"/>
<path d="M75.7439 236.217C75.7439 236.217 65.0479 263.377 67.4399 269.761C69.8319 276.145 74.7759 277.505 74.7759 277.505C74.7759 277.505 68.2319 286.849 72.7999 295.617C77.3679 304.385 87.5439 303.969 88.2159 313.905C88.2159 313.905 88.7839 272.345 75.7439 236.217Z" fill="#B3E9D7"/>
<path d="M87.0799 296.745C87.0957 296.698 87.0957 296.647 87.0799 296.601C85.6694 278.058 82.1809 259.732 76.6799 241.969C76.6799 241.921 76.5759 241.969 76.5919 241.969C78.7252 249.91 80.5919 257.91 82.1919 265.969C80.7584 264.603 79.0025 263.624 77.0879 263.121C77.0879 263.121 77.0319 263.121 77.0879 263.177C79.098 263.918 80.9044 265.124 82.3599 266.697C82.6692 268.297 82.9706 269.873 83.2639 271.425C80.8639 268.753 77.5599 267.425 74.2399 266.169C74.1919 266.169 74.1679 266.217 74.2399 266.241C77.6959 267.641 81.1359 269.441 83.4799 272.433C84.2959 276.945 85.0132 281.478 85.6319 286.033C83.8971 284.221 81.6739 282.951 79.2319 282.377C79.1599 282.377 79.1199 282.465 79.2319 282.489C81.7428 283.219 83.9898 284.658 85.7039 286.633C85.9199 288.233 86.1199 289.833 86.3039 291.433C84.9646 290.304 83.4553 289.394 81.8319 288.737C81.8319 288.737 81.7679 288.785 81.8319 288.809C83.4735 289.512 84.979 290.497 86.2799 291.721H86.3359C86.5199 293.241 86.6959 294.761 86.8479 296.289C84.4384 293.377 81.3117 291.143 77.7759 289.809C77.7039 289.809 77.6719 289.889 77.7759 289.921C81.2699 291.457 84.339 293.818 86.7199 296.801C86.7448 296.835 86.7799 296.86 86.8202 296.873C86.8604 296.886 86.9037 296.886 86.9439 296.873C87.1759 299.209 87.3839 301.545 87.5519 303.889C87.5519 303.889 87.6079 303.929 87.6079 303.889C87.4372 301.526 87.2612 299.145 87.0799 296.745Z" fill="#1D293F"/>
<path d="M117.16 270.201C112.635 273.328 108.48 276.959 104.776 281.025C100.957 285.316 98.0071 290.307 96.0877 295.721C92.0271 307.023 89.8435 318.913 89.6237 330.921C89.4844 337.575 90.1234 344.223 91.5277 350.729C91.5372 350.778 91.5658 350.821 91.607 350.848C91.6483 350.876 91.6989 350.886 91.7477 350.877C91.7965 350.867 91.8395 350.839 91.8673 350.797C91.895 350.756 91.9052 350.706 91.8957 350.657C90.1499 339.176 90.2174 327.492 92.0957 316.033C93.9357 304.793 96.8157 292.569 103.96 283.441C107.88 278.537 112.68 274.625 117.48 270.577C117.744 270.369 117.416 270.017 117.16 270.201Z" fill="#1D293F"/>
<path d="M91.1919 322.921C93.771 318.756 96.7998 314.888 100.224 311.385C105.576 306.033 110.08 302.233 110.776 298.689C111.472 295.145 105.416 292.545 105.416 292.545C105.416 292.545 112.824 293.873 114.848 290.769C116.872 287.665 117.856 269.657 117.856 269.657C117.856 269.657 104.384 279.257 98.1039 292.761C91.8239 306.265 91.1919 322.921 91.1919 322.921Z" fill="#B3E9D7"/>
<path d="M51.6961 289.321C56.0789 290.81 60.2789 292.79 64.2161 295.225C68.2939 297.821 71.8264 301.188 74.6161 305.137C80.5205 313.349 85.0416 322.472 88.0001 332.145C89.6613 337.492 90.6949 343.014 91.0801 348.601C91.072 348.636 91.0522 348.668 91.0238 348.69C90.9955 348.713 90.9603 348.725 90.9241 348.725C90.8878 348.725 90.8526 348.713 90.8243 348.69C90.7959 348.668 90.7761 348.636 90.7681 348.601C89.5278 338.898 86.7744 329.45 82.6081 320.601C78.5041 311.985 73.3441 302.761 65.4801 297.025C61.1841 293.897 56.3521 291.857 51.5361 289.689C51.2641 289.577 51.4401 289.217 51.6961 289.321Z" fill="#1D293F"/>
<path d="M84.888 325.945C81.8375 323.171 78.4922 320.741 74.912 318.697C69.312 315.601 64.816 313.569 63.432 310.865C62.048 308.161 66.352 304.649 66.352 304.649C66.352 304.649 60.664 307.441 58.352 305.393C56.04 303.345 51 289.001 51 289.001C51 289.001 64.128 293.673 72.328 303.137C80.528 312.601 84.888 325.945 84.888 325.945Z" fill="#B3E9D7"/>
<path d="M104.5 365.779H74.868L79.5836 327.5H98.6076L104.5 365.779Z" fill="#C8DEFE"/>
<path fill-rule="evenodd" clip-rule="evenodd" d="M72.9244 365.662L78.0084 327.49L77.2196 327.382L72.0123 366.459H102.412L99.0655 343L98.2767 343.107L101.5 365.662H72.9244Z" fill="#1D293F"/>
<path d="M99.2322 325.065H74.7682V331.785H99.2322V325.065Z" fill="#1D293F"/>
<path d="M319.849 176.982L320.031 243.316C320.035 244.195 319.865 245.066 319.532 245.88C319.198 246.693 318.707 247.433 318.087 248.056C317.466 248.679 316.729 249.173 315.917 249.511C315.105 249.848 314.235 250.022 313.355 250.022L208.15 250.295C207.27 250.299 206.397 250.129 205.582 249.796C204.766 249.463 204.025 248.972 203.399 248.352C202.774 247.732 202.277 246.995 201.936 246.183C201.595 245.371 201.418 244.5 201.414 243.619L201.262 177.286C201.237 176.46 201.381 175.639 201.684 174.871C201.987 174.103 202.444 173.406 203.026 172.821C203.609 172.235 204.304 171.775 205.07 171.468C205.837 171.161 206.657 171.014 207.483 171.035L313.689 170.761C314.507 170.749 315.318 170.902 316.075 171.211C316.832 171.52 317.519 171.978 318.094 172.559C318.67 173.14 319.122 173.832 319.423 174.592C319.725 175.352 319.87 176.165 319.849 176.982Z" fill="#475569"/>
<path d="M302.918 234C302.918 235.2 302.562 236.374 301.895 237.372C301.228 238.37 300.28 239.148 299.171 239.607C298.062 240.066 296.842 240.187 295.665 239.952C294.487 239.718 293.406 239.14 292.557 238.291C291.709 237.443 291.131 236.361 290.896 235.184C290.662 234.007 290.782 232.787 291.242 231.678C291.701 230.569 292.479 229.621 293.477 228.954C294.475 228.287 295.648 227.931 296.849 227.931C298.458 227.931 300.002 228.571 301.14 229.709C302.278 230.847 302.918 232.391 302.918 234Z" fill="white"/>
<path d="M310.533 233.97C310.533 235.17 310.177 236.344 309.51 237.342C308.843 238.34 307.895 239.117 306.786 239.577C305.677 240.036 304.457 240.156 303.28 239.922C302.103 239.688 301.021 239.11 300.172 238.261C299.324 237.412 298.746 236.331 298.512 235.154C298.277 233.977 298.398 232.756 298.857 231.647C299.316 230.538 300.094 229.591 301.092 228.924C302.09 228.257 303.263 227.901 304.464 227.901C306.073 227.901 307.617 228.54 308.755 229.678C309.893 230.817 310.533 232.36 310.533 233.97Z" fill="#FFC727"/>
<path d="M225.839 200.772H218.981C216.939 200.772 214.98 199.965 213.531 198.527C212.081 197.089 211.259 195.136 211.243 193.095C211.243 191.056 212.051 189.1 213.49 187.655C214.928 186.211 216.881 185.395 218.92 185.387H225.808C227.847 185.387 229.803 186.195 231.248 187.634C232.692 189.073 233.508 191.026 233.516 193.064C233.516 195.103 232.708 197.059 231.269 198.504C229.83 199.948 227.877 200.764 225.839 200.772Z" fill="#FFC727"/>
<path d="M306.192 193.641H296.117C295.563 193.645 295.014 193.54 294.501 193.331C293.988 193.123 293.52 192.816 293.126 192.427C292.731 192.038 292.417 191.575 292.202 191.065C291.986 190.555 291.873 190.007 291.869 189.453C291.869 188.332 292.313 187.256 293.103 186.46C293.893 185.664 294.966 185.213 296.087 185.205H306.161C307.28 185.205 308.353 185.649 309.144 186.44C309.935 187.231 310.379 188.304 310.379 189.423C310.379 190.536 309.939 191.605 309.155 192.395C308.37 193.185 307.305 193.633 306.192 193.641Z" fill="white"/>
<path d="M267.687 228.534L211.367 228.682L211.374 231.443L267.694 231.296L267.687 228.534Z" fill="white"/>
<path d="M251.258 234.708L211.385 234.812L211.392 237.574L251.265 237.469L251.258 234.708Z" fill="white"/>
<path d="M288.016 185.21L259.917 185.284L259.924 188.045L288.024 187.972L288.016 185.21Z" fill="white"/>
<path d="M294.682 179.432C295.125 180.06 295.751 180.537 296.474 180.799C297.197 181.061 297.983 181.094 298.725 180.896C298.754 182.201 299.237 183.455 300.091 184.443C301.679 186.11 304.987 184.345 304.987 184.345C305.296 185.705 306.007 186.941 307.026 187.893C308.711 189.329 312.303 188.026 312.303 188.026C313.271 189.107 314.597 189.803 316.036 189.986C319.903 190.314 323.468 185.551 325.791 182.589C328.115 179.627 331.795 168.977 332.709 167.026L310.273 154.922C310.273 154.922 299.55 162.609 297.351 166.502C295.471 169.757 293.076 176.967 294.682 179.432Z" fill="#F7A9A0"/>
<path d="M298.522 180.523C299.657 176.567 301.891 173.153 303.94 169.615C303.984 169.535 304.109 169.615 304.055 169.686C301.989 173.18 300.632 177.037 298.734 180.602C298.655 180.7 298.495 180.629 298.522 180.523Z" fill="#1D293F"/>
<path d="M304.792 184.088C305.133 183.213 305.589 182.387 306.148 181.632C306.689 180.798 307.248 179.965 307.816 179.149C308.951 177.517 310.121 175.903 311.363 174.324C311.416 174.253 311.54 174.324 311.487 174.395C310.352 176.036 309.252 177.685 308.188 179.361C307.656 180.248 307.133 181.046 306.618 181.898C306.175 182.728 305.646 183.51 305.04 184.23C305.021 184.263 304.99 184.287 304.953 184.297C304.917 184.307 304.878 184.302 304.845 184.283C304.812 184.265 304.788 184.233 304.778 184.197C304.768 184.16 304.773 184.121 304.792 184.088Z" fill="#1D293F"/>
<path d="M312.347 187.919C312.681 187.13 313.15 186.404 313.731 185.773C314.272 185.037 314.795 184.301 315.327 183.556C316.374 182.075 317.429 180.594 318.422 179.078C318.475 179.007 318.591 179.078 318.546 179.149C317.535 180.701 316.551 182.261 315.531 183.796C315.035 184.552 314.529 185.306 314.015 186.057C313.613 186.781 313.088 187.43 312.463 187.973C312.456 187.988 312.443 188 312.427 188.006C312.411 188.011 312.394 188.011 312.378 188.004C312.363 187.997 312.351 187.984 312.346 187.968C312.34 187.952 312.34 187.935 312.347 187.919Z" fill="#1D293F"/>
<path d="M175.588 312.558H213.259C215.638 312.556 217.919 311.61 219.601 309.928C221.283 308.246 222.229 305.965 222.231 303.586V233.076C222.237 231.842 222.494 230.623 222.985 229.491C223.477 228.36 224.193 227.34 225.09 226.493C225.987 225.646 227.046 224.99 228.204 224.565C229.362 224.14 230.594 223.954 231.826 224.018H184.56C182.181 224.021 179.9 224.967 178.218 226.649C176.536 228.331 175.59 230.611 175.588 232.99V312.558Z" fill="white"/>
<path d="M175.588 312.558H213.259C215.638 312.556 217.919 311.61 219.601 309.928C221.283 308.246 222.229 305.965 222.231 303.586V233.076C222.237 231.842 222.494 230.623 222.985 229.491C223.477 228.36 224.193 227.34 225.09 226.493C225.987 225.646 227.046 224.99 228.204 224.565C229.362 224.14 230.594 223.954 231.826 224.018H184.56C182.181 224.021 179.9 224.967 178.218 226.649C176.536 228.331 175.59 230.611 175.588 232.99V312.558Z" fill="#D3DBE7" fill-opacity="0.6"/>
<path d="M216.196 233.008H182.409V234.561H216.196V233.008Z" fill="#D3DBE7"/>
<path d="M216.196 233.008H182.409V234.561H216.196V233.008Z" fill="#1E437D" fill-opacity="0.2"/>
<path d="M216.196 237.379H182.409V238.932H216.196V237.379Z" fill="#D3DBE7"/>
<path d="M216.196 237.379H182.409V238.932H216.196V237.379Z" fill="#1E437D" fill-opacity="0.2"/>
<path d="M216.196 241.741H182.409V243.294H216.196V241.741Z" fill="#D3DBE7"/>
<path d="M216.196 241.741H182.409V243.294H216.196V241.741Z" fill="#1E437D" fill-opacity="0.2"/>
<path d="M216.196 246.103H182.409V247.657H216.196V246.103Z" fill="#D3DBE7"/>
<path d="M216.196 246.103H182.409V247.657H216.196V246.103Z" fill="#1E437D" fill-opacity="0.2"/>
<path d="M216.196 250.465H182.409V252.019H216.196V250.465Z" fill="#D3DBE7"/>
<path d="M216.196 250.465H182.409V252.019H216.196V250.465Z" fill="#1E437D" fill-opacity="0.2"/>
<path d="M216.196 254.826H182.409V256.38H216.196V254.826Z" fill="#D3DBE7"/>
<path d="M216.196 254.826H182.409V256.38H216.196V254.826Z" fill="#1E437D" fill-opacity="0.2"/>
<path d="M216.196 259.197H182.409V260.751H216.196V259.197Z" fill="#D3DBE7"/>
<path d="M216.196 259.197H182.409V260.751H216.196V259.197Z" fill="#1E437D" fill-opacity="0.2"/>
<path d="M216.196 263.559H182.409V265.113H216.196V263.559Z" fill="#D3DBE7"/>
<path d="M216.196 263.559H182.409V265.113H216.196V263.559Z" fill="#1E437D" fill-opacity="0.2"/>
<path d="M216.196 267.922H182.409V269.476H216.196V267.922Z" fill="#D3DBE7"/>
<path d="M216.196 267.922H182.409V269.476H216.196V267.922Z" fill="#1E437D" fill-opacity="0.2"/>
<path d="M216.196 272.284H182.409V273.837H216.196V272.284Z" fill="#D3DBE7"/>
<path d="M216.196 272.284H182.409V273.837H216.196V272.284Z" fill="#1E437D" fill-opacity="0.2"/>
<path d="M216.196 276.646H182.409V278.199H216.196V276.646Z" fill="#D3DBE7"/>
<path d="M216.196 276.646H182.409V278.199H216.196V276.646Z" fill="#1E437D" fill-opacity="0.2"/>
<path d="M216.196 281.017H182.409V282.57H216.196V281.017Z" fill="#D3DBE7"/>
<path d="M216.196 281.017H182.409V282.57H216.196V281.017Z" fill="#1E437D" fill-opacity="0.2"/>
<path d="M216.196 285.378H182.409V286.932H216.196V285.378Z" fill="#D3DBE7"/>
<path d="M216.196 285.378H182.409V286.932H216.196V285.378Z" fill="#1E437D" fill-opacity="0.2"/>
<path d="M216.196 289.741H182.409V291.295H216.196V289.741Z" fill="#D3DBE7"/>
<path d="M216.196 289.741H182.409V291.295H216.196V289.741Z" fill="#1E437D" fill-opacity="0.2"/>
<path d="M216.196 294.103H182.409V295.657H216.196V294.103Z" fill="#D3DBE7"/>
<path d="M216.196 294.103H182.409V295.657H216.196V294.103Z" fill="#1E437D" fill-opacity="0.2"/>
<path d="M216.196 298.464H182.409V300.018H216.196V298.464Z" fill="#D3DBE7"/>
<path d="M216.196 298.464H182.409V300.018H216.196V298.464Z" fill="#1E437D" fill-opacity="0.2"/>
<path d="M139.172 282.706V367.839H167.692V367.95C167.689 370.315 168.612 372.587 170.263 374.28C171.915 375.973 174.163 376.952 176.527 377.008H176.835C177.143 377.008 177.45 376.991 177.756 376.956L179.464 376.606C179.882 376.473 180.29 376.31 180.684 376.12C180.881 376.032 181.072 375.932 181.256 375.821C181.354 375.767 181.448 375.708 181.538 375.642C181.803 375.489 182.057 375.318 182.298 375.13L182.417 375.036C182.592 374.902 182.757 374.756 182.913 374.6C183.002 374.525 183.088 374.445 183.169 374.361C184.209 373.334 184.978 372.063 185.405 370.665C185.402 370.639 185.402 370.614 185.405 370.588C185.465 370.366 185.525 370.144 185.576 369.914C185.646 369.634 185.692 369.348 185.712 369.06C185.712 368.924 185.712 368.796 185.712 368.667C185.717 368.622 185.717 368.576 185.712 368.531C185.712 368.369 185.712 368.207 185.712 368.044V282.8C185.718 281.565 185.974 280.344 186.465 279.21C186.956 278.077 187.673 277.056 188.571 276.208C189.469 275.361 190.53 274.704 191.689 274.279C192.849 273.853 194.083 273.668 195.316 273.734H148.178C146.997 273.731 145.827 273.96 144.735 274.409C143.643 274.859 142.651 275.519 141.814 276.352C140.978 277.185 140.314 278.176 139.86 279.266C139.407 280.356 139.173 281.525 139.172 282.706Z" fill="white"/>
<path d="M167.828 367.844V367.955C167.825 370.32 168.748 372.592 170.4 374.285C172.051 375.978 174.077 376.748 176.441 376.803H176.749C177.057 376.804 177.364 376.787 177.67 376.752L179.378 376.402C179.796 376.269 180.204 376.106 180.598 375.916C180.795 375.828 180.986 375.728 181.17 375.617C181.268 375.563 181.362 375.503 181.452 375.438C181.717 375.285 181.971 375.114 182.212 374.925L182.331 374.832C182.506 374.698 182.671 374.552 182.826 374.396C182.916 374.321 183.002 374.241 183.083 374.157C184.123 373.13 184.892 371.859 185.319 370.461C185.316 370.435 185.316 370.41 185.319 370.384C185.379 370.162 185.439 369.94 185.49 369.71C185.56 369.43 185.606 369.144 185.626 368.856C185.626 368.719 185.626 368.591 185.626 368.463C185.631 368.418 185.631 368.372 185.626 368.327C185.626 368.165 185.626 368.002 185.626 367.84V282.596C185.632 281.361 185.888 280.139 186.379 279.006C186.87 277.873 187.587 276.852 188.485 276.004C189.383 275.156 190.444 274.5 191.603 274.075C192.763 273.649 193.997 273.464 195.23 273.53" stroke="#1D293F" stroke-width="0.5"/>
<g opacity="0.9">
<path d="M179.224 279.419H145.437V280.972H179.224V279.419Z" fill="#D3DBE7"/>
<path d="M182.408 275.424H148.621V276.978H182.408V275.424Z" fill="#D3DBE7"/>
<path d="M179.224 283.782H145.437V285.335H179.224V283.782Z" fill="#D3DBE7"/>
<path d="M179.224 288.144H145.437V289.698H179.224V288.144Z" fill="#D3DBE7"/>
<path d="M179.224 292.505H145.437V294.059H179.224V292.505Z" fill="#D3DBE7"/>
<path d="M179.224 296.868H145.437V298.422H179.224V296.868Z" fill="#D3DBE7"/>
<path d="M179.224 301.239H145.437V302.792H179.224V301.239Z" fill="#D3DBE7"/>
<path d="M179.224 305.6H145.437V307.154H179.224V305.6Z" fill="#D3DBE7"/>
<path d="M179.224 309.963H145.437V311.516H179.224V309.963Z" fill="#D3DBE7"/>
<path d="M179.224 314.325H145.437V315.878H179.224V314.325Z" fill="#D3DBE7"/>
<path d="M179.224 318.687H145.437V320.24H179.224V318.687Z" fill="#D3DBE7"/>
<path d="M179.224 323.057H145.437V324.611H179.224V323.057Z" fill="#D3DBE7"/>
<path d="M179.224 327.42H145.437V328.974H179.224V327.42Z" fill="#D3DBE7"/>
<path d="M179.224 331.781H145.437V333.335H179.224V331.781Z" fill="#D3DBE7"/>
<path d="M179.224 336.143H145.437V337.697H179.224V336.143Z" fill="#D3DBE7"/>
<path d="M179.224 340.506H145.437V342.06H179.224V340.506Z" fill="#D3DBE7"/>
<path d="M179.224 344.876H145.437V346.43H179.224V344.876Z" fill="#D3DBE7"/>
<path d="M179.224 349.239H145.437V350.792H179.224V349.239Z" fill="#D3DBE7"/>
<path d="M179.224 353.601H145.437V355.154H179.224V353.601Z" fill="#D3DBE7"/>
<path d="M179.224 359.892H162.331V363.477H179.224V359.892Z" fill="#D3DBE7"/>
</g>
<path d="M212.943 312.558C213.02 312.567 213.097 312.567 213.174 312.558C213.508 312.556 213.841 312.536 214.173 312.499C213.866 312.53 213.559 312.544 213.251 312.541L212.943 312.558Z" fill="#FFC727"/>
<path d="M231.288 224.036C228.889 224.036 226.588 224.988 224.89 226.683C223.192 228.378 222.235 230.677 222.231 233.076V250.149H240.345V233.076C240.341 230.677 239.384 228.378 237.686 226.683C235.988 224.988 233.687 224.036 231.288 224.036Z" fill="#FFC727"/>
<path d="M231.288 224.036C228.889 224.036 226.588 224.988 224.89 226.683C223.192 228.378 222.235 230.677 222.231 233.076V250.149H240.345V233.076C240.341 230.677 239.384 228.378 237.686 226.683C235.988 224.988 233.687 224.036 231.288 224.036Z" fill="#D3DBE7"/>
<path d="M231.288 224.036C228.889 224.036 226.588 224.988 224.89 226.683C223.192 228.378 222.235 230.677 222.231 233.076V250.149H240.345V233.076C240.341 230.677 239.384 228.378 237.686 226.683C235.988 224.988 233.687 224.036 231.288 224.036Z" fill="#1E437D" fill-opacity="0.2"/>
<path d="M185.824 282.8V312.575H203.946H212.782C210.418 312.521 208.17 311.544 206.518 309.853C204.867 308.161 203.944 305.89 203.946 303.526V282.8C203.984 281.587 203.777 280.378 203.338 279.246C202.9 278.114 202.238 277.082 201.393 276.21C200.548 275.339 199.536 274.646 198.419 274.173C197.301 273.7 196.099 273.456 194.885 273.456C193.671 273.456 192.47 273.7 191.352 274.173C190.234 274.646 189.222 275.339 188.377 276.21C187.532 277.082 186.87 278.114 186.432 279.246C185.993 280.378 185.786 281.587 185.824 282.8Z" fill="#FFC727"/>
<path d="M185.824 282.8V312.575H203.946H212.782C210.418 312.521 208.17 311.544 206.518 309.853C204.867 308.161 203.944 305.89 203.946 303.526V282.8C203.984 281.587 203.777 280.378 203.338 279.246C202.9 278.114 202.238 277.082 201.393 276.21C200.548 275.339 199.536 274.646 198.419 274.173C197.301 273.7 196.099 273.456 194.885 273.456C193.671 273.456 192.47 273.7 191.352 274.173C190.234 274.646 189.222 275.339 188.377 276.21C187.532 277.082 186.87 278.114 186.432 279.246C185.993 280.378 185.786 281.587 185.824 282.8Z" fill="#D3DBE7"/>
<path d="M185.824 282.8V312.575H203.946H212.782C210.418 312.521 208.17 311.544 206.518 309.853C204.867 308.161 203.944 305.89 203.946 303.526V282.8C203.984 281.587 203.777 280.378 203.338 279.246C202.9 278.114 202.238 277.082 201.393 276.21C200.548 275.339 199.536 274.646 198.419 274.173C197.301 273.7 196.099 273.456 194.885 273.456C193.671 273.456 192.47 273.7 191.352 274.173C190.234 274.646 189.222 275.339 188.377 276.21C187.532 277.082 186.87 278.114 186.432 279.246C185.993 280.378 185.786 281.587 185.824 282.8Z" fill="#1E437D" fill-opacity="0.2"/>
<path d="M126 367.84V367.951C125.997 370.315 126.92 372.587 128.571 374.28C130.223 375.973 132.471 376.952 134.835 377.008H176.561C174.197 376.952 171.949 375.973 170.297 374.28C168.646 372.587 167.723 370.315 167.726 367.951V367.831L126 367.84Z" fill="#D3DBE7"/>
<path d="M44.4441 66.967C45.0333 72.6058 47.1776 77.97 50.6379 82.461C54.0982 86.952 58.7383 90.3933 64.0405 92.4007C69.3427 94.4082 75.0984 94.9029 80.6654 93.8296C86.2323 92.7564 91.3916 90.1574 95.5675 86.3227L110.88 88.6171L103.219 75.3764C105.132 70.7183 105.854 65.6571 105.321 60.6499C104.929 56.6323 103.745 52.732 101.839 49.1738C99.9328 45.6155 97.3415 42.4694 94.2143 39.9168C91.0872 37.3641 87.4859 35.4553 83.618 34.3003C79.75 33.1453 75.6918 32.7669 71.677 33.1868C67.6622 33.6068 63.7701 34.8168 60.2249 36.7472C56.6797 38.6777 53.5514 41.2903 51.0202 44.4348C48.4889 47.5793 46.6047 51.1935 45.4761 55.0693C44.3475 58.945 43.9968 63.0057 44.4441 67.0176V66.967Z" fill="#B3E9D7"/>
<path d="M41.1885 64.9463C41.7777 70.585 43.922 75.9492 47.3823 80.4403C50.8426 84.9313 55.4827 88.3725 60.7849 90.38C66.0871 92.3874 71.8428 92.8821 77.4098 91.8089C82.9767 90.7356 88.136 88.1367 92.3119 84.302L107.625 86.5964L99.9632 73.3556C101.876 68.6975 102.598 63.6364 102.066 58.6291C101.673 54.6115 100.49 50.7113 98.5834 47.153C96.6772 43.5947 94.0859 40.4486 90.9587 37.896C87.8316 35.3434 84.2303 33.4346 80.3624 32.2796C76.4944 31.1246 72.4362 30.7461 68.4214 31.1661C64.4066 31.586 60.5145 32.796 56.9693 34.7265C53.4241 36.6569 50.2958 39.2696 47.7646 42.4141C45.2333 45.5586 43.3491 49.1728 42.2205 53.0485C41.0919 56.9242 40.7412 60.985 41.1885 64.9968V64.9463Z" fill="white"/>
<path fill-rule="evenodd" clip-rule="evenodd" d="M41.1829 64.9463C41.1829 64.9465 41.1829 64.9461 41.1829 64.9463C41.181 64.9291 41.1792 64.9119 41.1773 64.8947C40.7472 60.9161 41.1015 56.8914 42.2205 53.0485C43.3491 49.1728 45.2333 45.5586 47.7646 42.4141C50.2958 39.2696 53.4241 36.6569 56.9693 34.7265C60.5145 32.796 64.4066 31.586 68.4214 31.1661C72.4362 30.7461 76.4944 31.1246 80.3624 32.2796C84.2303 33.4346 87.8316 35.3434 90.9587 37.896C94.0859 40.4486 96.6772 43.5947 98.5834 47.153C100.49 50.7113 101.673 54.6115 102.066 58.6291C102.598 63.6364 101.876 68.6975 99.9632 73.3556L107.625 86.5964L92.3119 84.302C88.136 88.1367 82.9767 90.7356 77.4098 91.8089C71.8428 92.8821 66.0871 92.3874 60.7849 90.38C55.4827 88.3725 50.8426 84.9313 47.3823 80.4403C43.9436 75.9772 41.8045 70.6519 41.1997 65.0518C41.1977 65.0334 41.1958 65.0151 41.1938 64.9968C41.1939 64.997 41.1938 64.9966 41.1938 64.9968C41.1921 64.9802 41.1903 64.9629 41.1885 64.9463V64.9968C41.1867 64.9801 41.1848 64.9629 41.1829 64.9463ZM42.1776 64.8426C41.7522 60.976 42.093 57.0632 43.1806 53.3281C44.2724 49.579 46.095 46.0829 48.5435 43.0411C50.9921 39.9994 54.0181 37.4721 57.4475 35.6047C60.8769 33.7374 64.6418 32.5669 68.5254 32.1606C72.4091 31.7544 76.3347 32.1205 80.0762 33.2378C83.8178 34.355 87.3014 36.2015 90.3264 38.6707C93.3513 41.1399 95.858 44.1832 97.7019 47.6252C99.5458 51.0672 100.691 54.8401 101.07 58.7264L101.071 58.7349C101.586 63.5771 100.888 68.4713 99.0381 72.9758L98.8513 73.4308L105.719 85.2997L91.9875 83.2422L91.6355 83.5654C87.5961 87.2748 82.6055 89.7888 77.2205 90.827C71.8354 91.8651 66.2679 91.3866 61.139 89.4447C56.0101 87.5029 51.5217 84.1742 48.1745 79.8299C44.8273 75.4857 42.753 70.2968 42.1831 64.8423L42.1776 64.8426Z" fill="#1D293F"/>
<path d="M69.6495 76.7532L57.6779 64.6468L61.7037 60.6787L68.6863 67.7481L83.2102 44.9895L87.968 48.0233L69.6495 76.7532Z" fill="#00B67B"/>
</svg>
