<svg width="93" height="16" viewBox="0 0 93 16" fill="none" xmlns="http://www.w3.org/2000/svg">
<path fill-rule="evenodd" clip-rule="evenodd" d="M16.2018 5.96192L11.0957 5.23144L8.813 0.675633C8.74802 0.566818 8.6294 0.5 8.50119 0.5C8.37299 0.5 8.25437 0.566818 8.18939 0.675633L5.90568 5.23041L0.798129 5.96192C0.667112 5.98054 0.558188 6.07077 0.517148 6.19469C0.476107 6.31861 0.510066 6.45473 0.604748 6.54582L4.30055 10.0924L3.42825 15.0999C3.40599 15.2283 3.45961 15.358 3.56659 15.4345C3.67358 15.5111 3.81542 15.5213 3.93257 15.4609L8.49998 13.0968L13.0674 15.4598C13.1845 15.5203 13.3264 15.5101 13.4334 15.4335C13.5403 15.3569 13.594 15.2272 13.5717 15.0989L12.6994 10.0924L16.3952 6.54582C16.4899 6.45477 16.5239 6.31872 16.4829 6.19482C16.4419 6.07092 16.3328 5.98064 16.2018 5.96192Z" fill="#FFC727"/>
<path fill-rule="evenodd" clip-rule="evenodd" d="M35.2018 5.96192L30.0957 5.23144L27.813 0.675633C27.748 0.566818 27.6294 0.5 27.5012 0.5C27.373 0.5 27.2544 0.566818 27.1894 0.675633L24.9057 5.23041L19.7981 5.96192C19.6671 5.98054 19.5582 6.07077 19.5171 6.19469C19.4761 6.31861 19.5101 6.45473 19.6047 6.54582L23.3006 10.0924L22.4282 15.0999C22.406 15.2283 22.4596 15.358 22.5666 15.4345C22.6736 15.5111 22.8154 15.5213 22.9326 15.4609L27.5 13.0968L32.0674 15.4598C32.1845 15.5203 32.3264 15.5101 32.4334 15.4335C32.5403 15.3569 32.594 15.2272 32.5717 15.0989L31.6994 10.0924L35.3952 6.54582C35.4899 6.45477 35.5239 6.31872 35.4829 6.19482C35.4419 6.07092 35.3328 5.98064 35.2018 5.96192Z" fill="#FFC727"/>
<path fill-rule="evenodd" clip-rule="evenodd" d="M54.2018 5.96192L49.0957 5.23144L46.813 0.675633C46.748 0.566818 46.6294 0.5 46.5012 0.5C46.373 0.5 46.2544 0.566818 46.1894 0.675633L43.9057 5.23041L38.7981 5.96192C38.6671 5.98054 38.5582 6.07077 38.5171 6.19469C38.4761 6.31861 38.5101 6.45473 38.6047 6.54582L42.3006 10.0924L41.4282 15.0999C41.406 15.2283 41.4596 15.358 41.5666 15.4345C41.6736 15.5111 41.8154 15.5213 41.9326 15.4609L46.5 13.0968L51.0674 15.4598C51.1845 15.5203 51.3264 15.5101 51.4334 15.4335C51.5403 15.3569 51.594 15.2272 51.5717 15.0989L50.6994 10.0924L54.3952 6.54582C54.4899 6.45477 54.5239 6.31872 54.4829 6.19482C54.4419 6.07092 54.3328 5.98064 54.2018 5.96192Z" fill="#FFC727"/>
<path fill-rule="evenodd" clip-rule="evenodd" d="M73.2018 5.96192L68.0957 5.23144L65.813 0.675633C65.748 0.566818 65.6294 0.5 65.5012 0.5C65.373 0.5 65.2544 0.566818 65.1894 0.675633L62.9057 5.23041L57.7981 5.96192C57.6671 5.98054 57.5582 6.07077 57.5171 6.19469C57.4761 6.31861 57.5101 6.45473 57.6047 6.54582L61.3006 10.0924L60.4282 15.0999C60.406 15.2283 60.4596 15.358 60.5666 15.4345C60.6736 15.5111 60.8154 15.5213 60.9326 15.4609L65.5 13.0968L70.0674 15.4598C70.1845 15.5203 70.3264 15.5101 70.4334 15.4335C70.5403 15.3569 70.594 15.2272 70.5717 15.0989L69.6994 10.0924L73.3952 6.54582C73.4899 6.45477 73.5239 6.31872 73.4829 6.19482C73.4419 6.07092 73.3328 5.98064 73.2018 5.96192Z" fill="#FFC727"/>
<path fill-rule="evenodd" clip-rule="evenodd" d="M92.2018 5.96192L87.0957 5.23144L84.813 0.675633C84.748 0.566818 84.6294 0.5 84.5012 0.5C84.373 0.5 84.2544 0.566818 84.1894 0.675633L81.9057 5.23041L76.7981 5.96192C76.6671 5.98054 76.5582 6.07077 76.5171 6.19469C76.4761 6.31861 76.5101 6.45473 76.6047 6.54582L80.3006 10.0924L79.4282 15.0999C79.406 15.2283 79.4596 15.358 79.5666 15.4345C79.6736 15.5111 79.8154 15.5213 79.9326 15.4609L84.5 13.0968L89.0674 15.4598C89.1845 15.5203 89.3264 15.5101 89.4334 15.4335C89.5403 15.3569 89.594 15.2272 89.5717 15.0989L88.6994 10.0924L92.3952 6.54582C92.4899 6.45477 92.5239 6.31872 92.4829 6.19482C92.4419 6.07092 92.3328 5.98064 92.2018 5.96192Z" fill="#FFC727"/>
</svg>
