<svg width="258" height="20" viewBox="0 0 258 20" fill="none" xmlns="http://www.w3.org/2000/svg">
<path d="M138 0H158V20H138V0Z" fill="#00B67B"/>
<path fill-rule="evenodd" clip-rule="evenodd" d="M149.644 8.43114H155.014L150.672 11.593L148.028 13.521L148.013 13.525L148.017 13.5284L147.987 13.5503L143.646 16.6871L145.302 11.593L140.961 8.43114H146.331L147.987 3.33704L149.644 8.43114ZM148.017 13.5284L152.329 16.6617L151.049 12.7219L148.028 13.521L148.017 13.5284Z" fill="white"/>
<path d="M163 0H183V20H163V0Z" fill="#00B67B"/>
<path fill-rule="evenodd" clip-rule="evenodd" d="M174.644 8.43114H180.014L175.672 11.593L173.028 13.521L173.013 13.525L173.017 13.5284L172.987 13.5503L168.646 16.6871L170.302 11.593L165.961 8.43114H171.331L172.987 3.33704L174.644 8.43114ZM173.017 13.5284L177.329 16.6617L176.049 12.7219L173.028 13.521L173.017 13.5284Z" fill="white"/>
<path d="M188 0H208V20H188V0Z" fill="#00B67B"/>
<path fill-rule="evenodd" clip-rule="evenodd" d="M199.644 8.43114H205.014L200.672 11.593L198.028 13.521L198.013 13.525L198.017 13.5284L197.987 13.5503L193.646 16.6871L195.302 11.593L190.961 8.43114H196.331L197.987 3.33704L199.644 8.43114ZM198.017 13.5284L202.329 16.6617L201.049 12.7219L198.028 13.521L198.017 13.5284Z" fill="white"/>
<path d="M213 0H233V20H213V0Z" fill="#00B67B"/>
<path fill-rule="evenodd" clip-rule="evenodd" d="M224.644 8.43114H230.014L225.672 11.593L223.028 13.521L223.013 13.525L223.017 13.5284L222.987 13.5503L218.646 16.6871L220.302 11.593L215.961 8.43114H221.331L222.987 3.33704L224.644 8.43114ZM223.017 13.5284L227.329 16.6617L226.049 12.7219L223.028 13.521L223.017 13.5284Z" fill="white"/>
<path d="M238 0H258V20H238V0Z" fill="#00B67B"/>
<path fill-rule="evenodd" clip-rule="evenodd" d="M249.644 8.43114H255.014L250.672 11.593L248.028 13.521L248.013 13.525L248.017 13.5284L247.987 13.5503L243.646 16.6871L245.302 11.593L240.961 8.43114H246.331L247.987 3.33704L249.644 8.43114ZM248.017 13.5284L252.329 16.6617L251.049 12.7219L248.028 13.521L248.017 13.5284Z" fill="white"/>
</svg>
