<svg width="403" height="250" viewBox="0 0 403 250" fill="none" xmlns="http://www.w3.org/2000/svg">
<g clip-path="url(#clip0_1_1679)">
<path d="M399 233H4V250H399V233Z" fill="#455A64"/>
<path d="M122.563 232.893H26.7351L19.2942 167.803H115.122L122.563 232.893Z" fill="#D3DBE7"/>
<path d="M117.347 228.512H30.9075L24.5098 172.184H110.88L117.347 228.512Z" fill="white"/>
<path d="M176.665 228.512H78.3345V232.893H176.665V228.512Z" fill="#37474F"/>
<path d="M176.735 228.512H127.222V232.893H176.735V228.512Z" fill="#858F9F"/>
<path d="M86.8186 172.184L30.9076 228.095L29.2386 213.491L70.4764 172.184H86.8186Z" fill="#EBEBEB"/>
<path d="M115.887 215.716L103.022 228.512H86.749L114.218 201.043L115.887 215.716Z" fill="#EBEBEB"/>
<path d="M35.2191 172.184L25.6224 181.78L25.0661 176.773L29.6558 172.184H35.2191Z" fill="#EBEBEB"/>
<path d="M113.105 191.655L76.2483 228.512H70.685L112.549 186.648L113.105 191.655Z" fill="#EBEBEB"/>
<path d="M42.4514 172.184L26.3179 188.317L26.1788 187.065L41.0606 172.184H42.4514Z" fill="#EBEBEB"/>
<path d="M94.8158 172.184L38.418 228.512H37.0272L93.4249 172.184H94.8158Z" fill="#EBEBEB"/>
<path d="M112.201 183.449L67.0689 228.512H65.6781L112.062 182.197L112.201 183.449Z" fill="#EBEBEB"/>
<path d="M290.435 232.893H386.262L393.703 167.803H297.876L290.435 232.893Z" fill="#D3DBE7"/>
<path d="M295.65 228.512H382.02L388.488 172.184H302.048L295.65 228.512Z" fill="white"/>
<path d="M334.593 228.512H236.262V232.893H334.593V228.512Z" fill="#9FA9B9"/>
<path d="M285.775 228.512H236.262V232.893H285.775V228.512Z" fill="#858F9F"/>
<path d="M385.984 194.02L383.898 212.378L367.764 228.512H351.422L385.984 194.02Z" fill="#EBEBEB"/>
<path d="M355.316 172.184L298.988 228.512H295.65L297.319 213.908L339.044 172.184H355.316Z" fill="#EBEBEB"/>
<path d="M318.668 172.184L299.962 190.89L300.657 184.562L313.105 172.184H318.668Z" fill="#EBEBEB"/>
<path d="M380.073 172.184L323.745 228.512H318.182L374.51 172.184H380.073Z" fill="#EBEBEB"/>
<path d="M386.749 186.996L386.61 188.526L346.624 228.512H345.233L386.749 186.996Z" fill="#EBEBEB"/>
<path d="M385.914 172.184L329.586 228.512H328.195L384.524 172.184H385.914Z" fill="#EBEBEB"/>
<path d="M333.481 172.184L298.015 207.58L298.223 205.981L332.09 172.184H333.481Z" fill="#EBEBEB"/>
<path d="M115.747 134.84C127.639 158.831 145.233 182.753 149.962 187.343C162.618 199.513 196.485 208.275 206.429 208.553C210.741 208.692 216.652 180.041 213.522 176.773C210.323 173.435 168.599 164.325 166.373 162.656C164.843 161.474 144.885 142.559 131.672 131.293C115.261 117.246 112.618 128.581 115.747 134.84Z" fill="#F7A9A0"/>
<path d="M204.273 172.739L193.494 206.745C193.494 206.745 158.168 197.426 148.71 188.316C139.252 179.276 119.642 146.661 115.817 135.952C111.992 125.243 114.496 116.759 131.811 130.667C149.127 144.575 163.8 158.831 166.93 161.126C169.92 163.49 204.273 172.739 204.273 172.739Z" fill="#A788CE"/>
<path d="M193.355 174.13C193.494 175.104 194.398 175.73 195.302 175.591C196.276 175.452 196.902 174.548 196.763 173.644C196.624 172.67 195.72 172.044 194.816 172.183C193.842 172.253 193.216 173.157 193.355 174.13Z" fill="#1D293F"/>
<path d="M184.663 171.627C184.802 172.6 185.706 173.226 186.61 173.087C187.583 172.948 188.209 172.044 188.07 171.14C187.931 170.166 187.027 169.54 186.123 169.679C185.219 169.749 184.524 170.653 184.663 171.627Z" fill="#1D293F"/>
<path d="M167.416 198.331C159.697 195.34 152.326 191.794 148.71 188.386C139.252 179.346 119.642 146.731 115.817 136.022C113.383 129.137 113.522 123.226 118.46 123.435L167.416 198.331Z" fill="#896BAF"/>
<path d="M59.4193 228.512H148.64C148.988 225.243 130.629 134.353 121.867 122.948C119.989 120.514 113.8 119.819 108.585 120.514C107.124 120.653 105.734 121.001 104.551 121.349C104.551 121.349 104.482 121.349 104.412 121.418C103.161 121.836 102.187 122.322 101.422 122.879C86.888 134.492 58.7238 227.747 59.4193 228.512Z" fill="#A788CE"/>
<path d="M114.635 143.532L118.39 136.161L123.327 141.446L122.076 146.801L117.277 147.427L114.635 143.532Z" fill="#1D293F"/>
<path d="M117.277 147.427L114.982 201.738L125.135 219.68L130.421 199.513L122.076 146.801L117.277 147.427Z" fill="#1D293F"/>
<path d="M117.138 135.117C115.747 135.048 106.429 127.746 103.578 122.113C103.369 121.696 104.134 117.732 104.76 112.795C105.108 109.804 105.525 106.466 105.594 103.407C105.594 102.781 107.681 104.033 107.681 104.033L111.644 105.145L124.649 108.761C124.649 108.761 122.562 115.09 122.423 120.444C122.423 120.861 122.423 121.279 122.493 121.696C122.493 121.766 122.493 121.835 122.493 121.905C122.771 124.339 119.433 135.256 117.138 135.117Z" fill="#F7A9A0"/>
<path d="M122.423 121.696C122.423 121.765 122.423 121.835 122.423 121.904C121.797 121.974 121.172 121.974 120.476 121.974C107.542 121.278 106.498 104.728 106.498 104.728L111.575 105.145L124.579 108.761C124.579 108.761 122.493 115.089 122.354 120.444C122.354 120.861 122.354 121.278 122.423 121.696Z" fill="#1D293F"/>
<path d="M102.535 80.9458C100.588 87.8303 104.551 107.441 109.489 111.683C116.652 117.942 128.126 118.289 133.411 109.736C138.487 101.46 132.855 76.0083 127.361 72.114C119.294 66.4117 105.386 70.7928 102.535 80.9458Z" fill="#F7A9A0"/>
<path d="M121.937 92.35C121.937 92.2805 121.867 92.4195 121.867 92.4891C122.145 93.8104 122.284 95.3403 121.172 96.0357V96.1052C122.632 95.6184 122.423 93.5322 121.937 92.35Z" fill="#1D293F"/>
<path d="M120.476 91.1675C118.32 91.4457 119.016 95.7572 120.963 95.479C122.98 95.2704 122.284 90.9589 120.476 91.1675Z" fill="#1D293F"/>
<path d="M129.725 91.3769C129.725 91.3074 129.864 91.4464 129.864 91.4464C130.003 92.7677 130.421 94.2976 131.742 94.5758C131.811 94.5758 131.811 94.6453 131.742 94.6453C130.212 94.6453 129.656 92.6286 129.725 91.3769Z" fill="#1D293F"/>
<path d="M130.699 89.7771C132.785 89.2903 133.689 93.5323 131.672 94.0191C129.725 94.4364 128.891 90.1944 130.699 89.7771Z" fill="#1D293F"/>
<path d="M118.529 89.4986C119.085 89.29 119.572 88.9423 120.129 88.6641C120.754 88.3164 121.241 88.1078 121.589 87.4819C121.798 87.1342 121.589 86.5779 121.241 86.4388C120.476 85.952 119.642 86.1607 118.946 86.5779C118.112 86.9952 117.625 87.4819 117.277 88.3164C116.86 89.0814 117.764 89.8463 118.529 89.4986Z" fill="#1D293F"/>
<path d="M132.02 87.3432C131.394 87.3432 130.838 87.2041 130.212 87.1345C129.517 87.065 128.96 87.065 128.404 86.5782C128.126 86.3001 128.056 85.7437 128.265 85.4656C128.752 84.7702 129.586 84.6311 130.421 84.7006C131.325 84.7702 132.02 85.0483 132.646 85.6742C133.341 86.3 132.785 87.3432 132.02 87.3432Z" fill="#1D293F"/>
<path d="M122.701 104.867C123.049 105.145 123.466 105.493 123.953 105.493C124.44 105.493 124.927 105.145 125.344 104.937C125.414 104.937 125.414 104.937 125.414 105.006C125.135 105.563 124.44 105.98 123.814 105.98C123.188 105.98 122.841 105.493 122.562 104.937C122.493 104.937 122.632 104.867 122.701 104.867Z" fill="#1D293F"/>
<path d="M127.708 101.599C127.708 101.599 127.013 102.99 125.831 103.616C125.414 103.825 124.927 103.964 124.37 103.964C123.258 103.825 123.049 102.851 123.119 102.017C123.188 101.321 123.397 100.695 123.397 100.695C123.397 100.695 125.205 101.878 127.708 101.599Z" fill="white"/>
<path d="M123.467 100.695C124.371 101.738 125.622 102.225 126.804 102.225C127.361 102.225 127.917 102.156 128.473 102.016C128.613 102.016 128.682 101.947 128.752 101.947C128.821 101.947 128.96 101.877 129.03 101.877C129.169 101.808 129.238 101.669 129.238 101.53C129.238 101.46 129.238 101.46 129.238 101.391V101.251C129.099 100.208 128.752 98.6785 128.752 98.6785C129.169 98.8175 131.186 99.3739 131.116 98.8175C130.142 94.4365 129.099 89.5686 127.222 85.3961C127.152 85.257 126.944 85.3266 127.013 85.4657C127.778 89.7077 129.238 93.8106 130.073 98.0526C129.447 97.9135 128.334 97.6353 127.848 97.7049C127.709 97.7744 128.543 100.695 128.613 101.112C128.613 101.112 128.613 101.112 128.613 101.182C126.944 101.669 125.553 101.391 123.675 100.487C123.467 100.487 123.327 100.626 123.467 100.695Z" fill="#1D293F"/>
<path d="M104.83 96.2443C109.489 95.5489 109.211 86.9258 109.211 86.9258C109.211 86.9258 117.069 84.4223 117.347 78.2332C117.347 78.2332 125.692 81.9884 131.394 78.9286C137.097 75.8688 134.802 69.2624 133.967 67.9411C133.133 66.6198 130.142 69.7492 130.142 69.7492C130.142 69.7492 129.169 65.994 128.126 65.7158C127.013 65.5072 126.248 67.9411 126.248 67.9411C126.248 67.9411 118.112 66.4808 111.158 67.7325C104.134 68.9842 101.7 76.5642 101.7 76.5642C101.7 76.5642 98.084 77.8855 97.2496 80.7367C96.4151 83.4488 101.839 96.6616 104.83 96.2443Z" fill="#1D293F"/>
<path d="M107.333 87.2045C113.661 87.1349 117.208 82.4061 117.208 76.2865C117.208 76.217 117.347 76.217 117.347 76.2865C117.973 81.8498 113.731 88.8039 107.333 87.4826C107.124 87.4826 107.124 87.2045 107.333 87.2045Z" fill="#1D293F"/>
<path d="M101.839 76.3555C101.909 76.3555 101.978 76.425 101.909 76.4945C100.309 77.5377 98.3622 78.4417 97.3886 80.2498C96.2064 82.4055 96.9018 84.8395 97.7363 86.9257C99.0576 90.1941 101.492 94.2971 104.76 95.827C104.969 95.8965 104.83 96.1747 104.621 96.1051C100.657 94.5057 97.7363 89.151 96.6932 85.1872C95.4415 80.8061 97.8754 77.8854 101.839 76.3555Z" fill="#1D293F"/>
<path d="M124.371 78.9283C127.361 80.18 131.464 79.6237 133.828 77.3984C136.749 74.6167 135.497 70.9311 133.62 68.0104C133.55 67.8713 133.759 67.6626 133.828 67.8017C136.193 70.3052 136.958 74.4777 134.593 77.2593C132.159 80.1105 127.361 80.7364 124.092 79.3455C123.884 79.2065 124.092 78.7892 124.371 78.9283Z" fill="#1D293F"/>
<path d="M120.824 100.138C118.251 100.208 115.817 98.6086 115.052 96.0356C114.148 92.9757 115.887 89.7769 118.946 88.8728C122.006 87.9688 125.205 89.7073 126.109 92.7671C127.013 95.8269 125.275 99.0258 122.215 99.9298C121.798 100.069 121.311 100.138 120.824 100.138ZM120.476 89.3596C120.059 89.3596 119.642 89.4292 119.225 89.5682C116.582 90.3332 115.052 93.1148 115.817 95.7574C116.582 98.3999 119.364 99.9298 122.006 99.1649C124.649 98.3999 126.179 95.6183 125.414 92.9757C124.788 90.7504 122.702 89.2901 120.476 89.3596Z" fill="#475569"/>
<path d="M133.898 98.052C131.672 98.1215 129.586 95.9658 129.169 92.9755C128.96 91.4456 129.169 89.9852 129.725 88.803C130.351 87.5513 131.325 86.7864 132.507 86.6473C133.689 86.4387 134.871 86.9254 135.845 87.899C136.818 88.8726 137.444 90.1939 137.653 91.7238C138.14 94.8531 136.61 97.7043 134.315 98.052C134.176 98.052 134.037 98.052 133.898 98.052ZM132.924 87.3427C132.855 87.3427 132.716 87.3427 132.646 87.3427C131.742 87.4818 130.977 88.1076 130.421 89.1508C129.864 90.1939 129.725 91.5152 129.934 92.8364C130.351 95.5485 132.229 97.5652 134.176 97.2175C136.123 96.9394 137.305 94.4359 136.888 91.7238C136.679 90.4025 136.123 89.1508 135.289 88.3858C134.593 87.6904 133.759 87.2731 132.924 87.3427Z" fill="#475569"/>
<path d="M126.109 93.4621L125.553 92.9753C126.318 92.1408 128.126 90.8195 129.795 92.0712L129.308 92.6971C127.778 91.5149 126.179 93.3925 126.109 93.4621Z" fill="#475569"/>
<path d="M100.935 98.8869L100.17 98.6087C100.309 98.261 101.353 95.2708 103.022 94.7144C104.551 94.2276 114.913 93.6018 115.4 93.5322L115.469 94.2972C112.479 94.5058 104.482 95.0621 103.3 95.4098C102.117 95.8271 101.213 98.0524 100.935 98.8869Z" fill="#475569"/>
<path d="M107.82 97.0793C107.82 97.0793 103.091 90.8901 100.309 92.5591C97.4581 94.2281 101.213 103.338 104.621 104.451C108.028 105.563 109.141 102.434 109.141 102.434L107.82 97.0793Z" fill="#F7A9A0"/>
<path d="M101.422 95.2012C101.352 95.2012 101.352 95.2707 101.422 95.2707C103.856 96.1748 105.177 98.261 106.151 100.556C105.386 99.7213 104.412 99.2346 103.3 100.139C103.23 100.208 103.3 100.278 103.369 100.278C104.343 99.9995 105.038 100.139 105.733 100.904C106.22 101.46 106.568 102.155 106.916 102.781C107.055 102.99 107.402 102.851 107.333 102.642V102.573C107.194 99.5127 104.69 95.3403 101.422 95.2012Z" fill="#1D293F"/>
<path d="M122.493 122.183L117.834 133.587L103.786 119.192L99.7531 123.782C99.7531 123.782 113.522 146.661 113.592 145.618L118.321 135.813L125.066 142.628L124.579 125.521L122.493 122.183Z" fill="#A788CE"/>
<path d="M125.275 134.144C125.066 131.293 124.996 128.511 124.718 125.66C124.718 125.59 124.579 125.521 124.51 125.66C123.953 128.372 124.649 139.151 124.649 141.724C124.371 141.446 118.39 135.743 118.321 135.813C117.277 137.343 113.87 144.506 113.592 145.131C111.436 141.515 103.091 128.303 100.518 124.895C100.449 124.825 100.309 124.895 100.379 124.965C102.326 128.789 113.314 146.592 113.522 146.522C113.661 146.592 117.903 137.83 118.46 136.161C119.503 137.412 125.483 143.81 125.483 143.393C125.622 140.611 125.483 136.995 125.275 134.144Z" fill="#1D293F"/>
<path d="M151.7 241.029L82.2287 247.913L81.9505 194.089L151.422 187.204L151.7 241.029Z" fill="#FFC727"/>
<path d="M104.69 185.883L81.9505 188.108V194.089L106.29 191.655L104.69 185.883Z" fill="#FFC727"/>
<g opacity="0.1">
<path d="M151.7 241.029L82.2287 247.913L81.9505 194.089L151.422 187.204L151.7 241.029Z" fill="black"/>
<path d="M104.69 185.883L81.9505 188.108V194.089L106.29 191.655L104.69 185.883Z" fill="black"/>
</g>
<path d="M151.631 241.098L84.593 247.704L75.0659 193.671L146.485 187.69L151.631 241.098Z" fill="#EBEBEB"/>
<path d="M151.631 241.099L82.9241 247.844L72.632 195.966L144.885 188.804L151.631 241.099Z" fill="white"/>
<path d="M151.492 241.098L81.881 247.983L71.728 197.148L141.339 190.264L151.492 241.098Z" fill="#FFC727"/>
<path d="M92.1036 130.946C68.3205 152.504 51.2134 189.639 51.7698 199.653C52.4652 212.865 76.3873 235.466 92.034 242.003C95.9979 243.672 111.227 211.336 105.455 209.667C99.3358 207.858 85.2886 195.132 84.5931 194.507C83.1328 193.255 94.468 165.021 99.1968 147.845C104.551 128.582 102.117 121.836 92.1036 130.946Z" fill="#F7A9A0"/>
<path d="M83.2021 237.066C98.2926 247.983 118.877 250.348 122.354 250C125.344 249.722 126.943 249.513 126.943 249.513C132.368 249.096 134.315 246.523 134.315 246.523C134.315 246.523 140.713 247.844 142.173 244.159C143.842 239.986 134.454 238.874 129.725 235.118C118.807 226.565 105.664 211.335 102.743 208.554L83.2021 237.066Z" fill="#F7A9A0"/>
<path d="M111.992 234.215C115.26 236.649 118.39 239.152 122.006 241.169C125.97 243.394 130.073 244.785 134.315 246.385C134.454 246.454 134.384 246.593 134.245 246.593C126.178 244.924 117.625 240.265 111.783 234.493C111.575 234.285 111.783 234.076 111.992 234.215Z" fill="#1D293F"/>
<path d="M105.873 240.056C109.21 242.281 115.052 246.106 127.013 249.374C127.083 249.374 127.013 249.444 127.013 249.444C118.946 248.331 111.992 245.411 105.664 240.404C105.455 240.195 105.594 239.917 105.873 240.056Z" fill="#1D293F"/>
<path d="M117.208 223.922C116.234 222.254 117.069 221.697 120.337 222.949C123.605 224.201 135.219 231.989 137.583 227.678C139.948 223.366 123.327 212.726 117.834 210.988C112.34 209.249 102.813 208.484 102.813 208.484C105.525 211.266 111.784 218.498 117.208 223.922Z" fill="#F7A9A0"/>
<path d="M83.7586 239.499L102.674 207.719C102.674 207.719 84.9408 195.271 84.8712 194.089C84.8017 192.837 97.3191 158.623 101.074 141.794C104.83 124.965 102.952 116.898 86.4012 135.674C69.8504 154.451 48.5708 186.022 49.6835 199.583C50.8657 213.143 83.7586 239.499 83.7586 239.499Z" fill="#A788CE"/>
<path d="M97.945 157.858C97.2496 159.04 96.5541 160.222 95.9283 161.474C95.7197 161.891 95.511 162.309 95.3024 162.656C95.4415 162.17 95.6501 161.683 95.7892 161.196C96.7628 158.136 97.6668 155.076 98.5013 151.947C98.5013 151.877 98.4318 151.808 98.3622 151.877C96.2064 157.163 94.3984 162.587 92.5903 167.941C90.7822 173.366 89.1133 178.859 87.4443 184.353C86.5402 187.413 85.6362 190.542 84.8712 193.602C84.8712 193.672 84.9408 193.672 85.0103 193.602C86.0535 190.959 86.9575 188.178 87.8615 185.466C88.7655 182.754 89.6696 180.042 90.5736 177.26C91.9644 172.879 93.3553 168.567 94.7461 164.186C95.372 163.421 95.7892 162.448 96.276 161.544C96.9019 160.501 97.3886 159.179 97.945 157.858C98.0145 157.858 97.945 157.858 97.945 157.858Z" fill="#1D293F"/>
<path d="M80.3511 231.502C80.073 232.406 80.5598 233.38 81.4638 233.728C82.3678 234.006 83.3414 233.519 83.6891 232.615C83.9673 231.711 83.4805 230.737 82.5765 230.39C81.6724 230.111 80.6293 230.598 80.3511 231.502Z" fill="#1D293F"/>
<path d="M73.7447 225.382C73.4665 226.286 73.9533 227.26 74.8573 227.608C75.7614 227.886 76.735 227.399 77.0827 226.495C77.3608 225.591 76.874 224.617 75.97 224.27C75.066 223.922 74.0229 224.478 73.7447 225.382Z" fill="#1D293F"/>
<path d="M61.8533 219.124C64.0786 221.002 66.0953 223.018 68.112 225.035C69.1551 226.078 70.1287 227.052 71.1022 228.095C72.0758 229.138 73.0494 230.181 74.0925 231.224C71.7976 229.486 69.6419 227.538 67.6252 225.522C65.6085 223.505 63.6613 221.419 61.8533 219.124Z" fill="#1D293F"/>
<path d="M304.065 75.7994C305.525 71.001 312.062 60.5003 322.563 63.6992C337.583 68.2194 336.958 97.9134 343.703 107.788C355.942 125.73 354.83 142.211 343.286 143.81C330.351 145.549 319.294 130.806 322.563 101.46C324.579 83.1012 320.198 74.4781 316.443 74.6867C312.757 74.8953 310.254 79.346 310.254 79.346L304.065 75.7994Z" fill="#1D293F"/>
<path d="M304.76 73.9914C305.734 71.7661 306.985 69.7494 308.446 67.8023C309.906 65.9247 311.784 64.1861 313.94 63.0039C316.095 61.8217 318.738 61.2654 321.172 61.6131C323.606 61.9608 326.04 62.7953 328.056 64.2557C330.073 65.716 331.742 67.6632 332.924 69.7494C334.176 71.9052 335.08 74.1305 335.775 76.4949C337.097 81.1541 337.723 85.9525 338.001 90.6813C337.236 85.9525 336.262 81.2932 334.802 76.7731C334.037 74.5477 333.133 72.392 331.881 70.3753C330.699 68.3586 329.169 66.6201 327.291 65.2988C325.414 63.9775 323.258 63.143 320.963 62.7953C318.738 62.4476 316.443 62.8649 314.357 63.8384C312.271 64.812 310.462 66.3419 308.863 68.0804C308.029 68.9149 307.333 69.8885 306.638 70.8621C306.012 71.9747 305.386 72.9483 304.76 73.9914Z" fill="#1D293F"/>
<path d="M323.467 91.2373C323.328 94.158 322.91 97.0788 322.563 99.9995C322.215 102.92 321.798 105.771 321.519 108.692C321.241 111.613 321.033 114.534 321.102 117.385C321.102 120.305 321.311 123.157 321.867 126.008C322.424 128.789 323.328 131.571 324.857 133.936C326.387 136.3 328.474 138.386 330.768 140.055C333.063 141.724 335.775 142.906 338.557 143.393C339.948 143.602 341.408 143.671 342.869 143.602C343.564 143.532 344.329 143.393 345.024 143.254C345.72 143.115 346.415 142.906 347.111 142.559C345.859 143.393 344.398 143.741 342.938 144.019C341.478 144.228 339.948 144.297 338.487 144.158C337.027 144.019 335.567 143.602 334.106 143.115C332.716 142.559 331.394 141.863 330.143 141.029C328.891 140.194 327.778 139.221 326.666 138.178L325.901 137.343L325.136 136.509C324.649 135.952 324.162 135.326 323.745 134.7C322.076 132.127 321.102 129.276 320.476 126.356C319.364 120.445 319.711 114.464 320.407 108.692C320.755 105.771 321.311 102.851 321.798 99.9995C322.493 97.0092 323.049 94.158 323.467 91.2373Z" fill="#1D293F"/>
<path d="M303.23 75.7995C303.161 74.4087 304.204 72.6701 305.038 72.392C305.942 72.1138 312.549 74.965 313.105 76.7035C313.661 78.3725 310.741 79.9024 310.741 79.9024L303.23 75.7995Z" fill="#455A64"/>
<path d="M308.307 136.509C304.412 145.063 275.205 185.119 260.741 186.231C245.581 187.344 209.28 162.657 205.803 160.571C196.276 154.938 222.91 128.86 227.5 133.519C235.219 141.238 253.578 155.842 258.098 154.868C267.556 152.782 287.236 136.231 301.214 127.678C309.628 122.393 312.618 127.052 308.307 136.509Z" fill="#AD6359"/>
<path d="M208.098 161.891C206.429 160.779 193.216 153.407 188.209 146.314C185.567 142.559 179.517 131.432 181.603 129.485C183.481 127.747 185.915 130.389 185.915 130.389C185.915 130.389 183.272 125.382 185.984 123.018C188.627 120.654 192.521 125.313 192.521 125.313C192.521 125.313 190.156 119.958 193.008 117.802C195.859 115.647 198.919 121.001 198.919 121.001C198.919 121.001 196.554 116.203 199.684 115.438C203.369 114.464 206.777 123.783 210.323 127.399C211.158 128.234 228.056 142.698 228.056 142.698L208.098 161.891Z" fill="#AD6359"/>
<path d="M199.127 121.002C201.631 127.817 203.856 130.39 209.558 134.84C209.697 134.91 209.558 135.119 209.419 135.049C203.508 131.224 200.17 128.443 198.78 121.141C198.71 120.793 198.988 120.724 199.127 121.002Z" fill="#1D293F"/>
<path d="M192.66 125.313C195.859 132.198 198.293 134.979 203.856 140.056C203.926 140.125 203.856 140.264 203.717 140.195C197.806 135.744 194.607 132.823 192.312 125.522C192.243 125.243 192.521 125.035 192.66 125.313Z" fill="#1D293F"/>
<path d="M186.193 130.668C189.739 137.135 192.312 140.265 198.362 144.507C198.501 144.576 198.362 144.854 198.223 144.715C191.617 141.03 188.418 137.066 185.984 130.807C185.845 130.39 185.984 130.251 186.193 130.668Z" fill="#1D293F"/>
<path d="M233.828 140.612C233.828 140.612 230.073 132.267 227.639 128.998C225.205 125.73 211.506 116.829 209.419 119.68C206.707 123.366 213.592 130.042 217.417 132.893C217.417 132.893 211.158 141.377 215.052 147.218C218.947 153.06 233.828 140.612 233.828 140.612Z" fill="#AD6359"/>
<path d="M209.002 120.932C208.933 126.078 214.218 129.416 217.695 132.476C217.973 132.684 217.834 133.032 217.625 133.171C215.261 136.926 212.966 142.837 214.774 147.149C214.844 147.288 214.635 147.358 214.565 147.219C211.992 142.837 213.731 136.857 216.652 132.893C212.966 129.903 207.889 126.287 209.002 120.932C209.002 120.862 208.933 120.862 209.002 120.932Z" fill="#1D293F"/>
<path d="M307.889 138.943C303.369 147.983 276.874 186.578 262.618 187.204C248.293 187.83 218.39 175.591 218.39 175.591L240.574 141.794C240.574 141.794 255.942 152.851 258.376 152.99C260.81 153.06 293.077 131.78 300.588 127.121C308.029 122.392 315.261 124.2 307.889 138.943Z" fill="#FFE6B3"/>
<path d="M238.627 175.869C238.488 174.826 238.557 173.783 238.696 172.81C238.835 171.766 239.044 170.793 239.461 169.819C239.6 170.862 239.531 171.906 239.392 172.879C239.252 173.853 239.044 174.896 238.627 175.869Z" fill="#1D293F"/>
<path d="M282.785 169.054C282.646 168.011 282.716 166.968 282.855 165.994C282.994 164.951 283.202 163.977 283.62 163.004C283.759 164.047 283.689 165.09 283.55 166.064C283.411 167.107 283.202 168.08 282.785 169.054Z" fill="#1D293F"/>
<path d="M285.219 143.394C284.176 143.533 283.133 143.463 282.159 143.324C281.116 143.185 280.143 142.976 279.169 142.559C280.212 142.42 281.255 142.49 282.229 142.629C283.272 142.768 284.246 142.976 285.219 143.394Z" fill="#1D293F"/>
<path d="M249.614 155.007C248.571 155.146 247.528 155.077 246.554 154.937C245.511 154.798 244.538 154.59 243.564 154.172C244.607 154.033 245.65 154.103 246.624 154.242C247.667 154.381 248.641 154.59 249.614 155.007Z" fill="#1D293F"/>
<path d="M254.83 186.439C254.76 186.509 254.76 186.579 254.691 186.579C254.621 186.579 254.552 186.579 254.482 186.579C254.621 186.509 254.691 186.439 254.83 186.439Z" fill="#1D293F"/>
<path d="M229.725 163.7C230.351 162.865 231.186 162.17 231.951 161.544C232.785 160.918 233.62 160.362 234.593 159.944C233.967 160.779 233.133 161.474 232.368 162.1C231.533 162.726 230.699 163.282 229.725 163.7Z" fill="#1D293F"/>
<path d="M266.721 156.05C267.347 155.216 268.182 154.52 268.947 153.894C269.781 153.268 270.615 152.712 271.589 152.295C270.963 153.129 270.129 153.825 269.364 154.451C268.599 155.077 267.695 155.633 266.721 156.05Z" fill="#1D293F"/>
<path d="M254.482 166.62C255.316 167.246 256.012 168.08 256.638 168.845C257.264 169.68 257.82 170.514 258.237 171.488C257.403 170.862 256.707 170.028 256.081 169.263C255.456 168.428 254.83 167.594 254.482 166.62Z" fill="#1D293F"/>
<path d="M289.6 150.765C290.435 151.391 291.13 152.225 291.756 152.99C292.382 153.824 292.938 154.659 293.355 155.633C292.521 155.007 291.825 154.172 291.2 153.407C290.574 152.642 290.017 151.738 289.6 150.765Z" fill="#1D293F"/>
<path d="M245.372 147.287C242.59 152.364 239.878 157.44 236.888 162.378C233.898 167.245 230.838 172.113 227.361 176.634C227.291 176.703 227.152 176.634 227.222 176.564C229.864 171.487 232.924 166.689 235.914 161.752C238.905 156.814 242.104 152.086 245.094 147.148C245.163 146.939 245.442 147.079 245.372 147.287Z" fill="#1D293F"/>
<path d="M307.889 138.943C303.369 147.983 276.874 186.579 262.618 187.204C259.141 187.343 254.76 186.718 250.101 185.744C261.227 173.853 292.312 140.334 306.707 124.826C311.019 124.548 313.175 128.512 307.889 138.943Z" fill="#1D293F"/>
<path d="M281.533 228.511H365.469C365.469 228.511 332.855 145.897 315.469 129.276C310.741 124.756 299.058 125.104 293.355 132.684C288.696 138.942 275.692 163.769 275.066 172.739C274.51 181.71 281.464 190.542 281.464 190.542L281.533 228.511Z" fill="#FFE6B3"/>
<path d="M292.243 197.565C292.104 196.522 292.173 195.478 292.312 194.505C292.451 193.462 292.66 192.488 293.077 191.515C293.216 192.558 293.147 193.601 293.008 194.574C292.869 195.618 292.66 196.591 292.243 197.565Z" fill="#1D293F"/>
<path d="M349.892 213.142C349.753 212.099 349.823 211.056 349.962 210.082C350.101 209.039 350.309 208.065 350.727 207.092C350.866 208.135 350.796 209.178 350.657 210.152C350.518 211.125 350.309 212.168 349.892 213.142Z" fill="#1D293F"/>
<path d="M313.731 226.702C313.592 225.659 313.661 224.616 313.8 223.643C313.939 222.6 314.148 221.626 314.565 220.652C314.704 221.695 314.635 222.739 314.496 223.712C314.357 224.755 314.148 225.729 313.731 226.702Z" fill="#1D293F"/>
<path d="M305.386 164.324C305.247 163.281 305.316 162.238 305.456 161.265C305.595 160.222 305.803 159.248 306.221 158.274C306.36 159.318 306.29 160.361 306.151 161.334C306.012 162.377 305.803 163.351 305.386 164.324Z" fill="#1D293F"/>
<path d="M327.709 189.429C327.57 188.386 327.639 187.343 327.778 186.369C327.917 185.326 328.126 184.352 328.543 183.379C328.682 184.422 328.613 185.465 328.474 186.439C328.265 187.482 328.056 188.455 327.709 189.429Z" fill="#1D293F"/>
<path d="M282.785 169.053C282.646 168.01 282.716 166.967 282.855 165.993C282.994 164.95 283.203 163.977 283.62 163.003C283.759 164.046 283.689 165.089 283.55 166.063C283.411 167.106 283.203 168.079 282.785 169.053Z" fill="#1D293F"/>
<path d="M312.271 193.74C311.227 193.879 310.184 193.81 309.211 193.671C308.168 193.532 307.194 193.323 306.221 192.906C307.264 192.767 308.307 192.836 309.28 192.975C310.323 193.115 311.297 193.323 312.271 193.74Z" fill="#1D293F"/>
<path d="M337.584 169.749C336.54 169.888 335.497 169.819 334.524 169.68C333.481 169.541 332.507 169.332 331.533 168.915C332.577 168.776 333.62 168.845 334.593 168.984C335.636 169.123 336.61 169.332 337.584 169.749Z" fill="#1D293F"/>
<path d="M292.451 221.974C291.408 222.113 290.365 222.043 289.392 221.904C288.349 221.765 287.375 221.557 286.401 221.139C287.444 221 288.488 221.07 289.461 221.209C290.435 221.348 291.478 221.557 292.451 221.974Z" fill="#1D293F"/>
<path d="M339.531 201.181C338.487 201.32 337.444 201.25 336.471 201.111C335.428 200.972 334.454 200.764 333.48 200.346C334.524 200.207 335.567 200.277 336.54 200.416C337.583 200.555 338.557 200.764 339.531 201.181Z" fill="#1D293F"/>
<path d="M299.823 212.586C300.449 211.752 301.283 211.056 302.048 210.431C302.883 209.805 303.717 209.248 304.691 208.831C304.065 209.666 303.23 210.361 302.465 210.987C301.631 211.613 300.796 212.169 299.823 212.586Z" fill="#1D293F"/>
<path d="M331.533 218.636C332.159 217.802 332.994 217.106 333.759 216.48C334.593 215.854 335.428 215.298 336.401 214.881C335.775 215.715 334.941 216.411 334.176 217.037C333.342 217.732 332.507 218.288 331.533 218.636Z" fill="#1D293F"/>
<path d="M339.948 189.012C340.574 188.178 341.408 187.482 342.173 186.856C343.008 186.23 343.842 185.674 344.816 185.257C344.19 186.091 343.355 186.787 342.591 187.413C341.756 188.038 340.922 188.595 339.948 189.012Z" fill="#1D293F"/>
<path d="M289.809 178.302C290.435 177.468 291.269 176.772 292.034 176.146C292.869 175.52 293.703 174.964 294.677 174.547C294.051 175.381 293.216 176.077 292.451 176.703C291.686 177.329 290.782 177.885 289.809 178.302Z" fill="#1D293F"/>
<path d="M322.284 157.857C322.91 157.022 323.745 156.327 324.51 155.701C325.344 155.075 326.179 154.519 327.152 154.102C326.526 154.936 325.692 155.631 324.927 156.257C324.093 156.883 323.258 157.509 322.284 157.857Z" fill="#1D293F"/>
<path d="M283.689 202.711C283.063 203.545 282.298 204.171 281.464 204.797V203.963C282.159 203.476 282.924 203.059 283.689 202.711Z" fill="#1D293F"/>
<path d="M305.734 144.784C306.36 143.949 307.194 143.254 307.959 142.628C308.794 142.002 309.628 141.446 310.602 141.028C309.976 141.863 309.141 142.558 308.376 143.184C307.611 143.81 306.707 144.366 305.734 144.784Z" fill="#1D293F"/>
<path d="M278.056 182.544C278.891 183.17 279.586 184.004 280.212 184.769C280.838 185.604 281.394 186.438 281.812 187.412C280.977 186.786 280.282 185.951 279.656 185.186C279.03 184.352 278.474 183.518 278.056 182.544Z" fill="#1D293F"/>
<path d="M289.6 150.764C290.435 151.39 291.13 152.224 291.756 152.989C292.382 153.823 292.938 154.658 293.355 155.632C292.521 155.006 291.825 154.171 291.2 153.406C290.574 152.641 290.017 151.737 289.6 150.764Z" fill="#1D293F"/>
<path d="M318.738 202.155C319.572 202.781 320.268 203.616 320.894 204.381C321.519 205.215 322.076 206.05 322.493 207.023C321.659 206.397 320.963 205.563 320.337 204.798C319.642 203.963 319.085 203.129 318.738 202.155Z" fill="#1D293F"/>
<path d="M348.919 222.321C349.753 222.947 350.449 223.782 351.074 224.547C351.7 225.381 352.257 226.216 352.674 227.189C351.839 226.563 351.144 225.729 350.518 224.964C349.892 224.129 349.336 223.295 348.919 222.321Z" fill="#1D293F"/>
<path d="M318.112 135.743C318.947 136.369 319.642 137.204 320.268 137.968C320.894 138.803 321.45 139.637 321.867 140.611C321.033 139.985 320.337 139.151 319.711 138.386C319.086 137.621 318.529 136.786 318.112 135.743Z" fill="#1D293F"/>
<path d="M312.757 174.895C313.592 175.52 314.287 176.355 314.913 177.12C315.539 177.954 316.095 178.789 316.513 179.762C315.678 179.137 314.983 178.302 314.357 177.537C313.661 176.772 313.105 175.938 312.757 174.895Z" fill="#1D293F"/>
<path d="M309.837 130.11C309.35 131.362 302.187 138.872 296.415 137.829C294.538 137.481 295.928 127.12 295.928 127.12L295.859 126.355L294.816 115.298L308.515 108.831L310.463 107.996C310.463 107.996 310.532 111.056 310.602 114.811C310.602 115.02 310.602 115.159 310.602 115.367C310.602 115.576 310.602 115.785 310.602 115.993C310.602 116.55 310.602 117.106 310.602 117.732C310.602 118.149 310.602 118.566 310.602 119.053C310.602 119.54 310.602 119.957 310.602 120.444C310.532 124.895 310.045 129.554 309.837 130.11Z" fill="#AD6359"/>
<path d="M310.602 114.742C306.429 122.878 299.127 125.521 295.789 126.286L294.746 115.229L308.446 108.761L310.393 107.927C310.532 107.857 310.602 110.917 310.602 114.742Z" fill="#1D293F"/>
<path d="M280.768 98.887C279.239 118.358 290.713 121.488 294.885 121.766C298.71 122.044 311.714 122.6 315.261 103.407C318.807 84.2138 310.254 77.3292 301.561 76.2166C292.869 75.1039 282.298 79.4155 280.768 98.887Z" fill="#AD6359"/>
<path d="M284.037 94.7843C284.524 94.7147 284.941 94.6452 285.358 94.5061C285.845 94.367 286.262 94.367 286.679 93.9498C286.888 93.7412 286.888 93.3239 286.679 93.1153C286.262 92.6285 285.567 92.559 285.01 92.698C284.315 92.8371 283.828 93.0458 283.411 93.6021C282.924 94.0889 283.411 94.7843 284.037 94.7843Z" fill="#1D293F"/>
<path d="M296.972 95.0625C296.485 94.993 296.067 94.8539 295.65 94.7843C295.163 94.6453 294.746 94.6453 294.399 94.228C294.19 94.0194 294.19 93.6021 294.399 93.3935C294.816 92.9067 295.511 92.9067 296.067 92.9763C296.763 93.1154 297.18 93.3935 297.667 93.8803C298.084 94.3671 297.597 95.132 296.972 95.0625Z" fill="#1D293F"/>
<path d="M293.912 99.9301C293.912 99.8605 293.981 99.9996 293.981 100.069C293.912 101.39 294.051 102.92 295.233 103.407C295.303 103.407 295.233 103.477 295.233 103.477C293.773 103.199 293.634 101.182 293.912 99.9301Z" fill="#1D293F"/>
<path d="M295.163 98.6092C297.319 98.5397 297.319 102.782 295.372 102.921C293.425 102.921 293.355 98.6788 295.163 98.6092Z" fill="#1D293F"/>
<path d="M295.998 98.8183C296.346 99.0269 296.763 99.5137 297.18 99.5137C297.736 99.5832 298.084 99.0964 298.432 98.6792C298.501 98.6097 298.501 98.6792 298.501 98.7487C298.501 99.5832 298.223 100.418 297.319 100.557C296.485 100.696 295.928 99.9309 295.72 99.0964C295.72 98.9574 295.859 98.6792 295.998 98.8183Z" fill="#1D293F"/>
<path d="M286.54 99.6518C286.54 99.5822 286.471 99.7213 286.471 99.7908C286.54 101.112 286.401 102.642 285.15 103.129C285.08 103.129 285.15 103.198 285.15 103.198C286.679 102.92 286.819 100.904 286.54 99.6518Z" fill="#1D293F"/>
<path d="M285.358 98.2611C283.202 98.122 283.133 102.434 285.08 102.573C287.027 102.642 287.166 98.4002 285.358 98.2611Z" fill="#1D293F"/>
<path d="M284.454 98.5394C284.106 98.748 283.759 99.1653 283.341 99.1653C282.855 99.1653 282.507 98.6785 282.229 98.2612C282.229 98.1917 282.159 98.2612 282.159 98.3308C282.09 99.1653 282.368 99.9998 283.133 100.208C283.828 100.347 284.385 99.652 284.593 98.8871C284.732 98.6785 284.593 98.4698 284.454 98.5394Z" fill="#1D293F"/>
<path d="M294.051 110.431C293.773 110.778 293.425 111.196 293.008 111.265C292.521 111.335 291.965 111.126 291.547 110.987C291.478 110.987 291.478 110.987 291.478 111.057C291.825 111.543 292.59 111.821 293.216 111.682C293.842 111.543 294.051 110.987 294.19 110.431C294.19 110.431 294.051 110.431 294.051 110.431Z" fill="#1D293F"/>
<path d="M288.488 105.633C288.488 105.633 288.209 107.649 288.209 108.553C288.209 108.623 288.418 108.692 288.766 108.692C288.766 108.692 288.766 108.692 288.835 108.692C290.504 108.97 292.173 108.414 293.147 107.023C293.216 106.954 293.077 106.815 293.008 106.884C291.756 107.788 290.435 107.997 288.905 107.997C288.835 107.719 289.531 104.589 289.392 104.589C288.905 104.52 287.862 104.868 287.236 105.076C287.723 100.904 288.835 96.8703 289.252 92.7674C289.252 92.6283 289.044 92.5588 288.974 92.6979C287.514 96.8703 286.819 101.599 286.262 105.911C286.193 106.467 288.14 105.772 288.488 105.633Z" fill="#1D293F"/>
<path d="M288.974 108.484C288.974 108.484 289.878 109.736 291.13 110.223C291.617 110.362 292.104 110.501 292.59 110.362C293.703 110.083 293.703 109.11 293.494 108.275C293.355 107.58 293.008 106.954 293.008 106.954C293.008 106.954 291.478 108.345 288.974 108.484Z" fill="#1D293F"/>
<path d="M291.13 110.223C291.617 110.362 292.104 110.501 292.59 110.362C293.703 110.083 293.703 109.11 293.494 108.275C292.382 108.345 291.199 109.11 291.13 110.223Z" fill="#EB9481"/>
<path d="M314.357 105.354C310.045 103.338 309.906 98.8175 309.906 98.8175C304.621 96.5226 301.7 92.3502 301.422 91.9329C301.561 92.3502 302.465 95.2013 303.022 96.6617C290.713 94.2973 286.958 84.8397 286.958 84.8397C282.924 88.8036 282.159 91.3766 281.533 92.6283C281.533 92.6283 281.464 85.0484 285.358 80.0414C290.156 73.8522 306.22 72.2528 313.592 80.3891C321.589 89.1513 314.357 105.354 314.357 105.354Z" fill="#1D293F"/>
<path d="M293.703 94.6454C295.65 95.7581 297.806 96.523 300.031 97.0098C296.554 96.0362 293.425 94.1586 290.991 91.5161C289.948 90.4034 289.044 89.1517 288.348 87.7608C287.584 86.37 286.888 84.701 286.749 83.032C286.749 82.893 286.54 82.893 286.54 83.032C286.679 84.701 286.819 86.3005 287.514 87.8999C288.14 89.4298 289.113 90.8206 290.226 92.0028C291.2 93.046 292.382 93.8804 293.703 94.6454Z" fill="#1D293F"/>
<path d="M312.062 104.658C312.062 104.658 316.304 98.5389 319.086 100.069C321.867 101.599 318.738 110.43 315.47 111.682C312.201 112.934 311.019 109.944 311.019 109.944L312.062 104.658Z" fill="#AD6359"/>
<path d="M318.043 102.572C318.112 102.572 318.112 102.642 318.043 102.642C315.748 103.546 314.566 105.702 313.801 107.857C314.496 107.023 315.4 106.536 316.513 107.371C316.582 107.44 316.513 107.51 316.443 107.51C315.539 107.301 314.844 107.51 314.218 108.205C313.801 108.761 313.453 109.387 313.175 110.013C313.036 110.222 312.688 110.083 312.757 109.874V109.805C312.757 106.953 314.983 102.92 318.043 102.572Z" fill="#1D293F"/>
<path d="M312.688 111.196C312.688 111.96 313.314 112.586 314.079 112.586C314.844 112.586 315.47 111.96 315.47 111.196C315.47 110.431 314.844 109.805 314.079 109.805C313.383 109.805 312.688 110.431 312.688 111.196Z" fill="#1D293F"/>
<path d="M289.6 134.074C289.6 134.074 285.636 145.41 292.799 146.175C300.031 147.009 318.807 133.101 318.807 133.101C318.807 133.101 313.592 124.686 305.247 125.59C298.362 126.286 289.6 134.074 289.6 134.074Z" fill="#AD6359"/>
<path d="M323.606 147.287C323.606 161.265 315.609 203.129 307.889 208.761C292.451 220.027 256.29 219.262 246.346 219.471C242.034 219.54 236.401 190.889 239.6 187.551C242.799 184.283 286.888 183.031 289.113 181.362C290.713 180.18 303.091 159.805 310.323 146.731C319.99 128.998 323.606 140.264 323.606 147.287Z" fill="#AD6359"/>
<path d="M247.25 186.021C247.25 186.021 234.246 184.561 225.692 184.074C220.894 183.796 212.688 184.005 209.072 185.396C203.647 187.482 182.437 199.582 185.219 204.798C187.792 209.526 194.259 204.311 194.259 204.311C194.259 204.311 186.61 209.318 190.574 213.282C194.607 217.245 202.396 209.596 202.396 209.596C202.396 209.596 193.912 214.394 198.571 218.149C202.604 221.418 212.549 213.629 212.549 213.629C212.549 213.629 203.091 217.663 206.916 221.418C211.088 225.59 227.5 215.716 227.5 215.716C238.14 219.262 245.024 219.958 253.161 219.471C254.621 219.262 247.25 186.021 247.25 186.021Z" fill="#AD6359"/>
<path d="M200.031 211.195C200.657 210.639 201.352 210.082 201.978 209.526C203.23 208.413 204.482 207.301 205.873 206.327C207.194 205.423 208.585 204.519 209.976 203.685C211.436 202.781 213.035 202.085 214.496 201.181C214.635 201.112 214.704 201.251 214.565 201.32C213.105 202.155 211.714 203.267 210.393 204.241C209.072 205.214 207.681 206.188 206.359 207.231C205.038 208.205 203.717 209.109 202.396 210.013C201.7 210.5 201.074 210.986 200.448 211.473C199.823 211.96 199.266 212.516 198.571 212.864C198.501 212.934 198.432 212.794 198.501 212.725C198.919 212.169 199.475 211.682 200.031 211.195Z" fill="#1D293F"/>
<path d="M192.729 205.284C193.633 204.102 198.501 200.207 199.753 199.234C202.257 197.426 204.969 195.826 207.82 194.575C207.889 194.505 208.028 194.644 207.889 194.714C205.386 196.522 202.813 198.33 200.309 200.138C199.058 201.042 193.564 205.214 192.938 205.562C192.729 205.632 192.59 205.423 192.729 205.284Z" fill="#1D293F"/>
<path d="M206.777 216.967C207.681 215.923 212.27 212.238 213.522 211.403C214.704 210.638 219.92 207.926 221.519 207.439C221.589 207.439 221.728 207.579 221.589 207.579C219.016 209.108 216.443 210.569 214.009 212.238C212.827 213.003 208.167 216.48 206.916 217.175C206.846 217.175 206.707 217.036 206.777 216.967Z" fill="#1D293F"/>
<path d="M256.012 221.557L244.12 183.797C244.12 183.797 287.375 181.015 288.766 180.32C290.157 179.624 305.595 152.364 311.714 141.724C317.834 131.154 327.291 135.466 323.745 159.388C320.198 183.449 316.304 202.155 310.949 207.719C304.343 214.464 280.421 221.418 256.012 221.557Z" fill="#FFE6B3"/>
<path d="M292.243 197.566C292.104 196.523 292.173 195.479 292.312 194.506C292.451 193.463 292.66 192.489 293.077 191.516C293.216 192.559 293.147 193.602 293.008 194.575C292.869 195.619 292.66 196.592 292.243 197.566Z" fill="#1D293F"/>
<path d="M268.321 219.193C268.182 218.15 268.251 217.106 268.39 216.133C268.529 215.09 268.738 214.116 269.155 213.143C269.294 214.186 269.225 215.229 269.086 216.202C268.946 217.245 268.738 218.219 268.321 219.193Z" fill="#1D293F"/>
<path d="M305.386 164.324C305.247 163.281 305.316 162.238 305.456 161.265C305.595 160.222 305.803 159.248 306.22 158.274C306.36 159.318 306.29 160.361 306.151 161.334C306.012 162.377 305.803 163.351 305.386 164.324Z" fill="#1D293F"/>
<path d="M312.271 193.74C311.227 193.879 310.184 193.81 309.211 193.671C308.168 193.532 307.194 193.323 306.221 192.906C307.264 192.767 308.307 192.836 309.28 192.975C310.323 193.115 311.297 193.323 312.271 193.74Z" fill="#1D293F"/>
<path d="M270.755 194.923C269.711 195.062 268.668 194.993 267.695 194.853C266.652 194.714 265.678 194.506 264.704 194.089C265.748 193.949 266.791 194.019 267.764 194.158C268.738 194.367 269.781 194.506 270.755 194.923Z" fill="#1D293F"/>
<path d="M299.823 212.586C300.449 211.752 301.283 211.056 302.048 210.431C302.883 209.805 303.717 209.248 304.691 208.831C304.065 209.666 303.23 210.361 302.465 210.987C301.631 211.613 300.796 212.169 299.823 212.586Z" fill="#1D293F"/>
<path d="M249.962 190.124C250.588 189.29 251.422 188.594 252.187 187.969C253.022 187.343 253.856 186.786 254.83 186.369C254.204 187.204 253.369 187.899 252.604 188.525C251.77 189.151 250.935 189.707 249.962 190.124Z" fill="#1D293F"/>
<path d="M294.746 174.617C294.12 175.452 293.286 176.147 292.521 176.773C291.895 177.26 291.2 177.677 290.504 178.025C290.713 177.677 290.921 177.329 291.2 176.912C291.478 176.634 291.756 176.425 292.104 176.217C292.869 175.591 293.773 175.034 294.746 174.617Z" fill="#1D293F"/>
<path d="M324.162 156.05C324.162 156.328 324.093 156.606 324.093 156.954C323.536 157.302 322.98 157.649 322.285 157.927C322.841 157.162 323.467 156.606 324.162 156.05Z" fill="#1D293F"/>
<path d="M278.821 206.467C279.447 205.633 280.282 204.937 281.047 204.311C281.881 203.685 282.716 203.129 283.689 202.712C283.063 203.546 282.229 204.242 281.464 204.868C280.629 205.494 279.795 206.05 278.821 206.467Z" fill="#1D293F"/>
<path d="M278.056 182.545C278.891 183.171 279.586 184.005 280.212 184.77C280.838 185.605 281.394 186.439 281.811 187.413C280.977 186.787 280.282 185.952 279.656 185.187C279.03 184.353 278.473 183.518 278.056 182.545Z" fill="#1D293F"/>
<path d="M321.867 140.681C321.033 140.055 320.407 139.221 319.781 138.456C319.294 137.76 318.807 137.065 318.46 136.3C318.599 136.3 318.738 136.3 318.807 136.3C319.364 136.856 319.851 137.412 320.337 138.038C320.894 138.803 321.45 139.707 321.867 140.681Z" fill="#1D293F"/>
<path d="M312.757 174.896C313.592 175.521 314.287 176.356 314.913 177.121C315.539 177.955 316.095 178.79 316.513 179.763C315.678 179.138 314.983 178.303 314.357 177.538C313.661 176.773 313.105 175.939 312.757 174.896Z" fill="#1D293F"/>
<path d="M302.326 157.718C300.935 159.805 299.614 162.03 298.293 164.186C298.223 164.255 298.223 164.325 298.154 164.394C298.223 164.255 298.293 164.047 298.362 163.908C298.78 162.795 299.127 161.752 299.614 160.639C299.614 160.57 299.544 160.5 299.544 160.57C299.058 161.613 298.571 162.656 298.084 163.699C297.806 164.394 297.528 165.159 297.25 165.855C296.276 167.454 295.302 169.054 294.329 170.723C293.077 172.878 291.756 175.104 290.504 177.259C290.156 177.816 289.878 178.303 289.531 178.859C289.252 179.346 288.905 179.693 288.418 179.902C287.862 180.111 287.236 180.111 286.61 180.111C285.984 180.18 285.358 180.25 284.732 180.319C281.881 180.667 278.96 181.154 276.109 181.501C276.04 181.501 276.04 181.641 276.109 181.641C278.752 181.432 281.394 181.362 284.037 181.154C285.358 181.015 286.679 180.945 287.931 180.806C288.418 180.736 288.905 180.667 289.322 180.319C289.67 180.041 289.948 179.624 290.156 179.207C292.799 174.686 295.372 170.166 298.015 165.577C299.475 163.004 301.005 160.43 302.326 157.788C302.535 157.649 302.396 157.579 302.326 157.718Z" fill="#1D293F"/>
<path d="M323.814 167.802C323.745 168.637 323.397 169.541 323.188 170.375C322.98 171.14 322.771 171.835 322.563 172.6C322.284 173.435 322.006 174.269 321.728 175.104C322.284 171.418 322.771 167.733 323.119 163.977C323.119 163.838 322.91 163.838 322.91 163.977C322.215 169.193 321.241 174.339 320.198 179.485C319.086 184.631 317.764 189.708 316.304 194.714C315.539 197.218 314.774 199.652 313.94 202.086C313.175 204.172 312.34 206.258 310.88 207.997C309.35 209.874 307.264 211.057 305.108 212.1C302.813 213.143 300.449 214.116 298.015 214.881C292.521 216.689 286.888 217.802 281.255 219.193C281.186 219.193 281.186 219.332 281.255 219.332C286.401 218.567 291.478 217.663 296.485 216.272C298.988 215.577 301.561 214.812 303.995 213.769C306.22 212.865 308.515 211.822 310.323 210.153C311.992 208.553 313.175 206.536 314.079 204.381C314.983 202.086 315.748 199.721 316.513 197.357C318.112 192.211 319.433 187.065 320.546 181.78C320.894 180.25 321.172 178.72 321.38 177.19C322.006 175.73 322.493 174.2 322.91 172.67C323.119 171.905 323.328 171.071 323.467 170.236C323.606 169.402 323.675 168.567 323.884 167.802C323.953 167.733 323.814 167.733 323.814 167.802Z" fill="#1D293F"/>
<path d="M263.522 218.497C261.575 213.073 259.489 207.649 257.75 202.155C256.081 196.731 254.412 191.168 253.3 185.604C253.3 185.465 253.439 185.465 253.508 185.535C255.525 190.89 257.194 196.383 258.933 201.808C260.671 207.301 262.131 212.865 263.87 218.358C263.94 218.567 263.592 218.706 263.522 218.497Z" fill="#1D293F"/>
<path d="M256.22 182.892C255.177 182.823 254.134 182.892 253.091 182.892C252.048 182.892 251.005 182.962 249.962 183.031C247.876 183.101 245.789 183.24 243.773 183.449C243.634 183.449 243.494 183.588 243.564 183.796C243.842 184.492 244.12 185.326 244.607 185.952C244.607 186.022 244.746 185.952 244.677 185.952C244.607 185.326 244.398 184.631 244.12 184.005C246.067 183.866 248.084 183.727 250.031 183.588C251.074 183.518 252.118 183.449 253.161 183.379C254.134 183.309 255.177 183.24 256.22 183.101C256.36 183.031 256.29 182.892 256.22 182.892Z" fill="#1D293F"/>
<path d="M209.559 174.757C212.132 176.009 223.954 176.495 227.361 180.737C229.656 183.519 229.447 186.37 230.769 194.785C231.951 202.086 225.901 200.348 224.162 196.593C221.45 190.751 219.086 184.284 219.086 184.284C216.304 184.075 213.036 184.354 213.036 184.354L209.559 174.757Z" fill="#F7A9A0"/>
<path d="M218.043 202.365C222.145 199.792 235.15 216.273 228.682 220.654C222.145 224.966 213.383 205.286 218.043 202.365Z" fill="#F7A9A0"/>
<path d="M211.436 205.842C215.539 203.269 228.543 219.751 222.076 224.132C215.469 228.513 206.777 208.763 211.436 205.842Z" fill="#F7A9A0"/>
<path d="M206.707 206.537C210.81 204.729 220.337 221.558 213.801 224.618C207.264 227.608 202.118 208.554 206.707 206.537Z" fill="#F7A9A0"/>
<path d="M201.909 206.051C206.221 205.564 210.323 223.853 203.439 224.827C196.485 225.8 197.111 206.607 201.909 206.051Z" fill="#F7A9A0"/>
<path d="M217.069 208.067C217.834 208.832 218.46 209.806 219.086 210.71C219.781 211.683 220.407 212.657 221.033 213.7C221.589 214.673 222.145 215.717 222.563 216.76C223.049 217.872 223.328 219.055 223.814 220.167C223.884 220.306 223.675 220.376 223.606 220.237C223.189 219.194 222.493 218.15 221.937 217.107C221.381 216.134 220.824 215.091 220.268 214.048C219.712 213.074 219.225 212.031 218.599 211.057C218.043 210.084 217.347 209.11 216.86 208.067C216.93 208.067 216.999 207.997 217.069 208.067Z" fill="#1D293F"/>
<path d="M210.323 207.928C210.741 209.18 212.132 213.909 212.618 215.091C213.105 216.343 213.592 217.525 214.148 218.777C214.705 220.028 215.191 221.28 215.817 222.462C215.887 222.601 215.678 222.671 215.678 222.532C215.052 221.35 214.287 220.237 213.661 219.055C213.036 217.873 212.549 216.621 212.062 215.369C211.575 214.117 210.323 209.249 210.115 207.928C210.115 207.859 210.254 207.859 210.323 207.928Z" fill="#1D293F"/>
<path d="M205.177 209.11C205.525 210.849 205.734 212.657 206.081 214.395C206.22 215.299 206.429 216.134 206.568 217.038C206.638 217.455 206.707 217.872 206.777 218.289C206.846 218.776 206.846 219.333 207.055 219.75C207.124 219.889 206.916 219.958 206.846 219.75C206.777 219.263 206.499 218.707 206.36 218.22C206.22 217.803 206.151 217.385 206.012 216.968C205.803 216.134 205.595 215.23 205.455 214.395C205.177 212.657 204.899 210.918 204.899 209.18C204.969 209.04 205.177 208.971 205.177 209.11Z" fill="#1D293F"/>
<path d="M158.034 80.1675L158.185 80.3966L158.072 80.6468L154.88 87.768L163.125 85.6602L163.35 85.6028L163.538 85.737C168.244 89.0786 174.677 91.1384 181.747 91.1384C189.057 91.1384 195.661 88.9413 200.426 85.4209C205.191 81.9001 208.09 77.0817 208.09 71.8192C208.09 66.5567 205.191 61.7383 200.426 58.2175C195.661 54.697 189.057 52.5 181.747 52.5C174.436 52.5 167.832 54.6802 163.068 58.1918C158.303 61.7033 155.404 66.5214 155.404 71.8192C155.404 74.7691 156.342 77.5957 158.034 80.1675Z" fill="white" stroke="#BEC5D0"/>
<path d="M177.444 68.8931H175.454C174.758 68.8931 174.191 69.4848 174.191 70.2128V78.1134C174.191 78.8414 174.758 79.4331 175.454 79.4331H177.444C178.139 79.4331 178.706 78.8414 178.706 78.1134V70.2128C178.706 69.4856 178.139 68.8931 177.444 68.8931Z" fill="#1D293F"/>
<path d="M190.395 70.949C190.395 69.6615 188.721 68.8791 187.987 68.8791H184.679C185.24 66.3536 184.562 64.912 184.085 64.2602C183.612 63.6156 182.96 63.2305 182.341 63.2305C181.86 63.2305 181.445 63.4648 181.208 63.8758C181.172 63.9383 181.152 64.0112 181.152 64.0842V66.262C180.677 67.6776 180.213 68.7843 179.582 69.6226V79.3349C179.73 79.3859 179.873 79.4208 179.99 79.4208H187.235C187.575 79.4208 187.907 79.2378 188.199 78.8946C188.604 78.4148 188.875 77.6752 188.885 77.0688C189.473 76.6131 189.752 75.7812 189.7 74.6364C190.333 73.9586 190.293 72.9962 190.088 72.4021C190.346 72.0209 190.395 71.3747 190.395 70.949Z" fill="#1D293F"/>
<path d="M264.556 99.1675L264.405 99.3966L264.517 99.6468L267.71 106.768L259.465 104.66L259.24 104.603L259.051 104.737C254.346 108.079 247.913 110.138 240.843 110.138C233.533 110.138 226.929 107.941 222.164 104.421C217.399 100.9 214.5 96.0817 214.5 90.8192C214.5 85.5567 217.399 80.7383 222.164 77.2175C226.929 73.697 233.533 71.5 240.843 71.5C248.154 71.5 254.758 73.6802 259.522 77.1918C264.287 80.7033 267.186 85.5214 267.186 90.8192C267.186 93.7691 266.248 96.5957 264.556 99.1675Z" fill="white" stroke="#BEC5D0"/>
<path d="M247.961 89.6091C247.37 94.6258 244.151 95.5379 243.615 96.8524C243.319 97.5767 242.944 99.401 242.944 99.401H237.713C237.713 99.401 237.337 97.5499 237.042 96.8524C236.505 95.5111 233.286 94.599 232.723 89.5823C232.347 86.2826 234.842 81.105 240.369 81.105C245.895 81.1318 248.336 86.3094 247.961 89.6091Z" fill="#FFC727"/>
<path d="M237.616 91.4021L237.352 91.4507L238.881 99.7617L239.145 99.7132L237.616 91.4021Z" fill="white"/>
<path d="M243.017 91.4299L241.45 99.7334L241.713 99.7832L243.281 91.4797L243.017 91.4299Z" fill="white"/>
<path d="M240.315 94.1967C239.912 94.1967 239.483 93.8747 239.161 93.2845C239.134 93.2577 239.134 93.2309 239.108 93.2041C238.973 93.365 238.812 93.4455 238.651 93.4455C237.873 93.4455 237.552 91.8359 237.552 91.7554L237.686 91.7286C237.686 91.7554 237.981 93.3114 238.651 93.3114C238.786 93.3114 238.893 93.2309 239.027 93.0699C238.705 92.3993 238.517 91.4871 238.759 91.0847C238.839 90.9506 238.973 90.8701 239.108 90.8701C239.295 90.8701 239.456 90.9506 239.537 91.1116C239.778 91.514 239.59 92.3724 239.295 92.909C239.268 92.9626 239.215 93.0163 239.188 93.0699C239.215 93.1236 239.242 93.1504 239.268 93.2041C239.456 93.526 239.832 94.0625 240.315 94.0625C240.637 94.0625 240.959 93.8211 241.227 93.3382C241.254 93.3114 241.28 93.2577 241.28 93.2309C241.227 93.1504 241.146 93.0699 241.093 92.9626C240.771 92.3993 240.717 91.5676 240.959 91.1384C241.066 90.9774 241.2 90.8701 241.388 90.8701C241.522 90.8701 241.629 90.9506 241.71 91.0847C241.951 91.4871 241.817 92.4529 241.441 93.2041C241.576 93.3382 241.737 93.4187 241.978 93.4187C242.461 93.4187 242.89 92.2651 242.997 91.8359L243.132 91.8627C243.105 91.9432 242.649 93.5528 241.978 93.5528C241.763 93.5528 241.576 93.4723 241.388 93.3114C241.361 93.3382 241.361 93.365 241.334 93.3919C241.146 93.7674 240.798 94.1967 240.315 94.1967ZM241.388 91.0311C241.254 91.0311 241.146 91.0847 241.093 91.2189C240.878 91.5944 240.932 92.3993 241.227 92.909C241.254 92.9626 241.307 93.0431 241.361 93.0968C241.683 92.3993 241.817 91.514 241.602 91.1652C241.549 91.0579 241.495 91.0311 241.388 91.0311ZM239.134 91.0043C239.027 91.0043 238.947 91.0579 238.893 91.1384C238.705 91.4603 238.839 92.2383 239.134 92.9358C239.161 92.909 239.161 92.8821 239.188 92.8285C239.483 92.3456 239.644 91.5408 239.429 91.1652C239.376 91.0847 239.268 91.0043 239.134 91.0043Z" fill="white"/>
<path d="M243.536 99.194L237.071 99.1787L237.068 100.44L243.533 100.455L243.536 99.194Z" fill="#1D293F"/>
<path d="M243.536 100.67L237.071 100.654L237.068 101.915L243.533 101.93L243.536 100.67Z" fill="#1D293F"/>
<path d="M243.536 102.118L237.071 102.103L237.068 103.364L243.533 103.379L243.536 102.118Z" fill="#1D293F"/>
<path d="M240.583 77C240.691 77.3488 240.691 77.6975 240.691 78.0463C240.691 78.395 240.664 78.7438 240.53 79.0925C240.423 78.7438 240.423 78.395 240.423 78.0463C240.449 77.6975 240.476 77.3488 240.583 77Z" fill="#1D293F"/>
<path d="M234.735 78.4219C235.003 78.6633 235.191 78.9584 235.352 79.2803C235.513 79.5754 235.674 79.8974 235.755 80.2461C235.486 80.0047 235.299 79.7096 235.138 79.3876C234.977 79.0925 234.816 78.7975 234.735 78.4219Z" fill="#1D293F"/>
<path d="M230.389 82.5806C230.738 82.661 231.06 82.822 231.355 83.0098C231.65 83.1976 231.945 83.3854 232.187 83.6536C231.838 83.5732 231.516 83.4122 231.221 83.2244C230.926 83.0635 230.631 82.8488 230.389 82.5806Z" fill="#1D293F"/>
<path d="M228.699 88.3744C229.048 88.2671 229.397 88.2671 229.745 88.2671C230.094 88.2671 230.443 88.2939 230.792 88.4281C230.443 88.5354 230.094 88.5354 229.745 88.5354C229.397 88.5085 229.048 88.4817 228.699 88.3744Z" fill="#1D293F"/>
<path d="M230.121 94.223C230.362 93.9548 230.657 93.767 230.979 93.606C231.274 93.4451 231.596 93.2841 231.945 93.2036C231.704 93.4719 231.408 93.6597 231.087 93.8206C230.791 94.0084 230.496 94.1426 230.121 94.223Z" fill="#1D293F"/>
<path d="M250.268 94.679C249.919 94.5986 249.597 94.4376 249.302 94.2498C249.007 94.062 248.712 93.8742 248.471 93.606C248.819 93.6864 249.141 93.8474 249.436 94.0352C249.731 94.1962 250.027 94.4108 250.268 94.679Z" fill="#1D293F"/>
<path d="M251.958 88.8846C251.609 88.9919 251.26 88.9919 250.912 88.9919C250.563 88.9919 250.214 88.9651 249.865 88.8309C250.214 88.7236 250.563 88.7236 250.912 88.7236C251.26 88.7505 251.609 88.7773 251.958 88.8846Z" fill="#1D293F"/>
<path d="M250.536 83.0361C250.295 83.3044 250 83.4922 249.678 83.6532C249.383 83.8141 249.061 83.9751 248.712 84.0556C248.954 83.7873 249.249 83.5995 249.571 83.4385C249.866 83.2507 250.188 83.1166 250.536 83.0361Z" fill="#1D293F"/>
<path d="M246.378 78.6899C246.298 79.0387 246.137 79.3606 245.949 79.6557C245.761 79.9508 245.573 80.2459 245.305 80.4873C245.386 80.1386 245.546 79.8167 245.734 79.5216C245.895 79.2265 246.11 78.9314 246.378 78.6899Z" fill="#1D293F"/>
</g>
<defs>
<clipPath id="clip0_1_1679">
<rect width="402" height="250" fill="white" transform="translate(0.5)"/>
</clipPath>
</defs>
</svg>
