<svg width="150" height="30" viewBox="0 0 150 30" fill="none" xmlns="http://www.w3.org/2000/svg">
<mask id="mask0_1_1072" style="mask-type:alpha" maskUnits="userSpaceOnUse" x="0" y="2" width="27" height="27">
<path fill-rule="evenodd" clip-rule="evenodd" d="M19.6206 5.50423C15.2649 0.965081 8.0433 0.816031 3.50415 5.17196C-1.03501 9.52767 -1.18383 16.7493 3.17188 21.2884L6.61283 24.8741C10.9685 29.4133 18.1901 29.5623 22.7293 25.2066C27.2684 20.8507 27.4175 13.6293 23.0616 9.08996L19.6206 5.50423Z" fill="#FEEF7C"/>
</mask>
<g mask="url(#mask0_1_1072)">
<path fill-rule="evenodd" clip-rule="evenodd" d="M20.4011 8.07893C22.6029 9.85696 23.6793 12.1536 23.8794 14.9327C23.7121 20.2969 21.1812 23.7446 16.8336 25.2232C11.8106 26.7366 8.62776 25.5121 5.54785 22.374L5.03461 25.5645C10.3907 29.0841 18.1696 30.8336 23.095 25.9761C28.1535 20.9876 28.2175 12.3229 22.194 7.17969L20.4011 8.07893Z" fill="#FEEF7C"/>
</g>
<mask id="mask1_1_1072" style="mask-type:alpha" maskUnits="userSpaceOnUse" x="0" y="2" width="27" height="27">
<path fill-rule="evenodd" clip-rule="evenodd" d="M20.2422 6.12581C15.8863 1.58666 8.66492 1.43761 4.12555 5.79354C-0.413607 10.1493 -0.562432 17.3708 3.79327 21.91L7.23423 25.4957C11.5899 30.0349 18.8115 30.1839 23.3507 25.8282C27.8898 21.4725 28.0389 14.2509 23.6829 9.71177L20.2422 6.12581Z" fill="#5CD3CB"/>
</mask>
<g mask="url(#mask1_1_1072)">
<path fill-rule="evenodd" clip-rule="evenodd" d="M4.12956 23.4545L5.50697 22.2515C2.363 17.7963 2.23126 11.2736 6.53391 7.6827C9.7233 5.02094 16.0517 3.64128 21.1147 8.09905L21.8988 6.72051C17.7592 2.12471 11.5081 1.54582 7.50015 3.12242C-2.33487 6.99118 -0.819422 19.9463 4.12956 23.4545Z" fill="#5CD3CB"/>
</g>
<path d="M2.03052 15.5348C2.03052 21.8416 7.14406 26.9552 13.4509 26.9552C19.7589 26.9552 24.8722 21.8416 24.8722 15.5348C24.8722 9.22682 19.7589 4.11328 13.4509 4.11328C7.14406 4.11328 2.03052 9.22682 2.03052 15.5348ZM9.9796 17.6003C10.0996 17.2204 9.96611 16.8063 9.64688 16.5678C8.80159 15.9365 7.13507 14.692 6.01529 13.8557C5.85365 13.735 5.78755 13.5243 5.85117 13.3328C5.9148 13.1412 6.09375 13.0122 6.29563 13.0122H10.6358C11.0398 13.0122 11.3982 12.7532 11.5252 12.3699C11.8673 11.3364 12.5474 9.28258 12.9984 7.92112C13.0618 7.72981 13.2405 7.60032 13.4421 7.60009C13.6438 7.59987 13.8232 7.72869 13.887 7.91977C14.3427 9.28235 15.0309 11.3396 15.3764 12.3726C15.5043 12.7546 15.862 13.0122 16.2649 13.0122C17.2916 13.0122 19.2694 13.0122 20.6161 13.0122C20.8173 13.0122 20.9962 13.1408 21.0601 13.3319C21.1239 13.523 21.0587 13.7334 20.8978 13.8546C19.7813 14.6956 18.1139 15.9514 17.2704 16.5867C16.953 16.8256 16.821 17.2391 16.9409 17.6177C17.2671 18.6477 17.9213 20.7135 18.3632 22.1089C18.4248 22.3038 18.3529 22.5165 18.1854 22.6339C18.0179 22.7512 17.7938 22.7465 17.6315 22.6219C16.5099 21.7609 14.8713 20.5031 14.0131 19.8446C13.6757 19.5856 13.2063 19.5863 12.8698 19.8467C12.02 20.5035 10.4036 21.7535 9.29145 22.6134C9.12959 22.7386 8.905 22.7442 8.73707 22.6269C8.56914 22.5098 8.49675 22.2971 8.55834 22.102C9.00032 20.7025 9.65362 18.6331 9.9796 17.6003Z" fill="black"/>
<path d="M39.3819 15.0041C41.6696 15.0041 43.3271 13.7397 43.3271 11.6572V11.6076C43.3271 9.59942 41.8797 8.40939 39.4052 8.40939H34.6662V15.0041H39.3819ZM32.9387 7.64082C32.9387 7.12018 33.3356 6.69872 33.8025 6.69872H39.5453C41.4362 6.69872 42.9303 7.29373 43.9107 8.33501C44.6578 9.12836 45.1013 10.2688 45.1013 11.5332V11.5828C45.1013 14.2604 43.3971 15.8223 41.016 16.2933L44.8212 21.4997C44.9846 21.6981 45.1013 21.9212 45.1013 22.1691C45.1013 22.6649 44.6578 23.0864 44.2142 23.0864C43.864 23.0864 43.6072 22.8881 43.3971 22.5906L39.0784 16.6404H34.6662V22.1443C34.6662 22.665 34.2694 23.0864 33.8025 23.0864C33.3356 23.0864 32.9387 22.665 32.9387 22.1443C32.9387 22.1691 32.9387 7.64082 32.9387 7.64082ZM48.533 22.0451V7.64082C48.533 7.12018 48.9298 6.69872 49.3967 6.69872H58.9214C59.3649 6.69872 59.7151 7.0706 59.7151 7.54166C59.7151 8.01271 59.3649 8.38459 58.9214 8.38459H50.2838V13.9381H57.9409C58.3844 13.9381 58.7346 14.3347 58.7346 14.781C58.7346 15.2521 58.3844 15.6239 57.9409 15.6239H50.2838V21.3262H59.0381C59.4816 21.3262 59.8318 21.698 59.8318 22.1691C59.8318 22.6402 59.4816 23.012 59.0381 23.012H49.3967C48.9298 22.9873 48.533 22.5658 48.533 22.0451ZM67.9091 22.3922L62.0029 7.91354C61.9328 7.76479 61.9095 7.66562 61.9095 7.49207C61.9095 7.02102 62.3063 6.57475 62.7966 6.57475C63.2401 6.57475 63.5436 6.87226 63.6837 7.26894L68.9829 20.7559L74.3055 7.21935C74.4689 6.89705 74.7724 6.57475 75.1693 6.57475C75.6595 6.57475 76.033 6.99622 76.033 7.46728C76.033 7.61603 76.0097 7.7152 75.963 7.83916L70.0334 22.3922C69.8467 22.8633 69.5199 23.1608 69.0296 23.1608H68.9362C68.4227 23.1608 68.0958 22.8633 67.9091 22.3922ZM79.2079 7.51686C79.2079 6.99622 79.6048 6.57475 80.0717 6.57475C80.5619 6.57475 80.9354 6.99622 80.9354 7.51686V22.1691C80.9354 22.6897 80.5386 23.1112 80.0717 23.1112C79.6048 23.1112 79.2079 22.6897 79.2079 22.1691V7.51686ZM85.2075 22.0451V7.64082C85.2075 7.12018 85.6044 6.69872 86.0713 6.69872H95.5959C96.0394 6.69872 96.3896 7.0706 96.3896 7.54166C96.3896 8.01271 96.0394 8.38459 95.5959 8.38459H86.9583V13.9381H94.6154C95.059 13.9381 95.4091 14.3347 95.4091 14.781C95.4091 15.2521 95.059 15.6239 94.6154 15.6239H86.9583V21.3262H95.7126C96.1562 21.3262 96.5063 21.698 96.5063 22.1691C96.5063 22.6402 96.1562 23.012 95.7126 23.012H86.0713C85.6044 22.9873 85.2075 22.5658 85.2075 22.0451ZM98.7241 7.93833C98.6774 7.78958 98.6307 7.66562 98.6307 7.51686C98.6307 7.02102 99.0509 6.59955 99.5178 6.59955C99.9613 6.59955 100.288 6.94664 100.405 7.36811L104.63 20.2849L108.646 7.31852C108.786 6.89705 109.042 6.59955 109.509 6.59955H109.626C110.07 6.59955 110.35 6.89705 110.49 7.31852L114.505 20.2849L118.754 7.31852C118.894 6.89705 119.174 6.59955 119.594 6.59955C120.061 6.59955 120.481 7.04581 120.481 7.51686C120.481 7.66562 120.411 7.81437 120.365 7.96312L115.462 22.417C115.299 22.8881 114.995 23.2104 114.575 23.2104H114.435C113.992 23.2104 113.688 22.8881 113.548 22.417L109.556 9.92171L105.587 22.417C105.424 22.8881 105.121 23.2104 104.7 23.2104H104.56C104.117 23.2104 103.813 22.9129 103.673 22.417L98.7241 7.93833ZM122.606 21.0287C122.419 20.8799 122.279 20.632 122.279 20.3345C122.279 19.8138 122.652 19.4172 123.119 19.4172C123.329 19.4172 123.539 19.5163 123.633 19.6155C125.08 20.9295 126.528 21.5493 128.465 21.5493C130.52 21.5493 131.874 20.3841 131.874 18.7726V18.7478C131.874 17.2354 131.103 16.3677 127.882 15.6487C124.357 14.8306 122.746 13.6158 122.746 10.963V10.9134C122.746 8.3598 124.87 6.47559 127.788 6.47559C129.796 6.47559 131.267 7.02102 132.667 8.08708C132.854 8.23584 133.041 8.48376 133.041 8.83085C133.041 9.3267 132.667 9.72338 132.2 9.72338C132.014 9.72338 131.85 9.67379 131.687 9.54983C130.403 8.55814 129.142 8.13667 127.718 8.13667C125.734 8.13667 124.45 9.3019 124.45 10.7646V10.8142C124.45 12.3514 125.244 13.2191 128.605 13.9876C132.014 14.781 133.601 16.095 133.601 18.599V18.6486C133.601 21.4253 131.407 23.26 128.372 23.26C126.154 23.2104 124.31 22.4666 122.606 21.0287ZM136.216 21.1526C136.542 21.1526 136.799 21.4005 136.799 21.7724V22.0204C136.799 22.3674 136.542 22.6402 136.216 22.6402C135.865 22.6402 135.632 22.3674 135.632 22.0204V21.7724C135.632 21.4005 135.865 21.1526 136.216 21.1526ZM138.854 16.2933C138.854 16.0206 139.064 15.7975 139.321 15.7975C139.601 15.7975 139.787 16.0206 139.787 16.2933V22.1195C139.787 22.417 139.601 22.6154 139.321 22.6154C139.04 22.6154 138.854 22.3922 138.854 22.1195V16.2933ZM138.76 13.7397C138.76 13.4174 139.017 13.1943 139.321 13.1943C139.647 13.1943 139.881 13.3926 139.881 13.7397V13.9133C139.881 14.2356 139.647 14.4339 139.321 14.4339C139.017 14.4339 138.76 14.2108 138.76 13.9133V13.7397ZM147.234 19.2436V19.2188C147.234 17.7809 146.207 16.5908 144.877 16.5908C143.499 16.5908 142.565 17.7809 142.565 19.194V19.2188C142.565 20.6568 143.569 21.822 144.9 21.822C146.277 21.822 147.234 20.6568 147.234 19.2436ZM141.585 19.2436V19.2188C141.585 17.3098 142.986 15.6983 144.9 15.6983C146.791 15.6983 148.191 17.285 148.191 19.194V19.2188C148.191 21.1278 146.791 22.7393 144.877 22.7393C142.986 22.7393 141.585 21.1526 141.585 19.2436Z" fill="black"/>
</svg>
