<svg width="60" height="60" viewBox="0 0 60 60" fill="none" xmlns="http://www.w3.org/2000/svg">
<path d="M9.88788 10.5049C9.88788 9.95266 10.3356 9.50494 10.8879 9.50494H50.2167C50.769 9.50494 51.2167 9.95266 51.2167 10.5049V23.4392C51.2166 30.4361 49.2878 37.2975 45.6423 43.2696C42.0863 49.095 37.031 52.6255 31.009 55.7636C30.723 55.9126 30.3816 55.9126 30.0956 55.7636C24.0736 52.6255 19.0183 49.095 15.4623 43.2696C11.8168 37.2975 9.88798 30.4361 9.88788 23.4392V10.5049Z" fill="#CAAAD8"/>
<path d="M6.58289 4.69995C5.75446 4.69995 5.08289 5.37152 5.08289 6.19995V19.1342C5.08299 26.223 7.03713 33.1746 10.7306 39.2251C14.3556 45.1636 19.504 48.7464 25.5595 51.902C25.9904 52.1265 26.5043 52.1265 26.9351 51.902C32.9907 48.7464 38.139 45.1636 41.7641 39.2251C45.4575 33.1746 47.4116 26.223 47.4117 19.1342V6.19995C47.4117 5.37152 46.7402 4.69995 45.9117 4.69995H6.58289Z" fill="#FFE9A9" stroke="#A788CE"/>
<path d="M36.0001 14L23.6001 27.6333L20.0001 24.9H18.0001L23.6001 34L38.0001 14H36.0001Z" fill="#A788CE"/>
</svg>
