<svg width="105" height="18" viewBox="0 0 105 18" fill="none" xmlns="http://www.w3.org/2000/svg">
<path d="M8.5 17.5C13.1944 17.5 17 13.6944 17 9C17 4.30558 13.1944 0.5 8.5 0.5C3.80558 0.5 0 4.30558 0 9C0 13.6944 3.80558 17.5 8.5 17.5Z" fill="#F06A22"/>
<path fill-rule="evenodd" clip-rule="evenodd" d="M8.50049 12.0872L6.30554 13.3394C5.89778 13.572 5.37865 13.43 5.14604 13.0223C5.04346 12.8425 5.01003 12.6314 5.05202 12.4287L5.56462 9.9542L3.69546 8.25361C3.34823 7.93769 3.32285 7.4001 3.63876 7.05286C3.77808 6.89974 3.96849 6.80272 4.17426 6.78001L6.68602 6.50287L7.72578 4.19969C7.91893 3.77183 8.42237 3.58156 8.85023 3.77471C9.03892 3.85989 9.19003 4.01101 9.27521 4.19969L10.315 6.50287L12.8267 6.78001C13.2933 6.8315 13.6299 7.2515 13.5784 7.71811C13.5557 7.92388 13.4586 8.11429 13.3055 8.25361L11.4364 9.9542L11.949 12.4287C12.0442 12.8883 11.7487 13.3382 11.2891 13.4334C11.0863 13.4754 10.8753 13.442 10.6954 13.3394L8.50049 12.0872Z" fill="white"/>
<path d="M30.5 17.5C35.1944 17.5 39 13.6944 39 9C39 4.30558 35.1944 0.5 30.5 0.5C25.8056 0.5 22 4.30558 22 9C22 13.6944 25.8056 17.5 30.5 17.5Z" fill="#F06A22"/>
<path fill-rule="evenodd" clip-rule="evenodd" d="M30.5005 12.0872L28.3055 13.3394C27.8978 13.572 27.3787 13.43 27.146 13.0223C27.0435 12.8425 27.01 12.6314 27.052 12.4287L27.5646 9.9542L25.6955 8.25361C25.3482 7.93769 25.3228 7.4001 25.6388 7.05286C25.7781 6.89974 25.9685 6.80272 26.1743 6.78001L28.686 6.50287L29.7258 4.19969C29.9189 3.77183 30.4224 3.58156 30.8502 3.77471C31.0389 3.85989 31.19 4.01101 31.2752 4.19969L32.315 6.50287L34.8267 6.78001C35.2933 6.8315 35.6299 7.2515 35.5784 7.71811C35.5557 7.92388 35.4586 8.11429 35.3055 8.25361L33.4364 9.9542L33.949 12.4287C34.0442 12.8883 33.7487 13.3382 33.2891 13.4334C33.0863 13.4754 32.8753 13.442 32.6954 13.3394L30.5005 12.0872Z" fill="white"/>
<path d="M52.5 17.5C57.1944 17.5 61 13.6944 61 9C61 4.30558 57.1944 0.5 52.5 0.5C47.8056 0.5 44 4.30558 44 9C44 13.6944 47.8056 17.5 52.5 17.5Z" fill="#F06A22"/>
<path fill-rule="evenodd" clip-rule="evenodd" d="M52.5005 12.0872L50.3055 13.3394C49.8978 13.572 49.3787 13.43 49.146 13.0223C49.0435 12.8425 49.01 12.6314 49.052 12.4287L49.5646 9.9542L47.6955 8.25361C47.3482 7.93769 47.3228 7.4001 47.6388 7.05286C47.7781 6.89974 47.9685 6.80272 48.1743 6.78001L50.686 6.50287L51.7258 4.19969C51.9189 3.77183 52.4224 3.58156 52.8502 3.77471C53.0389 3.85989 53.19 4.01101 53.2752 4.19969L54.315 6.50287L56.8267 6.78001C57.2933 6.8315 57.6299 7.2515 57.5784 7.71811C57.5557 7.92388 57.4586 8.11429 57.3055 8.25361L55.4364 9.9542L55.949 12.4287C56.0442 12.8883 55.7487 13.3382 55.2891 13.4334C55.0863 13.4754 54.8753 13.442 54.6954 13.3394L52.5005 12.0872Z" fill="white"/>
<path d="M74.5 17.5C79.1944 17.5 83 13.6944 83 9C83 4.30558 79.1944 0.5 74.5 0.5C69.8056 0.5 66 4.30558 66 9C66 13.6944 69.8056 17.5 74.5 17.5Z" fill="#F06A22"/>
<path fill-rule="evenodd" clip-rule="evenodd" d="M74.5005 12.0872L72.3055 13.3394C71.8978 13.572 71.3787 13.43 71.146 13.0223C71.0435 12.8425 71.01 12.6314 71.052 12.4287L71.5646 9.9542L69.6955 8.25361C69.3482 7.93769 69.3228 7.4001 69.6388 7.05286C69.7781 6.89974 69.9685 6.80272 70.1743 6.78001L72.686 6.50287L73.7258 4.19969C73.9189 3.77183 74.4224 3.58156 74.8502 3.77471C75.0389 3.85989 75.19 4.01101 75.2752 4.19969L76.315 6.50287L78.8267 6.78001C79.2933 6.8315 79.6299 7.2515 79.5784 7.71811C79.5557 7.92388 79.4586 8.11429 79.3055 8.25361L77.4364 9.9542L77.949 12.4287C78.0442 12.8883 77.7487 13.3382 77.2891 13.4334C77.0863 13.4754 76.8753 13.442 76.6954 13.3394L74.5005 12.0872Z" fill="white"/>
<path d="M96.5 17.5C101.194 17.5 105 13.6944 105 9C105 4.30558 101.194 0.5 96.5 0.5C91.8056 0.5 88 4.30558 88 9C88 13.6944 91.8056 17.5 96.5 17.5Z" fill="#F06A22"/>
<path fill-rule="evenodd" clip-rule="evenodd" d="M96.5005 12.0872L94.3055 13.3394C93.8978 13.572 93.3787 13.43 93.146 13.0223C93.0435 12.8425 93.01 12.6314 93.052 12.4287L93.5646 9.9542L91.6955 8.25361C91.3482 7.93769 91.3228 7.4001 91.6388 7.05286C91.7781 6.89974 91.9685 6.80272 92.1743 6.78001L94.686 6.50287L95.7258 4.19969C95.9189 3.77183 96.4224 3.58156 96.8502 3.77471C97.0389 3.85989 97.19 4.01101 97.2752 4.19969L98.315 6.50287L100.827 6.78001C101.293 6.8315 101.63 7.2515 101.578 7.71811C101.556 7.92388 101.459 8.11429 101.306 8.25361L99.4364 9.9542L99.949 12.4287C100.044 12.8883 99.7487 13.3382 99.2891 13.4334C99.0863 13.4754 98.8753 13.442 98.6954 13.3394L96.5005 12.0872Z" fill="white"/>
<g clip-path="url(#clip0_1_1029)">
<path d="M96.5 17.5C101.194 17.5 105 13.6944 105 9C105 4.30558 101.194 0.5 96.5 0.5C91.8056 0.5 88 4.30558 88 9C88 13.6944 91.8056 17.5 96.5 17.5Z" fill="#DEDEDE"/>
<path fill-rule="evenodd" clip-rule="evenodd" d="M96.5005 12.0872L94.3055 13.3394C93.8978 13.572 93.3787 13.43 93.146 13.0223C93.0435 12.8425 93.01 12.6314 93.052 12.4287L93.5646 9.9542L91.6955 8.25361C91.3482 7.93769 91.3228 7.4001 91.6388 7.05286C91.7781 6.89974 91.9685 6.80272 92.1743 6.78001L94.686 6.50287L95.7258 4.19969C95.9189 3.77183 96.4224 3.58156 96.8502 3.77471C97.0389 3.85989 97.19 4.01101 97.2752 4.19969L98.315 6.50287L100.827 6.78001C101.293 6.8315 101.63 7.2515 101.578 7.71811C101.556 7.92388 101.459 8.11429 101.306 8.25361L99.4364 9.9542L99.949 12.4287C100.044 12.8883 99.7487 13.3382 99.2891 13.4334C99.0863 13.4754 98.8753 13.442 98.6954 13.3394L96.5005 12.0872Z" fill="white"/>
</g>
<defs>
<clipPath id="clip0_1_1029">
<rect width="9" height="17" fill="white" transform="translate(96 0.5)"/>
</clipPath>
</defs>
</svg>
