<svg width="106" height="18" viewBox="0 0 106 18" fill="none" xmlns="http://www.w3.org/2000/svg">
<path d="M0 0.5H17.0956V17.4363H0V0.5Z" fill="#00B67B"/>
<path fill-rule="evenodd" clip-rule="evenodd" d="M9.95237 7.63992H14.5427L10.8318 10.3174L8.57059 11.9504L8.55812 11.9537L8.56208 11.9565L8.53667 11.9749L4.82579 14.6312L6.24149 10.3174L2.53064 7.63992H7.12097L8.53667 3.32617L9.95237 7.63992ZM8.56208 11.9565L12.2475 14.6099L11.1536 11.2737L8.57059 11.9504L8.56208 11.9565Z" fill="white"/>
<path d="M22.0956 0.5H39.1913V17.4363H22.0956V0.5Z" fill="#00B67B"/>
<path fill-rule="evenodd" clip-rule="evenodd" d="M32.048 7.63992H36.6383L32.9275 10.3174L30.6663 11.9504L30.6538 11.9537L30.6578 11.9565L30.6323 11.9749L26.9215 14.6312L28.3372 10.3174L24.6263 7.63992H29.2166L30.6323 3.32617L32.048 7.63992ZM30.6578 11.9565L34.3432 14.6099L33.2492 11.2737L30.6663 11.9504L30.6578 11.9565Z" fill="white"/>
<path d="M44.1913 0.5H61.2869V17.4363H44.1913V0.5Z" fill="#00B67B"/>
<path fill-rule="evenodd" clip-rule="evenodd" d="M54.1437 7.63992H58.734L55.0231 10.3174L52.7619 11.9504L52.7494 11.9537L52.7534 11.9565L52.728 11.9749L49.0171 14.6312L50.4328 10.3174L46.722 7.63992H51.3123L52.728 3.32617L54.1437 7.63992ZM52.7534 11.9565L56.4388 14.6099L55.3449 11.2737L52.7619 11.9504L52.7534 11.9565Z" fill="white"/>
<path d="M66.287 0.5H83.383V17.4363H66.287V0.5Z" fill="#00B67B"/>
<path fill-rule="evenodd" clip-rule="evenodd" d="M76.2394 7.63992H80.8297L77.1185 10.3174L74.8573 11.9504L74.8448 11.9537L74.8494 11.9565L74.8237 11.9749L71.1125 14.6312L72.5282 10.3174L68.8177 7.63992H73.408L74.8237 3.32617L76.2394 7.63992ZM74.8494 11.9565L78.5342 14.6099L77.4406 11.2737L74.8573 11.9504L74.8494 11.9565Z" fill="white"/>
<path d="M88.3829 0.5H105.479V17.4363H88.3829V0.5Z" fill="#00B67B"/>
<path fill-rule="evenodd" clip-rule="evenodd" d="M98.3353 7.63992H102.926L99.2144 10.3174L96.9533 11.9504L96.9407 11.9537L96.9454 11.9565L96.9196 11.9749L93.2085 14.6312L94.6242 10.3174L90.9136 7.63992H95.5039L96.9196 3.32617L98.3353 7.63992ZM96.9454 11.9565L100.63 14.6099L99.5365 11.2737L96.9533 11.9504L96.9454 11.9565Z" fill="white"/>
<g clip-path="url(#clip0_1_1002)">
<path d="M88.3829 0.5H105.479V17.4363H88.3829V0.5Z" fill="#DEDEDE"/>
<path fill-rule="evenodd" clip-rule="evenodd" d="M98.3359 7.63992H102.926L99.215 10.3174L96.9538 11.9504L96.9413 11.9537L96.9459 11.9565L96.9202 11.9749L93.209 14.6312L94.6247 10.3174L90.9142 7.63992H95.5045L96.9202 3.32617L98.3359 7.63992ZM96.9459 11.9565L100.631 14.6099L99.5371 11.2737L96.9538 11.9504L96.9459 11.9565Z" fill="white"/>
</g>
<defs>
<clipPath id="clip0_1_1002">
<rect width="9" height="17" fill="white" transform="translate(96.5431 0.5)"/>
</clipPath>
</defs>
</svg>
