<svg width="112" height="18" viewBox="0 0 112 18" fill="none" xmlns="http://www.w3.org/2000/svg">
<path fill-rule="evenodd" clip-rule="evenodd" d="M18.2143 6.99442L11.2567 6.99324L9.10718 0.5L6.95788 6.99251L0 6.99139L5.62921 11.0061L3.47951 17.5L9.10791 13.4871L14.7348 17.5L12.5855 11.0076L18.2143 6.99442Z" fill="#FD7950"/>
<path fill-rule="evenodd" clip-rule="evenodd" d="M41.4286 6.99442L34.471 6.99324L32.3215 0.5L30.1722 6.99251L23.2143 6.99139L28.8435 11.0061L26.6938 17.5L32.3222 13.4871L37.9491 17.5L35.7998 11.0076L41.4286 6.99442Z" fill="#FD7950"/>
<path fill-rule="evenodd" clip-rule="evenodd" d="M64.6429 6.99442L57.6852 6.99324L55.5358 0.5L53.3865 6.99251L46.4286 6.99139L52.0578 11.0061L49.9081 17.5L55.5365 13.4871L61.1633 17.5L59.0141 11.0076L64.6429 6.99442Z" fill="#FD7950"/>
<path fill-rule="evenodd" clip-rule="evenodd" d="M87.8571 6.99442L80.8995 6.99324L78.75 0.5L76.6007 6.99251L69.6429 6.99139L75.2721 11.0061L73.1224 17.5L78.7508 13.4871L84.3776 17.5L82.2284 11.0076L87.8571 6.99442Z" fill="#FD7950"/>
<path fill-rule="evenodd" clip-rule="evenodd" d="M111.071 6.99442L104.114 6.99324L101.964 0.5L99.815 6.99251L92.8571 6.99139L98.4864 11.0061L96.3367 17.5L101.965 13.4871L107.592 17.5L105.443 11.0076L111.071 6.99442Z" fill="#FD7950"/>
</svg>
