<svg width="300" height="305" viewBox="0 0 300 305" fill="none" xmlns="http://www.w3.org/2000/svg">
<path d="M11.9748 234.175H97.4944L100.245 179.876H9.22449L11.9748 234.175Z" fill="#EBEBEB"/>
<path d="M91.2258 204.711H15.9197L14.885 185.861H92.4341L91.2258 204.711ZM16.5472 204.043H90.5983L91.7265 186.529H15.5793L16.5472 204.043Z" fill="#DBDBDB"/>
<path d="M90.2048 226.42H18.1096L17.2551 209.387H91.2662L90.2048 226.42ZM18.7104 225.752H89.5773L90.5586 210.055H17.9227L18.7104 225.752Z" fill="#DBDBDB"/>
<path d="M62.2276 197.364H46.2665L45.6791 192.815H62.815L62.2276 197.364ZM46.874 196.696H61.6468L62.0607 193.483H46.4401L46.874 196.696Z" fill="#DBDBDB"/>
<path d="M62.2275 220.181H46.2664L45.679 215.639H62.8149L62.2275 220.181ZM46.8739 219.513H61.6467L62.0606 216.307H46.44L46.8739 219.513Z" fill="#DBDBDB"/>
<path d="M23.8368 234.176L23.0091 240.087L21.3335 251.977H18.0692V234.176H23.8368Z" fill="#EBEBEB"/>
<path d="M23.8368 234.176L23.0091 240.087H18.0692V234.176H23.8368Z" fill="#DBDBDB"/>
<path d="M85.6385 234.176L86.4663 240.087L88.1352 251.977H91.3995V234.176H85.6385Z" fill="#EBEBEB"/>
<path d="M85.6385 234.176L86.4663 240.087H91.3995V234.176H85.6385Z" fill="#DBDBDB"/>
<path d="M255.316 299.615C272.401 299.615 286.25 296.356 286.25 292.335C286.25 288.313 272.401 285.054 255.316 285.054C238.232 285.054 224.382 288.313 224.382 292.335C224.382 296.356 238.232 299.615 255.316 299.615Z" fill="#F7F8FC"/>
<path d="M154.089 286.877C213.351 286.877 261.391 280.833 261.391 273.378C261.391 265.922 213.351 259.878 154.089 259.878C94.8283 259.878 46.7877 265.922 46.7877 273.378C46.7877 280.833 94.8283 286.877 154.089 286.877Z" fill="#F7F8FC"/>
<path d="M140.218 304.244C199.479 304.244 247.519 298.2 247.519 290.745C247.519 283.289 199.479 277.245 140.218 277.245C80.9566 277.245 32.916 283.289 32.916 290.745C32.916 298.2 80.9566 304.244 140.218 304.244Z" fill="#F7F8FC"/>
<path d="M5.53271 251.977L39.3374 251.81L73.142 251.756L140.751 251.643L208.361 251.756L242.165 251.81L275.97 251.977L242.165 252.137L208.361 252.197L140.751 252.311L73.142 252.197L39.3374 252.137L5.53271 251.977Z" fill="#263238"/>
<path d="M140.338 84.402C145.568 48.242 120.512 14.6913 84.3737 9.46439C48.2355 4.23749 14.6999 29.3137 9.46987 65.4737C4.23981 101.634 29.2958 135.185 65.434 140.411C101.572 145.638 135.108 120.562 140.338 84.402Z" fill="#D3DBE7"/>
<path opacity="0.1" d="M140.942 79.2389C142.498 44.4118 115.544 14.9165 80.7392 13.3594C45.934 11.8023 16.4573 38.7729 14.9011 73.6001C13.345 108.427 40.2987 137.922 75.1039 139.48C109.909 141.037 139.386 114.066 140.942 79.2389Z" fill="black"/>
<path d="M136.936 79.6463C138.713 47.0352 113.733 19.1577 81.1423 17.3801C48.5517 15.6025 20.6917 40.5981 18.9153 73.2092C17.1388 105.82 42.1186 133.698 74.7092 135.475C107.3 137.253 135.16 112.257 136.936 79.6463Z" fill="white"/>
<path d="M78.4972 21.5811H77.355V30.5452H78.4972V21.5811Z" fill="#C7C7C7"/>
<path d="M51.0145 28.6359L50.0259 29.207L54.5051 36.9702L55.4937 36.3991L51.0145 28.6359Z" fill="#C7C7C7"/>
<path d="M30.7364 48.4962L30.1656 49.4854L37.9239 53.9674L38.4947 52.9782L30.7364 48.4962Z" fill="#C7C7C7"/>
<path d="M32.0751 75.8525H23.1166V76.9948H32.0751V75.8525Z" fill="#C7C7C7"/>
<path d="M37.9256 98.8705L30.1674 103.353L30.7381 104.342L38.4964 99.8597L37.9256 98.8705Z" fill="#C7C7C7"/>
<path d="M54.5028 115.871L50.0276 123.637L51.0165 124.207L55.4916 116.442L54.5028 115.871Z" fill="#C7C7C7"/>
<path d="M78.4972 122.303H77.355V131.267H78.4972V122.303Z" fill="#C7C7C7"/>
<path d="M101.344 115.871L100.355 116.442L104.835 124.206L105.823 123.634L101.344 115.871Z" fill="#C7C7C7"/>
<path d="M117.914 98.8585L117.343 99.8477L125.101 104.33L125.672 103.341L117.914 98.8585Z" fill="#C7C7C7"/>
<path d="M132.734 75.8525H123.776V76.9948H132.734V75.8525Z" fill="#C7C7C7"/>
<path d="M125.107 48.517L117.349 52.999L117.919 53.9882L125.678 49.5061L125.107 48.517Z" fill="#C7C7C7"/>
<path d="M104.838 28.6446L100.363 36.4102L101.351 36.9808L105.827 29.2152L104.838 28.6446Z" fill="#C7C7C7"/>
<path d="M78.7834 25.6345L80.7259 80.4146L75.1185 80.3411L77.2614 25.6211L78.7834 25.6345Z" fill="#475569"/>
<path d="M112.882 57.3164L76.0533 80.8423L73.3765 75.9127L112.154 55.9805L112.882 57.3164Z" fill="#263238"/>
<path d="M77.922 78.338C78.9801 78.338 79.8378 77.4797 79.8378 76.421C79.8378 75.3622 78.9801 74.5039 77.922 74.5039C76.8639 74.5039 76.0061 75.3622 76.0061 76.421C76.0061 77.4797 76.8639 78.338 77.922 78.338Z" fill="#FFC727"/>
<path d="M207.313 197.176C210.751 198.892 214.149 200.676 217.54 202.466C220.931 204.256 224.302 206.093 227.687 207.91C231.071 209.727 234.415 211.604 237.76 213.488L242.766 216.326C244.422 217.295 246.104 218.244 247.74 219.232C246.017 218.377 244.322 217.489 242.606 216.614L237.513 213.942C234.115 212.152 230.751 210.308 227.366 208.498C223.982 206.688 220.644 204.797 217.3 202.914C213.955 201.03 210.617 199.133 207.313 197.176Z" fill="#A8C1E4"/>
<path d="M244.889 197.176C241.825 198.939 238.721 200.643 235.617 202.339C232.513 204.036 229.382 205.679 226.271 207.342C223.16 209.006 220.003 210.609 216.845 212.212L212.106 214.596C210.517 215.365 208.935 216.159 207.333 216.914C208.862 216.026 210.417 215.178 211.952 214.302L216.625 211.751C219.736 210.061 222.867 208.411 225.971 206.748C229.075 205.085 232.246 203.481 235.397 201.885C238.547 200.289 241.692 198.699 244.889 197.176Z" fill="#A8C1E4"/>
<path d="M169.156 197.176C172.594 198.892 175.991 200.676 179.382 202.466C182.774 204.256 186.145 206.093 189.529 207.91C192.914 209.727 196.258 211.604 199.596 213.488L204.609 216.326C206.265 217.295 207.947 218.244 209.582 219.232C207.86 218.377 206.165 217.489 204.449 216.614L199.356 213.942C195.958 212.152 192.593 210.308 189.209 208.498C185.824 206.688 182.48 204.797 179.142 202.914C175.804 201.03 172.46 199.133 169.156 197.176Z" fill="#A8C1E4"/>
<path d="M206.725 197.176C203.661 198.939 200.557 200.643 197.453 202.339C194.349 204.036 191.212 205.679 188.107 207.342C185.003 209.006 181.839 210.609 178.682 212.212L173.942 214.596C172.353 215.365 170.771 216.159 169.169 216.914C170.698 216.026 172.253 215.178 173.788 214.302L178.461 211.751C181.572 210.061 184.703 208.411 187.807 206.748C190.911 205.085 194.082 203.481 197.233 201.885C200.384 200.289 203.534 198.699 206.725 197.176Z" fill="#A8C1E4"/>
<path d="M176.132 191.892L174.109 204.022L160.418 278.026H158.208L168.168 204.022L169.637 191.892H176.132Z" fill="#C8DEFE"/>
<path d="M169.636 191.892H176.131L174.109 204.022H168.167L169.636 191.892Z" fill="#263238"/>
<path d="M219.142 278.026H216.932L203.241 204.022L201.218 191.892H207.713L209.182 204.022L219.142 278.026Z" fill="#C8DEFE"/>
<path d="M207.713 191.892L209.182 204.022H203.241L201.218 191.892H207.713Z" fill="#A8C1E4"/>
<path d="M260.223 278.026H258.013L244.315 204.022L242.292 191.892H248.788L250.263 204.022L260.223 278.026Z" fill="#C8DEFE"/>
<path d="M250.263 204.022H244.315L242.292 191.892H248.788L250.263 204.022Z" fill="#263238"/>
<path d="M256.718 197.589H156.365V187.009H193.928L206.558 105.684H252.893L256.718 197.589Z" fill="#C8DEFE"/>
<path d="M256.718 197.589H251.251L247.686 105.684H252.893L256.718 197.589Z" fill="#A8C1E4"/>
<path d="M159.719 278.157C161.521 277.916 206.581 255.402 207.746 253.509C207.891 253.292 205.944 249.168 203.186 243.565C196.95 230.881 184.478 209.425 184.478 209.425L157.328 224.695L172.276 253.016C172.276 253.016 167.259 259.112 163.174 264.27C160.662 267.444 158.511 270.281 158.115 271.111C157.1 273.347 157.929 278.433 159.719 278.157Z" fill="#F7A9A0"/>
<path d="M159.719 278.156C161.522 277.916 206.581 255.402 207.747 253.508C207.885 253.286 205.944 249.168 203.181 243.559C202.876 242.921 202.552 242.266 202.207 241.593C194.067 247.857 178.728 259.153 167.962 264.077C163.576 266.079 164.393 263.475 165.943 260.818C165.03 261.954 164.105 263.121 163.216 264.245C160.711 267.419 158.554 270.257 158.157 271.086C157.1 273.347 157.935 278.433 159.719 278.156Z" fill="#263238"/>
<path d="M165.487 248.049L198.23 231.498C198.23 231.498 174.373 186.861 175.004 186.044C177.202 183.2 203.77 184.493 215.257 173.076C227.405 160.993 217.876 142.158 217.876 142.158H186.124C186.124 142.158 186.665 152.414 185.295 153.538C184.394 154.29 137.718 158.799 135.892 171.123C132.726 192.458 165.487 248.049 165.487 248.049Z" fill="#475569"/>
<path d="M164.195 242.939C167.98 240.648 171.855 238.544 175.748 236.446C179.642 234.348 183.559 232.304 187.506 230.338C189.735 229.232 192.018 228.234 194.253 227.134C194.26 227.13 194.268 227.127 194.276 227.126C194.284 227.125 194.292 227.126 194.3 227.128C194.308 227.131 194.315 227.134 194.321 227.139C194.328 227.144 194.333 227.151 194.337 227.158C194.341 227.165 194.343 227.173 194.344 227.181C194.345 227.189 194.345 227.197 194.342 227.205C194.34 227.213 194.336 227.22 194.331 227.226C194.326 227.233 194.32 227.238 194.313 227.242C192.354 228.294 190.45 229.448 188.497 230.512C186.545 231.576 184.64 232.598 182.706 233.626C178.806 235.694 174.895 237.72 170.966 239.764C168.761 240.919 166.526 242.013 164.279 243.083C164.26 243.091 164.239 243.092 164.22 243.085C164.2 243.079 164.184 243.066 164.174 243.048C164.163 243.03 164.16 243.009 164.164 242.989C164.168 242.969 164.179 242.951 164.195 242.939Z" fill="#263238"/>
<path d="M162.495 180.821C163.276 179.203 165.349 178.969 166.893 178.584C171.118 177.526 175.34 176.474 179.557 175.428C187.037 173.57 194.745 171.821 201.444 167.859C204.646 165.966 207.759 163.567 209.357 160.116C210.955 156.666 210.955 152.974 210.979 149.295C210.979 148.393 210.931 147.492 210.871 146.59C210.871 146.512 210.991 146.512 210.991 146.59C211.225 150.197 211.592 153.804 210.787 157.339C210.418 159.066 209.736 160.71 208.774 162.19C207.771 163.656 206.54 164.95 205.127 166.026C199.221 170.709 191.765 172.951 184.574 174.755C180.513 175.795 176.433 176.781 172.36 177.761L166.07 179.3C165.139 179.428 164.253 179.778 163.486 180.322C163.189 180.617 162.965 180.977 162.831 181.373C162.696 181.769 162.655 182.191 162.711 182.606C162.799 183.466 163.014 184.309 163.348 185.107C163.726 186.093 164.123 187.073 164.55 188.053C165.327 189.964 166.128 191.866 166.953 193.758C168.599 197.573 170.307 201.365 172.077 205.132C175.61 212.629 179.383 220.011 183.228 227.375C183.709 228.289 184.171 229.209 184.64 230.129C184.643 230.134 184.645 230.14 184.646 230.147C184.647 230.153 184.646 230.159 184.645 230.166C184.641 230.178 184.633 230.188 184.622 230.195C184.611 230.201 184.598 230.203 184.585 230.2C184.573 230.196 184.562 230.188 184.556 230.177C180.44 222.921 176.589 215.496 172.925 208.006C169.26 200.515 165.829 193.006 162.885 185.257C162.315 183.905 161.822 182.221 162.495 180.821Z" fill="#263238"/>
<path d="M88.4347 279.856C90.153 280.421 140.548 279.886 142.404 278.654C142.62 278.522 142.638 267.719 142.638 267.719C145.36 253.621 148.184 230.734 148.184 230.734L114.539 230.692L110.718 262.705C110.718 262.705 103.551 265.975 97.6389 268.831C94.0041 270.586 90.8319 272.185 90.1109 272.774C88.1944 274.349 86.7164 279.297 88.4347 279.856Z" fill="#F7A9A0"/>
<path d="M88.4351 279.851C90.1534 280.422 140.542 279.881 142.398 278.679C142.603 278.552 142.633 269.607 142.639 267.99C133.891 269.595 111.896 273.298 98.6486 272.577C91.7995 272.204 98.6185 268.447 101.604 266.968C100.277 267.569 98.925 268.23 97.6332 268.861C93.9924 270.623 90.8262 272.222 90.0933 272.805C88.1948 274.35 86.7168 279.298 88.4351 279.851Z" fill="#263238"/>
<path d="M109.853 255.954L147.89 255.677C147.89 255.677 155.7 196.42 158.776 193.114C160.338 191.442 210.54 191.22 222.851 179.485C235.257 167.654 222.851 142.158 222.851 142.158H190.462C190.462 142.158 189.657 152.162 192.132 158.288C192.132 158.288 146.838 159.015 134.492 168.724C117.928 181.751 109.853 255.954 109.853 255.954Z" fill="#475569"/>
<path d="M112.803 249.678C117.213 249.353 121.623 249.239 126.021 249.131C130.418 249.023 134.852 248.98 139.268 249.029C141.761 249.029 144.249 249.197 146.736 249.233C146.814 249.233 146.82 249.353 146.736 249.353C144.513 249.401 142.29 249.57 140.067 249.63C137.844 249.69 135.687 249.744 133.495 249.78C129.079 249.852 124.663 249.87 120.247 249.924C117.76 249.924 115.272 249.924 112.785 249.84C112.768 249.834 112.753 249.821 112.743 249.805C112.733 249.789 112.729 249.771 112.731 249.752C112.733 249.733 112.741 249.716 112.754 249.702C112.767 249.689 112.785 249.68 112.803 249.678Z" fill="#263238"/>
<path d="M206.359 146.89C206.401 147.041 206.461 147.187 206.539 147.323C206.547 147.334 206.551 147.346 206.551 147.359C206.551 147.372 206.547 147.385 206.539 147.395C206.965 148.724 207.14 150.137 207.548 151.465C207.942 152.884 208.812 154.124 210.011 154.976C212.523 156.72 215.545 157.513 218.465 158.241C218.561 158.241 218.531 158.397 218.465 158.403C216.773 158.411 215.09 158.153 213.478 157.639C211.967 157.222 210.543 156.538 209.272 155.619C208.086 154.724 207.239 153.453 206.869 152.012C206.684 151.242 206.544 150.461 206.449 149.674C206.282 148.771 206.183 147.856 206.154 146.938C206.162 146.919 206.173 146.902 206.189 146.888C206.205 146.874 206.223 146.865 206.244 146.86C206.264 146.855 206.285 146.855 206.305 146.861C206.325 146.866 206.343 146.876 206.359 146.89Z" fill="#263238"/>
<path d="M186.214 156.057C188.214 156.636 190.161 157.382 192.036 158.288L192.126 158.324C192.086 158.211 192.058 158.094 192.042 157.975L191.97 157.554C191.97 157.404 191.94 157.26 191.922 157.109V156.887C191.681 156.872 191.445 156.807 191.23 156.696C191.015 156.585 190.825 156.431 190.672 156.244C190.287 155.705 190.023 155.09 189.897 154.44C189.675 153.611 189.477 152.775 189.296 151.939C189.098 151.007 188.924 150.07 188.78 149.126C188.602 148.206 188.495 147.273 188.461 146.336C188.461 146.186 188.684 146.168 188.72 146.336C188.936 147.196 189.032 148.086 189.2 148.957C189.369 149.829 189.549 150.695 189.747 151.567C189.945 152.438 190.162 153.292 190.402 154.152C190.612 154.909 190.828 156.015 191.706 156.268C193.508 156.785 192.709 152.703 192.631 151.903C192.445 150.052 192.33 148.164 192.03 146.336C192.03 146.258 192.132 146.228 192.15 146.306C192.547 147.99 192.997 149.643 193.298 151.35C193.442 152.186 193.55 153.027 193.64 153.875C193.79 154.6 193.732 155.352 193.472 156.045C193.361 156.281 193.193 156.486 192.983 156.641C192.773 156.797 192.528 156.897 192.27 156.935C192.27 156.995 192.306 157.061 192.33 157.121C192.354 157.182 192.415 157.392 192.451 157.53C192.487 157.668 192.511 157.807 192.547 157.945C192.608 158.106 192.629 158.279 192.607 158.45C192.587 158.494 192.556 158.531 192.517 158.558C193.292 158.895 194.067 159.232 194.836 159.586C195.799 159.97 196.733 160.424 197.629 160.945C197.732 160.993 197.629 161.137 197.551 161.119C196.552 160.838 195.574 160.484 194.625 160.061C193.652 159.688 192.691 159.292 191.73 158.889C189.814 158.185 187.962 157.323 186.19 156.31C186.157 156.307 186.126 156.29 186.105 156.264C186.083 156.238 186.073 156.205 186.076 156.172C186.079 156.138 186.096 156.107 186.122 156.086C186.148 156.064 186.181 156.054 186.214 156.057Z" fill="#263238"/>
<path d="M223.542 157.385C223.194 154.188 222.532 151.033 221.565 147.965C221.319 147.172 221.055 146.378 220.772 145.596C220.77 145.589 220.766 145.581 220.761 145.575C220.755 145.568 220.749 145.563 220.742 145.559C220.735 145.555 220.727 145.553 220.718 145.552C220.71 145.551 220.702 145.552 220.694 145.554C220.686 145.557 220.679 145.561 220.672 145.566C220.666 145.571 220.661 145.578 220.657 145.585C220.653 145.592 220.651 145.6 220.65 145.608C220.649 145.616 220.65 145.625 220.652 145.633C221.669 148.718 222.393 151.892 222.815 155.113C223.303 158.229 223.402 161.393 223.109 164.533C222.804 167.4 221.77 170.14 220.105 172.493C218.525 174.603 216.557 176.392 214.308 177.765C209.063 181.048 202.832 182.244 196.831 183.41C190.242 184.689 183.623 185.845 176.974 186.879C169.506 188.045 154.859 188.851 154.21 190.167C152.961 192.71 150.99 204.559 149.722 211.81C148.455 219.06 145.288 243.792 145.054 247.946C145.054 248.211 145.445 248.192 145.469 247.946C146.166 240.6 147.433 231.336 148.473 224.025C149.512 216.715 150.72 209.597 152.168 202.425C152.973 198.446 154.499 191.406 154.979 190.751C155.724 189.722 168.281 188.821 174.998 187.787C181.715 186.753 188.57 185.568 195.323 184.276C201.493 183.074 207.939 182.034 213.467 178.943C218.273 176.274 222.154 172.084 223.326 166.65C223.887 163.592 223.96 160.465 223.542 157.385Z" fill="#263238"/>
<path d="M177.034 191.058C175.724 191.022 160.536 192.435 157.947 192.952C157.767 192.988 153.141 218.706 152.708 223.443C152.648 224.045 152.888 224.646 153.068 223.443C153.423 221.117 158.74 193.625 158.746 193.607C161.341 193.313 175.784 191.461 177.064 191.239C177.166 191.221 177.13 191.064 177.034 191.058Z" fill="#263238"/>
<path d="M190.87 158.223C181.965 158.44 173.078 159.142 164.249 160.327C160.308 160.832 156.372 161.409 152.467 162.13C148.972 162.719 145.535 163.61 142.194 164.794C140.369 165.45 138.609 166.275 136.937 167.258C135.285 168.286 133.745 169.483 132.341 170.829C132.281 170.889 132.377 170.968 132.437 170.92C135.08 168.707 138.385 167.126 141.587 165.906C144.858 164.703 148.227 163.788 151.656 163.17C155.477 162.443 159.328 161.908 163.179 161.367C167.345 160.798 171.516 160.295 175.694 159.858C180.41 159.365 186.16 158.962 190.876 158.487C191.05 158.481 191.05 158.217 190.87 158.223Z" fill="#263238"/>
<path d="M177.851 78.8253C189.825 81.8312 198.957 93.7644 197.076 110.014C195.358 124.791 182.056 136.466 172.083 135.864C161.491 135.263 155.459 125.512 157.928 117.901C160.332 110.543 166.682 106.684 166.898 100.54C167 97.6059 164.669 93.2113 164.633 88.8589C164.579 83.9773 170.155 76.8775 177.851 78.8253Z" fill="#263238"/>
<path d="M182.021 133.935C186.512 131.552 190.323 128.064 193.093 123.799C195.857 119.513 197.601 114.649 198.188 109.581C198.866 104.514 198.173 99.3569 196.181 94.6484C194.113 89.996 190.827 85.9892 186.671 83.0518C190.652 86.1387 193.779 90.1926 195.755 94.8287C196.708 97.1362 197.34 99.5635 197.635 102.043C197.927 104.524 197.908 107.032 197.581 109.509C197.279 111.99 196.724 114.434 195.923 116.802C194.285 121.547 191.563 125.845 187.974 129.354C186.197 131.134 184.196 132.674 182.021 133.935Z" fill="#263238"/>
<path d="M156.847 119.754C157.029 118.207 157.455 116.7 158.109 115.287C158.753 113.873 159.559 112.54 160.512 111.313C161.473 110.079 162.397 108.814 163.282 107.52C164.19 106.221 164.945 104.821 165.529 103.348C165.815 102.599 166.036 101.826 166.19 101.039C166.306 100.243 166.318 99.4341 166.226 98.6344C166.003 97.0801 165.688 95.5403 165.282 94.0234C164.9 92.5228 164.712 90.9791 164.724 89.4305C164.754 87.8732 165.07 86.3348 165.655 84.8916C164.968 86.3073 164.56 87.8422 164.453 89.4124C164.382 90.9903 164.518 92.5707 164.856 94.1136C165.138 95.6586 165.553 97.1675 165.697 98.6945C165.776 99.4473 165.756 100.207 165.637 100.955C165.484 101.698 165.265 102.427 164.982 103.131C163.907 106.017 161.978 108.494 160.176 111.043C159.253 112.325 158.489 113.713 157.899 115.179C157.291 116.633 156.935 118.18 156.847 119.754Z" fill="#263238"/>
<path d="M188.66 111.475C188.149 119.085 174.631 155.805 164.027 158.438C161.318 159.111 158.302 158.775 156.637 155.895C152.396 148.543 149.716 131.277 150.768 113.248C150.81 112.503 167.109 109.905 168.575 113.747C168.737 114.162 170.251 125.289 169.777 125.169C169.176 125.043 174.174 119.302 182.393 109.857C186.274 105.397 188.966 106.93 188.66 111.475Z" fill="#D08178"/>
<path d="M169.782 124.256C170.383 129.967 170.888 135.679 171.23 141.444C171.326 143.043 171.434 144.642 171.537 146.253C171.537 146.307 171.633 146.301 171.633 146.253C171.763 143.378 171.743 140.499 171.573 137.626C171.41 134.783 171.176 131.909 170.737 129.09C170.485 127.487 170.201 125.873 169.884 124.25C169.887 124.242 169.887 124.233 169.885 124.225C169.883 124.216 169.88 124.208 169.874 124.202C169.869 124.195 169.862 124.19 169.854 124.186C169.846 124.183 169.838 124.181 169.829 124.182C169.82 124.182 169.812 124.185 169.805 124.189C169.797 124.194 169.791 124.2 169.786 124.207C169.782 124.214 169.779 124.222 169.778 124.231C169.778 124.24 169.779 124.248 169.782 124.256Z" fill="#263238"/>
<path d="M150.755 114.24C150.833 113.038 150.683 102.926 152.924 98.1467C154.125 95.6158 158.163 89.027 159.791 89.562C161.281 90.0429 160.614 92.123 160.614 92.123C160.614 92.123 162.464 89.2133 164.525 89.9107C166.586 90.608 165.276 94.0528 165.276 94.0528C165.276 94.0528 167.391 91.2032 169.398 92.0448C171.404 92.8865 169.506 96.1388 169.506 96.1388C169.506 96.1388 171.308 93.4396 172.684 94.8283C174.318 96.5055 170.413 101.098 169.608 104.086C169.428 104.766 166.904 118.112 166.904 118.112L150.755 114.24Z" fill="#D08178"/>
<path d="M169.572 96.2463C166.706 99.6309 166.039 101.609 165.432 105.931C165.432 106.015 165.294 106.015 165.3 105.931C165.511 101.645 165.985 99.0477 169.416 96.102C169.584 95.9517 169.71 96.0839 169.572 96.2463Z" fill="#263238"/>
<path d="M165.355 94.1558C162.687 97.9311 161.948 100.071 160.975 104.55C160.975 104.616 160.855 104.598 160.867 104.55C161.467 100.077 161.984 97.4923 165.144 94.0716C165.288 93.8973 165.481 93.9814 165.355 94.1558Z" fill="#263238"/>
<path d="M160.573 92.339C158.253 96.1805 157.34 98.489 156.968 102.962C156.963 102.979 156.952 102.995 156.938 103.006C156.923 103.018 156.905 103.024 156.887 103.024C156.868 103.024 156.85 103.018 156.836 103.006C156.821 102.995 156.81 102.979 156.806 102.962C156.752 98.3688 157.875 95.4771 160.464 92.2849C160.627 92.0625 160.723 92.0985 160.573 92.339Z" fill="#263238"/>
<path d="M168.647 121.25C168.647 121.25 171.651 116.567 172.504 114.223C173.357 111.878 173.363 101.947 171.218 101.826C168.454 101.67 167.325 107.399 167.139 110.279C167.139 110.279 160.74 109.912 159.046 113.85C157.352 117.787 168.647 121.25 168.647 121.25Z" fill="#EB9481"/>
<path d="M170.443 102.012C167.818 103.696 167.818 107.489 167.439 110.266C167.436 110.308 167.422 110.347 167.4 110.382C167.377 110.417 167.347 110.446 167.311 110.467C167.275 110.487 167.234 110.499 167.193 110.501C167.152 110.503 167.11 110.494 167.073 110.477C164.381 110.477 160.584 111.318 158.986 113.669C158.977 113.683 158.963 113.693 158.946 113.697C158.93 113.701 158.913 113.698 158.898 113.69C158.884 113.681 158.873 113.667 158.868 113.651C158.863 113.635 158.865 113.618 158.872 113.603C160.248 110.856 163.907 109.743 166.857 109.906C167.211 107.05 167.379 103.239 170.461 101.988C170.449 102.012 170.461 102.012 170.443 102.012Z" fill="#263238"/>
<path d="M170.311 123.655L177.875 144.858C177.875 144.858 188.035 122.969 189.008 113.435C189.981 103.9 186.941 105.463 182.435 109.527C177.929 113.591 170.311 123.655 170.311 123.655Z" fill="#FFC727"/>
<path d="M185.499 119.326C185.571 118.794 185.717 118.274 185.932 117.781C186.061 118.849 185.905 119.931 185.481 120.919C185.412 120.39 185.418 119.854 185.499 119.326ZM177.917 133.099C177.986 132.568 178.13 132.05 178.344 131.56C178.471 132.627 178.318 133.709 177.899 134.698C177.83 134.167 177.836 133.629 177.917 133.099ZM177.317 114.944C177.807 114.89 178.301 114.9 178.789 114.974C179.319 115.044 179.837 115.19 180.327 115.407C179.799 115.482 179.263 115.482 178.735 115.407C178.233 115.338 177.742 115.205 177.275 115.01L177.317 114.944ZM189.116 111.824C189.116 111.944 189.116 112.07 189.116 112.196C188.743 112.128 188.379 112.013 188.035 111.854C188.393 111.801 188.756 111.791 189.116 111.824ZM184.274 127.484C184.463 127.736 184.634 128.001 184.784 128.278C184.893 128.47 184.986 128.671 185.061 128.879C184.926 128.784 184.799 128.677 184.682 128.56C184.414 128.306 184.167 128.031 183.943 127.737C183.616 127.311 183.351 126.842 183.156 126.342C183.58 126.669 183.956 127.053 184.274 127.484ZM171.489 126.059C171.817 126.482 172.082 126.95 172.276 127.448C171.94 127.197 171.637 126.904 171.375 126.576L170.984 125.458C171.165 125.648 171.333 125.849 171.489 126.059ZM177.996 122.687C178.419 122.357 178.889 122.092 179.389 121.899C179.063 122.323 178.679 122.7 178.248 123.017C177.821 123.34 177.352 123.603 176.854 123.799C177.181 123.384 177.565 123.017 177.996 122.711V122.687ZM178.338 140.415C178.763 140.09 179.232 139.827 179.732 139.634C179.407 140.058 179.022 140.432 178.59 140.746C178.165 141.073 177.696 141.338 177.196 141.534C177.525 141.118 177.909 140.75 178.338 140.439V140.415Z" fill="white"/>
<path d="M178.758 137.235C177.183 132.154 175.348 127.158 173.261 122.266C173.261 122.194 173.111 122.266 173.135 122.314C174.699 127.4 176.528 132.401 178.614 137.295C178.65 137.373 178.794 137.319 178.758 137.235Z" fill="#263238"/>
<path d="M189.008 113.434C188.058 122.963 177.899 144.822 177.899 144.822L172.294 129.101L187.596 106.353C188.894 106.515 189.482 108.463 189.008 113.434Z" fill="#263238"/>
<path d="M184.159 154.273C184.159 154.273 199.497 153.973 226.286 144.54C226.286 144.54 205.259 113.412 194.246 106.408C189.242 103.228 185.439 105.398 182.879 108.939C182.242 109.823 177.118 124.323 177.412 128.994C177.67 133.124 181.996 136.671 181.996 136.671L184.159 154.273Z" fill="#FFC727"/>
<path d="M206.202 146.41C206.628 146.084 207.097 145.819 207.596 145.622C207.266 146.052 206.873 146.429 206.43 146.74C206.008 147.068 205.54 147.334 205.042 147.528C205.374 147.102 205.765 146.726 206.202 146.41ZM195.183 130.178C195.608 129.851 196.077 129.585 196.577 129.39C196.25 129.816 195.864 130.193 195.43 130.509C195.007 130.837 194.54 131.102 194.042 131.296C194.368 130.87 194.752 130.491 195.183 130.172V130.178ZM192.287 150.395C192.713 150.07 193.182 149.807 193.681 149.614C193.356 150.039 192.969 150.414 192.534 150.726C192.112 151.054 191.644 151.32 191.146 151.514C191.472 151.087 191.856 150.709 192.287 150.389V150.395ZM202.032 117.511C202.456 117.185 202.923 116.92 203.42 116.724C202.756 117.57 201.882 118.227 200.885 118.629C201.213 118.203 201.599 117.825 202.032 117.505V117.511ZM212.642 139.887C213.064 139.559 213.532 139.293 214.03 139.099C213.707 139.527 213.322 139.903 212.889 140.218C212.465 140.544 211.998 140.809 211.501 141.005C211.826 140.58 212.21 140.203 212.642 139.887ZM178.397 122.453C178.696 122.25 179.019 122.084 179.358 121.96C179.044 122.374 178.672 122.74 178.253 123.048L178.397 122.453ZM197.436 142.292C197.762 142.715 198.027 143.183 198.223 143.68C197.798 143.355 197.422 142.97 197.106 142.538C196.776 142.114 196.511 141.644 196.319 141.143C196.753 141.47 197.14 141.857 197.466 142.292H197.436ZM184.219 127.509C184.548 127.933 184.813 128.402 185.006 128.903C184.58 128.578 184.204 128.194 183.888 127.761C183.561 127.336 183.296 126.866 183.101 126.367C183.543 126.682 183.937 127.058 184.273 127.485L184.219 127.509ZM221.149 143.067C221.479 143.491 221.744 143.961 221.937 144.462C221.513 144.135 221.136 143.751 220.819 143.32C220.496 142.893 220.233 142.423 220.038 141.925C220.46 142.252 220.834 142.636 221.149 143.067ZM211.182 129.24C211.508 129.664 211.773 130.131 211.969 130.629C211.542 130.306 211.166 129.921 210.852 129.487C210.524 129.064 210.259 128.596 210.065 128.098C210.488 128.419 210.864 128.797 211.182 129.222V129.24ZM196.817 109.51C197.147 109.933 197.412 110.403 197.604 110.904C197.179 110.579 196.803 110.195 196.487 109.762C196.162 109.335 195.897 108.866 195.7 108.367C196.124 108.694 196.5 109.079 196.817 109.51ZM189.608 111.872C190.138 111.941 190.656 112.085 191.146 112.299C190.08 112.426 188.999 112.273 188.01 111.854C188.541 111.785 189.079 111.791 189.608 111.872ZM188.887 135.679C189.418 135.744 189.936 135.888 190.425 136.106C189.359 136.233 188.278 136.079 187.289 135.661C187.819 135.585 188.358 135.591 188.887 135.679ZM218.079 133.707C218.29 133.737 218.506 133.779 218.71 133.827L218.969 134.182C218.651 134.181 218.334 134.159 218.019 134.116C217.488 134.048 216.97 133.902 216.481 133.683C217.013 133.62 217.552 133.637 218.079 133.731V133.707ZM208.623 120.794C208.725 120.926 208.833 121.052 208.941 121.184C208.574 121.113 208.217 120.998 207.878 120.842C208.125 120.813 208.374 120.805 208.623 120.818V120.794ZM204.111 136.953C204.643 137.023 205.163 137.166 205.655 137.38C204.589 137.507 203.508 137.354 202.519 136.935C203.049 136.874 203.585 136.888 204.111 136.977V136.953ZM194.973 121.419C195.503 121.49 196.021 121.635 196.511 121.852C195.444 121.981 194.362 121.825 193.375 121.401C193.907 121.339 194.445 121.354 194.973 121.443V121.419ZM178.343 131.537C178.377 131.759 178.393 131.985 178.391 132.21C178.325 132.09 178.265 131.975 178.211 131.855C178.253 131.771 178.295 131.663 178.343 131.561V131.537ZM203.102 127.725C203.17 127.195 203.314 126.676 203.528 126.186C203.603 126.715 203.603 127.251 203.528 127.779C203.462 128.312 203.318 128.833 203.102 129.324C203.029 128.802 203.029 128.272 203.102 127.749V127.725ZM186.045 144.708C186.117 144.178 186.26 143.66 186.472 143.169C186.599 144.236 186.445 145.318 186.027 146.307C185.96 145.784 185.966 145.254 186.045 144.732V144.708ZM188.785 104.887C188.899 104.887 189.013 104.887 189.133 104.851C189.066 105.168 188.963 105.476 188.827 105.77C188.785 105.486 188.771 105.198 188.785 104.911V104.887ZM185.498 119.315C185.57 118.782 185.716 118.262 185.931 117.77C186.06 118.837 185.904 119.92 185.48 120.908C185.412 120.383 185.418 119.85 185.498 119.327V119.315Z" fill="white"/>
<path d="M189.05 105.674C189.206 106.443 185.577 113.856 182.351 115.172C181.84 115.383 182.621 111.457 182.621 111.457C181.81 110.063 181.125 108.572 181.125 108.572L180.837 108.199L176.836 102.981L181.642 95.418L182.363 94.3779C182.363 94.3779 183.36 95.8809 184.592 97.7565C184.646 97.8467 184.706 97.9309 184.766 98.027C184.826 98.1232 184.91 98.2254 184.97 98.3276C185.157 98.6042 185.349 98.8927 185.529 99.1813C185.709 99.4699 185.806 99.6081 185.95 99.8426C186.094 100.077 186.226 100.305 186.376 100.534C187.381 102.186 188.274 103.903 189.05 105.674Z" fill="#E8A098"/>
<path opacity="0.15" d="M184.58 97.7565C184.752 99.6647 184.507 101.588 183.86 103.391C183.214 105.195 182.182 106.835 180.837 108.199L176.835 102.981L181.642 95.418L182.363 94.3779C182.363 94.3779 183.348 95.8809 184.58 97.7565Z" fill="#1D293F"/>
<path d="M165.186 96.8786C168.118 108.042 175.136 107.543 177.539 106.906C179.72 106.305 187.085 104.087 185.349 92.6825C183.613 81.2782 177.467 79.108 172.408 80.1661C167.349 81.2241 162.255 85.7149 165.186 96.8786Z" fill="#E8A098"/>
<path opacity="0.4" d="M173.435 94.8755C174.787 94.1962 176.043 96.9496 174.793 97.5808C173.544 98.212 172.3 95.4467 173.435 94.8755Z" fill="#263238"/>
<path opacity="0.4" d="M167.752 96.2534C168.995 95.9288 169.668 98.8805 168.515 99.1811C167.361 99.4817 166.706 96.5239 167.752 96.2534Z" fill="#263238"/>
<path d="M166.292 94.468C166.495 94.3012 166.707 94.1466 166.929 94.0051C167.129 93.8086 167.389 93.6839 167.668 93.6504C167.757 93.6567 167.843 93.6926 167.91 93.7524C167.977 93.8122 168.023 93.8926 168.04 93.981C168.045 94.1615 168.002 94.34 167.915 94.4984C167.829 94.6568 167.702 94.7894 167.548 94.8828C167.265 95.1175 166.905 95.2377 166.538 95.2194C166.455 95.2109 166.376 95.1785 166.311 95.126C166.246 95.0735 166.197 95.0033 166.171 94.9238C166.145 94.8442 166.143 94.7589 166.164 94.678C166.185 94.5971 166.23 94.5241 166.292 94.468Z" fill="#263238"/>
<path d="M174.042 92.3339C173.778 92.2617 173.526 92.2437 173.261 92.1956C172.996 92.1054 172.709 92.1054 172.444 92.1956C172.367 92.2414 172.306 92.3116 172.272 92.3953C172.239 92.4791 172.234 92.5716 172.258 92.6585C172.331 92.8241 172.447 92.9671 172.594 93.0728C172.741 93.1785 172.913 93.243 173.093 93.2597C173.451 93.3446 173.827 93.2954 174.151 93.1214C174.223 93.0777 174.281 93.0137 174.317 92.9374C174.354 92.8611 174.367 92.7758 174.355 92.6921C174.344 92.6083 174.308 92.5297 174.252 92.4661C174.197 92.4024 174.124 92.3565 174.042 92.3339Z" fill="#263238"/>
<path d="M172.984 95.7061C172.984 95.7061 173.05 95.7061 173.056 95.7602C173.224 96.5176 173.543 97.3653 174.289 97.4434V97.4855C173.429 97.5757 173.02 96.4575 172.984 95.7061Z" fill="#263238"/>
<path d="M173.453 94.7501C174.654 94.3533 175.357 96.758 174.252 97.1548C173.146 97.5515 172.462 95.0867 173.453 94.7501Z" fill="#263238"/>
<path d="M173.988 94.7381C174.24 94.8103 174.517 94.9906 174.781 94.9425C175.046 94.8944 175.226 94.5698 175.346 94.2692C175.346 94.2392 175.388 94.2692 175.4 94.2692C175.501 94.4797 175.518 94.7205 175.449 94.9435C175.38 95.1664 175.23 95.355 175.027 95.4716C174.595 95.6699 174.15 95.3573 173.898 94.9245C173.826 94.8584 173.868 94.7081 173.988 94.7381Z" fill="#263238"/>
<path d="M168.785 96.7393C168.785 96.7393 168.737 96.7874 168.749 96.8174C169.001 97.5569 169.158 98.4406 168.563 98.8975C168.563 98.8975 168.563 98.9456 168.563 98.9335C169.368 98.5728 169.14 97.3945 168.785 96.7393Z" fill="#263238"/>
<path d="M167.89 96.1626C166.688 96.4332 167.289 98.8619 168.43 98.6094C169.572 98.3569 168.911 95.9342 167.89 96.1626Z" fill="#263238"/>
<path d="M167.421 96.4505C167.265 96.6309 167.132 96.9134 166.91 96.9916C166.688 97.0697 166.381 96.8653 166.147 96.6549C166.147 96.6549 166.11 96.6549 166.147 96.691C166.255 97.1599 166.531 97.6048 167.006 97.5747C167.481 97.5447 167.607 97.0757 167.607 96.5828C167.583 96.4926 167.487 96.3784 167.421 96.4505Z" fill="#263238"/>
<path d="M170.845 99.7819C170.845 99.7819 171.008 100.948 171.158 101.471C172.189 101.189 173.255 101.049 174.324 101.056C174.582 101.056 174.522 100.876 174.216 100.792C173.313 100.551 172.36 100.585 171.476 100.888C171.398 100.75 171.266 99.0845 171.182 99.0845C170.782 99.2334 170.404 99.4356 170.058 99.6857C169.656 97.281 169.638 94.8162 169.199 92.4236C169.199 92.3334 169.055 92.3454 169.055 92.4236C168.992 95.0582 169.193 97.6925 169.656 100.287C169.686 100.636 170.659 99.9322 170.845 99.7819Z" fill="#263238"/>
<path d="M172.456 101.184C172.456 101.184 173.321 102.308 174.144 102.206C175.093 102.08 175.075 100.889 173.934 100.715C173.407 100.732 172.896 100.895 172.456 101.184Z" fill="#263238"/>
<path d="M173.045 101.777C173.342 102.056 173.737 102.207 174.144 102.198C174.242 102.197 174.338 102.176 174.427 102.135C174.515 102.094 174.594 102.034 174.658 101.96C174.721 101.886 174.769 101.799 174.796 101.706C174.824 101.612 174.831 101.513 174.817 101.417V101.387C173.73 101.146 173.249 101.441 173.045 101.777Z" fill="#FF99BA"/>
<path d="M184.628 92.0989C182.116 93.0367 180.692 89.0569 180.692 89.0569C180.692 89.0569 177.743 89.8385 175.85 85.2936C175.85 85.2936 175.49 88.582 171.819 90.5599C171.044 90.9807 173.02 87.8486 173.02 87.8486C173.02 87.8486 170.809 92.0568 164.285 93.1209C163.822 93.199 162.398 86.4118 166.4 82.4621C170.401 78.5124 175.171 78.1938 179.245 80.1415C179.245 80.1415 183.348 80.4842 184.952 83.6764C186.556 86.8687 185.607 91.7321 184.628 92.0989Z" fill="#263238"/>
<path d="M186.419 96.7947C186.279 96.914 186.126 97.0169 185.962 97.1013C185.806 97.1936 185.635 97.2606 185.458 97.2997C185.228 97.35 184.99 97.35 184.761 97.2997C184.577 97.2662 184.399 97.2075 184.232 97.1253C183.996 97.009 183.783 96.8523 183.601 96.6624L183.169 93.5483C183.169 93.5483 184.328 89.3041 186.173 89.5986C188.017 89.8932 187.987 95.4721 186.419 96.7947Z" fill="#E8A098"/>
<path d="M186.118 91.1904L186.148 91.2325C185.067 92.2004 184.82 93.6372 184.784 95.0019C184.812 94.8483 184.872 94.7025 184.962 94.5747C185.052 94.4469 185.168 94.3402 185.303 94.2618C185.438 94.1835 185.588 94.1354 185.743 94.121C185.898 94.1065 186.055 94.1261 186.202 94.1783C186.244 94.1783 186.202 94.2564 186.202 94.2564C185.953 94.2649 185.713 94.3504 185.515 94.5012C185.317 94.6519 185.171 94.8605 185.097 95.098C184.978 95.4898 184.899 95.8927 184.862 96.3004C184.862 96.4326 184.616 96.4447 184.616 96.3004C183.997 94.7073 184.448 91.996 186.118 91.1904Z" fill="#263238"/>
<path d="M186.106 96.3913C186.121 96.4962 186.104 96.6031 186.057 96.6984C186.011 96.7937 185.938 96.8731 185.846 96.9266C185.755 96.98 185.65 97.0052 185.544 96.9988C185.438 96.9924 185.337 96.9548 185.252 96.8907C185.168 96.8266 185.105 96.739 185.07 96.6388C185.036 96.5386 185.032 96.4305 185.059 96.3281C185.086 96.2257 185.143 96.1336 185.222 96.0635C185.301 95.9935 185.4 95.9485 185.505 95.9344C185.645 95.9156 185.787 95.9531 185.9 96.0388C186.012 96.1244 186.087 96.2512 186.106 96.3913Z" fill="white"/>
<path d="M186.869 95.2616C186.879 95.3356 186.867 95.4107 186.834 95.4777C186.801 95.5447 186.749 95.6006 186.685 95.6382C186.621 95.6759 186.547 95.6937 186.472 95.6895C186.398 95.6852 186.326 95.6591 186.267 95.6143C186.207 95.5696 186.162 95.5082 186.137 95.4379C186.112 95.3677 186.108 95.2916 186.126 95.2192C186.145 95.1469 186.184 95.0815 186.239 95.0313C186.294 94.9811 186.363 94.9483 186.436 94.937C186.486 94.9294 186.537 94.9317 186.586 94.944C186.635 94.9563 186.681 94.9781 186.721 95.0084C186.761 95.0386 186.795 95.0766 186.821 95.1201C186.846 95.1635 186.863 95.2117 186.869 95.2616Z" fill="white"/>
<path d="M196.92 113.869C199.323 122.243 202.556 152.494 197.203 157.652C191.849 162.81 186.208 161.524 185.042 155.68C184.081 150.871 187.626 120.878 189.152 113.7C190.6 106.871 194.096 104.076 196.92 113.869Z" fill="#F7A9A0"/>
<path d="M183.6 137.645L201.167 146.542C201.167 146.542 200.086 121.377 196.77 112.396C193.453 103.414 191.423 106.132 189.152 111.765C186.881 117.398 183.6 137.645 183.6 137.645Z" fill="#FFC727"/>
<path d="M195.184 130.171C195.609 129.844 196.078 129.579 196.578 129.383C196.251 129.809 195.864 130.186 195.43 130.502C195.008 130.83 194.541 131.095 194.042 131.289C194.369 130.865 194.753 130.489 195.184 130.171ZM197.467 142.291C197.793 142.715 198.058 143.182 198.254 143.679C197.829 143.354 197.452 142.97 197.136 142.537C196.807 142.113 196.542 141.643 196.349 141.142C196.773 141.471 197.15 141.858 197.467 142.291ZM189.152 111.847L189.608 111.895C190.139 111.964 190.657 112.108 191.147 112.322C190.617 112.4 190.078 112.4 189.548 112.322C189.368 112.322 189.194 112.262 189.014 112.226C189.062 112.058 189.104 111.937 189.152 111.823V111.847ZM188.888 135.678C189.418 135.744 189.937 135.887 190.426 136.105C189.359 136.232 188.278 136.078 187.289 135.66C187.82 135.584 188.359 135.59 188.888 135.678ZM194.974 121.418C195.504 121.489 196.022 121.634 196.512 121.851C195.445 121.98 194.363 121.824 193.375 121.4C193.907 121.339 194.446 121.353 194.974 121.442V121.418Z" fill="white"/>
<path d="M199.762 141.751C195.122 139.148 190.352 136.786 185.469 134.675C185.397 134.645 185.349 134.759 185.415 134.801C190.05 137.409 194.816 139.775 199.696 141.889C199.774 141.925 199.822 141.793 199.762 141.751Z" fill="#263238"/>
<path d="M184.316 137.95L183.757 137.655C183.721 137.517 184.051 135.924 184.142 135.455C184.334 134.517 184.52 133.58 184.706 132.642C185.083 130.774 185.453 128.898 185.818 127.015C186.533 123.263 187.35 119.53 187.993 115.761C187.993 115.725 187.945 115.719 187.939 115.761C187.434 117.426 186.995 119.103 186.587 120.799C186.58 119.995 186.624 119.192 186.719 118.394C186.719 118.358 186.671 118.346 186.665 118.394C186.427 119.444 186.338 120.523 186.401 121.598C186.004 123.269 185.638 124.947 185.283 126.63C184.514 130.237 183.24 137.728 183.294 137.746C183.611 137.874 183.934 137.986 184.262 138.082C184.27 138.086 184.28 138.088 184.289 138.088C184.298 138.088 184.308 138.086 184.316 138.082C184.325 138.078 184.333 138.073 184.339 138.066C184.346 138.06 184.351 138.052 184.355 138.043C184.358 138.035 184.36 138.025 184.36 138.016C184.36 138.006 184.358 137.997 184.355 137.989C184.351 137.98 184.346 137.972 184.339 137.965C184.332 137.959 184.325 137.954 184.316 137.95Z" fill="#263238"/>
<path d="M194.914 152.866C196.752 159.13 190.912 162.124 186.773 160.224C177.046 155.764 163.342 138.582 158.307 129.33C156.811 126.601 173.483 119.339 175.604 121.906C178.572 125.459 191.183 140.157 194.914 152.866Z" fill="#F7A9A0"/>
<path d="M168.803 113.91C169.608 114.746 170.053 114.325 169.837 112.275C169.62 110.225 167.049 102.295 169.891 101.628C172.733 100.961 176.211 112.233 176.301 115.647C176.391 119.062 175.34 124.665 175.34 124.665C174.223 122.633 171.044 117.908 168.803 113.91Z" fill="#F7A9A0"/>
<path d="M159.424 131.199C155.669 125.151 152.485 118.135 153.008 110.723C153.046 109.899 153.359 109.112 153.897 108.487C154.077 105.162 155.699 104.242 155.699 104.242C156.805 101.194 158.595 100.491 158.595 100.491C158.595 100.491 158.842 96.5835 161.227 96.343C163.9 96.0664 163.029 101.603 164.405 104.94C167.571 112.587 174.21 122.566 175.339 124.682L159.424 131.199Z" fill="#F7A9A0"/>
<path d="M162.098 115.286C161.14 113.06 160.337 110.77 159.695 108.433C159.151 105.836 158.804 103.201 158.656 100.551C158.656 100.534 158.649 100.517 158.636 100.505C158.624 100.492 158.607 100.485 158.59 100.485C158.572 100.485 158.555 100.492 158.543 100.505C158.531 100.517 158.524 100.534 158.524 100.551C158.299 105.7 159.492 110.812 161.972 115.328C162.05 115.43 162.14 115.4 162.098 115.286Z" fill="#263238"/>
<path d="M157.767 117.865C157.028 115.611 155.754 111.637 155.784 104.243C155.784 104.243 155.742 104.213 155.736 104.243C155.097 108.888 155.762 113.62 157.659 117.907C157.713 118.04 157.809 118.016 157.767 117.865Z" fill="#263238"/>
<path d="M155.406 119.212C154.294 115.329 154.084 112.738 153.916 108.506C153.916 108.506 153.874 108.475 153.874 108.506C153.555 113.315 153.988 115.118 155.279 119.273C155.321 119.411 155.448 119.363 155.406 119.212Z" fill="#263238"/>
<path d="M164.976 106.221C164.436 104.958 164.08 103.624 163.919 102.259C163.827 100.867 163.626 99.484 163.318 98.1232C163.215 97.7762 163.073 97.4415 162.897 97.1252C162.714 96.7824 162.437 96.4988 162.098 96.3076C161.748 96.151 161.363 96.0888 160.981 96.1273C160.596 96.1648 160.234 96.325 159.947 96.5842C159.439 97.0969 159.085 97.7429 158.926 98.4478C158.761 99.1261 158.66 99.8185 158.626 100.516C158.743 99.8362 158.914 99.1669 159.136 98.5139C159.322 97.8747 159.679 97.2987 160.17 96.8487C160.414 96.6584 160.708 96.5416 161.017 96.512C161.324 96.4887 161.632 96.5445 161.912 96.6744C162.423 97.0606 162.771 97.6249 162.885 98.2554C163.206 99.5873 163.439 100.939 163.582 102.301C163.802 103.683 164.275 105.011 164.976 106.221Z" fill="#263238"/>
<path d="M174.132 107.104C173.749 105.734 173.187 104.42 172.462 103.196C172.091 102.556 171.575 102.012 170.954 101.609C170.6 101.405 170.184 101.335 169.782 101.411C169.581 101.459 169.392 101.55 169.227 101.676C169.062 101.802 168.926 101.962 168.827 102.144C168.489 102.815 168.318 103.557 168.328 104.308C168.304 105.029 168.34 105.751 168.437 106.466C168.653 107.891 168.977 109.262 169.278 110.633C169.439 111.302 169.542 111.984 169.584 112.671C169.596 113.008 169.58 113.346 169.536 113.681C169.523 113.814 169.482 113.943 169.416 114.059C169.416 114.059 169.416 114.089 169.416 114.059C169.378 114.052 169.343 114.036 169.314 114.011C168.85 113.537 168.471 112.986 168.196 112.382C167.848 111.781 167.523 111.15 167.199 110.524C166.544 109.274 165.937 107.999 165.33 106.725C164.704 105.463 164.197 104.144 163.816 102.787C164.096 104.178 164.525 105.535 165.096 106.833C165.625 108.144 166.214 109.43 166.82 110.711C167.121 111.348 167.421 111.985 167.758 112.616C167.92 112.935 168.094 113.218 168.274 113.554C168.369 113.717 168.474 113.873 168.587 114.023C168.709 114.186 168.855 114.33 169.019 114.45C169.129 114.533 169.261 114.583 169.398 114.594C169.485 114.592 169.57 114.571 169.647 114.533C169.725 114.494 169.794 114.439 169.848 114.372C169.965 114.19 170.041 113.985 170.071 113.771C170.127 113.405 170.151 113.035 170.143 112.665C170.111 111.942 170.012 111.223 169.848 110.518C169.59 109.124 169.2 107.753 168.989 106.388C168.888 105.706 168.844 105.016 168.857 104.326C168.844 103.658 168.977 102.995 169.248 102.385C169.309 102.253 169.399 102.135 169.51 102.041C169.62 101.947 169.75 101.877 169.89 101.837C170.188 101.766 170.502 101.804 170.774 101.946C171.354 102.293 171.844 102.773 172.204 103.346C172.988 104.521 173.635 105.782 174.132 107.104Z" fill="#263238"/>
<path d="M158.596 100.492C158.244 100.69 157.914 100.924 157.61 101.19C157.306 101.454 157.03 101.751 156.787 102.073C156.288 102.719 155.898 103.442 155.634 104.213L155.682 104.153C155.336 104.388 155.039 104.685 154.805 105.031C154.562 105.364 154.36 105.726 154.204 106.107C154.056 106.497 153.943 106.899 153.867 107.309C153.791 107.707 153.741 108.108 153.717 108.512L153.807 108.362C153.581 108.532 153.4 108.755 153.279 109.011C153.159 109.242 153.06 109.483 152.984 109.732C152.844 110.223 152.755 110.726 152.72 111.235C152.651 112.237 152.669 113.242 152.774 114.241C152.975 116.23 153.353 118.198 153.903 120.12C155.009 123.962 156.697 127.612 158.908 130.942C161.077 134.272 163.342 137.554 165.757 140.687C166.959 142.262 168.16 143.831 169.482 145.334C170.76 146.852 172.126 148.293 173.573 149.65C172.196 148.227 170.894 146.732 169.674 145.171C168.441 143.62 167.239 142.043 166.069 140.44C163.762 137.224 161.503 133.965 159.371 130.635C157.223 127.329 155.556 123.734 154.42 119.958C153.865 118.068 153.473 116.133 153.249 114.175C153.122 113.206 153.081 112.229 153.128 111.253C153.151 110.77 153.224 110.291 153.345 109.822C153.405 109.596 153.488 109.377 153.591 109.167C153.678 108.969 153.807 108.793 153.969 108.65L154.054 108.584V108.506C154.065 108.115 154.103 107.725 154.168 107.34C154.233 106.955 154.331 106.577 154.462 106.209C154.589 105.841 154.761 105.49 154.973 105.163C155.177 104.839 155.438 104.554 155.742 104.322H155.778V104.286C156.009 103.524 156.362 102.806 156.823 102.157C157.055 101.833 157.314 101.529 157.598 101.25C157.903 100.963 158.237 100.709 158.596 100.492Z" fill="#263238"/>
<path d="M193.682 149.337C193.243 148.039 192.702 146.776 192.138 145.526C191.573 144.275 190.936 143.055 190.299 141.847C189.662 140.638 188.935 139.442 188.172 138.318C187.421 137.169 186.598 136.069 185.709 135.023C186.04 135.625 186.418 136.19 186.748 136.791C187.079 137.392 187.439 137.993 187.782 138.558C188.443 139.761 189.122 140.963 189.77 142.165L193.682 149.337Z" fill="#263238"/>
<path d="M147.875 156.035H184.85V153.162L147.875 151.967V156.035Z" fill="#6484B2"/>
<path d="M118.809 155.987H143.208C145.284 155.987 142.274 150.056 134.677 147.778C127.08 145.5 116.413 153.763 118.809 155.987Z" fill="#8FADD9"/>
<path d="M128.382 155.988C127.986 154.738 127.453 153.535 126.794 152.401C126.466 151.849 126.086 151.33 125.659 150.852C125.216 150.37 124.736 149.923 124.224 149.516C124.885 149.712 125.497 150.047 126.019 150.498C126.551 150.943 127.003 151.476 127.354 152.074C127.711 152.668 127.983 153.309 128.162 153.978C128.346 154.631 128.421 155.31 128.382 155.988Z" fill="#4D688E"/>
<path d="M125.492 150.344C124.21 151.172 122.928 151.927 121.727 152.789C121.122 153.202 120.555 153.666 120.031 154.178C119.487 154.676 119.068 155.297 118.809 155.988C118.822 155.192 119.118 154.427 119.644 153.831C120.128 153.221 120.7 152.685 121.339 152.241C121.972 151.8 122.642 151.415 123.342 151.092C124.03 150.767 124.751 150.516 125.492 150.344Z" fill="#4D688E"/>
<path d="M101.307 144.506H160.605L151.179 100.326H91.8743L101.307 144.506Z" fill="#6484B3"/>
<path d="M99.117 144.506H158.415L148.983 100.326H89.6846L99.117 144.506Z" fill="#86A9DE"/>
<path d="M131.099 128.668H132.488L130.378 118.755H128.983L131.099 128.668Z" fill="#5575A3"/>
<path d="M128.355 128.668H129.744L127.634 118.755H126.239L128.355 128.668Z" fill="#5575A3"/>
<path d="M125.612 128.668H127L124.891 118.755H123.496L125.612 128.668Z" fill="#5575A3"/>
<path d="M122.868 128.668H124.257L122.147 118.755H120.752L122.868 128.668Z" fill="#5575A3"/>
<path d="M120.118 128.668H121.513L119.397 118.755H118.009L120.118 128.668Z" fill="#5575A3"/>
<path d="M117.374 128.668H118.769L116.653 118.755H115.265L117.374 128.668Z" fill="#5575A3"/>
<path d="M114.631 128.668H116.026L113.91 118.755H112.521L114.631 128.668Z" fill="#5575A3"/>
<path d="M115.886 156.041H145.051V153.777L115.886 152.828V156.041Z" fill="#6484B2"/>
<path d="M107.955 156.034H123.616L133.049 131.286H117.388L107.955 156.034Z" fill="#6484B2"/>
<path d="M105.379 156.034H121.039L130.465 131.286H114.811L105.379 156.034Z" fill="#6F9EE4"/>
<path d="M245.87 156.037H35.6328V159.865H245.87V156.037Z" fill="#37474F"/>
<path d="M240.864 159.864H40.6396V169.47H240.864V159.864Z" fill="#37474F"/>
<path d="M240.864 159.864H40.6396V164.667H240.864V159.864Z" fill="#263238"/>
<path d="M67.782 244.549H49.8383V247.708H67.782V244.549Z" fill="#37474F"/>
<path d="M77.5149 290.746H75.579L59.7714 216.916L58.8702 212.707L56.0331 199.455L54.9784 194.512L50.9998 175.969L49.6113 169.47H56.5138L57.6419 175.969L58.3762 180.231L58.8702 183.07L61.7073 199.455L62.6218 204.732L77.5149 290.746Z" fill="#37474F"/>
<path d="M56.5138 169.47L57.6419 175.969H50.9998L49.6113 169.47H56.5138Z" fill="#263238"/>
<path d="M62.6219 204.732L59.7715 216.915L58.8703 212.707L56.0332 199.455L54.9785 194.512L58.3763 180.23L58.8703 183.069L61.7074 199.455L62.6219 204.732Z" fill="#263238"/>
<path d="M68.1292 169.47L66.7407 175.969L61.7074 199.455L58.8703 212.707L42.1616 290.746H40.2257L56.0332 199.455L58.8703 183.07L60.0986 175.969L61.2201 169.47H68.1292Z" fill="#37474F"/>
<path d="M68.129 169.47L66.7405 175.969H60.0984L61.2199 169.47H68.129Z" fill="#263238"/>
<path d="M231.545 244.549H213.601V247.708H231.545V244.549Z" fill="#37474F"/>
<path d="M241.278 290.746H239.335L223.534 216.916L222.633 212.707L219.789 199.455L218.735 194.512L214.763 175.969L213.367 169.47H220.277L221.398 175.969L222.139 180.231L222.633 183.07L225.463 199.455L226.378 204.732L241.278 290.746Z" fill="#37474F"/>
<path d="M220.277 169.47L221.398 175.969H214.763L213.367 169.47H220.277Z" fill="#263238"/>
<path d="M226.378 204.732L223.535 216.915L222.633 212.707L219.79 199.455L218.735 194.512L222.139 180.23L222.633 183.069L225.464 199.455L226.378 204.732Z" fill="#263238"/>
<path d="M231.885 169.47L230.497 175.969L225.464 199.455L222.633 212.707L205.918 290.746H203.989L219.79 199.455L222.633 183.07L223.855 175.969L224.983 169.47H231.885Z" fill="#37474F"/>
<path d="M231.886 169.47L230.497 175.969H223.855L224.983 169.47H231.886Z" fill="#263238"/>
<path d="M53.4226 152.242L52.1008 152.068L57.8484 108.283L74.7908 97.4619L80.258 101.042L79.5304 102.158L74.7774 99.0517L59.0901 109.071L53.4226 152.242Z" fill="#263238"/>
<path d="M57.3484 108.676C57.3471 108.9 57.4123 109.119 57.5358 109.306C57.6592 109.492 57.8353 109.638 58.0417 109.724C58.2482 109.811 58.4755 109.833 58.695 109.79C58.9145 109.747 59.1161 109.639 59.2743 109.481C59.4325 109.323 59.54 109.121 59.5834 108.901C59.6267 108.682 59.6038 108.454 59.5176 108.248C59.4313 108.041 59.2857 107.865 59.0992 107.741C58.9126 107.618 58.6936 107.552 58.4699 107.554C58.1725 107.554 57.8872 107.672 57.6769 107.882C57.4666 108.093 57.3484 108.378 57.3484 108.676Z" fill="#FFC727"/>
<path d="M74.7311 99.3782C75.3505 99.3782 75.8526 98.8757 75.8526 98.256C75.8526 97.6362 75.3505 97.1338 74.7311 97.1338C74.1117 97.1338 73.6096 97.6362 73.6096 98.256C73.6096 98.8757 74.1117 99.3782 74.7311 99.3782Z" fill="#FFC727"/>
<path d="M89.6441 102.578L82.1742 110.921L78.7296 106.659L76.6335 104.061L82.2276 97.8154L85.038 99.6256L89.6441 102.578Z" fill="#FFC727"/>
<path opacity="0.1" d="M89.6442 102.578L82.1743 110.921L78.7297 106.66L85.0381 99.626L89.6442 102.578Z" fill="black"/>
<path d="M100.465 106.692L87.4477 121.227L78.803 110.193L88.5559 99.3047L100.465 106.692Z" fill="#FFC727"/>
<path opacity="0.4" d="M100.597 156.068L87.6763 120.514L100.289 106.661L192.427 156.068H100.597Z" fill="white"/>
<path d="M62.9822 156.042H43.7234L44.9049 149.99H61.8006L62.9822 156.042Z" fill="#FFC727"/>
<path d="M255.116 210.161C255.679 214.115 255.469 218.141 254.497 222.014C254.042 223.811 253.433 225.565 252.677 227.257C251.737 229.43 250.752 231.547 250.988 233.917C251.217 234.072 250.431 234.047 250.406 233.818C244.061 230.203 235.928 229.541 231.044 223.636C228.735 220.845 227.566 217.298 227.015 213.732C226.396 209.876 226.247 205.599 227.244 201.799C228.085 198.58 229.961 195.479 232.988 193.9C236.015 192.322 240.193 192.415 243.479 193.43C250.585 195.652 254.113 203.303 255.116 210.161Z" fill="#B3E9D7"/>
<path d="M258.373 257.116C257.506 254.227 256.633 251.339 255.754 248.45C254.009 242.818 252.202 237.197 250.184 231.645C248.983 228.319 247.716 225.028 246.383 221.772C246.53 219.716 246.784 217.668 247.144 215.638C247.671 213.162 248.444 210.804 249.162 208.396C249.206 208.248 248.964 208.174 248.902 208.31C247.479 211.627 245.622 215.867 245.572 219.798C244.025 216.109 242.364 212.471 240.59 208.885C240.389 205.853 240.482 202.807 240.868 199.793C240.868 199.766 240.859 199.741 240.842 199.72C240.825 199.7 240.801 199.687 240.775 199.682C240.749 199.678 240.723 199.683 240.7 199.696C240.677 199.71 240.66 199.731 240.651 199.755C240.111 202.401 239.903 205.105 240.032 207.802C238.671 205.108 237.226 202.45 235.7 199.83C235.563 199.595 235.235 199.83 235.359 200.071C237.742 204.658 239.952 209.356 242.026 214.091C239.104 211.559 235.729 209.606 232.079 208.334C231.924 208.279 231.806 208.508 231.967 208.576C235.948 210.287 239.589 212.698 242.719 215.694C244.213 219.173 245.634 222.68 246.984 226.217C243.016 222.323 237.587 219.767 232.332 218.393C232.153 218.35 232.103 218.622 232.277 218.671C238.355 220.528 243.078 223.951 247.702 228.092C248.24 229.516 248.766 230.952 249.286 232.382C251.242 237.816 253.099 243.286 254.857 248.791C255.711 251.423 256.551 254.062 257.376 256.707C258.261 259.555 258.955 262.557 260.112 265.305C260.217 265.565 260.694 265.503 260.632 265.187C260.162 262.445 259.171 259.771 258.373 257.116Z" fill="#1E437D"/>
<path d="M276.503 231.708C271.928 233.063 267.342 234.32 262.774 235.657C262.378 235.781 254.653 220.981 257.444 213.374C260.025 206.317 265.93 201.038 272.968 198.642C276.23 197.534 280.241 196.599 283.689 197.361C286.753 198.042 288.919 200.549 289.916 203.427C291.271 207.345 290.82 212.018 290.077 216.017C289.396 219.731 288.034 223.376 285.583 226.286C283.132 229.195 280.062 230.649 276.503 231.708Z" fill="#B3E9D7"/>
<path d="M283.125 217.637C280.235 219.048 277.238 220.228 274.162 221.165C272.112 221.718 270.112 222.443 268.183 223.332C270.114 218.999 272.231 214.815 274.478 210.643C277.431 209.789 280.532 208.458 282.76 206.366C282.884 206.254 282.723 206.081 282.593 206.174C280.16 207.895 277.474 208.928 274.781 210.092C275.4 208.972 276.019 207.845 276.638 206.731C276.812 206.415 276.385 206.112 276.174 206.409C273.759 209.895 271.579 213.539 269.65 217.315C269.159 214.01 269.001 210.663 269.18 207.325C269.18 207.307 269.173 207.29 269.16 207.277C269.147 207.264 269.13 207.257 269.112 207.257C269.094 207.257 269.076 207.264 269.063 207.277C269.051 207.29 269.043 207.307 269.043 207.325C268.474 210.964 268.511 214.673 269.155 218.3C267.558 221.5 266.097 224.774 264.785 228.092C264.265 226.099 263.584 224.137 263.132 222.131C262.442 219.254 262.22 216.284 262.476 213.335C262.476 213.249 262.359 213.243 262.346 213.335C261.537 218.793 262.199 224.368 264.265 229.485C263.497 231.478 262.767 233.483 262.105 235.489C258.663 245.733 256.622 256.395 256.039 267.186C256.043 267.233 256.063 267.277 256.096 267.311C256.13 267.344 256.174 267.364 256.221 267.368C256.268 267.372 256.314 267.359 256.352 267.331C256.391 267.303 256.418 267.263 256.429 267.217C257.624 256.57 259.905 246.073 263.238 235.891C264.562 231.911 266.091 228.042 267.762 224.248C270.461 223.449 273.147 222.391 275.809 221.45C278.471 220.509 281.045 219.519 283.237 217.817C283.26 217.802 283.277 217.778 283.284 217.751C283.29 217.724 283.285 217.695 283.271 217.671C283.256 217.648 283.232 217.631 283.205 217.624C283.178 217.618 283.149 217.623 283.125 217.637Z" fill="#1E437D"/>
<path d="M222.156 238.231C223.499 242.484 226.681 248.358 231.719 248.401C234.988 248.401 238.281 248.048 241.555 247.999C245.058 247.949 248.574 247.955 252.077 248.166C252.368 248.166 251.663 237.643 243.232 232.543C240.868 231.107 237.983 230.649 235.303 230.067C232.237 229.337 229.089 229.009 225.938 229.089C224.001 229.163 222.391 229.578 221.698 231.565C220.974 233.638 221.519 236.207 222.156 238.231Z" fill="#B3E9D7"/>
<path d="M225.784 232.909C227.833 233.441 229.9 234.041 231.974 234.697C231.439 234.114 230.873 233.56 230.278 233.038C229.393 232.308 228.421 231.72 227.474 231.076C227.393 231.021 227.443 230.872 227.542 230.909C229.527 231.744 231.241 233.113 232.494 234.864C235.05 235.694 237.588 236.604 240.033 237.607C241.72 238.297 243.337 239.149 244.861 240.151C244.372 239.087 243.787 238.07 243.115 237.111C241.995 235.663 240.485 234.852 239.018 233.825C239.003 233.816 238.989 233.805 238.979 233.791C238.968 233.777 238.96 233.762 238.956 233.745C238.951 233.728 238.95 233.711 238.952 233.694C238.954 233.677 238.96 233.66 238.968 233.645C238.977 233.63 238.988 233.617 239.002 233.606C239.015 233.596 239.031 233.588 239.048 233.583C239.064 233.579 239.082 233.577 239.099 233.579C239.116 233.582 239.133 233.587 239.148 233.596C240.68 234.26 242.057 235.237 243.189 236.465C244.321 237.693 245.184 239.145 245.721 240.726C247.477 241.982 249.082 243.436 250.506 245.059C256.077 251.397 260.471 259.822 260.49 268.425C260.49 268.63 260.162 268.685 260.119 268.475C258.54 259.933 255.167 252.258 249.485 245.628C249.072 245.166 248.659 244.721 248.247 244.291C246.72 244.085 245.182 243.971 243.641 243.951C241.846 243.951 240.064 244.211 238.281 244.36C235.335 244.595 232.091 244.632 229.43 243.153C229.312 243.084 229.393 242.88 229.523 242.93C235.44 245.084 241.642 242.354 247.578 243.635C245.042 241.22 242.073 239.307 238.826 237.996L238.281 237.78C234.487 238.232 230.476 239.222 226.78 237.99C226.769 237.987 226.758 237.982 226.748 237.974C226.738 237.966 226.73 237.957 226.724 237.947C226.712 237.925 226.709 237.9 226.715 237.876C226.722 237.852 226.738 237.832 226.759 237.82C226.781 237.807 226.806 237.804 226.83 237.811C230.401 238.708 233.831 237.582 237.353 237.402C233.515 235.911 229.603 234.722 225.747 233.237C225.443 233.119 225.437 232.822 225.784 232.909Z" fill="#1E437D"/>
<path d="M266.358 246.693C266.296 246.829 266.494 246.959 266.574 246.817C266.588 246.84 266.607 246.86 266.629 246.875C266.652 246.89 266.678 246.9 266.704 246.903C270.097 247.713 273.537 248.312 277.004 248.698C279.79 248.946 283.002 249.101 285.441 247.46C288.746 245.269 290.925 239.414 289.155 235.7C287.038 231.28 280.668 233.682 277.468 235.254C272.542 237.651 268.611 241.699 266.358 246.693Z" fill="#B3E9D7"/>
<path d="M263.881 248.736C265.739 246.938 267.805 245.367 270.034 244.056C271.633 241.516 273.758 239.348 276.267 237.699C276.391 237.613 276.49 237.805 276.378 237.891C274.387 239.488 272.621 241.348 271.129 243.419C273.611 242.062 276.189 240.889 278.842 239.909C279.79 238.152 281.229 236.709 282.983 235.756C283.02 235.756 283.063 235.756 283.026 235.818C281.587 236.92 280.333 238.245 279.312 239.742C280.878 239.16 282.463 238.616 284.041 238.089C284.184 238.04 284.239 238.257 284.103 238.312C281.287 239.414 278.409 240.571 275.617 241.908C279.022 242.443 282.49 242.432 285.892 241.878C285.991 241.878 286.028 242.001 285.935 242.026C282.383 243.075 278.611 243.131 275.029 242.187C273.253 243.055 271.527 244.022 269.86 245.084C271.263 244.969 272.674 245.086 274.039 245.43C276.447 245.991 278.913 246.269 281.386 246.26C281.404 246.265 281.42 246.276 281.432 246.291C281.443 246.306 281.45 246.324 281.45 246.343C281.45 246.362 281.443 246.381 281.432 246.396C281.42 246.411 281.404 246.422 281.386 246.427C277.127 247.157 273.098 245.22 268.876 245.728C267.306 246.792 265.834 247.994 264.475 249.318C261.841 251.953 259.671 255.015 258.057 258.373C256.28 261.988 255.314 265.801 253.878 269.564C253.866 269.595 253.842 269.62 253.812 269.634C253.782 269.649 253.748 269.652 253.716 269.642C253.684 269.633 253.656 269.613 253.638 269.585C253.62 269.557 253.613 269.523 253.619 269.49C254.844 262.118 258.508 253.991 263.881 248.736Z" fill="#1E437D"/>
<path d="M271.507 292.367H246.129L250.672 259.562H266.965L271.507 292.367Z" fill="#C8DEFE"/>
<path fill-rule="evenodd" clip-rule="evenodd" d="M245.052 291.7L249.513 259.652L248.839 259.562L244.272 292.367H270.269L267.521 272.631L266.846 272.722L269.489 291.7H245.052Z" fill="#1E437D"/>
<path d="M267.794 257.085H246.748V262.656H267.794V257.085Z" fill="#1E437D"/>
<path opacity="0.3" d="M226.382 67.9623C213.225 65.7157 203.836 56.4141 205.412 47.1865C206.988 37.959 218.931 32.2998 232.088 34.5464C245.245 36.793 254.633 46.0947 253.058 55.3222C251.482 64.5498 239.539 70.2089 226.382 67.9623Z" fill="#FCE1DC"/>
<path opacity="0.5" d="M186.206 51.7712C184.748 54.7818 187.081 58.8868 191.378 60.9442C195.675 63.0015 200.317 62.2185 201.755 59.2078C203.194 56.1972 200.876 52.0873 196.584 50.0348C192.292 47.9824 187.664 48.78 186.206 51.7712Z" fill="#FCE1DC"/>
<path opacity="0.6" d="M178.522 63.6819C178.104 65.4863 179.858 67.4318 182.434 68.0252C185.011 68.6186 187.436 67.6361 187.849 65.8268C188.262 64.0175 186.513 62.0769 183.961 61.4835C181.409 60.8901 178.915 61.8726 178.522 63.6819Z" fill="#FCE1DC"/>
<path d="M233.801 65.2638C234.103 65.2638 234.404 65.2638 234.701 65.22C235.567 65.1954 236.404 64.8975 237.092 64.3689C237.49 64.0168 237.757 63.5402 237.85 63.0168C238.4 63.0168 238.949 62.9778 239.503 62.9487C240.718 62.8757 241.977 62.7395 242.862 61.9224C243.127 61.6712 243.34 61.37 243.488 61.0361C243.637 60.7022 243.718 60.3423 243.727 59.9769C244.221 59.85 244.681 59.6143 245.073 59.287C245.465 58.9597 245.779 58.549 245.992 58.0849C246.144 57.6802 246.209 57.2476 246.183 56.8158C246.156 56.3841 246.038 55.9629 245.836 55.5801C246.369 55.1737 246.845 54.6977 247.251 54.1648C248.112 53.0038 248.56 51.5879 248.524 50.1425C248.768 50.0289 248.962 49.8323 249.074 49.588C249.268 49.1016 249.02 48.5569 248.374 48.0268C248.242 47.9149 248.101 47.803 247.965 47.696C247.579 46.854 247.017 46.1046 246.317 45.4981C245.616 44.8916 244.795 44.442 243.907 44.1795C242.449 43.7613 240.927 43.878 239.45 43.9947H239.377C238.299 43.7937 237.209 43.6589 236.115 43.591C235.502 43.4486 234.871 43.4027 234.244 43.4549C233.612 43.1643 233.071 42.7069 232.679 42.1319C232.481 41.8219 232.309 41.4966 232.163 41.1592C232.013 40.7978 231.832 40.4497 231.624 40.1183C230.72 38.7614 228.965 37.988 226.399 37.8178C223.356 37.6232 220.891 38.1485 219.074 39.379C218.387 39.8387 217.8 40.4327 217.348 41.1251C216.437 41.1766 215.536 41.34 214.665 41.6115C213.435 41.9666 210.572 43.0463 210.587 45.3955C210.642 46.1415 210.866 46.8651 211.243 47.5112L212.259 49.6026C212.207 49.8684 212.186 50.1393 212.196 50.41C212.002 50.4896 211.813 50.5822 211.632 50.6872C210.806 51.1736 209.95 52.0442 210.018 53.1191C210.062 53.8194 210.504 54.4955 211.306 55.1716C212.321 55.9933 213.473 56.6289 214.709 57.049C215.1 57.802 215.555 58.5196 216.07 59.1939C217.066 60.4973 218.729 62.1802 220.989 62.7882C222.418 63.1854 223.944 63.0381 225.271 62.3747C225.704 62.6617 226.136 62.9146 226.53 63.1286C229.155 64.5488 231.58 65.2638 233.801 65.2638ZM237.418 63.0168C237.328 63.4141 237.115 63.773 236.81 64.043C236.191 64.5135 235.439 64.7772 234.662 64.7969C232.29 65.0109 229.636 64.3105 226.768 62.759C226.438 62.579 226.078 62.3747 225.718 62.1413C226.116 61.8841 226.471 61.5675 226.773 61.2026C226.939 61.0151 227.06 60.7922 227.128 60.5508C227.764 60.6481 228.406 60.7211 229.048 60.7746C230.048 61.2342 231.103 61.5612 232.188 61.7473C232.695 62.0716 233.24 62.3314 233.811 62.5207C234.98 62.8761 236.197 63.0435 237.418 63.0168ZM236.659 61.5187C236.928 61.645 237.152 61.8503 237.301 62.1072C237.383 62.2574 237.433 62.4231 237.447 62.5936C236.261 62.6151 235.078 62.451 233.942 62.1072C233.743 62.0391 233.539 61.9613 233.33 61.8689C234.452 61.9552 235.58 61.8365 236.659 61.5187ZM243.294 60.1082C243.248 60.682 242.99 61.2179 242.57 61.6111C241.792 62.331 240.626 62.4526 239.479 62.5207C238.939 62.5498 238.404 62.579 237.875 62.5887C237.86 62.3481 237.792 62.1137 237.675 61.903C237.557 61.6811 237.391 61.4884 237.189 61.3388C237.379 61.2658 237.564 61.188 237.743 61.1004V61.1637C237.791 61.3209 237.877 61.4635 237.994 61.5783C238.112 61.6931 238.256 61.7764 238.414 61.8203C238.63 61.8903 238.859 61.9078 239.083 61.8714C239.307 61.835 239.52 61.7458 239.702 61.6111C240.161 61.1993 240.471 60.6468 240.582 60.0402C241.156 60.1884 241.749 60.2523 242.342 60.2298C242.662 60.2169 242.981 60.1762 243.294 60.1082ZM224.906 62.1024C223.719 62.6301 222.386 62.7281 221.135 62.3796C218.991 61.8057 217.402 60.1909 216.444 58.941C216.036 58.405 215.665 57.841 215.336 57.2532C215.9 57.4283 216.473 57.5791 217.056 57.7056C217.874 58.3886 218.842 58.8685 219.88 59.1063C220.803 59.3555 221.742 59.5408 222.69 59.6608C222.843 59.937 223.014 60.2034 223.2 60.4584C223.682 61.0904 224.257 61.6448 224.906 62.1024ZM226.705 60.4779C226.65 60.6467 226.56 60.8023 226.442 60.9351C226.13 61.3125 225.753 61.6319 225.329 61.8786C224.649 61.4204 224.046 60.8554 223.545 60.2055C223.429 60.0499 223.322 59.8894 223.22 59.7191L224.138 59.8067C224.974 60.1015 225.832 60.326 226.705 60.4779ZM240.159 59.9186C240.068 60.4386 239.811 60.9149 239.425 61.2755C239.297 61.3663 239.15 61.4263 238.995 61.4507C238.839 61.4752 238.681 61.4635 238.531 61.4166C238.441 61.3913 238.358 61.3445 238.291 61.28C238.223 61.2156 238.172 61.1356 238.142 61.0469C238.127 60.9978 238.117 60.9473 238.113 60.8962C238.554 60.6571 238.969 60.3735 239.352 60.0499C239.474 59.9477 239.59 59.8407 239.702 59.7337C239.868 59.8018 240.023 59.8602 240.159 59.9186ZM235.843 61.261C234.668 61.4904 233.461 61.5085 232.28 61.3144C232.112 61.2016 231.949 61.0798 231.794 60.9497H231.945C233.004 61.0032 234.098 61.0567 235.153 61.1588C235.391 61.1783 235.628 61.2124 235.862 61.261H235.843ZM231.128 60.9156L231.347 61.1248C231.06 61.0518 230.768 60.974 230.486 60.8816L231.128 60.9156ZM237.675 60.6335C237.341 60.7991 236.995 60.939 236.64 61.0518C236.172 60.8773 235.681 60.7708 235.182 60.7357C234.122 60.6335 233.019 60.58 231.954 60.5314L231.298 60.4973C231.121 60.3008 230.958 60.091 230.812 59.8699C232.866 59.7944 234.923 59.848 236.971 60.0304C237.085 60.0252 237.2 60.0432 237.308 60.0833C237.416 60.1234 237.514 60.1848 237.598 60.2639C237.663 60.3758 237.697 60.5037 237.695 60.6335H237.675ZM230.311 59.8797C230.436 60.0834 230.573 60.2799 230.72 60.4682C230.195 60.439 229.67 60.4049 229.15 60.3563C228.848 60.2201 228.562 60.0742 228.28 59.9137C228.902 59.9137 229.519 59.9137 230.136 59.8845L230.311 59.8797ZM239.304 59.5246L239.08 59.7191C238.777 59.9793 238.452 60.212 238.108 60.4147C238.093 60.2754 238.045 60.1419 237.967 60.0256C237.853 59.8904 237.711 59.7822 237.551 59.709C237.39 59.6358 237.215 59.5994 237.039 59.6024C234.892 59.417 232.736 59.365 230.584 59.4468C230.482 59.2554 230.397 59.0551 230.331 58.8485C230.785 58.9917 231.255 59.0782 231.731 59.1063C233.924 59.3028 236.135 59.1783 238.293 58.7367C238.605 59.0375 238.951 59.3019 239.323 59.5246H239.304ZM227.468 59.9186L227.541 59.9672L227.988 60.2396C227.692 60.2055 227.4 60.1617 227.108 60.1131C227.092 60.0461 227.069 59.981 227.04 59.9186H227.468ZM226.496 59.9186C226.532 59.9531 226.563 59.9923 226.588 60.0353L225.966 59.9088L226.496 59.9186ZM243.26 59.6754C242.941 59.7506 242.616 59.7946 242.288 59.8067C241.733 59.8289 241.178 59.7699 240.64 59.6316C240.742 59.1793 240.845 58.6589 240.932 58.1384L241.019 57.9877C241.506 57.8223 241.958 57.6472 242.419 57.4527C242.893 58.0735 243.183 58.8151 243.255 59.5927C243.255 59.5927 243.304 59.6413 243.304 59.6705L243.26 59.6754ZM245.506 55.833C245.668 56.155 245.761 56.5071 245.78 56.867C245.8 57.227 245.744 57.587 245.618 57.9244C245.438 58.317 245.174 58.6656 244.846 58.9461C244.518 59.2266 244.133 59.4323 243.717 59.5489C243.646 58.7276 243.35 57.9418 242.862 57.2776C243.076 57.1851 243.28 57.0879 243.489 56.9857C244.192 56.6592 244.867 56.2735 245.506 55.833ZM240.383 58.9945C240.349 59.1647 240.31 59.33 240.276 59.4808L240.043 59.3884C240.159 59.2765 240.276 59.1452 240.383 58.9945ZM230.112 59.4468C229.286 59.4468 228.45 59.4808 227.614 59.4808C226.755 58.9074 225.952 58.2561 225.213 57.5353C225.587 57.4665 225.957 57.3755 226.321 57.263C227.092 57.0319 227.824 56.6877 228.494 56.2416C228.502 56.6789 228.607 57.1089 228.801 57.5008C228.995 57.8927 229.274 58.2367 229.616 58.5081L229.821 58.6443C229.891 58.9316 229.989 59.2117 230.112 59.4808V59.4468ZM224.678 57.6132C225.354 58.2934 226.084 58.918 226.86 59.4808H226.715C226.425 59.2568 226.095 59.0916 225.742 58.9945C224.675 58.6665 223.587 58.4081 222.486 58.2211C222.364 57.9244 222.252 57.6132 222.141 57.2921C222.941 57.6295 223.818 57.7438 224.678 57.6229V57.6132ZM222.69 58.6783C223.684 58.8535 224.666 59.0907 225.631 59.3884L225.83 59.4614C225.295 59.4614 224.765 59.4176 224.231 59.3787C223.702 59.1849 223.189 58.9525 222.695 58.6832L222.69 58.6783ZM240.431 58.1919C240.201 58.557 239.935 58.899 239.639 59.2133C239.341 59.0475 239.061 58.852 238.803 58.6297C239.352 58.5081 239.897 58.3524 240.431 58.1871V58.1919ZM222.359 58.9945L222.457 59.1987C221.627 59.0881 220.806 58.9256 219.997 58.7124C219.317 58.5381 218.664 58.2748 218.053 57.9293C218.84 58.0752 219.628 58.2017 220.415 58.3281L221.577 58.5129L221.834 58.688C222.005 58.7853 222.175 58.8923 222.359 58.9945ZM237.938 58.3719C235.906 58.7626 233.83 58.8674 231.77 58.6832C231.23 58.6603 230.698 58.5417 230.2 58.333C230.099 57.6486 230.081 56.9546 230.146 56.2659C230.146 56.0324 230.146 55.7795 230.18 55.5655C230.545 55.9012 230.96 56.1784 231.41 56.3875C232.125 56.6923 232.896 56.8432 233.673 56.8307C234.45 56.8181 235.216 56.6423 235.921 56.3145C236.096 56.2903 236.269 56.2562 236.441 56.2124L236.611 56.5091C236.985 57.176 237.43 57.8006 237.938 58.3719ZM240.611 57.6812C239.894 57.9144 239.166 58.1108 238.429 58.2698C237.862 57.6753 237.372 57.0119 236.971 56.2951L236.854 56.0908C237.34 55.9193 237.798 55.6785 238.215 55.3758C239.095 55.5059 239.952 55.758 240.762 56.1249C240.742 56.6647 240.684 57.1851 240.611 57.6812ZM221.655 57.1414C221.679 57.1997 221.698 57.263 221.723 57.3262C221.82 57.6034 221.912 57.8709 222.014 58.1336L221.747 58.0898C221.419 57.847 221.12 57.5662 220.857 57.2532L221.655 57.1414ZM229.757 55.1424V55.2932C229.757 55.6093 229.757 55.9254 229.723 56.2659C229.675 56.8599 229.675 57.4569 229.723 58.0509C229.447 57.7765 229.231 57.4475 229.089 57.0849C228.946 56.7223 228.881 56.3341 228.897 55.9449C229.197 55.6952 229.462 55.4055 229.684 55.084L229.757 55.1424ZM220.352 57.3019C220.521 57.5363 220.711 57.7545 220.921 57.9536L220.478 57.8855C219.38 57.7104 218.306 57.5402 217.265 57.3165C217.236 57.3165 217.212 57.263 217.183 57.2338C217.701 57.3294 218.226 57.375 218.753 57.37C219.287 57.37 219.822 57.3505 220.352 57.3019ZM242.176 57.1073L241.335 57.4332C241.452 57.1706 241.554 56.9031 241.647 56.6355C241.837 56.7768 242.014 56.9347 242.176 57.1073ZM224.289 57.2289C223.687 57.2692 223.082 57.183 222.515 56.976L223.001 56.869C223.273 56.8058 223.531 56.7328 223.784 56.6599C223.942 56.8512 224.111 57.0409 224.289 57.2289ZM228.494 55.7212C227.807 56.2349 227.035 56.6235 226.214 56.869C225.77 57.0099 225.315 57.1125 224.853 57.1754C224.639 56.9614 224.435 56.7377 224.231 56.514C225.454 56.1327 226.568 55.4659 227.483 54.5685C227.913 54.1232 228.275 53.6168 228.557 53.0656C228.653 53.3284 228.765 53.585 228.892 53.834C228.746 54.2425 228.634 54.6622 228.557 55.0889C228.52 55.2978 228.499 55.5091 228.494 55.7212ZM216.493 57.049L216.566 57.1462C216.044 57.0198 215.538 56.8739 215.049 56.7085C214.436 55.5035 213.99 54.2207 213.722 52.8953C213.914 53.0283 214.117 53.1439 214.33 53.2407C214.214 53.6785 214.193 54.1359 214.266 54.5826C214.34 55.0294 214.507 55.4556 214.757 55.833C215.189 56.4155 215.798 56.8422 216.493 57.049ZM220.094 56.8836C219.652 56.9176 219.205 56.9371 218.758 56.9371C218.086 56.9457 217.417 56.8606 216.77 56.6842C216.731 56.6161 216.692 56.548 216.658 56.475C216.462 56.0366 216.363 55.561 216.368 55.0808C216.373 54.6006 216.482 54.1272 216.687 53.693C217.476 53.6677 218.26 53.5667 219.03 53.3914L219.448 54.155C219.579 54.3934 219.71 54.6414 219.846 54.8749C219.793 55.0587 219.761 55.248 219.749 55.4391C219.726 55.9466 219.845 56.4505 220.094 56.8933V56.8836ZM245.307 55.4245C244.675 55.8648 244.007 56.2489 243.309 56.5723C243.071 56.689 242.823 56.796 242.594 56.8982C242.362 56.6332 242.097 56.3979 241.807 56.1978H241.773C242.013 55.2863 242.087 54.339 241.992 53.4012C242.774 53.5458 243.521 53.8433 244.189 54.2766C244.641 54.585 245.022 54.9863 245.307 55.4537V55.4245ZM221.314 56.7328L220.561 56.8252C220.294 56.4154 220.16 55.933 220.177 55.4439V55.405C220.485 55.9126 220.868 56.3702 221.314 56.762V56.7328ZM241.243 56.3534C241.214 56.4507 241.18 56.5529 241.146 56.6501C241.146 56.5383 241.146 56.4264 241.146 56.3097L241.243 56.3534ZM223.438 56.2756L222.87 56.4264C222.554 56.4994 222.238 56.5675 221.898 56.6258C221.574 55.692 221.259 54.75 220.955 53.8C221.062 53.693 221.169 53.5909 221.275 53.5033C221.99 54.4858 222.695 55.4245 223.453 56.3048L223.438 56.2756ZM213.202 52.4673C213.435 53.8542 213.857 55.2026 214.456 56.475C213.415 56.0807 212.445 55.5207 211.583 54.8165C210.859 54.2183 210.49 53.6444 210.456 53.0656C210.397 52.1852 211.141 51.4362 211.851 51.0277C211.983 50.9518 212.119 50.8836 212.259 50.8234C212.259 50.8866 212.288 50.9547 212.308 51.0179C212.469 51.5849 212.784 52.0964 213.217 52.4965L213.202 52.4673ZM216.216 53.6638C215.847 54.5517 215.832 55.5468 216.172 56.4459C215.742 56.2531 215.37 55.9513 215.093 55.5704C214.883 55.2519 214.741 54.8937 214.676 54.518C214.611 54.1423 214.624 53.7571 214.714 53.3866C214.893 53.4449 215.078 53.4984 215.263 53.5422C215.58 53.6195 215.904 53.6699 216.23 53.693L216.216 53.6638ZM234.613 56.2562C233.598 56.4953 232.532 56.3945 231.58 55.9692C231.047 55.7206 230.567 55.3723 230.166 54.943C230.157 54.6968 230.133 54.4515 230.093 54.2085C230.117 54.1307 230.146 54.0529 230.166 53.9751C230.195 53.8812 230.218 53.7853 230.234 53.6881C230.676 53.8389 231.123 53.9799 231.57 54.1064C232.187 55.0913 233.135 55.8229 234.244 56.1686C234.369 56.2151 234.498 56.254 234.628 56.2854L234.613 56.2562ZM220.653 54.1745C220.867 54.8457 221.086 55.5072 221.314 56.1686C220.917 55.7635 220.575 55.3072 220.299 54.8116C220.394 54.5932 220.518 54.3887 220.668 54.2037L220.653 54.1745ZM228.119 52.8807C227.867 53.3836 227.539 53.8446 227.147 54.2475C226.233 55.1355 225.115 55.7853 223.891 56.1394C223.091 55.2073 222.341 54.2331 221.645 53.2212C221.791 53.1239 221.922 53.0364 222.039 52.9683C222.702 52.7996 223.335 52.5288 223.915 52.1658C224.573 51.9723 225.252 51.858 225.937 51.8253L226.18 51.9518C226.831 52.3263 227.478 52.6327 228.134 52.9099L228.119 52.8807ZM241.53 53.2942C241.629 54.1744 241.571 55.0653 241.36 55.9254L241.199 55.8379C241.247 54.97 241.223 54.0996 241.126 53.2358C241.277 53.2796 241.408 53.299 241.544 53.3233L241.53 53.2942ZM235.819 55.8671C235.33 55.9272 234.835 55.8908 234.36 55.7601C233.519 55.5075 232.778 54.9972 232.241 54.301C233.361 54.5957 234.497 54.8263 235.644 54.9916H235.823L236.178 55.6871L235.819 55.8671ZM240.679 53.1823C240.776 53.989 240.807 54.8024 240.772 55.6142C240.087 55.319 239.371 55.1036 238.638 54.9722L238.837 54.7776C239.316 54.3044 239.716 53.7576 240.023 53.158L240.679 53.1823ZM237.068 55.1716C236.893 55.2883 236.718 55.4002 236.543 55.4974C236.465 55.3564 236.392 55.2153 236.319 55.0743L236.562 55.1083L237.068 55.1716ZM229.378 54.6852C229.239 54.902 229.076 55.1027 228.892 55.2834C228.892 55.2397 228.892 55.1959 228.892 55.1521C228.944 54.8732 229.011 54.5972 229.091 54.3253L229.378 54.6852ZM248.097 50.3078C248.095 51.5989 247.679 52.8552 246.911 53.8924C246.542 54.38 246.108 54.8153 245.623 55.1862C245.31 54.6819 244.896 54.2481 244.407 53.9119C243.65 53.4201 242.799 53.0891 241.909 52.9391C241.844 52.5531 241.75 52.1726 241.627 51.801C243.841 51.5567 246.02 51.0606 248.121 50.3224L248.097 50.3078ZM239.231 53.085C238.758 53.7413 238.195 54.3275 237.559 54.8262C237.248 54.7776 236.932 54.7387 236.616 54.6998L236.091 54.6268C235.95 54.3447 235.814 54.0626 235.678 53.7854L235.537 53.4984C236.09 53.3926 236.615 53.1723 237.078 52.8516C237.798 52.9735 238.525 53.0563 239.255 53.0996L239.231 53.085ZM235.08 53.5374C235.153 53.6784 235.221 53.8243 235.294 53.9702C235.367 54.1161 235.483 54.3593 235.58 54.5587C234.314 54.3704 233.061 54.1024 231.828 53.7562C231.234 52.7941 230.779 51.7527 230.477 50.6629L230.307 50.089C230.048 49.1474 229.735 48.2217 229.368 47.3166C229.422 47.2145 229.48 47.1124 229.543 47.0151C229.877 47.1982 230.202 47.3979 230.516 47.6133C230.554 47.662 230.593 47.7155 230.637 47.7641C230.637 48.5634 230.794 49.355 231.099 50.0938C231.813 51.8594 233.296 53.5374 235.075 53.5374H235.08ZM220.498 53.6979C220.309 53.8994 220.146 54.1232 220.012 54.3642C219.939 54.2231 219.861 54.087 219.783 53.9459C219.705 53.8049 219.565 53.5374 219.448 53.3331C219.623 53.3331 219.798 53.3331 219.973 53.3331H220.342L220.498 53.6979ZM229.65 54.1842C229.64 54.2162 229.627 54.2471 229.612 54.2766C229.509 54.1259 229.412 53.9654 229.32 53.7903C229.359 53.6735 229.403 53.5617 229.441 53.4449C229.544 53.6854 229.619 53.9367 229.665 54.194L229.65 54.1842ZM230.136 50.9985C230.405 51.8961 230.77 52.762 231.225 53.5811C230.909 53.4839 230.598 53.3817 230.287 53.2747C230.318 52.7504 230.233 52.2259 230.039 51.7378C230.117 51.5023 230.156 51.2561 230.156 51.0082L230.136 50.9985ZM220.979 53.2261L220.828 53.3574L220.794 53.2504L220.979 53.2261ZM216.604 52.8905C216.527 53.0115 216.455 53.1365 216.391 53.265C216.048 53.2594 215.706 53.2236 215.37 53.158C215.188 53.1193 215.009 53.0673 214.835 53.0023C214.932 52.6822 215.057 52.3713 215.209 52.0734C215.631 52.4321 216.113 52.7122 216.634 52.9002L216.604 52.8905ZM217.679 53.1872C217.414 53.2253 217.148 53.2496 216.881 53.2601C216.925 53.1823 216.974 53.1045 217.022 53.0315C217.248 53.0991 217.476 53.1543 217.708 53.1969L217.679 53.1872ZM229.791 52.4819C229.835 52.6947 229.855 52.9117 229.85 53.1288L229.728 53.0802C229.699 53.0218 229.67 52.9634 229.636 52.9051L229.791 52.4819ZM234.025 51.5092C234.322 52.0247 234.594 52.5549 234.861 53.0899C233.374 52.9586 232.124 51.4751 231.497 49.9236C231.286 49.4019 231.147 48.8537 231.084 48.2943C231.674 49.0281 232.344 49.6937 233.082 50.2787C233.111 50.3419 233.14 50.4002 233.174 50.4586C233.398 50.8684 233.697 51.2329 234.054 51.5335L234.025 51.5092ZM236.455 52.7105C236.125 52.8979 235.762 53.0217 235.386 53.0753H235.323C235.158 52.7348 234.987 52.3992 234.837 52.0636C235.035 52.1786 235.241 52.2794 235.454 52.3652C235.791 52.5155 236.138 52.6391 236.494 52.7348L236.455 52.7105ZM220.187 52.6716C219.861 52.7689 219.54 52.8467 219.239 52.9148C219.006 52.5174 218.735 52.1429 218.432 51.7961L218.364 51.7183C218.754 51.4387 219.169 51.1961 219.603 50.9936L219.744 51.2125C219.89 51.6989 220.036 52.1852 220.187 52.6716ZM218.024 51.981L218.116 52.0782C218.336 52.3356 218.539 52.6069 218.724 52.8905C218.248 52.8641 217.776 52.7908 217.314 52.6716C217.53 52.4222 217.767 52.1927 218.024 51.9858V51.981ZM241.214 51.8642C241.33 52.1955 241.419 52.5354 241.481 52.8807C241.35 52.8807 241.214 52.8418 241.083 52.8224C241.034 52.5111 240.976 52.2047 240.908 51.8934L241.214 51.8642ZM228.8 52.516C228.914 52.6136 229.019 52.7228 229.111 52.8418L228.873 52.7494L228.8 52.516ZM214.884 51.7572C214.702 52.1009 214.552 52.4607 214.437 52.8321C214.137 52.6862 213.857 52.5015 213.605 52.2825C213.562 51.9956 213.523 51.7037 213.494 51.4168C213.591 51.4648 213.697 51.496 213.805 51.5092C213.905 51.5177 214.005 51.4987 214.095 51.4541C214.185 51.4095 214.261 51.3411 214.315 51.2563L214.373 51.1736L214.247 50.7796C214.39 51.1023 214.58 51.4022 214.811 51.6697L214.884 51.7572ZM240.48 51.9518C240.543 52.2241 240.597 52.5014 240.64 52.7786L240.203 52.7397C240.307 52.4868 240.401 52.2241 240.485 51.9518H240.48ZM221.873 52.623C221.679 52.6716 221.484 52.7154 221.29 52.7543C222.261 52.3818 223.058 51.658 223.521 50.7261C223.607 50.5317 223.676 50.3298 223.725 50.123C223.991 50.4612 224.298 50.7651 224.639 51.0277C224.385 51.3361 224.085 51.6035 223.75 51.8205C223.134 52.007 222.539 52.2581 221.975 52.5695L221.873 52.623ZM239.945 51.9664C239.818 52.2148 239.679 52.4567 239.527 52.6911H239.488C238.861 52.6522 238.229 52.6084 237.602 52.516L237.967 52.2485L238.332 51.9761C238.847 51.9907 239.386 51.9907 239.95 51.9664H239.945ZM220.619 52.5306H220.585L220.551 52.4187C220.58 52.4625 220.605 52.4965 220.624 52.5306H220.619ZM217.703 51.6891C217.4 51.9432 217.125 52.2285 216.881 52.5403C216.342 52.3572 215.846 52.0659 215.423 51.6843C215.593 51.3909 215.783 51.1098 215.992 50.8428L216.075 50.7358C216.677 50.9484 217.234 51.2754 217.713 51.6989L217.703 51.6891ZM228.333 52.4625L228.304 52.5257C227.818 52.3214 227.356 52.1074 226.894 51.8788C227.366 51.9 227.83 52.0054 228.265 52.1901C228.299 52.2825 228.319 52.3701 228.343 52.4625H228.333ZM229.592 51.7913C229.524 52.0247 229.441 52.2776 229.359 52.4868C229.268 52.3755 229.165 52.2744 229.053 52.1852L228.931 52.0831C229.039 51.7356 229.115 51.3791 229.159 51.0179C229.336 51.258 229.484 51.5175 229.602 51.7913H229.592ZM237.675 51.9226C237.452 52.0928 237.228 52.2631 237.005 52.409C236.532 52.3203 236.069 52.1834 235.624 52.0004C235.172 51.8166 234.75 51.564 234.375 51.2514L234.229 50.9985C235.313 51.5218 236.485 51.8353 237.685 51.9226H237.675ZM223.327 49.875C223.287 50.1079 223.218 50.335 223.123 50.551C222.679 51.4025 221.928 52.053 221.023 52.3701C220.721 51.9275 220.425 51.48 220.128 51.0325L220.055 50.7893L220.303 50.6872C221.279 50.2976 222.297 50.025 223.336 49.875H223.327ZM213.032 51.0325C213.032 51.2611 213.066 51.4897 213.095 51.7183C212.926 51.4813 212.801 51.2161 212.726 50.9353C212.703 50.8554 212.685 50.7742 212.672 50.6921L212.784 50.658C212.853 50.7936 212.94 50.9195 213.042 51.0325H213.032ZM228.144 49.9966C228.144 50.1376 228.119 50.2738 228.114 50.4148C228.1 50.8426 228.124 51.2707 228.187 51.694C227.709 51.5332 227.209 51.4479 226.705 51.4411C226.488 51.4411 226.269 51.4411 226.049 51.4411C225.767 51.2933 225.492 51.131 225.227 50.9547C225.415 50.6543 225.555 50.326 225.64 49.982C225.64 49.9042 225.679 49.8263 225.694 49.7534C226.516 49.7591 227.336 49.8405 228.144 49.9966ZM228.78 50.5316C228.76 50.9091 228.703 51.2837 228.61 51.6502C228.551 51.2462 228.528 50.8376 228.542 50.4294C228.542 50.3857 228.542 50.337 228.542 50.2884C228.63 50.3662 228.707 50.4489 228.78 50.5316ZM225.305 51.5043C225.106 51.5043 224.906 51.5578 224.707 51.5919C224.804 51.4956 224.895 51.3933 224.979 51.2854L225.305 51.5043ZM240.159 51.5286C239.741 51.5513 239.338 51.5611 238.949 51.5578C239.329 51.3176 239.751 51.1525 240.193 51.0714H240.237C240.237 51.0714 240.237 51.1152 240.237 51.1395C240.237 51.2611 240.183 51.3827 240.154 51.4994C240.159 51.4897 240.159 51.5092 240.159 51.5286ZM240.091 50.6337C239.406 50.789 238.765 51.0965 238.215 51.5335C236.639 51.5058 235.099 51.0593 233.753 50.2397C233.622 50.0452 233.481 49.8555 233.335 49.6707C233.154 48.9359 233.07 48.1803 233.087 47.4236C233.08 46.7356 233.007 46.0499 232.868 45.376C233.341 45.2872 233.824 45.2708 234.302 45.3274C234.826 45.5141 235.335 45.7368 235.828 45.9937C236.774 46.4717 237.632 47.1065 238.366 47.8711C239.115 48.6692 239.698 49.6082 240.081 50.6337H240.091ZM241.063 51.4557H240.82L240.733 51.1541C240.735 51.1234 240.735 51.0925 240.733 51.0617C240.761 51.0715 240.787 51.0863 240.81 51.1055C240.92 51.1984 241.002 51.3195 241.049 51.4557H241.063ZM219.38 50.6386C218.919 50.8585 218.48 51.1206 218.067 51.4216C217.578 50.9788 217.009 50.6323 216.391 50.4003C216.877 49.9139 217.654 49.3302 218.417 49.6512C218.82 49.8847 219.148 50.2268 219.365 50.6386H219.38ZM248.106 49.8701L247.995 49.9139C245.893 50.6622 243.713 51.1649 241.496 51.4119C241.417 51.179 241.275 50.9722 241.088 50.8137C241.013 50.7595 240.931 50.7154 240.845 50.6823C240.864 50.5397 240.879 50.3986 240.888 50.2592C240.896 50.0268 240.885 49.7942 240.854 49.5637C240.873 48.7961 240.76 48.031 240.519 47.3021C240.101 46.1556 239.317 45.1792 238.288 44.5249C238.638 44.5249 238.993 44.4811 239.338 44.4568C242.341 44.9721 245.184 46.1756 247.645 47.9732C247.706 48.1192 247.764 48.2699 247.82 48.4256C247.975 48.8932 248.071 49.3785 248.106 49.8701ZM215.632 50.6045C215.444 50.8469 215.27 51.1002 215.112 51.3633C214.881 51.0875 214.697 50.7752 214.568 50.4392C214.927 50.4578 215.284 50.5132 215.632 50.6045ZM213.897 51.0909C213.88 51.0957 213.861 51.0957 213.844 51.0909C213.692 51.0604 213.555 50.9799 213.455 50.8623V50.5121L213.712 50.4781L213.897 51.0909ZM229.218 50.337C229.414 50.4254 229.572 50.5805 229.665 50.7748C229.708 50.8749 229.731 50.9821 229.733 51.0909C229.582 50.84 229.409 50.6025 229.218 50.3808V50.337ZM225.256 49.7339C225.251 49.777 225.242 49.8194 225.227 49.8604C225.156 50.1516 225.042 50.4304 224.887 50.6872C224.56 50.4308 224.268 50.1333 224.017 49.802C224.43 49.7534 224.843 49.7242 225.256 49.7193V49.7339ZM229.145 47.8614C229.451 48.625 229.689 49.4372 229.927 50.2397L229.996 50.4732C229.809 50.1886 229.534 49.9732 229.213 49.8604C229.213 49.7485 229.213 49.6415 229.179 49.5296C229.136 49.1475 229.053 48.771 228.931 48.4061C228.98 48.2067 229.062 48.0219 229.14 47.8468L229.145 47.8614ZM223.312 49.4616C222.23 49.6174 221.169 49.8998 220.153 50.303L219.949 50.3905L219.861 50.0987C219.776 49.8902 219.761 49.66 219.817 49.4421C219.934 49.1892 220.303 49.1065 220.648 49.0579C221.096 48.9995 221.557 48.9314 222.029 48.8779L222.16 48.9314L222.184 48.8633C222.486 48.8293 222.792 48.8049 223.098 48.7855C223.143 49.0137 223.215 49.2357 223.312 49.447V49.4616ZM217.965 49.1454C217.129 49.1454 216.381 49.7971 215.953 50.2641C215.465 50.1194 214.96 50.0393 214.451 50.0257C214.323 49.4054 214.319 48.7659 214.439 48.144C214.559 47.5221 214.801 46.9302 215.151 46.4023C215.742 45.9905 216.372 45.6385 217.032 45.3517L217.193 45.3225C217.532 45.9615 217.991 46.5294 218.544 46.9956C219.346 47.6423 220.243 48.1623 221.203 48.5374L220.59 48.6201C220.358 48.6199 220.13 48.6793 219.927 48.7925C219.725 48.9058 219.555 49.0692 219.433 49.267C219.345 49.4812 219.328 49.7184 219.385 49.9431C219.175 49.6517 218.893 49.419 218.568 49.267C218.373 49.1782 218.161 49.1318 217.946 49.1308L217.965 49.1454ZM240.436 49.5831C240.436 49.7971 240.436 50.0112 240.397 50.2349C240.003 49.2643 239.435 48.3742 238.72 47.6085C237.954 46.8163 237.06 46.1586 236.076 45.663C236.982 45.8641 237.84 46.239 238.604 46.767C239.55 47.4284 240.201 48.4338 240.417 49.5686L240.436 49.5831ZM213.085 48.6493C213.085 48.732 213.085 48.8147 213.085 48.8925C213.051 49.3059 213.042 49.7145 213.042 50.123L212.769 49.5588C212.829 49.2394 212.928 48.9289 213.066 48.6347L213.085 48.6493ZM213.571 50.0695H213.44C213.44 49.9333 213.44 49.7923 213.44 49.6561L213.571 50.0695ZM214.325 47.0589C213.924 47.9884 213.812 49.0172 214.004 50.0112L213.518 48.552C213.546 48.2908 213.594 48.0322 213.664 47.7787C213.732 47.6912 213.81 47.6036 213.887 47.5161C213.965 47.4285 214.164 47.1853 214.315 47.0443L214.325 47.0589ZM228.707 49.2281C228.707 49.3448 228.746 49.4616 228.761 49.5831V49.7145L228.625 49.6804C228.641 49.5236 228.665 49.3677 228.698 49.2135L228.707 49.2281ZM248.291 48.4985C248.549 48.7466 248.831 49.1065 248.699 49.4275C248.661 49.5197 248.597 49.599 248.515 49.6561C248.476 49.2641 248.401 48.8766 248.291 48.4985ZM225.733 48.8925C226.115 48.9655 226.49 49.0696 226.856 49.2038C227.021 49.267 227.186 49.3448 227.342 49.4275C226.806 49.3546 226.268 49.3107 225.728 49.2962C225.739 49.1619 225.741 49.027 225.733 48.8925ZM225.315 49.2913C224.829 49.2913 224.313 49.3254 223.818 49.3789C223.821 49.166 223.809 48.9531 223.784 48.7417C224.29 48.7326 224.797 48.7602 225.3 48.8244C225.315 48.9796 225.32 49.1355 225.315 49.2913ZM228.494 48.3964C228.398 48.6828 228.322 48.9753 228.265 49.2719L228.148 49.1162C227.948 48.8196 227.815 48.4823 227.759 48.1283C227.704 47.7743 227.727 47.4125 227.828 47.0686C228.102 47.4828 228.326 47.9286 228.494 48.3964ZM212.939 48.0559C212.753 48.3456 212.599 48.6556 212.483 48.98L211.676 47.3264C211.333 46.7298 211.125 46.066 211.063 45.3809C211.063 43.3235 213.703 42.3362 214.84 42.0055C215.593 41.7719 216.368 41.6203 217.154 41.5531C216.879 42.0901 216.728 42.6817 216.711 43.2846C216.701 43.612 216.735 43.9393 216.813 44.2574C216.556 44.4015 216.309 44.5641 216.075 44.7437L215.175 44.8021C214.291 44.8605 213.071 45.055 212.701 46.0229C212.544 46.5934 212.592 47.2013 212.837 47.7398L212.939 48.0559ZM232.479 45.5073C232.593 46.1363 232.647 46.7747 232.64 47.4139C232.645 47.9308 232.678 48.4471 232.737 48.9606C232.242 48.4219 231.695 47.9332 231.104 47.5015C231.116 47.1723 231.199 46.8496 231.347 46.5551C231.494 46.2606 231.703 46.0012 231.959 45.7943C232.119 45.6753 232.294 45.5788 232.479 45.5073ZM227.521 46.6455C227.257 47.346 227.257 48.119 227.521 48.8195C226.808 48.5508 226.122 48.2119 225.475 47.8079C225.246 47.2644 224.916 46.7693 224.503 46.3488C224.85 46.0498 225.236 45.7995 225.65 45.6046C226 45.6824 226.365 45.7797 226.729 45.8867C227.017 46.1136 227.282 46.3677 227.521 46.6455ZM225.684 48.4158L225.767 48.4645H225.689L225.684 48.4158ZM223.079 48.3429C222.748 48.3429 222.423 48.3964 222.107 48.4304C220.92 48.0293 219.811 47.429 218.826 46.6552C218.353 46.2527 217.955 45.7704 217.649 45.2301C219.182 44.91 220.768 44.9617 222.277 45.3809C222.398 45.6581 222.515 45.9451 222.632 46.232C222.821 46.7184 223.011 47.2048 223.152 47.6912C223.111 47.8619 223.089 48.0362 223.084 48.2116L223.079 48.3429ZM225.145 48.0754C225.183 48.1775 225.213 48.2797 225.242 48.3818C224.743 48.3252 224.241 48.3024 223.74 48.3137C223.701 48.1046 223.647 47.8906 223.589 47.6766C223.666 47.4161 223.784 47.1697 223.939 46.947C224.276 47.38 224.676 47.7603 225.125 48.0754H225.145ZM237.496 44.5249C238.718 45.1189 239.661 46.1655 240.125 47.4431C240.184 47.602 240.233 47.7645 240.271 47.9295C239.906 47.3284 239.423 46.8074 238.852 46.3974C237.616 45.57 236.192 45.0681 234.71 44.9383L234.438 44.9091C233.833 44.6995 233.212 44.5369 232.581 44.4227L232.552 44.3692C232.794 44.2575 233.044 44.1648 233.301 44.092C233.447 44.0482 233.597 44.0142 233.748 43.985H234.326C235.333 44.3623 236.402 44.5455 237.476 44.5249H237.496ZM228.921 47.3215C228.844 47.4772 228.771 47.6328 228.703 47.8079C228.512 47.3696 228.27 46.955 227.983 46.5725C228.017 46.4947 228.056 46.4217 228.095 46.3439L228.489 46.5093C228.648 46.7718 228.792 47.043 228.921 47.3215ZM213.265 47.5452C213.248 47.5689 213.231 47.5916 213.212 47.6133C213.008 47.1687 212.959 46.6691 213.071 46.1931C213.353 45.449 214.407 45.2933 215.175 45.2204H215.516L215.37 45.376C214.665 45.6329 214.057 46.1019 213.63 46.7184C213.472 46.9764 213.349 47.2545 213.265 47.5452ZM232.372 45.1134C231.931 45.2695 231.542 45.5464 231.25 45.9127C230.958 46.2789 230.774 46.7199 230.72 47.1853C230.496 46.913 230.268 46.6357 230.034 46.3634C230.52 45.7253 231.116 45.18 231.794 44.7535C231.95 44.7535 232.11 44.7972 232.28 44.8264C232.304 44.8897 232.338 44.9967 232.382 45.0939L232.372 45.1134ZM241.554 44.3352C242.315 44.3201 243.074 44.4118 243.81 44.6076C245.199 45.0168 246.396 45.9106 247.183 47.127C245.268 45.8381 243.14 44.8979 240.898 44.3498C241.115 44.3271 241.334 44.3157 241.554 44.3157V44.3352ZM224.197 46.6211C224.338 46.7737 224.468 46.9363 224.586 47.1075C224.443 46.956 224.313 46.7934 224.197 46.6211ZM223.667 46.592C223.555 46.7455 223.456 46.9082 223.37 47.0783C223.254 46.7525 223.132 46.4314 223.001 46.1056L222.811 45.6192C223.004 45.7107 223.191 45.8147 223.37 45.9305C223.447 46.1539 223.547 46.369 223.667 46.5725V46.592ZM229.189 46.8351V46.8643L229.164 46.8108L229.189 46.8351ZM229.466 46.3488C229.441 46.3828 229.417 46.4169 229.398 46.4509C229.184 46.3439 228.975 46.2418 228.766 46.1494C228.669 45.9937 228.571 45.8478 228.464 45.7068C228.523 45.6338 228.586 45.5608 228.649 45.4928C228.955 45.7748 229.228 46.0667 229.466 46.3488ZM227.677 46.1591L227.648 46.125L227.677 46.1591ZM231.109 44.6562C230.589 45.0403 230.125 45.4936 229.728 46.0034C229.48 45.7262 229.242 45.4587 228.96 45.2009C229.007 45.161 229.055 45.1236 229.106 45.0891C229.35 44.9009 229.612 44.738 229.889 44.6027C230.304 44.6025 230.72 44.6253 231.133 44.6708L231.109 44.6562ZM224.984 45.4101C224.696 45.5811 224.425 45.7781 224.172 45.9986C224.026 45.8676 223.872 45.7457 223.711 45.6338C223.672 45.4879 223.638 45.342 223.613 45.1961C223.91 45.235 224.202 45.2739 224.493 45.3225L224.984 45.4101ZM227.935 45.7165L227.891 45.7846C227.56 45.663 227.24 45.5511 226.919 45.4538C226.802 45.3566 226.681 45.2642 226.554 45.1766H226.598C226.797 45.1134 227.001 45.055 227.206 45.0015C227.481 45.2184 227.733 45.4628 227.959 45.7311L227.935 45.7165ZM228.333 45.2301L228.197 45.3906C228.048 45.2164 227.885 45.0539 227.711 44.9042L227.871 44.8702C228.05 44.9772 228.212 45.0939 228.357 45.2204L228.333 45.2301ZM223.176 45.1717C223.176 45.2301 223.176 45.2836 223.176 45.342C223.072 45.2842 222.965 45.2323 222.855 45.1863L222.739 45.1328L223.176 45.1717ZM226.758 44.6854L226.472 44.7729C226.166 44.8672 225.868 44.9809 225.577 45.1134C225.227 45.0356 224.887 44.9723 224.561 44.9188C224.236 44.8653 223.905 44.8167 223.589 44.7778C223.582 44.5456 223.605 44.3135 223.657 44.0871C223.672 44.0093 223.693 43.9329 223.72 43.8585C224.798 43.8433 225.859 44.1296 226.783 44.6854H226.758ZM232.926 44.9432L232.756 44.9772C232.756 44.948 232.756 44.9237 232.756 44.8994L232.926 44.9432ZM228.931 44.7L228.853 44.7583L228.644 44.9237L228.45 44.7583C228.635 44.7389 228.795 44.7146 228.955 44.7H228.931ZM223.264 43.8585C223.249 43.9032 223.238 43.9487 223.229 43.9947C223.177 44.2359 223.151 44.4822 223.152 44.7291L222.374 44.6659C222.257 44.4227 222.141 44.1795 222.014 43.9607C222.437 43.9034 222.862 43.8693 223.288 43.8585H223.264ZM216.886 44.7048H216.838L216.881 44.6756L216.886 44.7048ZM217.499 44.6708H217.338C217.309 44.5978 217.285 44.5249 217.261 44.4568C218.491 43.8488 219.832 43.4996 221.203 43.4305L221.329 43.6202C220.882 43.698 220.459 43.7953 220.065 43.8877C219.203 44.0977 218.354 44.3592 217.523 44.6708H217.499ZM221.562 44.0288C221.674 44.2233 221.781 44.4276 221.883 44.6367C220.94 44.5881 219.992 44.5832 219.049 44.6076C219.428 44.5006 219.798 44.4033 220.153 44.3206C220.668 44.199 221.139 44.1017 221.587 44.0288H221.562ZM227.395 44.5151H227.308C227.105 44.3653 226.893 44.2304 226.671 44.1115C226.826 44.186 226.988 44.2638 227.157 44.3449C227.24 44.4033 227.327 44.4665 227.419 44.5249L227.395 44.5151ZM229.791 44.2039C229.193 44.2276 228.597 44.2942 228.008 44.4033C227.797 44.2525 227.578 44.1145 227.351 43.9899C226.368 43.4792 225.295 43.1653 224.192 43.0658C224.318 42.9325 224.464 42.8193 224.624 42.7302C225.156 42.486 225.736 42.3678 226.321 42.3848C228.066 42.3119 230.243 42.5113 231.512 43.7126C230.928 43.8081 230.358 43.9764 229.816 44.2136L229.791 44.2039ZM231.896 44.1747L231.682 44.2963C231.478 44.2736 231.274 44.2541 231.07 44.2379C231.322 44.1795 231.556 44.1309 231.838 44.092L231.896 44.1747ZM220.887 43.0463C219.592 43.139 218.327 43.4774 217.159 44.0434C217.11 43.8017 217.087 43.5555 217.09 43.3089C217.115 42.6893 217.29 42.085 217.601 41.5483C218.284 41.538 218.96 41.6879 219.574 41.986C220.085 42.2439 220.537 42.6049 220.901 43.0463H220.887ZM233.524 43.5327C233.019 43.539 232.515 43.5715 232.013 43.6299C230.676 42.1173 228.226 41.8693 226.282 41.9471C225.633 41.9346 224.989 42.071 224.401 42.3459C224.108 42.5084 223.856 42.7345 223.662 43.0074C223.288 42.9831 222.943 42.9733 222.627 42.9685C222.202 42.9685 221.794 42.9782 221.402 42.9977C220.969 42.4108 220.409 41.9302 219.764 41.592C219.173 41.2981 218.527 41.1323 217.868 41.1057C218.267 40.557 218.761 40.0842 219.326 39.7098C221.066 38.5279 223.438 38.0269 226.389 38.2215C228.819 38.3771 230.457 39.0872 231.284 40.3323C231.478 40.6435 231.648 40.9686 231.794 41.3051C231.945 41.6664 232.125 42.0146 232.333 42.3459C232.647 42.8264 233.06 43.2343 233.544 43.5424L233.524 43.5327ZM223.317 43.4159C222.798 43.4264 222.28 43.4719 221.766 43.5521C221.737 43.5035 221.708 43.4548 221.674 43.4062C221.98 43.4062 222.291 43.4062 222.607 43.4062C222.86 43.4305 223.098 43.4305 223.351 43.4305L223.317 43.4159Z" fill="#EE684E"/>
<path d="M165.947 75.464L158.35 70.1881L160.996 67.5762L155.269 62.8186L158.123 60.0853L163.123 67.8102L160.542 69.8894L165.947 75.464Z" fill="#EE684E"/>
<path d="M168.41 72.0949L166.764 64.7989L169.097 64.7917L169.443 59.4838L171.937 59.4268L170.658 66.5525L168.378 65.9945L168.41 72.0949Z" fill="#EE684E"/>
<path d="M161.076 76.748L154.049 77.2957L154.351 74.7939L148.626 74.8567L148.323 72.0693L155.739 73.6396L155.324 75.8616L161.076 76.748Z" fill="#EE684E"/>
</svg>
