<svg width="150" height="30" viewBox="0 0 150 30" fill="none" xmlns="http://www.w3.org/2000/svg">
<path d="M35.6374 8.64258H49.3553V11.1611H43.954V25.3582H40.9935V11.1611H35.6148L35.6374 8.64258ZM48.7677 13.2561H51.2988V15.5963H51.344C51.4344 15.262 51.5926 14.9499 51.8186 14.6379C52.0446 14.3259 52.3158 14.0362 52.6548 13.791C52.9712 13.5235 53.3328 13.323 53.7396 13.1669C54.1238 13.0109 54.5306 12.9218 54.9374 12.9218C55.2537 12.9218 55.4797 12.9441 55.5927 12.9441C55.7057 12.9664 55.8413 12.9886 55.9543 12.9886V15.5517C55.7735 15.5071 55.5701 15.4848 55.3667 15.4626C55.1633 15.4403 54.9826 15.418 54.7792 15.418C54.3272 15.418 53.8978 15.5071 53.491 15.6854C53.0842 15.8637 52.7452 16.1312 52.4288 16.4655C52.135 16.8221 51.8864 17.2456 51.7056 17.7582C51.5248 18.2708 51.4344 18.8726 51.4344 19.5412V25.2914H48.7225L48.7677 13.2561ZM68.384 25.3582H65.7173V23.6644H65.6721C65.3331 24.2884 64.8359 24.7565 64.1805 25.1353C63.5252 25.5142 62.8472 25.6925 62.1692 25.6925C60.5646 25.6925 59.3895 25.3136 58.6663 24.5113C57.9431 23.7312 57.5815 22.5277 57.5815 20.9453V13.2561H60.2934V20.6778C60.2934 21.7476 60.4968 22.5054 60.9262 22.9289C61.333 23.3746 61.9206 23.5975 62.6664 23.5975C63.2314 23.5975 63.7059 23.5084 64.0901 23.3301C64.4743 23.1518 64.7907 22.9289 65.0167 22.6391C65.2653 22.3494 65.4235 21.9928 65.5365 21.5916C65.6495 21.1904 65.6947 20.7447 65.6947 20.2767V13.2561H68.4066V25.3582H68.384ZM72.9943 21.4802C73.0847 22.2603 73.3785 22.7952 73.8983 23.1295C74.4181 23.4415 75.0509 23.5975 75.7741 23.5975C76.0227 23.5975 76.3165 23.5752 76.6328 23.5306C76.9492 23.4861 77.2656 23.4192 77.5368 23.3078C77.8306 23.1963 78.0566 23.0403 78.2374 22.8174C78.4182 22.5946 78.5086 22.3271 78.486 21.9928C78.4634 21.6585 78.3504 21.3687 78.1018 21.1459C77.8532 20.923 77.5594 20.767 77.1978 20.611C76.8362 20.4773 76.4068 20.3658 75.9323 20.2767C75.4577 20.1875 74.9831 20.0761 74.4859 19.9646C73.9887 19.8532 73.4915 19.7195 73.0169 19.5635C72.5423 19.4075 72.1356 19.2069 71.7514 18.9171C71.3898 18.6497 71.0734 18.3154 70.87 17.8919C70.644 17.4684 70.531 16.9781 70.531 16.3541C70.531 15.6854 70.6892 15.1505 71.0282 14.7048C71.3446 14.259 71.774 13.9024 72.2711 13.635C72.7683 13.3675 73.3333 13.1669 73.9435 13.0555C74.5537 12.9441 75.1413 12.8995 75.6837 12.8995C76.3165 12.8995 76.9266 12.9664 77.4916 13.1001C78.0566 13.2338 78.599 13.4344 79.051 13.7464C79.5256 14.0362 79.9098 14.4373 80.2036 14.9054C80.52 15.3734 80.7007 15.9529 80.7911 16.6215H77.9662C77.8306 15.9752 77.5368 15.5517 77.0848 15.3288C76.6102 15.106 76.0905 14.9945 75.4803 14.9945C75.2995 14.9945 75.0509 15.0168 74.8023 15.0391C74.5311 15.0837 74.3051 15.1282 74.0565 15.2174C73.8305 15.3065 73.6271 15.4403 73.4689 15.5963C73.3107 15.7523 73.2203 15.9752 73.2203 16.2426C73.2203 16.5769 73.3333 16.8221 73.5593 17.0227C73.7853 17.2233 74.0791 17.3793 74.4633 17.5353C74.8249 17.669 75.2543 17.7805 75.7289 17.8696C76.2035 17.9588 76.7006 18.0702 77.1978 18.1816C77.695 18.2931 78.1696 18.4268 78.6442 18.5828C79.1188 18.7388 79.5482 18.9394 79.9098 19.2292C80.2714 19.4966 80.5878 19.8309 80.8137 20.2321C81.0397 20.6333 81.1527 21.1459 81.1527 21.7254C81.1527 22.4386 80.9945 23.0403 80.6555 23.5529C80.3166 24.0433 79.8872 24.4667 79.3674 24.7787C78.8476 25.0908 78.2374 25.3136 77.6046 25.4697C76.9492 25.6034 76.3165 25.6925 75.6837 25.6925C74.9153 25.6925 74.1921 25.6034 73.5367 25.4251C72.8813 25.2468 72.2937 24.9793 71.8192 24.645C71.3446 24.2884 70.9604 23.865 70.6892 23.3301C70.418 22.8174 70.2598 22.1934 70.2372 21.4579H72.9717V21.4802H72.9943ZM81.9211 13.2561H83.9777V9.60094H86.6896V13.2338H89.1304V15.2174H86.6896V21.6808C86.6896 21.9705 86.7122 22.1934 86.7348 22.4163C86.7574 22.6169 86.8252 22.7952 86.893 22.9289C86.9834 23.0626 87.119 23.174 87.2772 23.2409C87.458 23.3078 87.684 23.3523 88.0004 23.3523C88.1812 23.3523 88.3846 23.3523 88.5654 23.3301C88.7462 23.3078 88.9496 23.2855 89.1304 23.2409V25.3136C88.8366 25.3582 88.5428 25.3805 88.249 25.4028C87.9552 25.4474 87.684 25.4474 87.3676 25.4474C86.6444 25.4474 86.0794 25.3805 85.65 25.2468C85.2206 25.1131 84.8817 24.9125 84.6331 24.6673C84.3845 24.3999 84.2263 24.0878 84.1359 23.7089C84.0455 23.3301 84.0003 22.862 83.9777 22.3717V15.2397H81.9211V13.2115V13.2561ZM91.0287 13.2561H93.5825V14.9054H93.6276C94.0118 14.1922 94.5316 13.7018 95.2096 13.3898C95.8876 13.0778 96.6108 12.9218 97.4244 12.9218C98.3961 12.9218 99.2323 13.0778 99.9555 13.4344C100.679 13.7687 101.266 14.2145 101.741 14.8162C102.215 15.3957 102.577 16.0866 102.803 16.8667C103.029 17.6467 103.165 18.4937 103.165 19.3629C103.165 20.1875 103.052 20.9676 102.848 21.7254C102.622 22.4831 102.306 23.174 101.876 23.7535C101.447 24.333 100.905 24.801 100.227 25.1576C99.5487 25.5142 98.7803 25.6925 97.8764 25.6925C97.4922 25.6925 97.0854 25.648 96.7012 25.5811C96.317 25.5142 95.9328 25.4028 95.5712 25.2468C95.2096 25.0908 94.8706 24.8902 94.5768 24.645C94.2604 24.3999 94.0118 24.1101 93.8084 23.7981H93.7632V29.838H91.0513V13.2561H91.0287ZM100.498 19.3183C100.498 18.7834 100.43 18.2485 100.272 17.7359C100.136 17.2233 99.9103 16.7775 99.6165 16.3763C99.3227 15.9752 98.9611 15.6631 98.5543 15.418C98.1249 15.1728 97.6278 15.0614 97.0854 15.0614C95.9554 15.0614 95.0966 15.4403 94.509 16.2203C93.944 17.0004 93.6502 18.0479 93.6502 19.3406C93.6502 19.9646 93.718 20.5218 93.8762 21.0344C94.0344 21.547 94.2378 21.9928 94.5542 22.3717C94.848 22.7506 95.2096 23.0403 95.639 23.2632C96.0684 23.4861 96.543 23.5975 97.108 23.5975C97.7408 23.5975 98.2379 23.4638 98.6673 23.2186C99.0967 22.9735 99.4357 22.6391 99.7295 22.2603C100.001 21.8591 100.204 21.4133 100.317 20.9007C100.43 20.3658 100.498 19.8532 100.498 19.3183ZM105.266 8.64258H107.978V11.1611H105.266V8.64258ZM105.266 13.2561H107.978V25.3582H105.266V13.2561ZM110.396 8.64258H113.108V25.3582H110.396V8.64258ZM121.38 25.6925C120.408 25.6925 119.527 25.5365 118.758 25.2022C117.99 24.8679 117.357 24.4444 116.815 23.8872C116.295 23.3301 115.888 22.6391 115.617 21.8591C115.346 21.079 115.188 20.2098 115.188 19.296C115.188 18.3822 115.323 17.5353 115.617 16.7552C115.888 15.9752 116.295 15.3065 116.815 14.7271C117.334 14.1699 117.99 13.7241 118.758 13.4121C119.527 13.1001 120.408 12.9218 121.38 12.9218C122.352 12.9218 123.233 13.0778 124.001 13.4121C124.77 13.7241 125.402 14.1699 125.945 14.7271C126.465 15.2843 126.871 15.9752 127.143 16.7552C127.414 17.5353 127.572 18.3822 127.572 19.296C127.572 20.2321 127.436 21.079 127.143 21.8591C126.849 22.6391 126.465 23.3078 125.945 23.8872C125.425 24.4444 124.77 24.8902 124.001 25.2022C123.233 25.5142 122.374 25.6925 121.38 25.6925ZM121.38 23.5752C121.967 23.5752 122.51 23.4415 122.939 23.1963C123.391 22.9512 123.73 22.6169 124.024 22.2157C124.318 21.8145 124.521 21.3465 124.657 20.8561C124.792 20.3435 124.86 19.8309 124.86 19.296C124.86 18.7834 124.792 18.2708 124.657 17.7582C124.521 17.2456 124.318 16.7998 124.024 16.3986C123.73 15.9975 123.369 15.6854 122.939 15.4403C122.487 15.1951 121.967 15.0614 121.38 15.0614C120.792 15.0614 120.25 15.1951 119.82 15.4403C119.368 15.6854 119.029 16.0197 118.736 16.3986C118.442 16.7998 118.238 17.2456 118.103 17.7582C117.967 18.2708 117.899 18.7834 117.899 19.296C117.899 19.8309 117.967 20.3435 118.103 20.8561C118.238 21.3688 118.442 21.8145 118.736 22.2157C119.029 22.6169 119.391 22.9512 119.82 23.1963C120.272 23.4638 120.792 23.5752 121.38 23.5752ZM128.386 13.2561H130.442V9.60094H133.154V13.2338H135.595V15.2174H133.154V21.6808C133.154 21.9705 133.177 22.1934 133.199 22.4163C133.222 22.6169 133.29 22.7952 133.358 22.9289C133.448 23.0626 133.584 23.174 133.742 23.2409C133.923 23.3078 134.148 23.3523 134.465 23.3523C134.646 23.3523 134.849 23.3523 135.03 23.3301C135.211 23.3078 135.414 23.2855 135.595 23.2409V25.3136C135.301 25.3582 135.007 25.3805 134.713 25.4028C134.42 25.4474 134.148 25.4474 133.832 25.4474C133.109 25.4474 132.544 25.3805 132.115 25.2468C131.685 25.1131 131.346 24.9125 131.098 24.6673C130.849 24.3999 130.691 24.0878 130.6 23.7089C130.51 23.3301 130.465 22.862 130.442 22.3717V15.2397H128.386V13.2115V13.2561Z" fill="black"/>
<path d="M30.9343 12.082H19.116L15.4779 1L11.8183 12.082L0 12.0608L9.55799 18.918L5.8984 30L15.4564 23.1427L25.0144 30L21.3763 18.918L30.9343 12.082Z" fill="#00B67B"/>
<path d="M22.1948 21.4236L21.3767 18.9185L15.4783 23.1432L22.1948 21.4236Z" fill="#005128"/>
</svg>
