<svg width="50" height="18" viewBox="0 0 50 18" fill="none" xmlns="http://www.w3.org/2000/svg">
<g opacity="0.5">
<path d="M20.823 1.02271L17.4212 17.0178H21.5445L24.8432 1.02271H20.823Z" fill="#E1EDF8"/>
<path d="M14.844 1.02271L10.6176 11.8615L8.86516 2.60117C8.659 1.54887 7.83433 1.02271 7.00966 1.02271H0.103083L0 1.44363C1.44317 1.75933 2.98942 2.28548 4.02025 2.81164C4.63875 3.12733 4.74183 3.44302 4.948 4.17964L8.14358 16.9126H12.4731L19.0704 0.91748H14.844V1.02271Z" fill="#E1EDF8"/>
<path fill-rule="evenodd" clip-rule="evenodd" d="M43.398 1.02271H46.9028L49.9953 17.0178H46.2843L45.7689 14.5975H40.6147L39.7901 17.0178H35.5637L41.6456 2.18024C41.9548 1.44363 42.5733 1.02271 43.398 1.02271ZM44.1197 5.33743L41.955 11.3356H45.3567L44.1197 5.33743Z" fill="#E1EDF8"/>
<path d="M30.2033 5.44242C30.2033 4.91627 30.7187 4.28488 31.9557 4.07442C32.5742 3.96919 34.1204 3.96919 35.9759 4.81104L36.6975 1.44365C35.7698 1.12795 34.4297 0.707031 32.8834 0.707031C28.8632 0.707031 26.0799 2.91688 26.0799 5.96858C26.0799 8.28365 28.1416 9.54642 29.5848 10.283C31.131 11.0197 31.6464 11.5458 31.6464 12.2824C31.6464 13.3347 30.4094 13.8609 29.1724 13.8609C27.1108 13.8609 25.9768 13.3347 25.0491 12.8086L24.3275 16.2812C25.2553 16.7021 27.0077 17.123 28.8632 17.123C33.0896 17.123 35.8728 15.0184 35.8728 11.651C35.8728 7.65227 30.1002 7.33658 30.2033 5.44242Z" fill="#E1EDF8"/>
</g>
</svg>
